<?xml version="1.0" encoding="utf-8"?>
<!-- Generator: Adobe Illustrator 19.1.0, SVG Export Plug-In . SVG Version: 6.00 Build 0)  -->
<svg version="1.1" id="Layer_1" xmlns="http://www.w3.org/2000/svg" xmlns:xlink="http://www.w3.org/1999/xlink" x="0px" y="0px"
	 viewBox="0 0 224.4 214.5" enable-background="new 0 0 224.4 214.5" xml:space="preserve">
<g>
	<path fill="#E2E4E9" d="M141.7,92.8c0,67.8-62.1,104.9-119.2,120c0,0-18.9,5.9-21.8-4c-1.8-6.3-0.4-12,7.1-16.7
		c2.9-1.8,5.4-2.9,5.4-2.9c36.4-15.7,56.4-42.1,56.4-74.2c0-25.7-19.3-44.3-45-51.4c-3.6-0.7-10-8.6-10-25.7
		C14.6,14.3,35.3,0,58.2,0C93.9,0,141.7,35,141.7,92.8z"/>
	<path fill="#E2E4E9" d="M224.4,119.9c0,50.3-46.1,77.9-88.5,89c0,0-14,4.4-16.1-2.9c-1.4-4.7-0.3-8.9,5.2-12.4c2.2-1.4,4-2.2,4-2.2
		c27-11.6,41.8-31.3,41.8-55.1c0-19.1-14.3-32.8-33.4-38.1c-2.6-0.5-7.4-6.3-7.4-19.1c0-17.5,15.4-28.1,32.3-28.1
		C188.9,51,224.4,77,224.4,119.9z"/>
</g>
</svg>
