<?xml version="1.0" encoding="utf-8"?>
<!-- Generator: Adobe Illustrator 19.1.0, SVG Export Plug-In . SVG Version: 6.00 Build 0)  -->
<svg version="1.1" id="Layer_1" xmlns="http://www.w3.org/2000/svg" xmlns:xlink="http://www.w3.org/1999/xlink" x="0px" y="0px"
	 viewBox="0 0 114.7 109.6" enable-background="new 0 0 114.7 109.6" xml:space="preserve">
<path fill="#E2E4E9" d="M42.2,62.2c0-34.7,31.7-53.6,60.9-61.3c0,0,9.6-3,11.1,2c0.9,3.2,0.2,6.1-3.6,8.5c-1.5,0.9-2.8,1.5-2.8,1.5
	c-18.6,8-28.8,21.5-28.8,37.9c0,13.1,9.8,22.6,23,26.3c1.8,0.4,5.1,4.4,5.1,13.1c0,12-10.6,19.3-22.3,19.3
	C66.7,109.6,42.2,91.7,42.2,62.2z"/>
<path fill="#E2E4E9" d="M0,48.3C0,22.6,23.5,8.6,45.2,2.9c0,0,7.2-2.2,8.2,1.5c0.7,2.4,0.2,4.5-2.7,6.3c-1.1,0.7-2.1,1.1-2.1,1.1
	c-13.8,6-21.4,16-21.4,28.1c0,9.7,7.3,16.8,17.1,19.5c1.4,0.3,3.8,3.2,3.8,9.7c0,8.9-7.8,14.3-16.5,14.3C18.1,83.5,0,70.3,0,48.3z"
	/>
</svg>
