<?xml version="1.0" encoding="utf-8"?>
<!-- Generator: Adobe Illustrator 19.1.0, SVG Export Plug-In . SVG Version: 6.00 Build 0)  -->
<svg version="1.1" id="Layer_1" xmlns="http://www.w3.org/2000/svg" xmlns:xlink="http://www.w3.org/1999/xlink" x="0px" y="0px"
	 viewBox="-176.6 226.8 90.5 89.1" enable-background="new -176.6 226.8 90.5 89.1" xml:space="preserve">
<g>
	<path fill="#162C53" d="M-161.2,295c0,0,0,17.3-15,20.6c0,0,26.2,4,32.8-16.7S-161.2,295-161.2,295z"/>
	<g>
		<circle fill="#162C53" cx="-129.6" cy="269.9" r="43.1"/>
		<g>
			<g enable-background="new    ">
				<path fill="#FFFFFF" d="M-142.1,278.2c-0.1,2.7-0.8,4.8-2,6.4s-2.7,2.3-4.6,2.3c-2.7,0-4.8-1.5-6.5-4.4
					c-1.6-2.9-2.4-7.2-2.4-12.8s0.8-9.9,2.4-12.9c1.6-3,3.6-4.5,6.1-4.5c1,0,2.2,0.3,3.4,1c0.2,0.1,0.3,0.1,0.4,0.1
					c0.1,0,0.2-0.1,0.4-0.3c0.1-0.1,0.2-0.2,0.4-0.2h1.2c0.3,0,0.4,0.2,0.4,0.6v7.1c0,0.4-0.1,0.6-0.4,0.6h-1
					c-0.3,0-0.5-0.1-0.6-0.2c-0.1-0.1-0.3-0.6-0.4-1.3c-0.9-3.3-2-5-3.5-5c-0.9,0-1.5,0.4-2,1.3c-0.5,0.9-0.8,2.5-1.1,4.9
					c-0.2,2.4-0.4,4.9-0.4,7.3c0,5.4,0.3,9.4,0.9,11.9c0.6,2.5,1.7,3.8,3.2,3.8c1.8,0,3-2,3.6-6.1L-142.1,278.2z"/>
				<path fill="#FFFFFF" d="M-135.4,269.8v13.5c0,0.5,0.2,0.9,0.5,1.3c0.2,0.2,0.2,0.3,0.2,0.4v1.2c0,0.2-0.1,0.3-0.3,0.3h-5.4
					c-0.2,0-0.3-0.1-0.3-0.3V285c0-0.1,0.1-0.2,0.3-0.4c0.5-0.4,0.7-0.9,0.7-1.5v-26.5c0-0.8-0.3-1.3-0.9-1.6
					c-0.3-0.1-0.4-0.3-0.4-0.6v-1.1c0-0.3,0.2-0.4,0.5-0.4l5.1-0.2v14.8c1.4-1.2,2.7-1.8,4-1.8c2.4,0,3.6,1.4,3.6,4.3v13.4
					c0,0.4,0.2,0.9,0.6,1.4c0.2,0.2,0.3,0.4,0.3,0.5v0.9c0,0.2-0.1,0.3-0.3,0.3h-5.5c-0.2,0-0.3-0.1-0.3-0.3V285
					c0-0.1,0.1-0.2,0.2-0.3c0.4-0.3,0.6-0.7,0.6-1.1v-13.4c0-1-0.4-1.6-1.3-1.6C-134.2,268.6-134.8,269-135.4,269.8z"/>
				<path fill="#FFFFFF" d="M-118.2,273.4v-3c0-1.8-0.7-2.7-2.1-2.7c-0.5,0-0.7,0.2-0.7,0.5c0,0.1,0,0.3,0.1,0.5
					c0.2,0.4,0.3,0.8,0.3,1.1c0,0.6-0.2,1-0.5,1.4c-0.4,0.4-0.9,0.6-1.5,0.6c-0.7,0-1.3-0.2-1.7-0.6s-0.6-1-0.6-1.7
					c0-1.1,0.5-2.1,1.5-2.8s2.2-1.1,3.5-1.1c1.9,0,3.4,0.5,4.4,1.5s1.6,2.5,1.6,4.3v10.8c0,0.6,0.1,1,0.2,1.4
					c0.1,0.3,0.4,0.5,0.8,0.6c0.3,0.1,0.5,0.3,0.5,0.6v0.9c0,0.8-0.6,1.1-1.8,1.1c-1.6,0-2.7-0.8-3.3-2.3c-1.4,1.6-2.7,2.4-4,2.4
					c-1.2,0-2.2-0.5-3-1.5c-0.8-1-1.2-2.3-1.2-3.9C-125.7,277.4-123.2,274.7-118.2,273.4z M-118.2,275.7c-2,0.8-3.1,2.4-3.1,5
					c0,2,0.5,3,1.6,3c0.5,0,0.8-0.2,1.1-0.7c0.3-0.5,0.4-1,0.4-1.5V275.7z"/>
				<path fill="#FFFFFF" d="M-110.7,268.4h-0.8c-0.3,0-0.5-0.1-0.5-0.4v-1.1c0-0.3,0.2-0.6,0.5-0.8c0.4-0.3,0.7-0.6,0.8-1
					s0.2-1,0.2-1.9v-3.6c0-0.3,0.2-0.5,0.7-0.6l2.6-0.3c0.2,0,0.4,0,0.5,0c0.2,0,0.3,0.2,0.3,0.5v6.9h2.2c0.4,0,0.6,0.2,0.6,0.5v1.3
					c0,0.3-0.2,0.5-0.5,0.5h-2.3v13.2c0,1.4,0.4,2.1,1.3,2.1c0.2,0,0.4,0,0.7-0.1c0.2,0,0.3-0.1,0.4-0.1c0.3,0,0.4,0.1,0.5,0.3
					l0.3,1c0,0.1,0.1,0.2,0.1,0.2c0,0.3-0.5,0.7-1.4,1.2c-1,0.5-1.9,0.7-2.7,0.7c-2.3,0-3.4-1.4-3.4-4.2L-110.7,268.4L-110.7,268.4z
					"/>
			</g>
		</g>
	</g>
</g>
</svg>
