<?xml version="1.0" encoding="utf-8"?>
<!-- Generator: Adobe Illustrator 19.2.1, SVG Export Plug-In . SVG Version: 6.00 Build 0)  -->
<svg version="1.1" id="Layer_1" xmlns="http://www.w3.org/2000/svg" xmlns:xlink="http://www.w3.org/1999/xlink" x="0px" y="0px"
	 viewBox="0 0 111.1 53.3" style="enable-background:new 0 0 111.1 53.3;" xml:space="preserve">
<style type="text/css">
	.st0{fill:#162D53;}
</style>
<path class="st0" d="M111.1,2.4L111.1,2.4c0-1.4-1.1-2.4-2.4-2.4H2.4C1.1,0,0,1.1,0,2.4V12h0v38.9c0,1.3,1.1,2.4,2.4,2.4h2.5h101.2
	h2.5c1.3,0,2.4-1.1,2.4-2.4L111.1,2.4C111.1,2.4,111.1,2.4,111.1,2.4z M33.2,16.4L7.9,3.2H103l-13.9,7.3L55.5,28.2L33.2,16.4z
	 M3.9,48.7L3.9,48.7c-0.3,0.2-0.5,0.3-0.7,0.5V4.3l0.6,0.3c0,0,0,0,0,0l45.3,23.9L3.9,48.7z M8.6,50.1l44.2-19.7l1.6,0.9
	c0.7,0.4,1.6,0.4,2.3,0l1.6-0.9l44.2,19.8H8.6z M107.3,48.8L61.9,28.5l45.3-23.9c0,0,0,0,0,0l0.6-0.3V12h0v37.2
	C107.7,49,107.5,48.9,107.3,48.8z"/>
</svg>
