<?xml version="1.0" encoding="utf-8"?>
<!-- Generator: Adobe Illustrator 19.1.0, SVG Export Plug-In . SVG Version: 6.00 Build 0)  -->
<svg version="1.1" id="Layer_1" xmlns="http://www.w3.org/2000/svg" xmlns:xlink="http://www.w3.org/1999/xlink" x="0px" y="0px"
	 viewBox="-261 241 197 59" enable-background="new -261 241 197 59" xml:space="preserve">
<g>
	<path fill="#162C53" d="M-93.6,241h-137.8c-16.3,0-29.6,13.1-29.6,29.5s13.3,29.5,29.6,29.5h92.5h44.5h0.8
		c16.4,0,29.6-13.1,29.6-29.5S-77.3,241-93.6,241z"/>
	<path fill="#06193A" d="M-100.4,261.9C-100.4,261.9-100.3,262-100.4,261.9C-100.3,262-100.4,261.9-100.4,261.9z"/>
	<path fill="#06193A" d="M-99.4,262.9L-99.4,262.9L-99.4,262.9z"/>
	<path fill="#06193A" d="M-101.2,261.1L-101.2,261.1L-101.2,261.1z"/>
	<path fill="#06193A" d="M-89.1,286.2c-0.5,0.1-1.1,0.3-1.6,0.3C-90.2,286.5-89.7,286.4-89.1,286.2z"/>
	<path fill="#06193A" d="M-99,263.3C-99,263.3-98.9,263.4-99,263.3C-98.9,263.4-99,263.3-99,263.3z"/>
	<path fill="#06193A" d="M-100.8,261.5L-100.8,261.5L-100.8,261.5z"/>
	<path fill="#06193A" d="M-101.6,260.7C-101.6,260.8-101.5,260.8-101.6,260.7C-101.5,260.8-101.6,260.8-101.6,260.7z"/>
	<path fill="#06193A" d="M-84.7,279.5c0,0-0.1,0-0.1,0.1C-84.8,279.6-84.7,279.6-84.7,279.5c0.5-0.4,0.7-0.8,0.6-1.1
		C-84,278.8-84.2,279.2-84.7,279.5z"/>
	<path fill="#06193A" d="M-93.8,275.5c-0.1,0-0.3,0-0.4-0.1C-94.1,275.4-93.9,275.4-93.8,275.5z"/>
	<path fill="#06193A" d="M-84.9,279.7l-0.1,0.1C-85,279.7-84.9,279.7-84.9,279.7z"/>
	<path fill="#06193A" d="M-85.6,276.7c0.2,0.2,0.3,0.3,0.5,0.4C-85.2,277-85.4,276.8-85.6,276.7z"/>
	<path fill="#06193A" d="M-85,277.2c0.1,0.1,0.2,0.2,0.3,0.3C-84.8,277.4-84.9,277.3-85,277.2z"/>
	<path fill="#06193A" d="M-84.2,278.1c0.1,0.1,0.1,0.2,0.1,0.3C-84.1,278.3-84.2,278.2-84.2,278.1z"/>
	<path fill="#06193A" d="M-84.6,277.6c0.1,0.1,0.2,0.2,0.2,0.2C-84.5,277.8-84.5,277.7-84.6,277.6z"/>
	<path fill="#06193A" d="M-78.3,277.6c-0.2,0.3-0.3,0.6-0.5,0.9C-78.6,278.2-78.4,277.9-78.3,277.6z"/>
	<path fill="#06193A" d="M-76.6,273c0,0.2-0.1,0.5-0.2,0.7C-76.7,273.4-76.6,273.2-76.6,273z"/>
	<path fill="#06193A" d="M-77,274.6c-0.1,0.3-0.2,0.5-0.3,0.8C-77.2,275.1-77.1,274.8-77,274.6z"/>
	<path fill="#06193A" d="M-94.3,275.3c-0.1,0-0.2-0.1-0.4-0.1C-94.6,275.3-94.4,275.3-94.3,275.3z"/>
	<path fill="#06193A" d="M-93.5,252.3L-93.5,252.3c0.6,0,1.2,0,1.8,0.1C-92.3,252.3-92.9,252.3-93.5,252.3z"/>
	<path fill="#06193A" d="M-93.5,250.5c-0.5,0-1,0-1.5,0.1C-94.5,250.6-94,250.5-93.5,250.5L-93.5,250.5z"/>
	<path fill="#06193A" d="M-76.3,271.3c0,0.2-0.1,0.4-0.1,0.6C-76.4,271.7-76.4,271.5-76.3,271.3z"/>
	<path fill="#06193A" d="M-79.1,279c-0.2,0.3-0.4,0.6-0.6,0.9C-79.5,279.6-79.3,279.3-79.1,279z"/>
	<path fill="#06193A" d="M-80,280.3c-0.2,0.3-0.5,0.6-0.8,0.9C-80.5,280.8-80.2,280.6-80,280.3z"/>
	<path fill="#06193A" d="M-84.7,284.4c-0.4,0.2-0.9,0.5-1.3,0.7C-85.6,284.9-85.2,284.6-84.7,284.4z"/>
	<path fill="#06193A" d="M-86.1,285.1c-0.5,0.2-0.9,0.4-1.4,0.6C-87.1,285.5-86.6,285.3-86.1,285.1z"/>
	<path fill="#06193A" d="M-83.4,283.5c-0.4,0.3-0.8,0.5-1.2,0.8C-84.2,284-83.8,283.8-83.4,283.5z"/>
	<path fill="#06193A" d="M-81,281.4c-0.3,0.3-0.6,0.6-0.9,0.9C-81.6,282-81.3,281.7-81,281.4z"/>
	<path fill="#06193A" d="M-87.6,285.7c-0.5,0.2-1,0.3-1.5,0.5C-88.6,286.1-88.1,285.9-87.6,285.7z"/>
	<path fill="#06193A" d="M-82.2,282.5c-0.3,0.3-0.7,0.6-1,0.8C-82.9,283.1-82.5,282.8-82.2,282.5z"/>
	<path fill="#06193A" d="M-77.6,276.1c-0.1,0.3-0.3,0.6-0.4,0.8C-77.8,276.7-77.7,276.4-77.6,276.1z"/>
	<path fill="#06193A" d="M-97.8,265.9c-0.5,0.7-2.1,2.4-1.3,4.7c2.5,0.9,4.5,2.6,5.8,4.8c-0.1,0-0.3,0-0.4,0
		c1.6,0.2,2.7-0.5,3.1-0.8c0.8-0.5,1.5-1.4,2.4-0.5c0.5,0.5,1.7,1.7,2.6,2.5c-0.3-0.3-0.6-0.6-0.9-0.9l3.9-4.1
		c0.2,0,0.4-0.2,0.4-0.4c0-1.4-0.3-2.7-0.8-4c0.3,1,0.4,1.9,0.4,3c0,0.2-0.2,0.4-0.4,0.4h-1.2c-0.2,0-0.3-0.1-0.3-0.3
		c-0.2-5.8-4.8-10.5-10.7-10.7c-0.1,0-0.2-0.1-0.3-0.2l-3.1,4.3l0,0c0.2,0.2,0.4,0.4,0.4,0.4C-97.9,264.5-97.2,265.1-97.8,265.9z
		 M-95.5,261.5c0-0.2,0.2-0.4,0.4-0.3c4.9,0.2,8.9,4.2,9.1,9.2c0,0.2-0.1,0.4-0.3,0.4h-1.2c-0.2,0-0.3-0.1-0.3-0.3
		c-0.2-3.9-3.3-7.1-7.2-7.3c-0.2,0-0.3-0.2-0.3-0.3v-1.4H-95.5z M-95.5,264.8c0-0.2,0.2-0.4,0.4-0.4c3.1,0.2,5.7,2.7,5.9,5.9
		c0,0.2-0.1,0.4-0.4,0.4h-1.2c-0.2,0-0.3-0.1-0.3-0.3c-0.2-2.1-1.8-3.8-4-4c-0.2,0-0.3-0.2-0.3-0.3L-95.5,264.8L-95.5,264.8z"/>
	<path fill="#06193A" d="M-74.5,269.8L-74.5,269.8c-0.1,10.4-8.6,18.8-19,18.8c-10.5,0-19-8.5-19-19c0-3.1,0.8-6.1,2.1-8.7
		c-5.1,6.8-20.4,27-28.5,39.1h44.5c7.8-8,14.4-16.3,15.7-18C-76,278.7-74.5,274.3-74.5,269.8z"/>
	<path fill="#06193A" d="M-96,274.5c-0.1-0.1-0.2-0.1-0.3-0.2C-96.2,274.4-96.1,274.4-96,274.5z"/>
	<path fill="#06193A" d="M-96.7,274c-0.1-0.1-0.1-0.1-0.2-0.2C-96.8,273.9-96.8,273.9-96.7,274z"/>
	<path fill="#06193A" d="M-98.1,272.5c-0.1-0.2-0.2-0.3-0.3-0.5C-98.3,272.2-98.2,272.4-98.1,272.5z"/>
	<path fill="#06193A" d="M-98.6,271.9c-0.1-0.2-0.2-0.4-0.3-0.6C-98.8,271.5-98.7,271.7-98.6,271.9z"/>
	<path fill="#06193A" d="M-98.9,271.3c-0.1-0.2-0.2-0.4-0.2-0.6C-99.1,270.9-99,271.1-98.9,271.3z"/>
	<path fill="#06193A" d="M-110.7,269.7L-110.7,269.7c0-3.7,1.1-7,2.9-9.7C-109.7,262.8-110.7,266.1-110.7,269.7
		C-110.7,269.6-110.7,269.6-110.7,269.7z"/>
	<path fill="#06193A" d="M-104.5,256.3c-0.9,0.7-1.6,1.5-2.3,2.3C-106.1,257.7-105.3,257-104.5,256.3z"/>
	<path fill="#06193A" d="M-95.4,274.9c-0.1-0.1-0.2-0.1-0.3-0.2C-95.6,274.8-95.5,274.8-95.4,274.9z"/>
	<path fill="#06193A" d="M-85.3,279.9L-85.3,279.9c-1.1,0.7-3.5,1.8-7.7-0.1c-5-2.2-9.2-8-10.9-11.2c-1.5-2.9-0.6-6,0.4-7.4l0,0
		c-0.5,0.9-4.2,6.4-6.9,11.5c-0.1-0.5-0.2-1-0.2-1.6c0.8,8.7,8.2,15.6,17.2,15.6c0.9,0,1.9-0.1,2.8-0.2c-0.5,0.1-1.1,0.2-1.7,0.2
		C-88.9,283.6-85.9,280.3-85.3,279.9z"/>
	<path fill="#06193A" d="M-94.9,275.2c-0.1,0-0.2-0.1-0.3-0.1C-95.1,275.1-95,275.1-94.9,275.2z"/>
	<path fill="#FFFFFF" d="M-101.5,260.8c0.1,0.1,0.2,0.2,0.3,0.3C-101.3,261-101.4,260.9-101.5,260.8z"/>
	<path fill="#FFFFFF" d="M-98.9,271.3L-98.9,271.3L-98.9,271.3z"/>
	<path fill="#FFFFFF" d="M-101.2,261.1c0.1,0.1,0.2,0.2,0.3,0.3C-101,261.3-101.1,261.2-101.2,261.1z"/>
	<path fill="#FFFFFF" d="M-99.1,270.7L-99.1,270.7L-99.1,270.7z"/>
	<path fill="#FFFFFF" d="M-100.8,261.5c0.1,0.1,0.3,0.3,0.4,0.4C-100.5,261.8-100.7,261.6-100.8,261.5z"/>
	<path fill="#FFFFFF" d="M-94.7,275.2c-0.1,0-0.1,0-0.2-0.1C-94.8,275.2-94.7,275.2-94.7,275.2z"/>
	<path fill="#FFFFFF" d="M-99.4,262.9c-0.3-0.3-0.6-0.6-0.9-0.9C-100,262.3-99.7,262.6-99.4,262.9z"/>
	<path fill="#FFFFFF" d="M-103.5,261.3c0.1-0.2,0.2-0.3,0.3-0.4C-103.3,261-103.4,261.1-103.5,261.3z"/>
	<path fill="#FFFFFF" d="M-101.6,260.7c-0.1-0.1-0.1-0.1-0.2-0.2c-0.2-0.2-0.5-0.3-0.8-0.2c0.3-0.1,0.5,0,0.8,0.2
		C-101.7,260.6-101.6,260.7-101.6,260.7z"/>
	<path fill="#FFFFFF" d="M-85.6,276.7L-85.6,276.7L-85.6,276.7z"/>
	<path fill="#FFFFFF" d="M-98.4,272.1c0-0.1-0.1-0.1-0.1-0.2C-98.5,272-98.5,272-98.4,272.1z"/>
	<path fill="#FFFFFF" d="M-95.7,274.7c-0.1-0.1-0.2-0.1-0.3-0.2C-95.9,274.6-95.8,274.6-95.7,274.7z"/>
	<path fill="#FFFFFF" d="M-85,279.7c-0.1,0.1-0.2,0.1-0.3,0.2C-85.2,279.8-85.1,279.8-85,279.7z"/>
	<path fill="#FFFFFF" d="M-84.8,279.6C-84.8,279.6-84.9,279.6-84.8,279.6C-84.9,279.6-84.8,279.6-84.8,279.6z"/>
	<path fill="#FFFFFF" d="M-94.2,275.4h-0.1H-94.2z"/>
	<path fill="#FFFFFF" d="M-96.3,274.3c-0.1-0.1-0.2-0.2-0.4-0.3C-96.6,274.1-96.4,274.2-96.3,274.3z"/>
	<path fill="#FFFFFF" d="M-93.7,275.5C-93.8,275.5-93.8,275.5-93.7,275.5C-93.8,275.5-93.8,275.5-93.7,275.5z"/>
	<path fill="#FFFFFF" d="M-95.2,275c-0.1,0-0.2-0.1-0.2-0.1S-95.3,275-95.2,275z"/>
	<path fill="#FFFFFF" d="M-84.2,278.1c-0.1-0.1-0.1-0.2-0.2-0.3l0,0l0,0C-84.3,277.9-84.3,278-84.2,278.1z"/>
	<path fill="#FFFFFF" d="M-84.7,277.5C-84.7,277.6-84.7,277.6-84.7,277.5C-84.7,277.6-84.7,277.6-84.7,277.5z"/>
	<path fill="#FFFFFF" d="M-97.5,273.2c-0.2-0.2-0.4-0.5-0.6-0.7C-97.9,272.8-97.8,273-97.5,273.2z"/>
	<path fill="#FFFFFF" d="M-98.9,263.4c0.1,0.1,0.2,0.2,0.3,0.3C-98.7,263.6-98.8,263.5-98.9,263.4z"/>
	<path fill="#FFFFFF" d="M-85.1,277.1C-85.1,277.1-85,277.2-85.1,277.1C-85,277.2-85.1,277.1-85.1,277.1z"/>
	<path fill="#FFFFFF" d="M-99.4,262.9c0.1,0.1,0.3,0.3,0.4,0.4C-99.1,263.2-99.2,263.1-99.4,262.9z"/>
	<path fill="#FFFFFF" d="M-96.9,273.8c-0.2-0.2-0.4-0.4-0.6-0.6C-97.3,273.4-97.1,273.6-96.9,273.8z"/>
	<path fill="#FFFFFF" d="M-103.9,268.7c1.6,3.2,5.9,9,10.9,11.2c4.2,1.8,6.6,0.8,7.8,0c0.1-0.1,0.2-0.1,0.3-0.2l0.1-0.1
		c0,0,0.1,0,0.1-0.1c0,0,0.1,0,0.1-0.1c0.5-0.4,0.7-0.8,0.6-1.1c0-0.1-0.1-0.2-0.1-0.3s-0.1-0.2-0.2-0.3l0,0c0,0-0.1-0.1-0.2-0.2
		l0,0c-0.1-0.1-0.2-0.2-0.3-0.3c0,0,0,0-0.1-0.1s-0.3-0.3-0.5-0.4l0,0c-0.9-0.9-2.1-2-2.6-2.5c-0.9-0.9-1.6,0-2.4,0.5
		c-0.5,0.3-1.6,1-3.1,0.8c0,0,0,0-0.1,0s-0.3,0-0.4-0.1h-0.1c-0.1,0-0.2-0.1-0.4-0.1c-0.1,0-0.1,0-0.2-0.1c-0.1,0-0.2-0.1-0.3-0.1
		s-0.2-0.1-0.2-0.1c-0.1-0.1-0.2-0.1-0.3-0.2s-0.2-0.1-0.3-0.2c-0.1-0.1-0.2-0.1-0.3-0.2s-0.2-0.2-0.4-0.3c-0.1-0.1-0.1-0.1-0.2-0.2
		c-0.2-0.2-0.4-0.4-0.6-0.6c-0.2-0.2-0.4-0.5-0.6-0.7c-0.1-0.2-0.2-0.3-0.3-0.5c0-0.1-0.1-0.1-0.1-0.2c-0.1-0.2-0.2-0.4-0.3-0.6l0,0
		c-0.1-0.2-0.2-0.4-0.2-0.6l0,0l0,0c-0.7-2.4,0.9-4.1,1.3-4.7c0.6-0.9-0.1-1.4-0.4-1.8c-0.1-0.1-0.2-0.2-0.4-0.4
		c-0.1-0.1-0.2-0.2-0.3-0.3c0,0,0,0-0.1-0.1c-0.1-0.1-0.3-0.3-0.4-0.4c0,0,0,0-0.1-0.1c-0.3-0.3-0.6-0.6-0.9-0.9l-0.1-0.1
		c-0.1-0.1-0.3-0.3-0.4-0.4l0,0c-0.1-0.1-0.2-0.2-0.3-0.3c0,0,0,0-0.1-0.1s-0.2-0.2-0.3-0.3c0,0,0,0-0.1,0c-0.1-0.1-0.1-0.1-0.2-0.2
		c-0.2-0.2-0.5-0.3-0.8-0.2c-0.3,0.1-0.5,0.2-0.7,0.5c-0.1,0.1-0.2,0.3-0.3,0.4C-104.5,262.7-105.4,265.8-103.9,268.7z"/>
	<path fill="#FFFFFF" d="M-94.9,258.7c5.5,0.1,10.1,3.7,11.8,8.6c-1.4-5.4-6.3-9.5-12.1-9.6c-0.2,0-0.4,0.2-0.4,0.4v1.2v0.1l0.3-0.4
		C-95.2,258.9-95.1,258.7-94.9,258.7z"/>
	<path fill="#FFFFFF" d="M-95.2,259.6c5.8,0.2,10.5,4.8,10.7,10.7c0,0.2,0.2,0.3,0.3,0.3h1.2c0.2,0,0.4-0.2,0.4-0.4c0-1-0.2-2-0.4-3
		c-1.7-4.9-6.4-8.5-11.8-8.6c-0.2,0-0.4,0.2-0.4,0.4l-0.3,0.4C-95.4,259.5-95.3,259.6-95.2,259.6z"/>
	<path fill="#FFFFFF" d="M-95.2,263.1c3.9,0.2,7.1,3.4,7.2,7.3c0,0.2,0.2,0.3,0.3,0.3h1.2c0.2,0,0.4-0.2,0.3-0.4
		c-0.2-4.9-4.2-9-9.1-9.2c-0.2,0-0.4,0.1-0.4,0.3v1.2C-95.5,262.9-95.4,263.1-95.2,263.1z"/>
	<path fill="#FFFFFF" d="M-95.2,266.3c2.1,0.2,3.8,1.9,4,4c0,0.2,0.2,0.3,0.3,0.3h1.2c0.2,0,0.4-0.2,0.4-0.4
		c-0.2-3.1-2.7-5.7-5.9-5.9c-0.2,0-0.4,0.1-0.4,0.4v1.3C-95.5,266.2-95.4,266.3-95.2,266.3z"/>
	<path fill="#FFFFFF" d="M-93.5,252.3c-1.2,0-2.3,0.1-3.5,0.4C-95.8,252.4-94.7,252.3-93.5,252.3L-93.5,252.3z"/>
	<path fill="#FFFFFF" d="M-80.2,258.6c-0.7-0.9-1.5-1.6-2.3-2.3C-81.7,257-80.9,257.7-80.2,258.6z"/>
	<path fill="#FFFFFF" d="M-77.3,275.4c-0.1,0.3-0.2,0.5-0.3,0.8C-77.5,275.9-77.4,275.6-77.3,275.4z"/>
	<path fill="#FFFFFF" d="M-95,250.6c-6.7,0.5-12.5,4.5-15.4,10.2c0.8-1.1,1.4-1.8,1.6-2.1C-105.6,254.4-100.7,251.1-95,250.6z"/>
	<path fill="#FFFFFF" d="M-76.8,273.7c-0.1,0.3-0.1,0.6-0.2,0.9C-76.9,274.3-76.9,274-76.8,273.7z"/>
	<path fill="#FFFFFF" d="M-76.3,271.3c0.1-0.6,0.1-1.1,0.1-1.7c0-4.2-1.5-8-3.9-11c2.5,3,3.9,6.8,3.9,11
		C-76.3,270.1-76.3,270.7-76.3,271.3z"/>
	<path fill="#FFFFFF" d="M-76.4,271.9c0,0.4-0.1,0.7-0.2,1.1C-76.5,272.6-76.5,272.2-76.4,271.9z"/>
	<path fill="#FFFFFF" d="M-74.5,269.7L-74.5,269.7c0-10.6-8.5-19.1-19-19.1l0,0C-83,250.5-74.5,259.2-74.5,269.7z"/>
	<path fill="#FFFFFF" d="M-86,285.1h-0.1C-86.1,285.1-86.1,285.1-86,285.1z"/>
	<path fill="#FFFFFF" d="M-87.5,285.7C-87.6,285.7-87.6,285.7-87.5,285.7C-87.6,285.7-87.6,285.7-87.5,285.7z"/>
	<path fill="#FFFFFF" d="M-89.1,286.2L-89.1,286.2L-89.1,286.2z"/>
	<path fill="#FFFFFF" d="M-110.7,271.2c0-0.5-0.1-1-0.1-1.5C-110.7,270.2-110.7,270.7-110.7,271.2z"/>
	<path fill="#FFFFFF" d="M-90.7,286.6L-90.7,286.6L-90.7,286.6z"/>
	<path fill="#FFFFFF" d="M-84.6,284.3c-0.1,0-0.1,0.1-0.2,0.1C-84.7,284.3-84.6,284.3-84.6,284.3z"/>
	<path fill="#FFFFFF" d="M-81.9,282.3c-0.1,0.1-0.2,0.2-0.2,0.2S-82,282.4-81.9,282.3z"/>
	<path fill="#FFFFFF" d="M-79.7,279.8c-0.1,0.1-0.2,0.3-0.3,0.4C-79.9,280.1-79.8,280-79.7,279.8z"/>
	<path fill="#FFFFFF" d="M-83.2,283.4c-0.1,0.1-0.1,0.1-0.2,0.2C-83.3,283.5-83.3,283.4-83.2,283.4z"/>
	<path fill="#FFFFFF" d="M-78.8,278.4c-0.1,0.2-0.2,0.4-0.3,0.5C-79,278.8-78.9,278.6-78.8,278.4z"/>
	<path fill="#FFFFFF" d="M-80.8,281.1c-0.1,0.1-0.2,0.2-0.3,0.3C-80.9,281.3-80.9,281.2-80.8,281.1z"/>
	<path fill="#FFFFFF" d="M-77.9,276.9c-0.1,0.2-0.2,0.4-0.3,0.6C-78.1,277.4-78,277.2-77.9,276.9z"/>
	<path fill="#FFFFFF" d="M-93.5,288.6c10.5,0,19-8.5,19-18.9c-0.1-10.5-8.6-19.1-19-19.1c-0.5,0-1,0-1.5,0.1
		c-5.7,0.5-10.6,3.8-13.8,8.1c-0.2,0.3-0.8,1.1-1.6,2.1c-1.3,2.6-2.1,5.6-2.1,8.7C-112.5,280.1-104,288.6-93.5,288.6z M-107.8,259.9
		c0.3-0.5,0.6-0.9,1-1.3c0.7-0.9,1.5-1.6,2.3-2.3c2.1-1.8,4.7-3,7.5-3.6c1.1-0.2,2.3-0.4,3.5-0.4l0,0l0,0c0.6,0,1.2,0,1.8,0.1
		c3.5,0.4,6.6,1.7,9.2,3.9c0.9,0.7,1.6,1.5,2.3,2.3c2.5,3,3.9,6.8,3.9,11c0,0.6,0,1.2-0.1,1.7c0,0.2-0.1,0.4-0.1,0.6
		c0,0.4-0.1,0.7-0.2,1.1c0,0.2-0.1,0.5-0.2,0.7c-0.1,0.3-0.1,0.6-0.2,0.9c-0.1,0.3-0.2,0.5-0.3,0.8c-0.1,0.3-0.2,0.5-0.3,0.8
		c-0.1,0.3-0.3,0.6-0.4,0.8c-0.1,0.2-0.2,0.4-0.3,0.6c-0.2,0.3-0.3,0.6-0.5,0.9c-0.1,0.2-0.2,0.4-0.3,0.5c-0.2,0.3-0.4,0.6-0.6,0.9
		c-0.1,0.1-0.2,0.3-0.3,0.4c-0.2,0.3-0.5,0.6-0.8,0.9c-0.1,0.1-0.2,0.2-0.3,0.3c-0.3,0.3-0.6,0.6-0.9,0.9c-0.1,0.1-0.2,0.2-0.2,0.2
		c-0.3,0.3-0.7,0.6-1,0.8c-0.1,0.1-0.1,0.1-0.2,0.2c-0.4,0.3-0.8,0.5-1.2,0.8c-0.1,0-0.1,0.1-0.2,0.1c-0.4,0.2-0.9,0.5-1.3,0.7h-0.1
		c-0.5,0.2-0.9,0.4-1.4,0.6c0,0,0,0-0.1,0c-0.5,0.2-1,0.3-1.5,0.5l0,0c-0.5,0.1-1.1,0.3-1.6,0.3l0,0c-0.9,0.1-1.8,0.2-2.8,0.2
		c-9,0-16.3-6.9-17.2-15.6c0-0.5-0.1-1-0.1-1.5v-0.1C-110.7,266-109.7,262.7-107.8,259.9z"/>
	<g>
		<g enable-background="new    ">
			<path fill="#FFFFFF" d="M-237.3,277.7l0-13.7l-2.8,0l0-2l7.8,0l0,2l-2.8,0l0,13.7H-237.3z"/>
			<path fill="#FFFFFF" d="M-228.9,277.9c-0.5,0-1-0.1-1.4-0.3c-0.4-0.2-0.7-0.4-0.9-0.7c-0.2-0.3-0.4-0.7-0.6-1.2
				c-0.1-0.5-0.2-0.9-0.3-1.4s-0.1-1-0.1-1.6c0-0.5,0-1,0-1.5c0-0.6,0.1-1.1,0.1-1.6c0.1-0.5,0.2-0.9,0.3-1.3
				c0.1-0.4,0.3-0.8,0.6-1.1c0.2-0.3,0.6-0.5,0.9-0.7c0.4-0.2,0.8-0.2,1.4-0.3c0.5,0,0.9,0.1,1.3,0.2c0.4,0.1,0.7,0.3,0.9,0.6
				c0.2,0.3,0.4,0.5,0.6,0.8c0.2,0.3,0.3,0.7,0.4,1.1c0.1,0.4,0.1,0.9,0.2,1.3s0,0.9,0,1.5v0.3l-4.4,0v0.6c0,0.1,0,0.2,0,0.4
				c0,0.2,0,0.4,0,0.7c0,0.2,0,0.5,0,0.7c0,0.2,0,0.4,0.1,0.6c0.1,0.2,0.1,0.4,0.2,0.5s0.2,0.3,0.3,0.4c0.1,0.1,0.3,0.1,0.5,0.1
				c0.2,0,0.4,0,0.6-0.1c0.2-0.1,0.3-0.2,0.3-0.4c0.1-0.2,0.1-0.4,0.2-0.5s0-0.4,0.1-0.7v-0.5h2.2v0.4c-0.1,1.2-0.3,2.1-0.9,2.7
				C-227,277.6-227.8,277.9-228.9,277.9z M-230,271l2.2,0v-0.7c0-0.3,0-0.6-0.1-0.8s-0.1-0.4-0.2-0.7s-0.2-0.4-0.3-0.5
				c-0.2-0.1-0.3-0.2-0.6-0.2c-0.2,0-0.4,0.1-0.6,0.2s-0.3,0.3-0.3,0.5s-0.1,0.5-0.2,0.7c0,0.2,0,0.5-0.1,0.8V271z"/>
			<path fill="#FFFFFF" d="M-224,277.7l0-15.8h2.2l0,15.8H-224z"/>
			<path fill="#FFFFFF" d="M-216.7,277.9c-0.5,0-1-0.1-1.4-0.3c-0.4-0.2-0.7-0.4-0.9-0.7c-0.2-0.3-0.4-0.7-0.6-1.2
				c-0.1-0.5-0.2-0.9-0.3-1.4s-0.1-1-0.1-1.6c0-0.5,0-1,0-1.5c0-0.6,0.1-1.1,0.1-1.6c0.1-0.5,0.2-0.9,0.3-1.3
				c0.1-0.4,0.3-0.8,0.6-1.1c0.2-0.3,0.6-0.5,0.9-0.7c0.4-0.2,0.8-0.2,1.4-0.3c0.5,0,0.9,0.1,1.3,0.2c0.4,0.1,0.7,0.3,0.9,0.6
				c0.2,0.3,0.4,0.5,0.6,0.8c0.2,0.3,0.3,0.7,0.4,1.1c0.1,0.4,0.1,0.9,0.2,1.3s0,0.9,0,1.5v0.3l-4.4,0v0.6c0,0.1,0,0.2,0,0.4
				c0,0.2,0,0.4,0,0.7c0,0.2,0,0.5,0,0.7c0,0.2,0,0.4,0.1,0.6c0.1,0.2,0.1,0.4,0.2,0.5s0.2,0.3,0.3,0.4c0.1,0.1,0.3,0.1,0.5,0.1
				c0.2,0,0.4,0,0.6-0.1c0.2-0.1,0.3-0.2,0.3-0.4c0.1-0.2,0.1-0.4,0.2-0.5s0-0.4,0.1-0.7v-0.5h2.2v0.4c-0.1,1.2-0.3,2.1-0.9,2.7
				C-214.8,277.6-215.6,277.9-216.7,277.9z M-217.8,271l2.2,0v-0.7c0-0.3,0-0.6-0.1-0.8s-0.1-0.4-0.2-0.7s-0.2-0.4-0.3-0.5
				c-0.2-0.1-0.3-0.2-0.6-0.2c-0.2,0-0.4,0.1-0.6,0.2s-0.3,0.3-0.3,0.5s-0.1,0.5-0.2,0.7c0,0.2,0,0.5-0.1,0.8V271z"/>
			<path fill="#FFFFFF" d="M-211.1,277.7l0-9.6h-1.1l0-1.7h1.1V266c0-0.5,0-0.9,0.1-1.2s0.1-0.7,0.2-1c0.1-0.3,0.3-0.6,0.4-0.7
				c0.2-0.2,0.4-0.3,0.7-0.4c0.3-0.1,0.7-0.2,1.1-0.2c0.4,0,0.8,0,1.4,0.1l0,1.7c-0.1,0-0.2,0-0.4,0s-0.3,0-0.4,0
				c-0.4,0-0.6,0.1-0.7,0.4s-0.2,0.6-0.2,1.1v0.8l1.7,0l0,1.7l-1.7,0l0,9.6H-211.1z"/>
			<path fill="#FFFFFF" d="M-200.6,276.8c-0.5,0.7-1.4,1.1-2.6,1.1c-1.2,0-2-0.4-2.6-1.1s-0.8-1.7-0.8-3l0-3.4c0-1.3,0.3-2.3,0.8-3
				c0.5-0.7,1.4-1.1,2.6-1.1c1.2,0,2,0.4,2.6,1.1c0.5,0.7,0.8,1.7,0.8,3l0,3.4C-199.9,275.1-200.1,276.1-200.6,276.8z M-203.6,276
				c0.1,0,0.3,0.1,0.4,0.1c0.2,0,0.3,0,0.4-0.1c0.1,0,0.2-0.1,0.3-0.2c0.1-0.1,0.1-0.2,0.2-0.3s0.1-0.2,0.1-0.3s0-0.2,0.1-0.4
				s0-0.3,0-0.4c0-0.1,0-0.3,0-0.5l0-3.4c0-0.2,0-0.4,0-0.5c0-0.1,0-0.3,0-0.4c0-0.2,0-0.3-0.1-0.4s-0.1-0.2-0.1-0.3
				s-0.1-0.2-0.2-0.3c-0.1-0.1-0.2-0.1-0.3-0.2c-0.1,0-0.3-0.1-0.4-0.1c-0.2,0-0.3,0-0.4,0.1c-0.1,0-0.2,0.1-0.3,0.2
				c-0.1,0.1-0.1,0.2-0.2,0.3s-0.1,0.2-0.1,0.3s0,0.2-0.1,0.4s0,0.3,0,0.4s0,0.3,0,0.5l0,3.4c0,0.2,0,0.4,0,0.5s0,0.3,0,0.4
				c0,0.2,0,0.3,0.1,0.4s0.1,0.2,0.1,0.3s0.1,0.2,0.2,0.3C-203.8,275.9-203.7,275.9-203.6,276z"/>
			<path fill="#FFFFFF" d="M-198,277.7l0-11.2l2.2,0l0,1.2c0.3-0.3,0.6-0.5,0.8-0.7c0.2-0.2,0.5-0.3,0.9-0.5
				c0.4-0.1,0.8-0.2,1.2-0.2c0.5,0,0.9,0.2,1.2,0.5c0.3,0.4,0.4,0.8,0.4,1.3l0,9.6l-2.2,0l0-8.4c0-0.4-0.1-0.7-0.2-0.9
				s-0.3-0.3-0.7-0.3c-0.2,0-0.4,0-0.6,0.1c-0.2,0.1-0.3,0.2-0.4,0.2s-0.2,0.2-0.4,0.3l0,8.9L-198,277.7z"/>
			<path fill="#FFFFFF" d="M-186.3,277.9c-0.5,0-1-0.1-1.4-0.3c-0.4-0.2-0.7-0.4-0.9-0.7c-0.2-0.3-0.4-0.7-0.6-1.2s-0.2-0.9-0.3-1.4
				s-0.1-1-0.1-1.6c0-0.5,0-1,0-1.5c0-0.6,0.1-1.1,0.1-1.6s0.2-0.9,0.3-1.3c0.1-0.4,0.3-0.8,0.6-1.1c0.2-0.3,0.6-0.5,0.9-0.7
				s0.8-0.3,1.4-0.3c0.5,0,0.9,0.1,1.3,0.2c0.4,0.1,0.7,0.3,0.9,0.6c0.2,0.3,0.4,0.5,0.6,0.8c0.2,0.3,0.3,0.7,0.4,1.1
				c0.1,0.4,0.1,0.9,0.2,1.3s0,0.9,0,1.5v0.3l-4.4,0v0.6c0,0.1,0,0.2,0,0.4c0,0.2,0,0.4,0,0.7s0,0.5,0,0.7c0,0.2,0,0.4,0.1,0.6
				s0.1,0.4,0.2,0.5s0.2,0.3,0.3,0.4c0.1,0.1,0.3,0.1,0.5,0.1c0.2,0,0.4,0,0.6-0.1c0.2-0.1,0.3-0.2,0.3-0.4c0.1-0.2,0.1-0.4,0.2-0.5
				c0-0.2,0-0.4,0.1-0.7v-0.5l2.2,0v0.4c-0.1,1.2-0.3,2.1-0.9,2.7S-185.2,277.9-186.3,277.9z M-187.4,271h2.2v-0.7
				c0-0.3,0-0.6-0.1-0.8s-0.1-0.4-0.2-0.7s-0.2-0.4-0.3-0.5c-0.2-0.1-0.3-0.2-0.6-0.2c-0.2,0-0.4,0.1-0.6,0.2s-0.3,0.3-0.3,0.5
				s-0.1,0.5-0.2,0.7c0,0.2,0,0.5-0.1,0.8V271z"/>
			<path fill="#FFFFFF" d="M-178.5,277.9c-0.9,0-1.6-0.3-2.2-0.8c-0.6-0.6-0.9-1.3-1.1-2.1l1.7-0.6c0.4,1.1,1,1.7,1.7,1.7
				c0.4,0,0.6-0.1,0.8-0.3s0.3-0.5,0.3-0.8c0-0.5-0.2-1-0.6-1.3l-2.2-1.7c-0.2-0.2-0.5-0.3-0.6-0.5s-0.3-0.3-0.5-0.5
				c-0.2-0.2-0.3-0.5-0.4-0.7s-0.1-0.6-0.1-0.9c0-1,0.3-1.7,0.9-2.2c0.6-0.5,1.4-0.8,2.4-0.8c0.5,0,0.9,0.1,1.3,0.2s0.7,0.4,1,0.7
				c0.3,0.3,0.5,0.6,0.7,0.9s0.3,0.7,0.4,1.1l-1.7,0.6c-0.1-0.2-0.2-0.4-0.2-0.6c-0.1-0.2-0.2-0.3-0.3-0.5c-0.1-0.2-0.3-0.3-0.5-0.4
				c-0.2-0.1-0.4-0.2-0.6-0.2c-0.4,0-0.6,0.1-0.8,0.3s-0.3,0.5-0.3,0.8c0,0.4,0.2,0.7,0.6,0.9l2.2,1.7c0.2,0.2,0.5,0.4,0.6,0.6
				c0.2,0.2,0.3,0.4,0.5,0.6s0.3,0.5,0.4,0.8c0.1,0.3,0.1,0.6,0.1,1c0,1-0.3,1.7-0.9,2.2C-176.7,277.6-177.5,277.9-178.5,277.9z"/>
			<path fill="#FFFFFF" d="M-164,277.6c-0.5,0.2-1.1,0.3-1.8,0.3c-0.7,0-1.3-0.1-1.8-0.3s-0.9-0.4-1.3-0.8s-0.6-0.7-0.8-1.2
				s-0.4-1-0.4-1.6c-0.1-0.6-0.1-1.2-0.1-1.9l0-10.1l2.2,0l0,10.1c0,0.5,0,0.9,0,1.2c0,0.3,0.1,0.7,0.2,1.1s0.2,0.7,0.4,0.9
				c0.2,0.2,0.4,0.4,0.7,0.6c0.3,0.1,0.6,0.2,1,0.2c0.4,0,0.7-0.1,1-0.2c0.3-0.1,0.5-0.3,0.6-0.6c0.2-0.2,0.3-0.5,0.4-0.9
				s0.1-0.7,0.2-1.1c0-0.3,0-0.7,0-1.2l0-10.1h2.2l0,10.1c0,0.7,0,1.4-0.1,1.9c-0.1,0.6-0.2,1.1-0.4,1.6s-0.5,0.9-0.8,1.2
				S-163.5,277.4-164,277.6z M-166.3,260.9l1.1-3.4l2.2,0l-2.2,3.4H-166.3z"/>
			<path fill="#FFFFFF" d="M-156.3,277.9c-0.9,0-1.5-0.2-1.9-0.7c-0.4-0.5-0.6-1.1-0.6-2l0-7h-1.1v-1.7h1.1l0-3.9h2.2l0,3.9l1.7,0
				l0,1.7l-1.7,0l0,6.6c0,0.5,0.1,0.8,0.2,1c0.1,0.2,0.4,0.3,0.7,0.3c0.2,0,0.4,0,0.7-0.1v1.8C-155.5,277.8-155.9,277.9-156.3,277.9
				z"/>
			<path fill="#FFFFFF" d="M-150.2,277.9c-0.5,0-1-0.1-1.4-0.3c-0.4-0.2-0.7-0.4-0.9-0.7s-0.4-0.7-0.6-1.2c-0.1-0.5-0.2-0.9-0.3-1.4
				s-0.1-1-0.1-1.6c0-0.5,0-1,0-1.5c0-0.6,0.1-1.1,0.1-1.6s0.2-0.9,0.3-1.3c0.1-0.4,0.3-0.8,0.6-1.1c0.2-0.3,0.6-0.5,0.9-0.7
				c0.4-0.2,0.8-0.3,1.4-0.3c0.5,0,0.9,0.1,1.3,0.2c0.4,0.1,0.7,0.3,0.9,0.6s0.4,0.5,0.6,0.8c0.2,0.3,0.3,0.7,0.4,1.1
				s0.1,0.9,0.2,1.3c0,0.4,0,0.9,0,1.5v0.3l-4.4,0v0.6c0,0.1,0,0.2,0,0.4c0,0.2,0,0.4,0,0.7c0,0.2,0,0.5,0,0.7c0,0.2,0,0.4,0.1,0.6
				c0.1,0.2,0.1,0.4,0.2,0.5c0.1,0.2,0.2,0.3,0.3,0.4c0.1,0.1,0.3,0.1,0.5,0.1c0.2,0,0.4,0,0.6-0.1s0.3-0.2,0.3-0.4
				c0.1-0.2,0.1-0.4,0.2-0.5s0-0.4,0.1-0.7v-0.5l2.2,0v0.4c-0.1,1.2-0.3,2.1-0.9,2.7C-148.3,277.6-149.1,277.9-150.2,277.9z
				 M-151.3,271h2.2v-0.7c0-0.3,0-0.6-0.1-0.8s-0.1-0.4-0.2-0.7s-0.2-0.4-0.3-0.5s-0.3-0.2-0.6-0.2c-0.2,0-0.4,0.1-0.6,0.2
				c-0.2,0.1-0.3,0.3-0.3,0.5s-0.1,0.5-0.2,0.7c0,0.2,0,0.5-0.1,0.8V271z"/>
			<path fill="#FFFFFF" d="M-145.2,264.8v-2.2l2.2,0l0,2.2L-145.2,264.8z M-145.2,277.7l0-11.2l2.2,0l0,11.2L-145.2,277.7z"/>
			<path fill="#FFFFFF" d="M-137.9,277.9c-0.9,0-1.6-0.3-2.2-0.8c-0.6-0.6-0.9-1.3-1.1-2.1l1.7-0.6c0.4,1.1,1,1.7,1.7,1.7
				c0.4,0,0.6-0.1,0.8-0.3c0.2-0.2,0.3-0.5,0.3-0.8c0-0.5-0.2-1-0.6-1.3l-2.2-1.7c-0.2-0.2-0.5-0.3-0.6-0.5
				c-0.2-0.1-0.3-0.3-0.5-0.5c-0.2-0.2-0.3-0.5-0.4-0.7c-0.1-0.3-0.1-0.6-0.1-0.9c0-1,0.3-1.7,0.9-2.2c0.6-0.5,1.4-0.8,2.4-0.8
				c0.5,0,0.9,0.1,1.3,0.2s0.7,0.4,1,0.7c0.3,0.3,0.5,0.6,0.7,0.9c0.2,0.3,0.3,0.7,0.4,1.1l-1.7,0.6c-0.1-0.2-0.2-0.4-0.2-0.6
				c-0.1-0.2-0.2-0.3-0.3-0.5s-0.3-0.3-0.5-0.4c-0.2-0.1-0.4-0.2-0.6-0.2c-0.4,0-0.6,0.1-0.8,0.3s-0.3,0.5-0.3,0.8
				c0,0.4,0.2,0.7,0.6,0.9l2.2,1.7c0.2,0.2,0.5,0.4,0.6,0.6s0.3,0.4,0.5,0.6c0.2,0.2,0.3,0.5,0.4,0.8s0.1,0.6,0.1,1
				c0,1-0.3,1.7-0.9,2.2C-136.1,277.6-136.9,277.9-137.9,277.9z"/>
		</g>
	</g>
</g>
</svg>
