<?xml version="1.0" encoding="utf-8"?>
<!-- Generator: Adobe Illustrator 19.1.0, SVG Export Plug-In . SVG Version: 6.00 Build 0)  -->
<svg version="1.1" id="Layer_1" xmlns="http://www.w3.org/2000/svg" xmlns:xlink="http://www.w3.org/1999/xlink" x="0px" y="0px"
	 viewBox="33 36 197 59" enable-background="new 33 36 197 59" xml:space="preserve">
<g>
	<path fill="#162C53" d="M200.4,36H62.6C46.3,36,33,49.1,33,65.5S46.3,95,62.6,95h92.5h44.5h0.8c16.4,0,29.6-13.1,29.6-29.5
		S216.7,36,200.4,36z"/>
	<path fill="#06193A" d="M193.6,56.9C193.6,56.9,193.7,57,193.6,56.9C193.7,57,193.6,56.9,193.6,56.9z"/>
	<path fill="#06193A" d="M194.6,57.9L194.6,57.9L194.6,57.9z"/>
	<path fill="#06193A" d="M192.8,56.1L192.8,56.1L192.8,56.1z"/>
	<path fill="#06193A" d="M204.9,81.2c-0.5,0.1-1.1,0.3-1.6,0.3C203.8,81.5,204.3,81.4,204.9,81.2z"/>
	<path fill="#06193A" d="M195,58.3C195,58.3,195.1,58.4,195,58.3C195.1,58.4,195,58.3,195,58.3z"/>
	<path fill="#06193A" d="M193.2,56.5L193.2,56.5L193.2,56.5z"/>
	<path fill="#06193A" d="M192.4,55.7C192.4,55.8,192.5,55.8,192.4,55.7C192.5,55.8,192.4,55.8,192.4,55.7z"/>
	<path fill="#06193A" d="M209.3,74.5c0,0-0.1,0-0.1,0.1C209.2,74.6,209.3,74.6,209.3,74.5c0.5-0.4,0.7-0.8,0.6-1.1
		C210,73.8,209.8,74.2,209.3,74.5z"/>
	<path fill="#06193A" d="M200.2,70.5c-0.1,0-0.3,0-0.4-0.1C199.9,70.4,200.1,70.4,200.2,70.5z"/>
	<path fill="#06193A" d="M209.1,74.7l-0.1,0.1C209,74.7,209.1,74.7,209.1,74.7z"/>
	<path fill="#06193A" d="M208.4,71.7c0.2,0.2,0.3,0.3,0.5,0.4C208.8,72,208.6,71.8,208.4,71.7z"/>
	<path fill="#06193A" d="M209,72.2c0.1,0.1,0.2,0.2,0.3,0.3C209.2,72.4,209.1,72.3,209,72.2z"/>
	<path fill="#06193A" d="M209.8,73.1c0.1,0.1,0.1,0.2,0.1,0.3C209.9,73.3,209.8,73.2,209.8,73.1z"/>
	<path fill="#06193A" d="M209.4,72.6c0.1,0.1,0.2,0.2,0.2,0.2C209.5,72.8,209.5,72.7,209.4,72.6z"/>
	<path fill="#06193A" d="M215.7,72.6c-0.2,0.3-0.3,0.6-0.5,0.9C215.4,73.2,215.6,72.9,215.7,72.6z"/>
	<path fill="#06193A" d="M217.4,68c0,0.2-0.1,0.5-0.2,0.7C217.3,68.4,217.4,68.2,217.4,68z"/>
	<path fill="#06193A" d="M217,69.6c-0.1,0.3-0.2,0.5-0.3,0.8C216.8,70.1,216.9,69.8,217,69.6z"/>
	<path fill="#06193A" d="M199.7,70.3c-0.1,0-0.2-0.1-0.4-0.1C199.4,70.3,199.6,70.3,199.7,70.3z"/>
	<path fill="#06193A" d="M200.5,47.3L200.5,47.3c0.6,0,1.2,0,1.8,0.1C201.7,47.3,201.1,47.3,200.5,47.3z"/>
	<path fill="#06193A" d="M200.5,45.5c-0.5,0-1,0-1.5,0.1C199.5,45.6,200,45.5,200.5,45.5L200.5,45.5z"/>
	<path fill="#06193A" d="M217.7,66.3c0,0.2-0.1,0.4-0.1,0.6C217.6,66.7,217.6,66.5,217.7,66.3z"/>
	<path fill="#06193A" d="M214.9,74c-0.2,0.3-0.4,0.6-0.6,0.9C214.5,74.6,214.7,74.3,214.9,74z"/>
	<path fill="#06193A" d="M214,75.3c-0.2,0.3-0.5,0.6-0.8,0.9C213.5,75.8,213.8,75.6,214,75.3z"/>
	<path fill="#06193A" d="M209.3,79.4c-0.4,0.2-0.9,0.5-1.3,0.7C208.4,79.9,208.8,79.6,209.3,79.4z"/>
	<path fill="#06193A" d="M207.9,80.1c-0.5,0.2-0.9,0.4-1.4,0.6C206.9,80.5,207.4,80.3,207.9,80.1z"/>
	<path fill="#06193A" d="M210.6,78.5c-0.4,0.3-0.8,0.5-1.2,0.8C209.8,79,210.2,78.8,210.6,78.5z"/>
	<path fill="#06193A" d="M213,76.4c-0.3,0.3-0.6,0.6-0.9,0.9C212.4,77,212.7,76.7,213,76.4z"/>
	<path fill="#06193A" d="M206.4,80.7c-0.5,0.2-1,0.3-1.5,0.5C205.4,81.1,205.9,80.9,206.4,80.7z"/>
	<path fill="#06193A" d="M211.8,77.5c-0.3,0.3-0.7,0.6-1,0.8C211.1,78.1,211.5,77.8,211.8,77.5z"/>
	<path fill="#06193A" d="M216.4,71.1c-0.1,0.3-0.3,0.6-0.4,0.8C216.2,71.7,216.3,71.4,216.4,71.1z"/>
	<path fill="#06193A" d="M196.2,60.9c-0.5,0.7-2.1,2.4-1.3,4.7c2.5,0.9,4.5,2.6,5.8,4.8c-0.1,0-0.3,0-0.4,0c1.6,0.2,2.7-0.5,3.1-0.8
		c0.8-0.5,1.5-1.4,2.4-0.5c0.5,0.5,1.7,1.7,2.6,2.5c-0.3-0.3-0.6-0.6-0.9-0.9l3.9-4.1c0.2,0,0.4-0.2,0.4-0.4c0-1.4-0.3-2.7-0.8-4
		c0.3,1,0.4,1.9,0.4,3c0,0.2-0.2,0.4-0.4,0.4h-1.2c-0.2,0-0.3-0.1-0.3-0.3c-0.2-5.8-4.8-10.5-10.7-10.7c-0.1,0-0.2-0.1-0.3-0.2
		l-3.1,4.3l0,0c0.2,0.2,0.4,0.4,0.4,0.4C196.1,59.5,196.8,60.1,196.2,60.9z M198.5,56.5c0-0.2,0.2-0.4,0.4-0.3
		c4.9,0.2,8.9,4.2,9.1,9.2c0,0.2-0.1,0.4-0.3,0.4h-1.2c-0.2,0-0.3-0.1-0.3-0.3c-0.2-3.9-3.3-7.1-7.2-7.3c-0.2,0-0.3-0.2-0.3-0.3
		v-1.4H198.5z M198.5,59.8c0-0.2,0.2-0.4,0.4-0.4c3.1,0.2,5.7,2.7,5.9,5.9c0,0.2-0.1,0.4-0.4,0.4h-1.2c-0.2,0-0.3-0.1-0.3-0.3
		c-0.2-2.1-1.8-3.8-4-4c-0.2,0-0.3-0.2-0.3-0.3L198.5,59.8L198.5,59.8z"/>
	<path fill="#06193A" d="M219.5,64.8L219.5,64.8c-0.1,10.4-8.6,18.8-19,18.8c-10.5,0-19-8.5-19-19c0-3.1,0.8-6.1,2.1-8.7
		c-5.1,6.8-20.4,27-28.5,39.1h44.5c7.8-8,14.4-16.3,15.7-18C218,73.7,219.5,69.3,219.5,64.8z"/>
	<path fill="#06193A" d="M198,69.5c-0.1-0.1-0.2-0.1-0.3-0.2C197.8,69.4,197.9,69.4,198,69.5z"/>
	<path fill="#06193A" d="M197.3,69c-0.1-0.1-0.1-0.1-0.2-0.2C197.2,68.9,197.2,68.9,197.3,69z"/>
	<path fill="#06193A" d="M195.9,67.5c-0.1-0.2-0.2-0.3-0.3-0.5C195.7,67.2,195.8,67.4,195.9,67.5z"/>
	<path fill="#06193A" d="M195.4,66.9c-0.1-0.2-0.2-0.4-0.3-0.6C195.2,66.5,195.3,66.7,195.4,66.9z"/>
	<path fill="#06193A" d="M195.1,66.3c-0.1-0.2-0.2-0.4-0.2-0.6C194.9,65.9,195,66.1,195.1,66.3z"/>
	<path fill="#06193A" d="M183.3,64.7L183.3,64.7c0-3.7,1.1-7,2.9-9.7C184.3,57.8,183.3,61.1,183.3,64.7
		C183.3,64.6,183.3,64.6,183.3,64.7z"/>
	<path fill="#06193A" d="M189.5,51.3c-0.9,0.7-1.6,1.5-2.3,2.3C187.9,52.7,188.7,52,189.5,51.3z"/>
	<path fill="#06193A" d="M198.6,69.9c-0.1-0.1-0.2-0.1-0.3-0.2C198.4,69.8,198.5,69.8,198.6,69.9z"/>
	<path fill="#06193A" d="M208.7,74.9L208.7,74.9c-1.1,0.7-3.5,1.8-7.7-0.1c-5-2.2-9.2-8-10.9-11.2c-1.5-2.9-0.6-6,0.4-7.4l0,0
		c-0.5,0.9-4.2,6.4-6.9,11.5c-0.1-0.5-0.2-1-0.2-1.6c0.8,8.7,8.2,15.6,17.2,15.6c0.9,0,1.9-0.1,2.8-0.2c-0.5,0.1-1.1,0.2-1.7,0.2
		C205.1,78.6,208.1,75.3,208.7,74.9z"/>
	<path fill="#06193A" d="M199.1,70.2c-0.1,0-0.2-0.1-0.3-0.1C198.9,70.1,199,70.1,199.1,70.2z"/>
	<path fill="#FFFFFF" d="M192.5,55.8c0.1,0.1,0.2,0.2,0.3,0.3C192.7,56,192.6,55.9,192.5,55.8z"/>
	<path fill="#FFFFFF" d="M195.1,66.3L195.1,66.3L195.1,66.3z"/>
	<path fill="#FFFFFF" d="M192.8,56.1c0.1,0.1,0.2,0.2,0.3,0.3C193,56.3,192.9,56.2,192.8,56.1z"/>
	<path fill="#FFFFFF" d="M194.9,65.7L194.9,65.7L194.9,65.7z"/>
	<path fill="#FFFFFF" d="M193.2,56.5c0.1,0.1,0.3,0.3,0.4,0.4C193.5,56.8,193.3,56.6,193.2,56.5z"/>
	<path fill="#FFFFFF" d="M199.3,70.2c-0.1,0-0.1,0-0.2-0.1C199.2,70.2,199.3,70.2,199.3,70.2z"/>
	<path fill="#FFFFFF" d="M194.6,57.9c-0.3-0.3-0.6-0.6-0.9-0.9C194,57.3,194.3,57.6,194.6,57.9z"/>
	<path fill="#FFFFFF" d="M190.5,56.3c0.1-0.2,0.2-0.3,0.3-0.4C190.7,56,190.6,56.1,190.5,56.3z"/>
	<path fill="#FFFFFF" d="M192.4,55.7c-0.1-0.1-0.1-0.1-0.2-0.2c-0.2-0.2-0.5-0.3-0.8-0.2c0.3-0.1,0.5,0,0.8,0.2
		C192.3,55.6,192.4,55.7,192.4,55.7z"/>
	<path fill="#FFFFFF" d="M208.4,71.7L208.4,71.7L208.4,71.7z"/>
	<path fill="#FFFFFF" d="M195.6,67.1c0-0.1-0.1-0.1-0.1-0.2C195.5,67,195.5,67,195.6,67.1z"/>
	<path fill="#FFFFFF" d="M198.3,69.7c-0.1-0.1-0.2-0.1-0.3-0.2C198.1,69.6,198.2,69.6,198.3,69.7z"/>
	<path fill="#FFFFFF" d="M209,74.7c-0.1,0.1-0.2,0.1-0.3,0.2C208.8,74.8,208.9,74.8,209,74.7z"/>
	<path fill="#FFFFFF" d="M209.2,74.6C209.2,74.6,209.1,74.6,209.2,74.6C209.1,74.6,209.2,74.6,209.2,74.6z"/>
	<path fill="#FFFFFF" d="M199.8,70.4h-0.1H199.8z"/>
	<path fill="#FFFFFF" d="M197.7,69.3c-0.1-0.1-0.2-0.2-0.4-0.3C197.4,69.1,197.6,69.2,197.7,69.3z"/>
	<path fill="#FFFFFF" d="M200.3,70.5C200.2,70.5,200.2,70.5,200.3,70.5C200.2,70.5,200.2,70.5,200.3,70.5z"/>
	<path fill="#FFFFFF" d="M198.8,70c-0.1,0-0.2-0.1-0.2-0.1S198.7,70,198.8,70z"/>
	<path fill="#FFFFFF" d="M209.8,73.1c-0.1-0.1-0.1-0.2-0.2-0.3l0,0l0,0C209.7,72.9,209.7,73,209.8,73.1z"/>
	<path fill="#FFFFFF" d="M209.3,72.5C209.3,72.6,209.3,72.6,209.3,72.5C209.3,72.6,209.3,72.6,209.3,72.5z"/>
	<path fill="#FFFFFF" d="M196.5,68.2c-0.2-0.2-0.4-0.5-0.6-0.7C196.1,67.8,196.2,68,196.5,68.2z"/>
	<path fill="#FFFFFF" d="M195.1,58.4c0.1,0.1,0.2,0.2,0.3,0.3C195.3,58.6,195.2,58.5,195.1,58.4z"/>
	<path fill="#FFFFFF" d="M208.9,72.1C208.9,72.1,209,72.2,208.9,72.1C209,72.2,208.9,72.1,208.9,72.1z"/>
	<path fill="#FFFFFF" d="M194.6,57.9c0.1,0.1,0.3,0.3,0.4,0.4C194.9,58.2,194.8,58.1,194.6,57.9z"/>
	<path fill="#FFFFFF" d="M197.1,68.8c-0.2-0.2-0.4-0.4-0.6-0.6C196.7,68.4,196.9,68.6,197.1,68.8z"/>
	<path fill="#FFFFFF" d="M190.1,63.7c1.6,3.2,5.9,9,10.9,11.2c4.2,1.8,6.6,0.8,7.8,0c0.1-0.1,0.2-0.1,0.3-0.2l0.1-0.1
		c0,0,0.1,0,0.1-0.1c0,0,0.1,0,0.1-0.1c0.5-0.4,0.7-0.8,0.6-1.1c0-0.1-0.1-0.2-0.1-0.3s-0.1-0.2-0.2-0.3l0,0c0,0-0.1-0.1-0.2-0.2
		l0,0c-0.1-0.1-0.2-0.2-0.3-0.3c0,0,0,0-0.1-0.1s-0.3-0.3-0.5-0.4l0,0c-0.9-0.9-2.1-2-2.6-2.5c-0.9-0.9-1.6,0-2.4,0.5
		c-0.5,0.3-1.6,1-3.1,0.8c0,0,0,0-0.1,0s-0.3,0-0.4-0.1h-0.1c-0.1,0-0.2-0.1-0.4-0.1c-0.1,0-0.1,0-0.2-0.1c-0.1,0-0.2-0.1-0.3-0.1
		s-0.2-0.1-0.2-0.1c-0.1-0.1-0.2-0.1-0.3-0.2s-0.2-0.1-0.3-0.2s-0.2-0.1-0.3-0.2s-0.2-0.2-0.4-0.3c-0.1-0.1-0.1-0.1-0.2-0.2
		c-0.2-0.2-0.4-0.4-0.6-0.6s-0.4-0.5-0.6-0.7c-0.1-0.2-0.2-0.3-0.3-0.5c0-0.1-0.1-0.1-0.1-0.2c-0.1-0.2-0.2-0.4-0.3-0.6l0,0
		c-0.1-0.2-0.2-0.4-0.2-0.6l0,0l0,0c-0.7-2.4,0.9-4.1,1.3-4.7c0.6-0.9-0.1-1.4-0.4-1.8c-0.1-0.1-0.2-0.2-0.4-0.4
		c-0.1-0.1-0.2-0.2-0.3-0.3c0,0,0,0-0.1-0.1s-0.3-0.3-0.4-0.4c0,0,0,0-0.1-0.1c-0.3-0.3-0.6-0.6-0.9-0.9l-0.1-0.1
		c-0.1-0.1-0.3-0.3-0.4-0.4l0,0c-0.1-0.1-0.2-0.2-0.3-0.3c0,0,0,0-0.1-0.1s-0.2-0.2-0.3-0.3c0,0,0,0-0.1,0c-0.1-0.1-0.1-0.1-0.2-0.2
		c-0.2-0.2-0.5-0.3-0.8-0.2c-0.3,0.1-0.5,0.2-0.7,0.5c-0.1,0.1-0.2,0.3-0.3,0.4C189.5,57.7,188.6,60.8,190.1,63.7z"/>
	<path fill="#FFFFFF" d="M199.1,53.7c5.5,0.1,10.1,3.7,11.8,8.6c-1.4-5.4-6.3-9.5-12.1-9.6c-0.2,0-0.4,0.2-0.4,0.4v1.2v0.1l0.3-0.4
		C198.8,53.9,198.9,53.7,199.1,53.7z"/>
	<path fill="#FFFFFF" d="M198.8,54.6c5.8,0.2,10.5,4.8,10.7,10.7c0,0.2,0.2,0.3,0.3,0.3h1.2c0.2,0,0.4-0.2,0.4-0.4c0-1-0.2-2-0.4-3
		c-1.7-4.9-6.4-8.5-11.8-8.6c-0.2,0-0.4,0.2-0.4,0.4l-0.3,0.4C198.6,54.5,198.7,54.6,198.8,54.6z"/>
	<path fill="#FFFFFF" d="M198.8,58.1c3.9,0.2,7.1,3.4,7.2,7.3c0,0.2,0.2,0.3,0.3,0.3h1.2c0.2,0,0.4-0.2,0.3-0.4
		c-0.2-4.9-4.2-9-9.1-9.2c-0.2,0-0.4,0.1-0.4,0.3v1.2C198.5,57.9,198.6,58.1,198.8,58.1z"/>
	<path fill="#FFFFFF" d="M198.8,61.3c2.1,0.2,3.8,1.9,4,4c0,0.2,0.2,0.3,0.3,0.3h1.2c0.2,0,0.4-0.2,0.4-0.4
		c-0.2-3.1-2.7-5.7-5.9-5.9c-0.2,0-0.4,0.1-0.4,0.4V61C198.5,61.2,198.6,61.3,198.8,61.3z"/>
	<path fill="#FFFFFF" d="M200.5,47.3c-1.2,0-2.3,0.1-3.5,0.4C198.2,47.4,199.3,47.3,200.5,47.3L200.5,47.3z"/>
	<path fill="#FFFFFF" d="M213.8,53.6c-0.7-0.9-1.5-1.6-2.3-2.3C212.3,52,213.1,52.7,213.8,53.6z"/>
	<path fill="#FFFFFF" d="M216.7,70.4c-0.1,0.3-0.2,0.5-0.3,0.8C216.5,70.9,216.6,70.6,216.7,70.4z"/>
	<path fill="#FFFFFF" d="M199,45.6c-6.7,0.5-12.5,4.5-15.4,10.2c0.8-1.1,1.4-1.8,1.6-2.1C188.4,49.4,193.3,46.1,199,45.6z"/>
	<path fill="#FFFFFF" d="M217.2,68.7c-0.1,0.3-0.1,0.6-0.2,0.9C217.1,69.3,217.1,69,217.2,68.7z"/>
	<path fill="#FFFFFF" d="M217.7,66.3c0.1-0.6,0.1-1.1,0.1-1.7c0-4.2-1.5-8-3.9-11c2.5,3,3.9,6.8,3.9,11
		C217.7,65.1,217.7,65.7,217.7,66.3z"/>
	<path fill="#FFFFFF" d="M217.6,66.9c0,0.4-0.1,0.7-0.2,1.1C217.5,67.6,217.5,67.2,217.6,66.9z"/>
	<path fill="#FFFFFF" d="M219.5,64.7L219.5,64.7c0-10.6-8.5-19.1-19-19.1l0,0C211,45.5,219.5,54.2,219.5,64.7z"/>
	<path fill="#FFFFFF" d="M208,80.1h-0.1C207.9,80.1,207.9,80.1,208,80.1z"/>
	<path fill="#FFFFFF" d="M206.5,80.7C206.4,80.7,206.4,80.7,206.5,80.7C206.4,80.7,206.4,80.7,206.5,80.7z"/>
	<path fill="#FFFFFF" d="M204.9,81.2L204.9,81.2L204.9,81.2z"/>
	<path fill="#FFFFFF" d="M183.3,66.2c0-0.5-0.1-1-0.1-1.5C183.3,65.2,183.3,65.7,183.3,66.2z"/>
	<path fill="#FFFFFF" d="M203.3,81.6L203.3,81.6L203.3,81.6z"/>
	<path fill="#FFFFFF" d="M209.4,79.3c-0.1,0-0.1,0.1-0.2,0.1C209.3,79.3,209.4,79.3,209.4,79.3z"/>
	<path fill="#FFFFFF" d="M212.1,77.3c-0.1,0.1-0.2,0.2-0.2,0.2S212,77.4,212.1,77.3z"/>
	<path fill="#FFFFFF" d="M214.3,74.8c-0.1,0.1-0.2,0.3-0.3,0.4C214.1,75.1,214.2,75,214.3,74.8z"/>
	<path fill="#FFFFFF" d="M210.8,78.4c-0.1,0.1-0.1,0.1-0.2,0.2C210.7,78.5,210.7,78.4,210.8,78.4z"/>
	<path fill="#FFFFFF" d="M215.2,73.4c-0.1,0.2-0.2,0.4-0.3,0.5C215,73.8,215.1,73.6,215.2,73.4z"/>
	<path fill="#FFFFFF" d="M213.2,76.1c-0.1,0.1-0.2,0.2-0.3,0.3C213.1,76.3,213.1,76.2,213.2,76.1z"/>
	<path fill="#FFFFFF" d="M216.1,71.9c-0.1,0.2-0.2,0.4-0.3,0.6C215.9,72.4,216,72.2,216.1,71.9z"/>
	<path fill="#FFFFFF" d="M200.5,83.6c10.5,0,19-8.5,19-18.9c-0.1-10.5-8.6-19.1-19-19.1c-0.5,0-1,0-1.5,0.1
		c-5.7,0.5-10.6,3.8-13.8,8.1c-0.2,0.3-0.8,1.1-1.6,2.1c-1.3,2.6-2.1,5.6-2.1,8.7C181.5,75.1,190,83.6,200.5,83.6z M186.2,54.9
		c0.3-0.5,0.6-0.9,1-1.3c0.7-0.9,1.5-1.6,2.3-2.3c2.1-1.8,4.7-3,7.5-3.6c1.1-0.2,2.3-0.4,3.5-0.4l0,0l0,0c0.6,0,1.2,0,1.8,0.1
		c3.5,0.4,6.6,1.7,9.2,3.9c0.9,0.7,1.6,1.5,2.3,2.3c2.5,3,3.9,6.8,3.9,11c0,0.6,0,1.2-0.1,1.7c0,0.2-0.1,0.4-0.1,0.6
		c0,0.4-0.1,0.7-0.2,1.1c0,0.2-0.1,0.5-0.2,0.7c-0.1,0.3-0.1,0.6-0.2,0.9c-0.1,0.3-0.2,0.5-0.3,0.8s-0.2,0.5-0.3,0.8
		s-0.3,0.6-0.4,0.8c-0.1,0.2-0.2,0.4-0.3,0.6c-0.2,0.3-0.3,0.6-0.5,0.9c-0.1,0.2-0.2,0.4-0.3,0.5c-0.2,0.3-0.4,0.6-0.6,0.9
		c-0.1,0.1-0.2,0.3-0.3,0.4c-0.2,0.3-0.5,0.6-0.8,0.9c-0.1,0.1-0.2,0.2-0.3,0.3c-0.3,0.3-0.6,0.6-0.9,0.9c-0.1,0.1-0.2,0.2-0.2,0.2
		c-0.3,0.3-0.7,0.6-1,0.8c-0.1,0.1-0.1,0.1-0.2,0.2c-0.4,0.3-0.8,0.5-1.2,0.8c-0.1,0-0.1,0.1-0.2,0.1c-0.4,0.2-0.9,0.5-1.3,0.7h-0.1
		c-0.5,0.2-0.9,0.4-1.4,0.6c0,0,0,0-0.1,0c-0.5,0.2-1,0.3-1.5,0.5l0,0c-0.5,0.1-1.1,0.3-1.6,0.3l0,0c-0.9,0.1-1.8,0.2-2.8,0.2
		c-9,0-16.3-6.9-17.2-15.6c0-0.5-0.1-1-0.1-1.5v-0.1C183.3,61,184.3,57.7,186.2,54.9z"/>
	<g>
		
			<text transform="matrix(0.9848 -2.363544e-04 2.400000e-04 1 53.9849 72.7365)" fill="#FFFFFF" font-family="'Oswald-Regular'" font-size="18px">Telefones Úteis</text>
	</g>
</g>
</svg>
