<?xml version="1.0" encoding="utf-8"?>
<!-- Generator: Adobe Illustrator 19.2.1, SVG Export Plug-In . SVG Version: 6.00 Build 0)  -->
<svg version="1.1" id="Layer_1" xmlns="http://www.w3.org/2000/svg" xmlns:xlink="http://www.w3.org/1999/xlink" x="0px" y="0px"
	 viewBox="0 0 299 118.9" style="enable-background:new 0 0 299 118.9;" xml:space="preserve">
<style type="text/css">
	.st0{fill:#172B53;stroke:#172B53;stroke-width:0.2;stroke-miterlimit:10;}
	.st1{fill:#172C53;}
</style>
<g>
	<g>
		<path class="st0" d="M175.3,111.6c-0.3,0.5-0.6,0.9-1,1.2c-0.4,0.3-0.9,0.6-1.4,0.8c-0.5,0.2-1,0.3-1.6,0.3
			c-0.6,0-1.1-0.1-1.5-0.3c-0.4-0.2-0.8-0.5-1.1-0.8c-0.3-0.3-0.5-0.8-0.6-1.2c-0.1-0.5-0.1-1,0-1.6l1.2-6.7
			c0.1-0.6,0.3-1.1,0.6-1.6c0.3-0.5,0.6-0.9,1-1.2c0.4-0.3,0.9-0.6,1.4-0.8c0.5-0.2,1-0.3,1.6-0.3s1.1,0.1,1.5,0.3
			c0.4,0.2,0.8,0.5,1.1,0.8c0.3,0.3,0.5,0.8,0.6,1.2c0.1,0.5,0.1,1,0,1.6l-1.2,6.7C175.8,110.6,175.6,111.1,175.3,111.6z
			 M175.6,103.4c0.1-0.8,0-1.4-0.3-2c-0.3-0.5-0.9-0.8-1.7-0.8c-0.8,0-1.5,0.3-2,0.8c-0.5,0.5-0.8,1.2-1,2l-1.2,6.5
			c-0.1,0.8,0,1.4,0.3,2c0.3,0.5,0.9,0.8,1.7,0.8c0.8,0,1.5-0.3,2-0.8c0.5-0.5,0.8-1.2,1-2L175.6,103.4z"/>
		<path class="st0" d="M186.1,111.5c-0.3,0.5-0.7,0.9-1.1,1.3c-0.4,0.4-0.9,0.6-1.5,0.8c-0.6,0.2-1.1,0.3-1.7,0.3s-1.1-0.1-1.6-0.3
			c-0.5-0.2-0.9-0.5-1.2-0.8c-0.3-0.4-0.5-0.8-0.7-1.3c-0.1-0.5-0.1-1,0-1.7c0.1-0.8,0.5-1.6,1-2.1c0.5-0.6,1.1-1,1.8-1.4
			c-0.5-0.3-0.9-0.7-1.1-1.3s-0.3-1.2-0.2-1.9c0.1-0.6,0.3-1.1,0.6-1.5c0.3-0.5,0.6-0.9,1-1.2c0.4-0.3,0.9-0.6,1.4-0.8
			c0.5-0.2,1.1-0.3,1.6-0.3s1.1,0.1,1.5,0.3c0.5,0.2,0.8,0.5,1.1,0.8c0.3,0.3,0.5,0.7,0.6,1.2c0.1,0.5,0.1,1,0,1.5
			c-0.1,0.7-0.4,1.4-0.8,1.9c-0.4,0.5-1,0.9-1.6,1.3c0.5,0.3,1,0.8,1.3,1.4c0.3,0.6,0.4,1.3,0.2,2.1
			C186.7,110.5,186.4,111,186.1,111.5z M185.3,108.8c-0.1-0.3-0.2-0.6-0.4-0.9c-0.2-0.3-0.5-0.5-0.8-0.6c-0.3-0.1-0.7-0.2-1.1-0.2
			c-0.4,0-0.8,0.1-1.1,0.2c-0.4,0.1-0.7,0.3-1,0.6c-0.3,0.3-0.5,0.6-0.7,0.9c-0.2,0.3-0.3,0.7-0.4,1.1c-0.1,0.4-0.1,0.8,0,1.1
			c0.1,0.3,0.2,0.6,0.4,0.9c0.2,0.3,0.5,0.5,0.8,0.6c0.3,0.1,0.7,0.2,1.1,0.2c0.4,0,0.8-0.1,1.1-0.2c0.4-0.1,0.7-0.3,1-0.6
			c0.3-0.3,0.5-0.6,0.7-0.9c0.2-0.3,0.3-0.7,0.4-1.1C185.4,109.5,185.4,109.1,185.3,108.8z M185.8,101.4c-0.4-0.5-0.9-0.7-1.7-0.7
			c-0.7,0-1.4,0.2-1.9,0.7c-0.5,0.5-0.9,1.1-1,1.8c-0.1,0.8,0,1.4,0.4,1.8c0.4,0.5,0.9,0.7,1.7,0.7c0.7,0,1.4-0.2,1.9-0.7
			c0.5-0.5,0.9-1.1,1-1.8C186.3,102.5,186.2,101.9,185.8,101.4z"/>
		<path class="st0" d="M196.4,111.6c-0.3,0.5-0.6,0.9-1,1.2c-0.4,0.3-0.9,0.6-1.4,0.8c-0.5,0.2-1,0.3-1.6,0.3
			c-0.6,0-1.1-0.1-1.5-0.3c-0.4-0.2-0.8-0.5-1.1-0.8c-0.3-0.3-0.5-0.8-0.6-1.2c-0.1-0.5-0.1-1,0-1.6l1.2-6.7
			c0.1-0.6,0.3-1.1,0.6-1.6c0.3-0.5,0.6-0.9,1-1.2c0.4-0.3,0.9-0.6,1.4-0.8c0.5-0.2,1-0.3,1.6-0.3s1.1,0.1,1.5,0.3
			c0.4,0.2,0.8,0.5,1.1,0.8c0.3,0.3,0.5,0.8,0.6,1.2c0.1,0.5,0.1,1,0,1.6l-1.2,6.7C196.8,110.6,196.6,111.1,196.4,111.6z
			 M196.7,103.4c0.1-0.8,0-1.4-0.3-2c-0.3-0.5-0.9-0.8-1.7-0.8c-0.8,0-1.5,0.3-2,0.8c-0.5,0.5-0.8,1.2-1,2l-1.2,6.5
			c-0.1,0.8,0,1.4,0.3,2c0.3,0.5,0.9,0.8,1.7,0.8c0.8,0,1.5-0.3,2-0.8c0.5-0.5,0.8-1.2,1-2L196.7,103.4z"/>
		<path class="st0" d="M206.9,111.6c-0.3,0.5-0.6,0.9-1,1.2c-0.4,0.3-0.9,0.6-1.4,0.8c-0.5,0.2-1,0.3-1.6,0.3
			c-0.6,0-1.1-0.1-1.5-0.3c-0.4-0.2-0.8-0.5-1.1-0.8c-0.3-0.3-0.5-0.8-0.6-1.2c-0.1-0.5-0.1-1,0-1.6l1.2-6.7
			c0.1-0.6,0.3-1.1,0.6-1.6c0.3-0.5,0.6-0.9,1-1.2c0.4-0.3,0.9-0.6,1.4-0.8c0.5-0.2,1-0.3,1.6-0.3c0.6,0,1.1,0.1,1.5,0.3
			c0.4,0.2,0.8,0.5,1.1,0.8c0.3,0.3,0.5,0.8,0.6,1.2c0.1,0.5,0.1,1,0,1.6l-1.2,6.7C207.4,110.6,207.2,111.1,206.9,111.6z
			 M207.2,103.4c0.1-0.8,0-1.4-0.3-2c-0.3-0.5-0.9-0.8-1.7-0.8c-0.8,0-1.5,0.3-2,0.8c-0.5,0.5-0.8,1.2-1,2l-1.2,6.5
			c-0.1,0.8,0,1.4,0.3,2c0.3,0.5,0.9,0.8,1.7,0.8s1.5-0.3,2-0.8c0.5-0.5,0.8-1.2,1-2L207.2,103.4z"/>
		<path class="st0" d="M222.4,111.6c-0.3,0.5-0.6,0.9-1,1.2c-0.4,0.3-0.9,0.6-1.4,0.8c-0.5,0.2-1,0.3-1.6,0.3
			c-0.6,0-1.1-0.1-1.5-0.3c-0.4-0.2-0.8-0.5-1.1-0.8c-0.3-0.3-0.5-0.8-0.6-1.2c-0.1-0.5-0.1-1,0-1.6l1.2-6.7
			c0.1-0.6,0.3-1.1,0.6-1.6c0.3-0.5,0.6-0.9,1-1.2c0.4-0.3,0.9-0.6,1.4-0.8c0.5-0.2,1-0.3,1.6-0.3s1.1,0.1,1.5,0.3
			c0.4,0.2,0.8,0.5,1.1,0.8c0.3,0.3,0.5,0.8,0.6,1.2c0.1,0.5,0.1,1,0,1.6L223,110C222.9,110.6,222.7,111.1,222.4,111.6z
			 M222.7,103.4c0.1-0.8,0-1.4-0.3-2c-0.3-0.5-0.9-0.8-1.7-0.8c-0.8,0-1.5,0.3-2,0.8c-0.5,0.5-0.8,1.2-1,2l-1.2,6.5
			c-0.1,0.8,0,1.4,0.3,2c0.3,0.5,0.9,0.8,1.7,0.8c0.8,0,1.5-0.3,2-0.8c0.5-0.5,0.8-1.2,1-2L222.7,103.4z"/>
		<path class="st0" d="M225,113.8l0.2-1.3l6.9-7.2c0.3-0.3,0.6-0.7,0.8-1c0.2-0.3,0.3-0.7,0.4-1.1c0.1-0.8,0-1.4-0.3-1.9
			c-0.4-0.5-0.9-0.7-1.7-0.7c-0.3,0-0.7,0-1,0.1c-0.3,0.1-0.6,0.2-0.9,0.5c-0.3,0.2-0.5,0.5-0.7,0.8c-0.2,0.3-0.3,0.7-0.4,1.2h-1.5
			c0.1-0.6,0.3-1.1,0.6-1.6c0.3-0.5,0.6-0.9,1-1.2c0.4-0.3,0.9-0.6,1.4-0.8c0.5-0.2,1.1-0.3,1.7-0.3c0.6,0,1.1,0.1,1.6,0.3
			c0.5,0.2,0.8,0.4,1.1,0.8c0.3,0.3,0.5,0.7,0.6,1.2c0.1,0.5,0.1,1,0,1.6c-0.1,0.6-0.3,1.1-0.5,1.5c-0.3,0.4-0.6,0.9-1.1,1.4
			l-6.1,6.4h6.2l-0.2,1.3H225z"/>
		<path class="st0" d="M235.5,113.8l0.2-1.3l6.9-7.2c0.3-0.3,0.6-0.7,0.8-1c0.2-0.3,0.3-0.7,0.4-1.1c0.1-0.8,0-1.4-0.3-1.9
			c-0.4-0.5-0.9-0.7-1.7-0.7c-0.3,0-0.7,0-1,0.1c-0.3,0.1-0.6,0.2-0.9,0.5c-0.3,0.2-0.5,0.5-0.7,0.8c-0.2,0.3-0.3,0.7-0.4,1.2h-1.5
			c0.1-0.6,0.3-1.1,0.6-1.6c0.3-0.5,0.6-0.9,1-1.2c0.4-0.3,0.9-0.6,1.4-0.8c0.5-0.2,1.1-0.3,1.7-0.3c0.6,0,1.1,0.1,1.6,0.3
			c0.5,0.2,0.8,0.4,1.1,0.8c0.3,0.3,0.5,0.7,0.6,1.2c0.1,0.5,0.1,1,0,1.6c-0.1,0.6-0.3,1.1-0.5,1.5c-0.3,0.4-0.6,0.9-1.1,1.4
			l-6.1,6.4h6.2l-0.2,1.3H235.5z"/>
		<path class="st0" d="M253.9,111.6c-0.3,0.5-0.6,0.9-1,1.2c-0.4,0.3-0.9,0.6-1.4,0.8c-0.5,0.2-1,0.3-1.6,0.3
			c-0.6,0-1.1-0.1-1.5-0.3c-0.4-0.2-0.8-0.5-1.1-0.8c-0.3-0.3-0.5-0.8-0.6-1.2c-0.1-0.5-0.1-1,0-1.6l1.2-6.7
			c0.1-0.6,0.3-1.1,0.6-1.6c0.3-0.5,0.6-0.9,1-1.2c0.4-0.3,0.9-0.6,1.4-0.8c0.5-0.2,1-0.3,1.6-0.3s1.1,0.1,1.5,0.3
			c0.4,0.2,0.8,0.5,1.1,0.8c0.3,0.3,0.5,0.8,0.6,1.2c0.1,0.5,0.1,1,0,1.6l-1.2,6.7C254.4,110.6,254.2,111.1,253.9,111.6z
			 M254.2,103.4c0.1-0.8,0-1.4-0.3-2c-0.3-0.5-0.9-0.8-1.7-0.8c-0.8,0-1.5,0.3-2,0.8c-0.5,0.5-0.8,1.2-1,2l-1.2,6.5
			c-0.1,0.8,0,1.4,0.3,2c0.3,0.5,0.9,0.8,1.7,0.8s1.5-0.3,2-0.8c0.5-0.5,0.8-1.2,1-2L254.2,103.4z"/>
		<path class="st0" d="M264.5,111.6c-0.3,0.5-0.6,0.9-1,1.2c-0.4,0.3-0.9,0.6-1.4,0.8c-0.5,0.2-1,0.3-1.6,0.3
			c-0.6,0-1.1-0.1-1.5-0.3c-0.4-0.2-0.8-0.5-1.1-0.8c-0.3-0.3-0.5-0.8-0.6-1.2c-0.1-0.5-0.1-1,0-1.6l1.2-6.7
			c0.1-0.6,0.3-1.1,0.6-1.6c0.3-0.5,0.6-0.9,1-1.2c0.4-0.3,0.9-0.6,1.4-0.8c0.5-0.2,1-0.3,1.6-0.3c0.6,0,1.1,0.1,1.5,0.3
			c0.4,0.2,0.8,0.5,1.1,0.8c0.3,0.3,0.5,0.8,0.6,1.2c0.1,0.5,0.1,1,0,1.6L265,110C264.9,110.6,264.7,111.1,264.5,111.6z
			 M264.8,103.4c0.1-0.8,0-1.4-0.3-2c-0.3-0.5-0.9-0.8-1.7-0.8c-0.8,0-1.5,0.3-2,0.8c-0.5,0.5-0.8,1.2-1,2l-1.2,6.5
			c-0.1,0.8,0,1.4,0.3,2c0.3,0.5,0.9,0.8,1.7,0.8s1.5-0.3,2-0.8c0.5-0.5,0.8-1.2,1-2L264.8,103.4z"/>
		<path class="st0" d="M275,111.6c-0.3,0.5-0.6,0.9-1,1.2c-0.4,0.3-0.9,0.6-1.4,0.8c-0.5,0.2-1,0.3-1.6,0.3c-0.6,0-1.1-0.1-1.5-0.3
			c-0.4-0.2-0.8-0.5-1.1-0.8c-0.3-0.3-0.5-0.8-0.6-1.2c-0.1-0.5-0.1-1,0-1.6l1.2-6.7c0.1-0.6,0.3-1.1,0.6-1.6c0.3-0.5,0.6-0.9,1-1.2
			c0.4-0.3,0.9-0.6,1.4-0.8c0.5-0.2,1-0.3,1.6-0.3c0.6,0,1.1,0.1,1.5,0.3c0.4,0.2,0.8,0.5,1.1,0.8c0.3,0.3,0.5,0.8,0.6,1.2
			c0.1,0.5,0.1,1,0,1.6l-1.2,6.7C275.4,110.6,275.3,111.1,275,111.6z M275.3,103.4c0.1-0.8,0-1.4-0.3-2c-0.3-0.5-0.9-0.8-1.7-0.8
			c-0.8,0-1.5,0.3-2,0.8c-0.5,0.5-0.8,1.2-1,2l-1.2,6.5c-0.1,0.8,0,1.4,0.3,2c0.3,0.5,0.9,0.8,1.7,0.8c0.8,0,1.5-0.3,2-0.8
			c0.5-0.5,0.8-1.2,1-2L275.3,103.4z"/>
		<path class="st0" d="M285.8,111.5c-0.3,0.5-0.7,0.9-1.1,1.3c-0.4,0.4-0.9,0.6-1.5,0.8c-0.6,0.2-1.1,0.3-1.7,0.3
			c-0.6,0-1.1-0.1-1.6-0.3c-0.5-0.2-0.9-0.5-1.2-0.8c-0.3-0.4-0.5-0.8-0.7-1.3c-0.1-0.5-0.1-1,0-1.7c0.1-0.8,0.5-1.6,1-2.1
			c0.5-0.6,1.1-1,1.8-1.4c-0.5-0.3-0.9-0.7-1.1-1.3c-0.3-0.5-0.3-1.2-0.2-1.9c0.1-0.6,0.3-1.1,0.6-1.5c0.3-0.5,0.6-0.9,1-1.2
			c0.4-0.3,0.9-0.6,1.4-0.8c0.5-0.2,1.1-0.3,1.6-0.3c0.6,0,1.1,0.1,1.5,0.3c0.5,0.2,0.8,0.5,1.1,0.8c0.3,0.3,0.5,0.7,0.6,1.2
			c0.1,0.5,0.1,1,0,1.5c-0.1,0.7-0.4,1.4-0.8,1.9c-0.4,0.5-1,0.9-1.6,1.3c0.5,0.3,1,0.8,1.3,1.4c0.3,0.6,0.4,1.3,0.2,2.1
			C286.3,110.5,286.1,111,285.8,111.5z M284.9,108.8c-0.1-0.3-0.2-0.6-0.4-0.9c-0.2-0.3-0.5-0.5-0.8-0.6s-0.7-0.2-1.1-0.2
			c-0.4,0-0.8,0.1-1.1,0.2c-0.4,0.1-0.7,0.3-1,0.6c-0.3,0.3-0.5,0.6-0.7,0.9c-0.2,0.3-0.3,0.7-0.4,1.1c-0.1,0.4-0.1,0.8,0,1.1
			c0.1,0.3,0.2,0.6,0.4,0.9c0.2,0.3,0.5,0.5,0.8,0.6c0.3,0.1,0.7,0.2,1.1,0.2c0.4,0,0.8-0.1,1.1-0.2c0.4-0.1,0.7-0.3,1-0.6
			c0.3-0.3,0.5-0.6,0.7-0.9c0.2-0.3,0.3-0.7,0.4-1.1C285,109.5,285,109.1,284.9,108.8z M285.5,101.4c-0.4-0.5-0.9-0.7-1.7-0.7
			c-0.7,0-1.4,0.2-1.9,0.7c-0.5,0.5-0.9,1.1-1,1.8c-0.1,0.8,0,1.4,0.4,1.8c0.4,0.5,0.9,0.7,1.7,0.7c0.7,0,1.4-0.2,1.9-0.7
			c0.5-0.5,0.9-1.1,1-1.8C286,102.5,285.8,101.9,285.5,101.4z"/>
	</g>
	<g>
		<g>
			<path class="st1" d="M10.9,113.7l-0.6-3.4H3.8L2,113.7H0.3l8.1-14.9h1.3l2.8,14.9H10.9z M8.7,101l-4.2,7.9h5.6L8.7,101z"/>
			<path class="st1" d="M19.5,118.3l1-5.8c-0.5,0.5-1,0.9-1.5,1.1c-0.5,0.2-1,0.3-1.6,0.3c-0.5,0-1-0.1-1.4-0.2
				c-0.4-0.2-0.7-0.4-1-0.7c-0.2-0.3-0.4-0.6-0.5-0.9c-0.1-0.3-0.2-0.7-0.2-1.1c0-0.4,0-0.8,0-1.2c0-0.4,0.1-0.8,0.2-1.2
				c0.1-0.4,0.2-0.8,0.3-1.2c0.1-0.4,0.2-0.8,0.4-1.2c0.2-0.4,0.3-0.7,0.6-1.1c0.2-0.3,0.5-0.6,0.8-0.9c0.3-0.3,0.7-0.5,1.2-0.7
				c0.5-0.2,1-0.2,1.5-0.2c0.6,0,1.1,0.1,1.5,0.3c0.5,0.2,0.8,0.5,1.2,1.1l0.2-1.2h1.5L21,118.3H19.5z M21.3,107
				c0-0.5,0-0.9-0.1-1.3c-0.1-0.4-0.3-0.7-0.6-0.9c-0.3-0.2-0.7-0.3-1.3-0.3c-0.6,0-1,0.1-1.4,0.3c-0.4,0.2-0.7,0.5-0.9,0.9
				c-0.2,0.4-0.4,0.8-0.6,1.3c-0.1,0.5-0.3,1-0.4,1.5c-0.1,0.5-0.1,1-0.2,1.5s0,0.9,0.1,1.3c0.1,0.4,0.3,0.7,0.6,0.9
				c0.3,0.2,0.7,0.3,1.3,0.3c0.6,0,1-0.1,1.4-0.3c0.4-0.2,0.7-0.5,0.9-0.9c0.2-0.4,0.4-0.8,0.6-1.3s0.3-1,0.3-1.5
				C21.3,108,21.3,107.5,21.3,107z"/>
			<path class="st1" d="M31.4,113.7l0.2-1.2c-0.4,0.4-0.9,0.7-1.5,1c-0.5,0.2-1.1,0.3-1.7,0.3c-1.1,0-2-0.3-2.5-1
				c-0.3-0.4-0.5-0.8-0.6-1.3c-0.1-0.5-0.1-1,0-1.6l1.2-6.6h1.5l-1.1,6.3c-0.2,0.9-0.1,1.6,0.3,2.1c0.4,0.5,0.9,0.7,1.7,0.7
				c0.8,0,1.4-0.2,2-0.7c0.5-0.5,0.9-1.1,1.1-2.1l1.1-6.3h1.5l-1.8,10.3H31.4z"/>
			<path class="st1" d="M36.1,113.7l1.8-10.3h1.5l-1.8,10.3H36.1z M38.4,100.4l0.3-1.7h1.7l-0.3,1.7H38.4z"/>
			<path class="st1" d="M48.9,113.7h-1.3l-2-10.3h1.6l1.3,8.3l4.3-8.3h1.6L48.9,113.7z"/>
			<path class="st1" d="M62.1,110.8c-0.3,0.7-0.7,1.3-1.3,1.9c-0.4,0.4-0.9,0.6-1.4,0.9c-0.5,0.2-1.1,0.3-1.7,0.3s-1.2-0.1-1.6-0.3
				c-0.5-0.2-0.8-0.5-1.1-0.9c-0.2-0.3-0.4-0.6-0.5-0.9c-0.1-0.3-0.2-0.6-0.2-1c0-0.3,0-0.7,0-1.1c0-0.4,0.1-0.8,0.2-1.2
				c0.1-0.4,0.2-0.8,0.3-1.2c0.1-0.4,0.2-0.7,0.4-1.1c0.2-0.3,0.3-0.7,0.6-1c0.2-0.3,0.5-0.6,0.8-0.9c0.4-0.4,0.9-0.7,1.4-0.9
				c0.5-0.2,1.1-0.3,1.7-0.3s1.2,0.1,1.6,0.3c0.5,0.2,0.8,0.5,1.1,0.9c0.4,0.5,0.7,1.1,0.7,1.9c0,0.7,0,1.5-0.2,2.3
				C62.6,109.3,62.4,110.1,62.1,110.8z M61.4,107.6c0-0.3,0.1-0.6,0-0.9c0-0.3,0-0.5-0.1-0.8c-0.1-0.2-0.2-0.5-0.3-0.7
				c-0.4-0.5-1-0.8-1.8-0.8c-0.7,0-1.4,0.3-2,0.8c-0.2,0.2-0.4,0.4-0.6,0.7c-0.1,0.2-0.3,0.5-0.4,0.8c-0.1,0.3-0.2,0.6-0.3,0.9
				c-0.1,0.3-0.1,0.6-0.2,0.9c-0.1,0.3-0.1,0.6-0.1,0.9c0,0.3,0,0.6,0,0.9s0.1,0.5,0.1,0.8c0.1,0.3,0.2,0.5,0.3,0.7
				c0.4,0.5,1,0.8,1.7,0.8c0.8,0,1.4-0.3,2-0.8c0.2-0.2,0.4-0.4,0.6-0.7c0.2-0.3,0.3-0.5,0.4-0.8s0.2-0.6,0.3-0.9
				c0.1-0.3,0.1-0.6,0.2-0.9C61.3,108.2,61.3,107.9,61.4,107.6z"/>
			<path class="st1" d="M70.3,113.4c-0.6,0.2-1.2,0.3-1.9,0.3c-0.7,0-1.2-0.1-1.8-0.3c-0.5-0.2-0.9-0.5-1.3-1
				c-0.3-0.4-0.6-1-0.7-1.7c-0.1-0.7-0.1-1.4,0.1-2.3c0.2-0.9,0.4-1.7,0.8-2.3c0.3-0.7,0.8-1.2,1.3-1.6c0.5-0.4,1-0.8,1.6-1
				c0.6-0.2,1.2-0.3,1.9-0.3c0.7,0,1.3,0.1,1.8,0.3c0.5,0.2,0.9,0.6,1.4,1.2l-1.2,1c-0.3-0.4-0.6-0.7-1-0.9
				c-0.3-0.2-0.7-0.3-1.2-0.3c-0.5,0-1,0.1-1.4,0.3c-0.4,0.2-0.8,0.5-1.2,0.9c-0.3,0.3-0.5,0.7-0.7,1.1c-0.2,0.4-0.3,1-0.4,1.6
				c-0.1,0.7-0.2,1.2-0.1,1.6s0.1,0.8,0.3,1.1c0.2,0.4,0.5,0.7,0.9,0.9c0.4,0.2,0.8,0.3,1.3,0.3c0.5,0,0.9-0.1,1.3-0.3
				c0.4-0.2,0.8-0.5,1.3-0.9l0.9,1C71.5,112.8,70.9,113.2,70.3,113.4z"/>
			<path class="st1" d="M75.6,108.9c-0.2,1.1-0.1,2,0.3,2.6c0.4,0.6,1.1,0.9,2.1,0.9c0.6,0,1.1-0.1,1.5-0.3c0.4-0.2,0.9-0.5,1.4-0.9
				l0.9,0.9c-0.3,0.3-0.6,0.5-0.9,0.7c-0.3,0.2-0.6,0.4-0.9,0.5c-0.3,0.1-0.7,0.2-1,0.3c-0.4,0.1-0.8,0.1-1.2,0.1
				c-0.7,0-1.3-0.1-1.8-0.3c-0.5-0.2-0.9-0.5-1.2-1c-0.3-0.4-0.5-1-0.6-1.6c-0.1-0.7-0.1-1.4,0.1-2.4c0.3-1.7,0.9-3,1.8-3.9
				c0.9-0.9,2-1.4,3.3-1.4c1.3,0,2.3,0.4,2.9,1.3c0.6,0.9,0.7,2.1,0.5,3.6l-0.1,0.7H75.6z M81.3,107.2c0-0.2,0-0.3,0-0.4
				c0-0.1,0-0.2,0-0.4c0-0.1,0-0.2-0.1-0.4c-0.1-0.5-0.4-0.9-0.7-1.1c-0.4-0.3-0.8-0.4-1.4-0.4c-0.5,0-1.1,0.1-1.5,0.4
				c-0.5,0.3-0.9,0.7-1.1,1.1c-0.2,0.3-0.3,0.5-0.4,0.8c-0.1,0.2-0.2,0.5-0.3,1h5.4C81.3,107.6,81.3,107.4,81.3,107.2z M81.6,101.2
				L80.1,99l-2.3,2.2h-1.4l3.2-3.2H81l2.1,3.2H81.6z"/>
			<path class="st1" d="M91.8,113.7c-0.4,0-0.8-0.1-1.1-0.2c-0.3-0.1-0.5-0.3-0.7-0.6c-0.2-0.3-0.3-0.5-0.3-0.9
				c-0.1-0.3,0-0.7,0-1.1l1.1-6.3h-1.3l0.2-1.2H91l0.6-3.2H93l-0.6,3.2h2.2l-0.2,1.2h-2.2l-1.1,6.3c-0.1,0.5,0,0.8,0.1,1.1
				c0.2,0.3,0.5,0.4,1,0.4h0.8l-0.2,1.3H91.8z"/>
			<path class="st1" d="M96.9,108.9c-0.2,1.1-0.1,2,0.3,2.6c0.4,0.6,1.1,0.9,2.1,0.9c0.6,0,1.1-0.1,1.5-0.3c0.4-0.2,0.9-0.5,1.4-0.9
				l0.9,0.9c-0.3,0.3-0.6,0.5-0.9,0.7c-0.3,0.2-0.6,0.4-0.9,0.5c-0.3,0.1-0.7,0.2-1,0.3c-0.4,0.1-0.8,0.1-1.2,0.1
				c-0.7,0-1.3-0.1-1.8-0.3c-0.5-0.2-0.9-0.5-1.2-1c-0.3-0.4-0.5-1-0.6-1.6c-0.1-0.7-0.1-1.4,0.1-2.4c0.3-1.7,0.9-3,1.8-3.9
				c0.9-0.9,2-1.4,3.3-1.4c1.3,0,2.3,0.4,2.9,1.3c0.6,0.9,0.7,2.1,0.5,3.6l-0.1,0.7H96.9z M102.6,107.2c0-0.2,0-0.3,0-0.4
				c0-0.1,0-0.2,0-0.4c0-0.1,0-0.2-0.1-0.4c-0.1-0.5-0.4-0.9-0.7-1.1c-0.4-0.3-0.8-0.4-1.4-0.4c-0.5,0-1.1,0.1-1.5,0.4
				c-0.5,0.3-0.9,0.7-1.1,1.1c-0.2,0.3-0.3,0.5-0.4,0.8c-0.1,0.2-0.2,0.5-0.3,1h5.4C102.5,107.6,102.6,107.4,102.6,107.2z"/>
			<path class="st1" d="M118.8,113.7l1.1-6.3c0.2-0.9,0.1-1.6-0.3-2.1c-0.4-0.5-1-0.7-1.7-0.7c-0.8,0-1.4,0.2-2,0.7
				c-0.6,0.4-0.9,1.1-1.1,1.9l-1.1,6.5h-1.5l1.1-6.3c0.2-0.9,0.1-1.6-0.3-2.1c-0.4-0.5-1-0.7-1.7-0.7c-0.8,0-1.4,0.2-2,0.7
				c-0.6,0.5-0.9,1.1-1.1,2.1l-1.1,6.3h-1.5l1.8-10.3h1.5l-0.2,1.1c0.4-0.4,0.9-0.7,1.5-0.9c0.5-0.2,1.1-0.3,1.7-0.3
				c0.7,0,1.3,0.1,1.8,0.4c0.5,0.3,0.8,0.7,1.1,1.3c1-1.1,2.2-1.7,3.7-1.7c0.6,0,1,0.1,1.5,0.3c0.4,0.2,0.8,0.4,1,0.7
				c0.6,0.7,0.8,1.7,0.6,2.9l-1.2,6.6H118.8z"/>
			<path class="st1" d="M131.5,113.7h-1.3l-2-10.3h1.6l1.3,8.3l4.3-8.3h1.6L131.5,113.7z"/>
			<path class="st1" d="M144.7,110.8c-0.3,0.7-0.7,1.3-1.3,1.9c-0.4,0.4-0.9,0.6-1.4,0.9c-0.5,0.2-1.1,0.3-1.7,0.3
				c-0.6,0-1.2-0.1-1.6-0.3c-0.5-0.2-0.8-0.5-1.1-0.9c-0.2-0.3-0.4-0.6-0.5-0.9c-0.1-0.3-0.2-0.6-0.2-1c0-0.3,0-0.7,0-1.1
				c0-0.4,0.1-0.8,0.2-1.2c0.1-0.4,0.2-0.8,0.3-1.2c0.1-0.4,0.2-0.7,0.4-1.1c0.2-0.3,0.3-0.7,0.6-1c0.2-0.3,0.5-0.6,0.8-0.9
				c0.4-0.4,0.9-0.7,1.4-0.9c0.5-0.2,1.1-0.3,1.7-0.3s1.2,0.1,1.6,0.3c0.5,0.2,0.8,0.5,1.1,0.9c0.4,0.5,0.7,1.1,0.7,1.9
				c0,0.7,0,1.5-0.2,2.3C145.2,109.3,145,110.1,144.7,110.8z M144,107.6c0-0.3,0.1-0.6,0-0.9c0-0.3,0-0.5-0.1-0.8
				c-0.1-0.2-0.2-0.5-0.3-0.7c-0.4-0.5-1-0.8-1.8-0.8c-0.7,0-1.4,0.3-2,0.8c-0.2,0.2-0.4,0.4-0.6,0.7c-0.1,0.2-0.3,0.5-0.4,0.8
				c-0.1,0.3-0.2,0.6-0.3,0.9c-0.1,0.3-0.1,0.6-0.2,0.9c-0.1,0.3-0.1,0.6-0.1,0.9c0,0.3,0,0.6,0,0.9s0.1,0.5,0.1,0.8
				c0.1,0.3,0.2,0.5,0.3,0.7c0.4,0.5,1,0.8,1.7,0.8c0.8,0,1.4-0.3,2-0.8c0.2-0.2,0.4-0.4,0.6-0.7c0.2-0.3,0.3-0.5,0.4-0.8
				s0.2-0.6,0.3-0.9c0.1-0.3,0.1-0.6,0.2-0.9C143.9,108.2,143.9,107.9,144,107.6z"/>
			<path class="st1" d="M146.2,113.7l0.2-1.3l7.1-7.7h-5.4l0.2-1.3h7.2l-0.2,1.3l-7.1,7.7h5.8l-0.2,1.3H146.2z"/>
			<path class="st1" d="M156,113.7l0.3-2h2l-0.3,2H156z"/>
		</g>
	</g>
	<path class="st1" d="M69.1,77l-2.4-13.7c-0.1-0.6-0.6-1-1.3-1H36.8c-0.5,0-0.9,0.3-1.1,0.7L28,77.3c-0.2,0.4-0.7,0.7-1.1,0.7h-5
		c-1,0-1.6-1-1.1-1.9L57.3,9c0.2-0.4,0.7-0.7,1.1-0.7h4.5c0.6,0,1.1,0.4,1.2,1l12.8,67.1c0.1,0.8-0.5,1.5-1.2,1.5h-5.3
		C69.7,78,69.2,77.6,69.1,77z M57.3,22.3L40.4,53.9c-0.5,0.8,0.2,1.9,1.1,1.9h22.4c0.8,0,1.4-0.7,1.3-1.5l-5.5-31.7
		C59.5,21.5,57.9,21.2,57.3,22.3z"/>
	<path class="st1" d="M92.8,78c-4.2,0-7.1-1.2-8.7-3.7c-1.5-2.4-2-5.5-1.3-9.2l9.9-55.9c0.1-0.5,0.6-0.9,1.1-0.9h4.7
		c0.7,0,1.2,0.6,1.1,1.3l-9.7,55.2c-0.4,2.3-0.3,4.1,0.4,5.3c0.7,1.2,2.3,1.8,4.8,1.8h2.5c0.7,0,1.2,0.6,1.1,1.3L98,77.1
		c-0.1,0.5-0.6,0.9-1.1,0.9H92.8z"/>
	<path class="st1" d="M140.3,64.5c-1.3,3.3-3.4,6.2-6.3,8.7c-2,1.7-4.2,3-6.7,4c-2.5,1-5.2,1.5-8.1,1.5c-2.9,0-5.5-0.5-7.6-1.5
		c-2.1-1-3.9-2.3-5.3-4c-1-1.2-1.8-2.6-2.3-4.1c-0.5-1.5-0.8-3-1-4.6c-0.1-1.6-0.1-3.3,0-5c0.1-1.8,0.4-3.6,0.7-5.5
		c0.3-1.8,0.7-3.6,1.2-5.4c0.5-1.8,1.1-3.5,1.8-5.1c0.7-1.6,1.6-3.1,2.6-4.6c1-1.5,2.2-2.8,3.7-4.1c2-1.7,4.2-3,6.7-4
		c2.5-1,5.2-1.5,8.1-1.5c2.9,0,5.5,0.5,7.6,1.5c2.1,1,3.9,2.3,5.3,4c2,2.5,3,5.4,3.2,8.7c0.2,3.3-0.1,6.8-0.7,10.5
		C142.6,57.7,141.6,61.2,140.3,64.5z M136.9,49.8c0.2-1.4,0.2-2.7,0.2-4c0-1.3-0.2-2.5-0.5-3.7c-0.3-1.1-0.8-2.2-1.5-3.1
		c-1.9-2.3-4.7-3.5-8.2-3.5c-3.5,0-6.6,1.2-9.3,3.5c-1.1,0.9-2,1.9-2.6,3.1c-0.7,1.1-1.3,2.4-1.8,3.7c-0.5,1.3-0.9,2.6-1.2,4
		c-0.3,1.4-0.6,2.7-0.8,4.1c-0.2,1.4-0.5,2.7-0.6,4.1c-0.2,1.4-0.2,2.7-0.2,4c0.1,1.3,0.2,2.5,0.5,3.7c0.3,1.2,0.8,2.2,1.6,3
		c1.9,2.3,4.6,3.5,8.1,3.5c3.5,0,6.7-1.2,9.4-3.5c1-0.8,1.9-1.9,2.6-3c0.7-1.2,1.3-2.4,1.8-3.7c0.5-1.3,0.9-2.6,1.2-4
		c0.3-1.4,0.6-2.7,0.8-4.1C136.5,52.6,136.7,51.2,136.9,49.8z"/>
	<path class="st1" d="M175.2,77.6l-1.2-7.2c-0.1-0.4-0.4-0.7-0.8-0.7h-13.6c-0.3,0-0.6,0.2-0.7,0.5l-4,7.7c-0.1,0.3-0.4,0.4-0.7,0.4
		h-4.8c-0.6,0-1-0.7-0.7-1.2l20.7-38.3c0.1-0.3,0.4-0.4,0.7-0.4h3.7c0.4,0,0.8,0.3,0.8,0.7l7.1,38.3c0.1,0.5-0.3,1-0.8,1H176
		C175.6,78.3,175.2,78,175.2,77.6z M172.7,63.1l-2.1-12.3c-0.1-0.8-1.2-1-1.6-0.3l-6.5,12.3c-0.3,0.6,0.1,1.2,0.7,1.2h8.5
		C172.4,64.1,172.8,63.7,172.7,63.1z"/>
	<path class="st1" d="M183.9,77.3l6.8-38.3c0.1-0.4,0.4-0.7,0.8-0.7h4.4c0.5,0,0.9,0.5,0.8,1L191,71.6c-0.1,0.5,0.3,1,0.8,1h17.1
		c0.5,0,0.9,0.5,0.8,1l-0.7,4.1c-0.1,0.4-0.4,0.7-0.8,0.7h-23.5C184.2,78.3,183.8,77.9,183.9,77.3z"/>
	<path class="st1" d="M211.8,77.3l6.8-38.3c0.1-0.4,0.4-0.7,0.8-0.7H243c0.5,0,0.9,0.5,0.8,1l-0.7,4.1c-0.1,0.4-0.4,0.7-0.8,0.7
		h-17.8c-0.4,0-0.8,0.3-0.8,0.7l-1.7,9.6c-0.1,0.5,0.3,1,0.8,1h14.4c0.5,0,0.9,0.5,0.8,1l-0.7,4.1c-0.1,0.4-0.4,0.7-0.8,0.7h-14.9
		c-0.4,0-0.8,0.3-0.8,0.7l-1.7,9.9c-0.1,0.5,0.3,1,0.8,1H237c0.5,0,0.9,0.5,0.8,1l-0.7,4.1c-0.1,0.4-0.4,0.7-0.8,0.7h-23.6
		C212.1,78.3,211.7,77.9,211.8,77.3z"/>
	<path class="st1" d="M261.4,77.8l-5.1-15.7c-0.1-0.3-0.4-0.6-0.8-0.6h-6c-0.4,0-0.8,0.3-0.8,0.7l-2.7,15.4
		c-0.1,0.4-0.4,0.7-0.8,0.7h-4.4c-0.5,0-0.9-0.5-0.8-1l6.8-38.3c0.1-0.4,0.4-0.7,0.8-0.7h14.5c1.7,0,3.3,0.3,4.7,0.8
		c1.4,0.5,2.6,1.3,3.6,2.4c0.9,1,1.6,2.3,1.9,3.8c0.3,1.5,0.4,3.1,0,4.8c-0.5,3-1.8,5.5-3.8,7.4c-1.5,1.4-3.1,2.5-5,3.1
		c-0.4,0.2-0.7,0.6-0.5,1.1l5.3,15.6c0.2,0.5-0.2,1.1-0.8,1.1h-5.1C261.8,78.3,261.5,78.1,261.4,77.8z M258.4,55.8
		c2,0,3.6-0.5,5.1-1.5c1.4-1,2.2-2.5,2.6-4.5c0.4-2,0.1-3.4-0.8-4.3c-1-0.9-2.4-1.4-4.3-1.4h-8.4c-0.4,0-0.8,0.3-0.8,0.7l-1.8,10.1
		c-0.1,0.5,0.3,1,0.8,1H258.4z"/>
	<path class="st1" d="M279.2,78.6c-1.9,0-3.6-0.3-5-0.9c-1.4-0.6-2.7-1.6-3.8-2.9l-0.6-0.8l4.8-4.1l0.7,0.9c0.5,0.6,1,1.1,1.7,1.5
		c0.4,0.3,1.2,0.6,2.9,0.6c2.2,0,3.9-0.6,5.3-2c1.4-1.3,2.4-3.3,2.8-5.9l4.6-26.1c0.1-0.4,0.4-0.7,0.8-0.7h4.4c0.5,0,0.9,0.5,0.8,1
		L294,66c-0.3,1.9-1,3.7-1.9,5.3c-0.9,1.6-2,2.9-3.3,4c-1.3,1.1-2.8,1.9-4.4,2.5C282.8,78.3,281.1,78.6,279.2,78.6z"/>
	<path class="st1" d="M163.5,16.5c-4.1-5-9.3-9-15.3-11.8c-5.1-2.3-10.6-3.7-16.6-4c-0.5,0-1.4,0-2.2-0.1c-0.8,0-1.5,0.7-1.5,1.5
		v2.3c0,0.8,0.6,1.5,1.5,1.5c0.9,0,2,0,2.6,0.1c5.1,0.4,9.8,1.5,14,3.5c5.3,2.5,9.8,5.9,13.5,10.3c2,2.5,3.6,5.1,4.9,7.8
		c0.3,0.7,1.1,1,1.9,0.8l2.2-0.8c0.8-0.3,1.2-1.2,0.8-2C167.7,22.4,165.8,19.4,163.5,16.5z"/>
	<path class="st1" d="M156.1,22.6c-3.2-3.9-7.3-7-12-9.2c-3.6-1.7-7.6-2.7-11.8-3.1c-0.7-0.1-1.9-0.1-2.9-0.1
		c-0.8,0-1.5,0.6-1.5,1.5V14c0,0.8,0.6,1.5,1.4,1.5c0.9,0,1.9,0.1,2.5,0.1c3.7,0.3,7,1.2,10.1,2.6c4,1.8,7.4,4.5,10.1,7.8
		c1.3,1.6,2.4,3.3,3.3,5.1c0.3,0.7,1.1,1,1.8,0.7l2.2-0.8c0.8-0.3,1.2-1.3,0.8-2.1C159.1,26.7,157.7,24.6,156.1,22.6z"/>
	<path class="st1" d="M148.8,28.7c-2.3-2.8-5.2-5-8.6-6.6c-2.4-1.1-5.2-1.9-8.1-2.2c-0.6-0.1-1.7-0.1-2.6-0.1
		c-0.8,0-1.5,0.6-1.5,1.5v2.4c0,0.8,0.6,1.5,1.4,1.5c0.9,0,1.9,0.1,2.4,0.1c2.3,0.3,4.3,0.8,6.2,1.7c2.7,1.2,5,3,6.8,5.2
		c0.6,0.8,1.2,1.6,1.7,2.5c0.4,0.6,1.1,0.9,1.8,0.6l2.2-0.8c0.8-0.3,1.2-1.3,0.8-2.1C150.4,31,149.7,29.8,148.8,28.7z"/>
	<path class="st1" d="M289.5,89.4H14.6c-0.5,0-0.8-0.5-0.6-0.9l1.5-3c0.1-0.2,0.3-0.3,0.6-0.3H290c0.4,0,0.7,0.4,0.6,0.8l-0.5,3
		C290.1,89.2,289.8,89.4,289.5,89.4z"/>
</g>
</svg>
