<?xml version="1.0" encoding="utf-8"?>
<!-- Generator: Adobe Illustrator 19.1.0, SVG Export Plug-In . SVG Version: 6.00 Build 0)  -->
<svg version="1.1" id="Layer_1" xmlns="http://www.w3.org/2000/svg" xmlns:xlink="http://www.w3.org/1999/xlink" x="0px" y="0px"
	 viewBox="0 0 134.8 169.8" enable-background="new 0 0 134.8 169.8" xml:space="preserve">
<g>
	<polygon fill="#162C53" points="68.2,169.8 134.8,149 134.8,0 0,0 0,149 	"/>
	<g>
		<g>
			<rect x="99.2" y="86.7" fill="#FFFFFF" width="1.8" height="4.6"/>
			<rect x="33.9" y="86.7" fill="#FFFFFF" width="1.8" height="4.6"/>
			<rect x="70" y="35.5" fill="#FFFFFF" width="3.2" height="3.5"/>
			<path fill="#FFFFFF" d="M109.6,113c-0.6,0-1.1-0.5-1.1-1.1c0-0.6,0.5-1.1,1.1-1.1c0.6,0,1.1,0.5,1.1,1.1
				C110.7,112.5,110.2,113,109.6,113"/>
			<path fill="#FFFFFF" d="M25.3,113c-0.6,0-1.1-0.5-1.1-1.1c0-0.6,0.5-1.1,1.1-1.1c0.6,0,1.1,0.5,1.1,1.1
				C26.4,112.5,25.9,113,25.3,113"/>
			<rect x="31.2" y="96.3" fill="#FFFFFF" width="72.5" height="1.7"/>
			<rect x="25.2" y="124.5" fill="#FFFFFF" width="83" height="0.9"/>
			<rect x="94.4" y="86.7" fill="#FFFFFF" width="2.5" height="4.6"/>
			<rect x="88.9" y="86.7" fill="#FFFFFF" width="3.1" height="4.6"/>
			<rect x="83.5" y="86.7" fill="#FFFFFF" width="3.1" height="4.6"/>
			<rect x="77.8" y="86.7" fill="#FFFFFF" width="3.4" height="4.6"/>
			<rect x="71.8" y="86.7" fill="#FFFFFF" width="3.6" height="4.6"/>
			<rect x="65.4" y="86.7" fill="#FFFFFF" width="4.1" height="4.6"/>
			<rect x="59.4" y="86.7" fill="#FFFFFF" width="3.6" height="4.6"/>
			<rect x="53.7" y="86.7" fill="#FFFFFF" width="3.3" height="4.6"/>
			<rect x="48.3" y="86.7" fill="#FFFFFF" width="3.1" height="4.6"/>
			<rect x="42.9" y="86.7" fill="#FFFFFF" width="3.1" height="4.6"/>
			<rect x="38.1" y="86.7" fill="#FFFFFF" width="2.5" height="4.6"/>
			<path fill="#FFFFFF" d="M75.6,78.9H59.4v-1.5h16.2V78.9z M75.6,81.6H59.4v-1.5h16.2V81.6z"/>
			<path fill="#FFFFFF" d="M89.6,78.8H79v-1.5h10.6V78.8z M89.6,81.7H79v-1.5h10.6V81.7z"/>
			<path fill="#FFFFFF" d="M99.1,78.8h-6.2v-1.5h6.2V78.8z M99.1,81.7h-6.2v-1.5l6.2,0V81.7z"/>
			<path fill="#FFFFFF" d="M41.9,78.8h-6.2v-1.5h6.2V78.8z M41.9,81.7h-6.2v-1.5h6.2V81.7z"/>
			<path fill="#FFFFFF" d="M70.2,44.6c3.6,10.6,5.3,19.8,5.3,28.5c0,0.9,0,1.8,0,2.6l0,0.2H59.4v-0.2c0-0.9,0-1.8,0-2.6
				c0-9,1.7-18.4,5.1-28.5H70.2z"/>
			<path fill="#FFFFFF" d="M77,44.6c7.5,8.3,11.8,19.1,12.5,31.1l0,0.2H78.9l0-0.2c0-0.5,0-1.1,0-1.6c0-10.9-2.3-21-6.7-29.5H77z"/>
			<path fill="#FFFFFF" d="M82.2,44.6c9.8,7.5,15.8,18.6,16.9,31.1l0,0.2h-6.2l0-0.2c-0.6-12-5.9-23-14.6-31.1L82.2,44.6z"/>
			<rect x="31.2" y="93.2" fill="#FFFFFF" width="72.5" height="1.7"/>
			<rect x="31.2" y="83.1" fill="#FFFFFF" width="72.5" height="1.7"/>
			<rect x="57.3" y="35.5" fill="#FFFFFF" width="3" height="3.5"/>
			<rect x="61.4" y="35.5" fill="#FFFFFF" width="3.1" height="3.5"/>
			<rect x="74.5" y="35.5" fill="#FFFFFF" width="2.9" height="3.5"/>
			<rect x="65.7" y="35.5" fill="#FFFFFF" width="3.1" height="3.5"/>
			<path fill="#FFFFFF" d="M63.9,34.2l6.8,0l0-3.3c-0.2-1.8-1.6-3.2-3.4-3.2c-1.9,0-3.4,1.6-3.4,3.5L63.9,34.2z"/>
			<path fill="#FFFFFF" d="M73.5,32.6c0-1.2,0.9-2,2-2c1.1,0,2,0.9,2,2v1.5h-4V32.6z"/>
			<path fill="#FFFFFF" d="M57.3,32.6c0-1.2,0.9-2,2-2c1.1,0,2,0.9,2,2v1.5h-4L57.3,32.6z"/>
			<path fill="#FFFFFF" d="M33,114.3l-1.3,3.2c-0.1,0.2-0.1,0.4-0.1,0.5c0,0.5,0.7,0.6,1.4,0.6h0.2v0.6h-4.2v-0.6
				c1.2,0,1.6-0.7,2-1.7l5.2-12.9h0.8l5.2,13.2c0.3,0.8,0.7,1.3,1.4,1.3h0.3v0.6l-5.4,0v-0.6H39c0.5,0,1.4,0,1.4-0.5
				c0-0.3-0.1-0.5-0.3-1l-1.1-2.8L33,114.3z M38.7,113.7l-2.6-6.7l-2.8,6.7L38.7,113.7z"/>
			<path fill="#FFFFFF" d="M53.2,104.3v0.6h-0.6c-1.3,0-1.3,0.5-1.3,1.4l0,12.3h3c2.2,0,3.4-1.1,3.4-3.1h0.7v3.7l-10.9,0v-0.6h0.8
				c0.8,0,0.9-0.4,0.9-1.5l0-9.9c0-2.1,0-2.3-1.2-2.3h-0.5v-0.6L53.2,104.3z"/>
			<path fill="#FFFFFF" d="M62.6,118.6h0.8c0.8,0,0.9-0.4,0.9-1.5l0-9.9c0-2.1,0-2.3-1.2-2.3h-0.5v-0.6l11.3,0l0,3.5h-0.7
				c0-2-1.1-2.9-3.1-2.9l-3.9,0v6.5l2.6,0c1.7,0,2.7-0.4,2.7-2.3h0.7v5.2h-0.7c0-2-1.3-2.2-2.3-2.2h-3.1l0,6.6h3.7
				c2.1,0,3.4-0.5,3.5-2.9h0.7v3.5l-11.6,0V118.6z"/>
			<path fill="#FFFFFF" d="M79.3,118.6h0.8c0.8,0,0.9-0.4,0.9-1.5l0-9.9c0-2.1,0-2.3-1.2-2.3h-0.5v-0.6h5.5c2.4,0,5.7,0.5,5.7,3.5
				c0,2.1-2,3.2-3.8,3.5v0c1.5,0.3,2.9,1,2.9,2.7v3c0,0.5,0,1.4,0.7,1.4c0.7,0,0.8-0.6,1.1-1l0.6,0.2c-0.4,1-1.1,1.9-2.3,1.9
				c-1.6,0-2-1-2-2.6v-2.2c0-2.4-0.7-3.1-3-3.1l-1.8,0l0,5.1c0,1.5,0.1,1.8,1.1,1.8l0.7,0v0.6l-5.4,0V118.6z M83,111h2
				c1.9,0,3.3-1.3,3.3-3.2c0-2.1-1.3-3-3.3-3l-2,0V111z"/>
			<path fill="#FFFFFF" d="M94.7,115.5h0.7c0.1,2,0.6,3.5,2.4,3.5c1.9,0,2.1-1.7,2.1-3.3l0-9.1c0-1.2,0-1.6-1.1-1.6h-0.8v-0.6l5.6,0
				v0.6h-0.8c-1,0-1,0.5-1,1.6v7.7c0,2.9-0.6,5.3-4.1,5.3c-1,0-2.1-0.1-3-0.6V115.5z"/>
			<path fill="#FFFFFF" d="M27.8,131.2c0.1,0.2,0.2,0.5,0.2,0.7l1.1,2.9c0.3,0.8,0.4,0.8,0.6,0.8h0.1v0.2h-1.7v-0.2h0.1
				c0.3,0,0.3,0,0.3-0.2c0-0.1,0-0.2-0.1-0.3l-0.3-0.8h-1.7l-0.2,0.5c-0.1,0.3-0.2,0.5-0.2,0.6c0,0.2,0.2,0.2,0.4,0.2h0.1v0.2h-1.3
				v-0.2h0.1c0.2,0,0.3-0.1,0.5-0.4l1.4-3.3c0.1-0.2,0.2-0.4,0.2-0.6H27.8z M28.1,134.1l-0.8-1.9l-0.8,1.9H28.1z"/>
			<path fill="#FFFFFF" d="M32.8,132.4h-0.2c0-0.6-0.4-1-1-1c-0.5,0-1,0.3-1,0.9c0,1,2.4,0.7,2.4,2.3c0,0.9-0.7,1.4-1.5,1.4
				c-0.3,0-0.5,0-0.6-0.1c-0.2,0-0.3-0.1-0.3-0.1c-0.1,0-0.2,0.1-0.2,0.1h-0.2v-1.3h0.2c0.1,0.7,0.5,1.1,1.2,1.1c0.6,0,1-0.3,1-0.9
				c0-1.1-2.4-0.8-2.4-2.2c0-0.9,0.7-1.4,1.5-1.4c0.3,0,0.7,0.2,0.9,0.2c0.1,0,0.1-0.1,0.1-0.1h0.2V132.4z"/>
			<path fill="#FFFFFF" d="M36.4,132.4h-0.2c0-0.6-0.4-1-1-1c-0.5,0-1,0.3-1,0.9c0,1,2.4,0.7,2.4,2.3c0,0.9-0.7,1.4-1.5,1.4
				c-0.3,0-0.5,0-0.6-0.1c-0.2,0-0.3-0.1-0.3-0.1c-0.1,0-0.2,0.1-0.2,0.1h-0.2v-1.3H34c0.1,0.7,0.5,1.1,1.2,1.1c0.6,0,1-0.3,1-0.9
				c0-1.1-2.4-0.8-2.4-2.2c0-0.9,0.7-1.4,1.5-1.4c0.3,0,0.7,0.2,0.9,0.2c0.1,0,0.1-0.1,0.1-0.1h0.2V132.4z"/>
			<path fill="#FFFFFF" d="M37.3,135.6h0.3c0.2,0,0.3,0,0.3-0.4v-3.3c0-0.4,0-0.4-0.3-0.4h-0.2v-0.2h3.4v1h-0.2
				c0-0.6-0.3-0.9-0.9-0.9h-1.1v1.9h0.9c0.4,0,0.6-0.3,0.6-0.7h0.2v1.6h-0.2c0-0.4-0.1-0.7-0.6-0.7h-0.9v2h1.2
				c0.6,0,0.9-0.3,0.9-0.9h0.2v1.1h-3.5V135.6z"/>
			<path fill="#FFFFFF" d="M41.4,135.6h0.2c0.3,0,0.3-0.2,0.3-0.7v-3.1c0-0.2,0-0.3-0.3-0.3h-0.2v-0.2h1.2c0,0.1,0.1,0.4,0.3,0.7
				l1.1,2.6l1.1-2.7c0.1-0.2,0.2-0.5,0.2-0.6h1.2v0.2h-0.3c-0.2,0-0.2,0.1-0.2,0.4v3.1c0,0.5,0,0.6,0.3,0.6h0.2v0.2h-1.7v-0.2h0.2
				c0.3,0,0.3-0.1,0.3-0.6v-3h0l-1.5,3.5h-0.2l-1.5-3.5h0v2.9c0,0.5,0,0.7,0.3,0.7h0.2v0.2h-1.3V135.6z"/>
			<path fill="#FFFFFF" d="M47.1,135.6h0.3c0.2,0,0.2-0.1,0.2-0.6v-2.8c0-0.6,0-0.6-0.2-0.6h-0.3v-0.2h2c0.7,0,1.4,0.3,1.4,1.1
				c0,0.6-0.6,0.9-1.1,1v0c0.6,0,1.3,0.4,1.3,1.1c0,0.7-0.8,1.3-1.5,1.3h-2.2V135.6z M48.3,133.3h0.3c0.8,0,1.1-0.3,1.1-1
				c0-0.6-0.5-0.8-0.9-0.8h-0.5V133.3z M48.3,135.6h0.5c0.7,0,1.2-0.4,1.2-1.1c0-0.8-0.6-1-1.3-1h-0.4V135.6z"/>
			<path fill="#FFFFFF" d="M51.4,135.6h0.2c0.3,0,0.3-0.1,0.3-0.3v-3.4c0-0.3-0.1-0.4-0.3-0.4h-0.2v-0.2h1.7v0.2h-0.2
				c-0.3,0-0.3,0.1-0.3,0.4v3.7h1c0.5,0,0.9-0.3,0.9-1h0.2v1.1h-3.3V135.6z"/>
			<path fill="#FFFFFF" d="M55.2,135.6h0.3c0.2,0,0.3,0,0.3-0.4v-3.3c0-0.4,0-0.4-0.3-0.4h-0.2v-0.2h3.4v1h-0.2
				c0-0.6-0.3-0.9-0.9-0.9h-1.1v1.9h0.9c0.4,0,0.6-0.3,0.6-0.7h0.2v1.6H58c0-0.4-0.2-0.7-0.6-0.7h-0.9v2h1.2c0.6,0,0.9-0.3,0.9-0.9
				h0.2v1.1h-3.5V135.6z"/>
			<path fill="#FFFFFF" d="M59.4,135.6h0.2c0.3,0,0.3-0.1,0.3-0.3v-3.4c0-0.3-0.1-0.4-0.3-0.4h-0.2v-0.2h1.7v0.2H61
				c-0.3,0-0.3,0-0.3,0.4v3.4c0,0.2,0.1,0.3,0.3,0.3h0.2v0.2h-1.7V135.6z"/>
			<path fill="#FFFFFF" d="M63.8,131.2c0.1,0.2,0.2,0.5,0.2,0.7l1.1,2.9c0.3,0.8,0.4,0.8,0.6,0.8h0.1v0.2h-1.7v-0.2h0.1
				c0.3,0,0.3,0,0.3-0.2c0-0.1,0-0.2-0.1-0.3l-0.3-0.8h-1.7l-0.2,0.5c-0.1,0.3-0.2,0.5-0.2,0.6c0,0.2,0.2,0.2,0.4,0.2h0.1v0.2h-1.3
				v-0.2h0.1c0.2,0,0.3-0.1,0.5-0.4l1.4-3.3c0.1-0.2,0.2-0.4,0.2-0.6H63.8z M64.2,134.1l-0.8-1.9l-0.8,1.9H64.2z"/>
			<path fill="#FFFFFF" d="M67.9,135.6h0.2c0.3,0,0.3-0.1,0.3-0.3v-3.4c0-0.3-0.1-0.4-0.3-0.4h-0.2v-0.2h1.7v0.2h-0.2
				c-0.3,0-0.3,0.1-0.3,0.4v3.7h1c0.5,0,0.9-0.3,0.9-1h0.2v1.1h-3.3V135.6z"/>
			<path fill="#FFFFFF" d="M71.7,135.6H72c0.2,0,0.3,0,0.3-0.4v-3.3c0-0.4,0-0.4-0.3-0.4h-0.2v-0.2h3.4v1H75c0-0.6-0.3-0.9-0.9-0.9
				H73v1.9h0.9c0.4,0,0.6-0.3,0.6-0.7h0.2v1.6h-0.2c0-0.4-0.1-0.7-0.6-0.7H73v2h1.2c0.6,0,0.9-0.3,0.9-0.9h0.2v1.1h-3.5V135.6z"/>
			<path fill="#FFFFFF" d="M79.4,132.5h-0.2c-0.1-0.6-0.5-1.1-1.1-1.1c-1.1,0-1.3,1.3-1.3,2.2c0,0.9,0.2,2.1,1.3,2.1
				c0.4,0,0.9-0.3,0.9-0.9v-0.5c0-0.2-0.1-0.3-0.2-0.3h-0.3v-0.2H80v0.2h-0.2c-0.2,0-0.2,0.1-0.2,0.4v1.5h-0.2
				c0-0.1-0.1-0.2-0.2-0.2c-0.2,0-0.5,0.2-1.2,0.2c-1.5,0-2-1-2-2.4c0-1.2,0.7-2.3,2.1-2.3c0.3,0,0.5,0.1,0.7,0.1
				c0.2,0.1,0.3,0.1,0.4,0.1c0.1,0,0.1-0.1,0.1-0.2h0.2V132.5z"/>
			<path fill="#FFFFFF" d="M80.4,135.6h0.2c0.3,0,0.3-0.1,0.3-0.3v-3.4c0-0.3-0.1-0.4-0.3-0.4h-0.2v-0.2h1.7v0.2h-0.2
				c-0.3,0-0.3,0-0.3,0.4v3.4c0,0.2,0.1,0.3,0.3,0.3h0.2v0.2h-1.7V135.6z"/>
			<path fill="#FFFFFF" d="M85.4,132.4h-0.2c0-0.6-0.4-1-1-1c-0.5,0-1,0.3-1,0.9c0,1,2.4,0.7,2.4,2.3c0,0.9-0.7,1.4-1.5,1.4
				c-0.3,0-0.5,0-0.6-0.1c-0.2,0-0.3-0.1-0.3-0.1c-0.1,0-0.2,0.1-0.2,0.1h-0.2v-1.3h0.2c0.1,0.7,0.5,1.1,1.2,1.1c0.6,0,1-0.3,1-0.9
				c0-1.1-2.4-0.8-2.4-2.2c0-0.9,0.7-1.4,1.5-1.4c0.3,0,0.7,0.2,0.9,0.2c0.1,0,0.1-0.1,0.1-0.1h0.2V132.4z"/>
			<path fill="#FFFFFF" d="M86.2,135.6h0.2c0.3,0,0.3-0.1,0.3-0.3v-3.4c0-0.3-0.1-0.4-0.3-0.4h-0.2v-0.2H88v0.2h-0.2
				c-0.3,0-0.3,0.1-0.3,0.4v3.7h1c0.5,0,0.9-0.3,0.9-1h0.2v1.1h-3.3V135.6z"/>
			<path fill="#FFFFFF" d="M92.2,131.2c0.1,0.2,0.2,0.5,0.2,0.7l1.1,2.9c0.3,0.8,0.4,0.8,0.6,0.8h0.1v0.2h-1.7v-0.2h0.1
				c0.3,0,0.3,0,0.3-0.2c0-0.1,0-0.2-0.1-0.3l-0.3-0.8h-1.7l-0.2,0.5c-0.1,0.3-0.2,0.5-0.2,0.6c0,0.2,0.2,0.2,0.4,0.2H91v0.2h-1.3
				v-0.2h0.1c0.2,0,0.3-0.1,0.5-0.4l1.4-3.3c0.1-0.2,0.2-0.4,0.2-0.6H92.2z M92.5,134.1l-0.8-1.9l-0.8,1.9H92.5z"/>
			<path fill="#FFFFFF" d="M94.9,135.6h0.3c0.3,0,0.3-0.1,0.3-0.7v-3.5h-0.3c-0.6,0-1,0.3-1,0.9h-0.2v-1.1h3.8v1.1h-0.2
				c0-0.6-0.4-0.9-1-0.9h-0.3v3.5c0,0.5,0,0.7,0.3,0.7h0.3v0.2h-1.8V135.6z"/>
			<path fill="#FFFFFF" d="M98.2,135.6h0.2c0.3,0,0.3-0.1,0.3-0.3v-3.4c0-0.3-0.1-0.4-0.3-0.4h-0.2v-0.2h1.7v0.2h-0.2
				c-0.3,0-0.3,0-0.3,0.4v3.4c0,0.2,0.1,0.3,0.3,0.3h0.2v0.2h-1.7V135.6z"/>
			<path fill="#FFFFFF" d="M104.5,131.5L104.5,131.5c-0.4,0-0.4,0.2-0.7,0.8l-1.2,3.2c0,0.1-0.1,0.2-0.1,0.3h-0.4
				c-0.1-0.3-0.2-0.6-0.3-1l-1.1-2.8c-0.2-0.5-0.2-0.6-0.5-0.6h-0.2v-0.2h1.7v0.2h-0.3c-0.1,0-0.2,0.1-0.2,0.2c0,0.1,0,0.2,0.2,0.7
				l1,2.6l1-2.8c0.1-0.2,0.1-0.4,0.1-0.5c0-0.1-0.1-0.2-0.3-0.2h-0.3v-0.2h1.3V131.5z"/>
			<path fill="#FFFFFF" d="M106.4,131.2c0.1,0.2,0.2,0.5,0.2,0.7l1.1,2.9c0.3,0.8,0.4,0.8,0.6,0.8h0.1v0.2h-1.7v-0.2h0.1
				c0.3,0,0.3,0,0.3-0.2c0-0.1,0-0.2-0.1-0.3l-0.3-0.8H105l-0.2,0.5c-0.1,0.3-0.2,0.5-0.2,0.6c0,0.2,0.2,0.2,0.4,0.2h0.1v0.2h-1.3
				v-0.2h0.1c0.2,0,0.3-0.1,0.5-0.4l1.4-3.3c0.1-0.2,0.2-0.4,0.2-0.6H106.4z M106.7,134.1l-0.8-1.9l-0.8,1.9H106.7z"/>
			<path fill="#FFFFFF" d="M36.1,139.2h1.8c1.5,0,2.3,0.8,2.3,2.3c0,1.6-1.2,2.2-2.2,2.2h-1.8v-0.2h0.3c0.2,0,0.3-0.1,0.3-0.7V140
				c0-0.4,0-0.6-0.2-0.6h-0.3V139.2z M37.3,143.5h0.5c1.2,0,1.5-1,1.5-2c0-1.1-0.3-2.1-1.5-2.1h-0.5V143.5z"/>
			<path fill="#FFFFFF" d="M42.7,139.1c1.3,0,1.9,1.2,1.9,2.3c0,1.2-0.6,2.3-1.9,2.3c-1.3,0-1.9-1.2-1.9-2.3
				C40.8,140.3,41.4,139.1,42.7,139.1 M42.7,143.6c1,0,1.1-1.4,1.1-2.2c0-0.7-0.1-2.2-1.1-2.2c-1,0-1.1,1.4-1.1,2.2
				C41.6,142.2,41.7,143.6,42.7,143.6"/>
			<path fill="#FFFFFF" d="M47.1,143.5h0.2c0.3,0,0.3-0.1,0.3-0.3v-3.4c0-0.3-0.1-0.4-0.3-0.4h-0.2v-0.2h2c0.7,0,1.4,0.3,1.4,1
				c0,0.6-0.5,1-1.1,1.1v0c0.8,0.2,0.9,0.3,0.9,1.2l0,0.8c0,0.1,0,0.2,0.2,0.2c0.2,0,0.2-0.2,0.3-0.3l0.2,0.1
				c-0.2,0.3-0.4,0.5-0.7,0.5c-0.5,0-0.7-0.4-0.7-0.9l0-0.8c0-0.5-0.3-0.7-0.9-0.7h-0.4v1.7c0,0.3,0,0.4,0.3,0.4h0.2v0.2h-1.7V143.5
				z M48.3,141.3h0.5c0.5,0,1-0.2,1-0.9c0-0.7-0.4-0.9-1-0.9h-0.5V141.3z"/>
			<path fill="#FFFFFF" d="M51.4,143.5h0.2c0.3,0,0.3-0.1,0.3-0.3v-3.4c0-0.3-0.1-0.4-0.3-0.4h-0.2v-0.2h1.7v0.2h-0.2
				c-0.3,0-0.3,0-0.3,0.4v3.4c0,0.2,0.1,0.3,0.3,0.3h0.2v0.2h-1.7V143.5z"/>
			<path fill="#FFFFFF" d="M55.6,139.1c1.3,0,1.9,1.2,1.9,2.3c0,1.2-0.6,2.3-1.9,2.3c-1.3,0-1.9-1.2-1.9-2.3
				C53.7,140.3,54.3,139.1,55.6,139.1 M55.6,143.6c1,0,1.1-1.4,1.1-2.2c0-0.7-0.1-2.2-1.1-2.2c-1,0-1.1,1.4-1.1,2.2
				C54.5,142.2,54.5,143.6,55.6,143.6"/>
			<path fill="#FFFFFF" d="M59.9,139.2h1.8c1.5,0,2.3,0.8,2.3,2.3c0,1.6-1.2,2.2-2.2,2.2h-1.8v-0.2h0.3c0.2,0,0.3-0.1,0.3-0.7V140
				c0-0.4,0-0.6-0.2-0.6h-0.3V139.2z M61.1,143.5h0.5c1.2,0,1.5-1,1.5-2c0-1.1-0.3-2.1-1.5-2.1h-0.5V143.5z"/>
			<path fill="#FFFFFF" d="M64.5,143.5h0.3c0.2,0,0.3,0,0.3-0.4v-3.3c0-0.4,0-0.4-0.3-0.4h-0.2v-0.2H68v1h-0.2
				c0-0.6-0.3-0.9-0.9-0.9h-1.1v1.9h0.9c0.4,0,0.6-0.3,0.6-0.7h0.2v1.6h-0.2c0-0.4-0.2-0.7-0.6-0.7h-0.9v2h1.2
				c0.6,0,0.9-0.3,0.9-0.9h0.2v1.1h-3.5V143.5z"/>
			<path fill="#FFFFFF" d="M71.5,139.2h1.8v0.2h-0.3c-0.2,0-0.3,0.1-0.3,0.7v2.5c0,0.6-0.4,1.2-1.3,1.2c-0.3,0-0.7-0.1-0.9-0.2v-1.1
				h0.2c0,0.5,0.2,1,0.7,1c0.5,0,0.6-0.5,0.6-1.1v-2.4c0-0.6,0-0.7-0.3-0.7h-0.2V139.2z"/>
			<path fill="#FFFFFF" d="M75.8,139.2c0.1,0.2,0.2,0.5,0.2,0.7l1.1,2.9c0.3,0.8,0.4,0.8,0.6,0.8h0.1v0.2h-1.7v-0.2h0.1
				c0.3,0,0.3,0,0.3-0.2c0-0.1,0-0.2-0.1-0.3l-0.3-0.8h-1.7l-0.2,0.5c-0.1,0.3-0.2,0.5-0.2,0.6c0,0.2,0.2,0.2,0.4,0.2h0.1v0.2h-1.3
				v-0.2h0.1c0.2,0,0.3-0.1,0.5-0.4l1.4-3.3c0.1-0.2,0.2-0.4,0.2-0.6H75.8z M76.2,142.1l-0.8-2l-0.8,2H76.2z"/>
			<path fill="#FFFFFF" d="M78.1,143.5h0.2c0.3,0,0.3-0.3,0.3-0.7v-2.5c0-0.8,0-0.9-0.3-0.9h-0.2v-0.2h1.2l2.3,3.5h0v-2.6
				c0-0.6,0-0.7-0.4-0.7H81v-0.2h1.3v0.2h-0.2c-0.3,0-0.4,0.2-0.4,0.7v3.7h-0.4l-2.6-3.9h0v3c0,0.5,0,0.7,0.3,0.7h0.3v0.2h-1.3
				V143.5z"/>
			<path fill="#FFFFFF" d="M82.8,143.5h0.3c0.2,0,0.3,0,0.3-0.4v-3.3c0-0.4,0-0.4-0.3-0.4h-0.2v-0.2h3.4v1H86c0-0.6-0.3-0.9-0.9-0.9
				H84v1.9H85c0.4,0,0.6-0.3,0.6-0.7h0.2v1.6h-0.2c0-0.4-0.2-0.7-0.6-0.7H84v2h1.2c0.6,0,0.9-0.3,0.9-0.9h0.2v1.1h-3.5V143.5z"/>
			<path fill="#FFFFFF" d="M87,143.5h0.2c0.3,0,0.3-0.1,0.3-0.3v-3.4c0-0.3-0.1-0.4-0.3-0.4H87v-0.2h1.7v0.2h-0.2
				c-0.3,0-0.3,0-0.3,0.4v3.4c0,0.2,0.1,0.3,0.3,0.3h0.2v0.2H87V143.5z"/>
			<path fill="#FFFFFF" d="M89.2,143.5h0.2c0.3,0,0.3-0.1,0.3-0.3v-3.4c0-0.3-0.1-0.4-0.3-0.4h-0.2v-0.2h2.1c0.7,0,1.4,0.3,1.4,1
				c0,0.6-0.5,1-1.1,1.1v0c0.8,0.2,0.9,0.3,0.9,1.2l0,0.8c0,0.1,0,0.2,0.2,0.2c0.2,0,0.2-0.2,0.3-0.3l0.2,0.1
				c-0.2,0.3-0.4,0.5-0.7,0.5c-0.5,0-0.7-0.4-0.7-0.9l0-0.8c0-0.5-0.3-0.7-0.9-0.7h-0.4v1.7c0,0.3,0,0.4,0.3,0.4H91v0.2h-1.7V143.5z
				 M90.4,141.3h0.5c0.5,0,1-0.2,1-0.9c0-0.7-0.4-0.9-1-0.9h-0.5V141.3z"/>
			<path fill="#FFFFFF" d="M95.5,139.1c1.3,0,1.9,1.2,1.9,2.3c0,1.2-0.6,2.3-1.9,2.3c-1.3,0-1.9-1.2-1.9-2.3
				C93.6,140.3,94.2,139.1,95.5,139.1 M95.5,143.6c1,0,1.1-1.4,1.1-2.2c0-0.7-0.1-2.2-1.1-2.2c-1,0-1.1,1.4-1.1,2.2
				C94.4,142.2,94.5,143.6,95.5,143.6"/>
			<path fill="#FFFFFF" d="M69.4,41.2l-0.3-1l-3.5,0c-0.1,0.2-0.1,0.6-0.2,1H69.4z"/>
			<path fill="#FFFFFF" d="M70,43.2c-0.1-0.3-0.2-0.7-0.3-1l-4.6,0c-0.1,0.3-0.2,0.7-0.3,1L70,43.2z"/>
			<path fill="#FFFFFF" d="M74.4,41.2c-0.5-0.6-0.9-1-0.9-1h-3.1l0.5,1H74.4z"/>
			<path fill="#FFFFFF" d="M76.2,43.2c-0.3-0.3-0.6-0.7-0.9-1h-3.9l0.5,1H76.2z"/>
			<path fill="#FFFFFF" d="M78.8,41.2c-0.7-0.6-1.2-1-1.2-1h-2.9c0.3,0.3,0.7,0.7,1,1L78.8,41.2z"/>
			<path fill="#FFFFFF" d="M77.5,43.2c-0.3-0.3-0.6-0.7-1-1l3.3,0c0.3,0.3,0.8,0.7,1.2,1L77.5,43.2z"/>
			<path fill="#FFFFFF" d="M56.5,44.6c-8.7,8.1-13.9,19.1-14.6,31.1l0,0.2h-6.2l0-0.2c1.1-12.5,7.2-23.6,16.9-31.1L56.5,44.6z"/>
			<path fill="#FFFFFF" d="M56,78.8H45.4v-1.5H56V78.8z M56,81.7H45.4v-1.5H56V81.7z"/>
			<path fill="#FFFFFF" d="M62.6,44.6c-4.4,8.6-6.7,18.7-6.7,29.5c0,0.5,0,1,0,1.6l0,0.2H45.4l0-0.2c0.7-12,5-22.7,12.5-31.1H62.6z"
				/>
			<path fill="#FFFFFF" d="M63,43.2l0.5-1h-3.9c-0.3,0.3-0.6,0.7-0.9,1L63,43.2z"/>
			<path fill="#FFFFFF" d="M64,41.2l0.5-1h-3.2c0,0-0.3,0.4-0.8,1H64z"/>
			<path fill="#FFFFFF" d="M57.3,43.2c0.3-0.3,0.6-0.6,0.9-1l-3.3,0c-0.4,0.3-0.8,0.6-1.2,1H57.3z"/>
			<path fill="#FFFFFF" d="M59.1,41.2c0,0,0.6-0.6,1-1h-2.9c0,0-0.4,0.4-1.2,1H59.1z"/>
		</g>
	</g>
</g>
</svg>
