<?xml version="1.0" encoding="utf-8"?>
<!-- Generator: Adobe Illustrator 19.2.1, SVG Export Plug-In . SVG Version: 6.00 Build 0)  -->
<svg version="1.1" id="Layer_1" xmlns="http://www.w3.org/2000/svg" xmlns:xlink="http://www.w3.org/1999/xlink" x="0px" y="0px"
	 viewBox="0 0 299 118.9" style="enable-background:new 0 0 299 118.9;" xml:space="preserve">
<style type="text/css">
	.st0{fill:#172B53;stroke:#172B53;stroke-width:0.2;stroke-miterlimit:10;}
	.st1{font-family:'DIN-Regular';}
	.st2{font-size:20.4769px;}
	.st3{fill:#172C53;}
	.st4{font-size:21.3061px;}
</style>
<g>
	<text transform="matrix(0.9848 0 -0.1736 0.9848 166.2386 113.8526)" class="st0 st1 st2">0800 0220008</text>
	<g>
		<text transform="matrix(0.9848 0 -0.1736 0.9848 0 113.6661)" class="st3 st1 st4">Aqui você tem voz.</text>
	</g>
	<path class="st3" d="M69.1,76.9l-2.4-13.7c-0.1-0.6-0.6-1.1-1.3-1.1H36.8c-0.5,0-0.9,0.3-1.1,0.7L28,77.3c-0.2,0.4-0.7,0.7-1.1,0.7
		h-5c-1,0-1.6-1-1.1-1.9L57.3,8.9c0.2-0.4,0.7-0.7,1.1-0.7h4.5c0.6,0,1.1,0.4,1.3,1L77,76.5c0.1,0.8-0.5,1.5-1.3,1.5h-5.3
		C69.8,78,69.2,77.5,69.1,76.9z M57.3,22.2L40.4,53.9c-0.5,0.8,0.2,1.9,1.1,1.9H64c0.8,0,1.4-0.7,1.3-1.5l-5.5-31.7
		C59.5,21.3,57.9,21.1,57.3,22.2z"/>
	<path class="st3" d="M92.8,78c-4.2,0-7.1-1.2-8.7-3.7c-1.5-2.4-2-5.5-1.3-9.2l9.9-56c0.1-0.5,0.6-0.9,1.1-0.9h4.8
		c0.7,0,1.2,0.6,1.1,1.3L90,64.8c-0.4,2.4-0.3,4.1,0.4,5.3c0.7,1.2,2.3,1.8,4.8,1.8h2.5c0.7,0,1.2,0.6,1.1,1.3L98.1,77
		C98,77.6,97.5,78,97,78H92.8z"/>
	<path class="st3" d="M140.4,64.4c-1.3,3.3-3.4,6.2-6.3,8.7c-2,1.7-4.2,3-6.7,4c-2.5,1-5.2,1.5-8.1,1.5c-2.9,0-5.5-0.5-7.6-1.5
		c-2.1-1-3.9-2.3-5.3-4c-1-1.2-1.8-2.6-2.3-4.1c-0.5-1.5-0.8-3-1-4.6c-0.1-1.6-0.1-3.3,0-5c0.1-1.8,0.4-3.6,0.7-5.5
		c0.3-1.8,0.7-3.6,1.2-5.4c0.5-1.8,1.1-3.5,1.8-5.1c0.7-1.6,1.6-3.1,2.6-4.6c1-1.5,2.2-2.8,3.7-4.1c2-1.7,4.2-3,6.7-4
		c2.5-1,5.2-1.5,8.1-1.5c2.9,0,5.5,0.5,7.6,1.5c2.1,1,3.9,2.3,5.3,4c2,2.5,3.1,5.4,3.2,8.7c0.2,3.3-0.1,6.8-0.7,10.5
		C142.8,57.6,141.8,61.1,140.4,64.4z M137,49.8c0.2-1.4,0.2-2.7,0.2-4c0-1.3-0.2-2.5-0.5-3.7c-0.3-1.1-0.8-2.2-1.5-3.1
		c-1.9-2.4-4.7-3.5-8.2-3.5c-3.5,0-6.6,1.2-9.3,3.5c-1.1,0.9-2,1.9-2.7,3.1c-0.7,1.1-1.3,2.4-1.8,3.7c-0.5,1.3-0.9,2.6-1.2,4
		c-0.3,1.4-0.6,2.7-0.8,4.1c-0.2,1.4-0.5,2.7-0.6,4.1c-0.2,1.4-0.2,2.7-0.2,4c0.1,1.3,0.2,2.5,0.5,3.7c0.3,1.2,0.8,2.2,1.6,3
		c1.9,2.4,4.6,3.5,8.1,3.5c3.5,0,6.7-1.2,9.4-3.5c1-0.8,1.9-1.9,2.6-3c0.7-1.2,1.3-2.4,1.8-3.7c0.5-1.3,0.9-2.6,1.2-4
		c0.3-1.4,0.6-2.7,0.8-4.1C136.6,52.5,136.8,51.1,137,49.8z"/>
	<path class="st3" d="M175.3,77.6l-1.2-7.2c-0.1-0.4-0.4-0.7-0.8-0.7h-13.6c-0.3,0-0.6,0.2-0.7,0.5l-4,7.7c-0.1,0.3-0.4,0.5-0.7,0.5
		h-4.8c-0.6,0-1-0.7-0.7-1.2l20.7-38.4c0.1-0.3,0.4-0.4,0.7-0.4h3.7c0.4,0,0.8,0.3,0.8,0.7l7.1,38.4c0.1,0.5-0.3,1-0.8,1h-4.7
		C175.8,78.3,175.4,78,175.3,77.6z M172.9,63.1l-2.1-12.3c-0.1-0.8-1.2-1-1.6-0.3l-6.5,12.3c-0.3,0.6,0.1,1.2,0.7,1.2h8.6
		C172.6,64.1,173,63.6,172.9,63.1z"/>
	<path class="st3" d="M184.1,77.3l6.8-38.4c0.1-0.4,0.4-0.7,0.8-0.7h4.4c0.5,0,0.9,0.5,0.8,1l-5.7,32.4c-0.1,0.5,0.3,1,0.8,1h17.1
		c0.5,0,0.9,0.5,0.8,1l-0.7,4.1c-0.1,0.4-0.4,0.7-0.8,0.7h-23.5C184.4,78.3,184,77.8,184.1,77.3z"/>
	<path class="st3" d="M212,77.3l6.8-38.4c0.1-0.4,0.4-0.7,0.8-0.7h23.7c0.5,0,0.9,0.5,0.8,1l-0.7,4.1c-0.1,0.4-0.4,0.7-0.8,0.7
		h-17.8c-0.4,0-0.8,0.3-0.8,0.7l-1.7,9.6c-0.1,0.5,0.3,1,0.8,1h14.4c0.5,0,0.9,0.5,0.8,1l-0.7,4.1c-0.1,0.4-0.4,0.7-0.8,0.7h-15
		c-0.4,0-0.8,0.3-0.8,0.7l-1.7,9.9c-0.1,0.5,0.3,1,0.8,1h17.2c0.5,0,0.9,0.5,0.8,1l-0.7,4.1c-0.1,0.4-0.4,0.7-0.8,0.7h-23.7
		C212.3,78.3,211.9,77.8,212,77.3z"/>
	<path class="st3" d="M261.7,77.7L256.5,62c-0.1-0.3-0.4-0.6-0.8-0.6h-6c-0.4,0-0.8,0.3-0.8,0.7l-2.7,15.5c-0.1,0.4-0.4,0.7-0.8,0.7
		h-4.4c-0.5,0-0.9-0.5-0.8-1l6.8-38.4c0.1-0.4,0.4-0.7,0.8-0.7h14.5c1.7,0,3.3,0.3,4.7,0.8c1.4,0.5,2.6,1.3,3.6,2.4
		c0.9,1,1.6,2.3,1.9,3.8c0.3,1.5,0.4,3.1,0,4.9c-0.5,3-1.8,5.5-3.8,7.4c-1.5,1.4-3.1,2.5-5,3.1c-0.4,0.2-0.7,0.6-0.5,1.1l5.3,15.6
		c0.2,0.5-0.2,1.1-0.8,1.1h-5.1C262.1,78.3,261.8,78.1,261.7,77.7z M258.7,55.7c2,0,3.6-0.5,5.1-1.5c1.4-1,2.2-2.5,2.6-4.5
		c0.4-2,0.1-3.4-0.8-4.3c-1-0.9-2.4-1.4-4.3-1.4h-8.4c-0.4,0-0.8,0.3-0.8,0.7l-1.8,10.1c-0.1,0.5,0.3,1,0.8,1H258.7z"/>
	<path class="st3" d="M279.5,78.6c-1.9,0-3.6-0.3-5-0.9c-1.4-0.6-2.7-1.6-3.8-2.9l-0.6-0.8l4.8-4.1l0.7,0.9c0.5,0.6,1,1.1,1.7,1.5
		c0.4,0.3,1.3,0.6,2.9,0.6c2.2,0,3.9-0.6,5.3-2c1.4-1.3,2.4-3.3,2.8-5.9l4.6-26.1c0.1-0.4,0.4-0.7,0.8-0.7h4.4c0.5,0,0.9,0.5,0.8,1
		l-4.7,26.7c-0.3,1.9-1,3.7-1.9,5.3c-0.9,1.6-2,2.9-3.3,4c-1.3,1.1-2.8,1.9-4.4,2.5C283.1,78.3,281.4,78.6,279.5,78.6z"/>
	<path class="st3" d="M163.7,16.4c-4.1-5-9.3-9-15.3-11.8c-5.1-2.3-10.7-3.7-16.6-4c-0.5,0-1.4,0-2.2-0.1c-0.8,0-1.5,0.7-1.5,1.5
		v2.4c0,0.8,0.6,1.5,1.5,1.5c0.9,0,2,0,2.6,0.1c5.1,0.4,9.8,1.5,14,3.5c5.3,2.5,9.8,5.9,13.5,10.4c2,2.5,3.6,5.1,4.9,7.8
		c0.3,0.7,1.1,1,1.9,0.8l2.2-0.8c0.8-0.3,1.2-1.2,0.8-2C167.9,22.3,166,19.3,163.7,16.4z"/>
	<path class="st3" d="M156.3,22.5c-3.2-3.9-7.3-7-12-9.2c-3.6-1.7-7.6-2.7-11.9-3.1c-0.7-0.1-1.9-0.1-2.9-0.1
		c-0.8,0-1.5,0.7-1.5,1.5v2.3c0,0.8,0.6,1.5,1.4,1.5c0.9,0,1.9,0.1,2.5,0.1c3.7,0.3,7,1.2,10.1,2.6c4,1.9,7.4,4.5,10.1,7.8
		c1.3,1.6,2.4,3.3,3.3,5.1c0.3,0.7,1.1,1,1.8,0.7l2.2-0.8c0.8-0.3,1.2-1.3,0.8-2.1C159.2,26.6,157.9,24.5,156.3,22.5z"/>
	<path class="st3" d="M148.9,28.6c-2.3-2.8-5.2-5-8.6-6.6c-2.4-1.1-5.2-1.9-8.1-2.2c-0.6-0.1-1.7-0.1-2.6-0.1
		c-0.8,0-1.5,0.6-1.5,1.5v2.4c0,0.8,0.6,1.5,1.4,1.5c0.9,0,1.9,0.1,2.4,0.1c2.3,0.3,4.3,0.8,6.2,1.7c2.7,1.2,5,3,6.8,5.2
		c0.6,0.8,1.2,1.6,1.7,2.5c0.4,0.6,1.1,0.9,1.8,0.6l2.2-0.8c0.8-0.3,1.2-1.3,0.8-2.1C150.6,30.9,149.8,29.7,148.9,28.6z"/>
	<path class="st3" d="M289.8,89.4H14.6c-0.5,0-0.8-0.5-0.6-0.9l1.6-3c0.1-0.2,0.3-0.3,0.6-0.3h274.2c0.4,0,0.7,0.4,0.6,0.8l-0.5,3
		C290.4,89.1,290.1,89.4,289.8,89.4z"/>
</g>
</svg>
