<?xml version="1.0" encoding="utf-8"?>
<!-- Generator: Adobe Illustrator 19.1.0, SVG Export Plug-In . SVG Version: 6.00 Build 0)  -->
<svg version="1.1" id="Layer_1" xmlns="http://www.w3.org/2000/svg" xmlns:xlink="http://www.w3.org/1999/xlink" x="0px" y="0px"
	 viewBox="1 -19.8 134.8 169.8" style="enable-background:new 1 -19.8 134.8 169.8;" xml:space="preserve">
<style type="text/css">
	.st0{fill:#162C53;}
	.st1{fill:#FFFFFF;}
</style>
<polygon class="st0" points="69.2,150 135.8,129.2 135.8,-19.8 1,-19.8 1,129.2 "/>
<g>
	<rect x="104.1" y="74.8" class="st1" width="2" height="5.2"/>
	<rect x="30.6" y="74.8" class="st1" width="2" height="5.2"/>
	<rect x="71.3" y="17.2" class="st1" width="3.6" height="3.9"/>
	<path class="st1" d="M115.8,104.4c-0.7,0-1.2-0.6-1.2-1.2s0.6-1.2,1.2-1.2s1.2,0.6,1.2,1.2S116.5,104.4,115.8,104.4"/>
	<path class="st1" d="M21,104.4c-0.7,0-1.2-0.6-1.2-1.2s0.6-1.2,1.2-1.2s1.2,0.6,1.2,1.2S21.6,104.4,21,104.4"/>
	<rect x="27.6" y="85.6" class="st1" width="81.6" height="1.9"/>
	<rect x="98.7" y="74.8" class="st1" width="2.8" height="5.2"/>
	<rect x="92.5" y="74.8" class="st1" width="3.5" height="5.2"/>
	<rect x="86.5" y="74.8" class="st1" width="3.5" height="5.2"/>
	<rect x="80" y="74.8" class="st1" width="3.8" height="5.2"/>
	<rect x="73.3" y="74.8" class="st1" width="4.1" height="5.2"/>
	<rect x="66.1" y="74.8" class="st1" width="4.6" height="5.2"/>
	<rect x="59.3" y="74.8" class="st1" width="4.1" height="5.2"/>
	<rect x="52.9" y="74.8" class="st1" width="3.7" height="5.2"/>
	<rect x="46.8" y="74.8" class="st1" width="3.5" height="5.2"/>
	<rect x="40.8" y="74.8" class="st1" width="3.5" height="5.2"/>
	<rect x="35.4" y="74.8" class="st1" width="2.8" height="5.2"/>
	<path class="st1" d="M77.6,66H59.3v-1.7h18.2C77.6,64.3,77.6,66,77.6,66z M77.6,69H59.3v-1.7h18.2C77.6,67.4,77.6,69,77.6,69z"/>
	<path class="st1" d="M93.3,65.9H81.4v-1.7h11.9V65.9z M93.3,69.2H81.4v-1.7h11.9V69.2z"/>
	<path class="st1" d="M104,65.9h-7v-1.7h7V65.9z M104,69.2h-7v-1.7h7V69.2z"/>
	<path class="st1" d="M39.6,65.9h-7v-1.7h7V65.9z M39.6,69.2h-7v-1.7h7V69.2z"/>
	<path class="st1" d="M71.5,27.4c4.1,11.9,6,22.3,6,32.1c0,1,0,2,0,2.9v0.2H59.3v-0.2c0-1,0-2,0-2.9c0-10.1,1.9-20.7,5.7-32.1H71.5z
		"/>
	<path class="st1" d="M79.1,27.4c8.4,9.3,13.3,21.5,14.1,35v0.2H81.3v-0.2c0-0.6,0-1.2,0-1.8c0-12.3-2.6-23.6-7.5-33.2H79.1z"/>
	<path class="st1" d="M85,27.4c11,8.4,17.8,20.9,19,35v0.2h-7v-0.2c-0.7-13.5-6.6-25.9-16.4-35H85z"/>
	<rect x="27.6" y="82.1" class="st1" width="81.6" height="1.9"/>
	<rect x="27.6" y="70.7" class="st1" width="81.6" height="1.9"/>
	<rect x="57" y="17.2" class="st1" width="3.4" height="3.9"/>
	<rect x="61.6" y="17.2" class="st1" width="3.5" height="3.9"/>
	<rect x="76.3" y="17.2" class="st1" width="3.3" height="3.9"/>
	<rect x="66.4" y="17.2" class="st1" width="3.5" height="3.9"/>
	<path class="st1" d="M64.4,15.7h7.7V12c-0.2-2-1.8-3.6-3.8-3.6c-2.1,0-3.8,1.8-3.8,3.9V15.7z"/>
	<path class="st1" d="M75.2,13.9c0-1.4,1-2.3,2.3-2.3s2.3,1,2.3,2.3v1.7h-4.5V13.9z"/>
	<path class="st1" d="M57,13.9c0-1.4,1-2.3,2.3-2.3s2.3,1,2.3,2.3v1.7H57V13.9z"/>
	<path class="st1" d="M29.6,105.8l-1.5,3.6c-0.1,0.2-0.1,0.5-0.1,0.6c0,0.6,0.8,0.7,1.6,0.7h0.2v0.7h-4.7v-0.7
		c1.4,0,1.8-0.8,2.3-1.9l5.9-14.5h0.9l5.9,14.9c0.3,0.9,0.8,1.5,1.6,1.5h0.3v0.7h-6.1v-0.7h0.6c0.6,0,1.6,0,1.6-0.6
		c0-0.3-0.1-0.6-0.3-1.1l-1.2-3.2L29.6,105.8z M36,105.2l-2.9-7.5l-3.2,7.5H36z"/>
	<path class="st1" d="M52.4,94.6v0.7h-0.7c-1.5,0-1.5,0.6-1.5,1.6v13.8h3.4c2.5,0,3.8-1.2,3.8-3.5h0.8v4.2H45.9v-0.7h0.9
		c0.9,0,1-0.5,1-1.7V97.9c0-2.4,0-2.6-1.4-2.6h-0.6v-0.7H52.4z"/>
	<path class="st1" d="M62.9,110.7h0.9c0.9,0,1-0.5,1-1.7V97.9c0-2.4,0-2.6-1.4-2.6h-0.6v-0.7h12.7v3.9h-0.8c0-2.3-1.2-3.3-3.5-3.3
		H67v7.3h2.9c1.9,0,3-0.5,3-2.6h0.8v5.9H73c0-2.3-1.5-2.5-2.6-2.5h-3.5v7.4H71c2.4,0,3.8-0.6,3.9-3.3h0.8v3.9H62.7v-0.8H62.9z"/>
	<path class="st1" d="M81.7,110.7h0.9c0.9,0,1-0.5,1-1.7V97.9c0-2.4,0-2.6-1.4-2.6h-0.6v-0.7h6.2c2.7,0,6.4,0.6,6.4,3.9
		c0,2.4-2.3,3.6-4.3,3.9l0,0c1.7,0.3,3.3,1.1,3.3,3v3.4c0,0.6,0,1.6,0.8,1.6s0.9-0.7,1.2-1.1l0.7,0.2c-0.5,1.1-1.2,2.1-2.6,2.1
		c-1.8,0-2.3-1.1-2.3-2.9v-2.5c0-2.7-0.8-3.5-3.4-3.5h-2v5.7c0,1.7,0.1,2,1.2,2h0.8v0.7h-6.1L81.7,110.7L81.7,110.7z M85.9,102.1
		h2.3c2.1,0,3.7-1.5,3.7-3.6c0-2.4-1.5-3.4-3.7-3.4h-2.3V102.1z"/>
	<path class="st1" d="M99.1,107.2h0.8c0.1,2.3,0.7,3.9,2.7,3.9c2.1,0,2.4-1.9,2.4-3.7V97.2c0-1.4,0-1.8-1.2-1.8h-0.9v-0.7h6.3v0.7
		h-0.9c-1.1,0-1.1,0.6-1.1,1.8v8.7c0,3.3-0.7,6-4.6,6c-1.1,0-2.4-0.1-3.4-0.7C99.1,111.1,99.1,107.2,99.1,107.2z"/>
	<path class="st1" d="M70.6,23.6l-0.3-1.1h-3.9c-0.1,0.2-0.1,0.7-0.2,1.1H70.6z"/>
	<path class="st1" d="M71.3,25.8c-0.1-0.3-0.2-0.8-0.3-1.1h-5.2c-0.1,0.3-0.2,0.8-0.3,1.1H71.3z"/>
	<path class="st1" d="M76.2,23.6c-0.6-0.7-1-1.1-1-1.1h-3.5l0.6,1.1H76.2z"/>
	<path class="st1" d="M78.2,25.8c-0.3-0.3-0.7-0.8-1-1.1h-4.4l0.6,1.1H78.2z"/>
	<path class="st1" d="M81.2,23.6c-0.8-0.7-1.4-1.1-1.4-1.1h-3.3c0.3,0.3,0.8,0.8,1.1,1.1H81.2z"/>
	<path class="st1" d="M79.7,25.8c-0.3-0.3-0.7-0.8-1.1-1.1h3.7c0.3,0.3,0.9,0.8,1.4,1.1H79.7z"/>
	<path class="st1" d="M56.1,27.4c-9.8,9.1-15.6,21.5-16.4,35v0.2h-7v-0.2c1.2-14.1,8.1-26.6,19-35H56.1z"/>
	<path class="st1" d="M55.5,65.9H43.6v-1.7h11.9V65.9z M55.5,69.2H43.6v-1.7h11.9V69.2z"/>
	<path class="st1" d="M62.9,27.4c-5,9.7-7.5,21-7.5,33.2c0,0.6,0,1.1,0,1.8v0.2H43.6v-0.2c0.8-13.5,5.6-25.5,14.1-35H62.9z"/>
	<path class="st1" d="M63.4,25.8l0.6-1.1h-4.4c-0.3,0.3-0.7,0.8-1,1.1H63.4z"/>
	<path class="st1" d="M64.5,23.6l0.6-1.1h-3.6c0,0-0.3,0.5-0.9,1.1H64.5z"/>
	<path class="st1" d="M57,25.8c0.3-0.3,0.7-0.7,1-1.1h-3.7c-0.5,0.3-0.9,0.7-1.4,1.1H57z"/>
	<path class="st1" d="M59,23.6c0,0,0.7-0.7,1.1-1.1h-3.3c0,0-0.5,0.5-1.4,1.1H59z"/>
</g>
</svg>
