<?xml version="1.0" encoding="utf-8"?>
<!-- Generator: Adobe Illustrator 19.2.1, SVG Export Plug-In . SVG Version: 6.00 Build 0)  -->
<svg version="1.1" id="Layer_1" xmlns="http://www.w3.org/2000/svg" xmlns:xlink="http://www.w3.org/1999/xlink" x="0px" y="0px"
	 viewBox="0 0 298.5 118.3" style="enable-background:new 0 0 298.5 118.3;" xml:space="preserve">
<style type="text/css">
	.st0{fill:#FFFFFF;stroke:#FFFFFF;stroke-width:0.2;stroke-miterlimit:10;}
	.st1{fill:#FFFFFF;}
</style>
<g>
	<g>
		<path class="st0" d="M175.2,111.1c-0.3,0.5-0.6,0.9-1,1.2c-0.4,0.3-0.9,0.6-1.4,0.8c-0.5,0.2-1,0.3-1.6,0.3
			c-0.6,0-1.1-0.1-1.5-0.3c-0.4-0.2-0.8-0.5-1.1-0.8c-0.3-0.3-0.5-0.8-0.6-1.2c-0.1-0.5-0.1-1,0-1.6l1.2-6.7
			c0.1-0.6,0.3-1.1,0.6-1.6c0.3-0.5,0.6-0.9,1-1.2c0.4-0.3,0.9-0.6,1.4-0.8c0.5-0.2,1-0.3,1.6-0.3s1.1,0.1,1.5,0.3
			c0.4,0.2,0.8,0.5,1.1,0.8c0.3,0.3,0.5,0.8,0.6,1.2c0.1,0.5,0.1,1,0,1.6l-1.2,6.7C175.6,110.1,175.4,110.6,175.2,111.1z
			 M175.5,102.9c0.1-0.8,0-1.4-0.3-2c-0.3-0.5-0.9-0.8-1.7-0.8c-0.8,0-1.5,0.3-2,0.8c-0.5,0.5-0.8,1.2-1,2l-1.1,6.5
			c-0.1,0.8,0,1.4,0.3,2c0.3,0.5,0.9,0.8,1.7,0.8c0.8,0,1.5-0.3,2-0.8c0.5-0.5,0.8-1.2,1-2L175.5,102.9z"/>
		<path class="st0" d="M185.9,111c-0.3,0.5-0.7,0.9-1.1,1.3c-0.4,0.4-0.9,0.6-1.5,0.8c-0.5,0.2-1.1,0.3-1.7,0.3s-1.1-0.1-1.6-0.3
			c-0.5-0.2-0.9-0.5-1.2-0.8c-0.3-0.4-0.5-0.8-0.7-1.3c-0.1-0.5-0.1-1,0-1.6c0.1-0.8,0.5-1.5,1-2.1c0.5-0.6,1.1-1,1.8-1.4
			c-0.5-0.3-0.9-0.7-1.1-1.3c-0.2-0.5-0.3-1.2-0.2-1.9c0.1-0.6,0.3-1.1,0.6-1.5c0.3-0.5,0.6-0.9,1-1.2c0.4-0.3,0.9-0.6,1.4-0.8
			c0.5-0.2,1.1-0.3,1.6-0.3s1.1,0.1,1.5,0.3c0.4,0.2,0.8,0.5,1.1,0.8c0.3,0.3,0.5,0.7,0.6,1.2c0.1,0.5,0.1,1,0,1.5
			c-0.1,0.7-0.4,1.4-0.8,1.9c-0.4,0.5-0.9,0.9-1.6,1.3c0.5,0.3,1,0.8,1.3,1.4c0.3,0.6,0.4,1.3,0.2,2.1
			C186.4,110,186.2,110.5,185.9,111z M185.1,108.3c-0.1-0.3-0.2-0.6-0.4-0.9c-0.2-0.3-0.5-0.5-0.8-0.6c-0.3-0.1-0.7-0.2-1.1-0.2
			c-0.4,0-0.8,0.1-1.1,0.2c-0.4,0.1-0.7,0.3-1,0.6c-0.3,0.3-0.5,0.5-0.7,0.9c-0.2,0.3-0.3,0.7-0.4,1.1c-0.1,0.4-0.1,0.8,0,1.1
			c0.1,0.3,0.2,0.6,0.4,0.9c0.2,0.3,0.5,0.4,0.8,0.6c0.3,0.1,0.7,0.2,1.1,0.2s0.8-0.1,1.1-0.2c0.4-0.1,0.7-0.3,1-0.6
			c0.3-0.3,0.5-0.5,0.7-0.9c0.2-0.3,0.3-0.7,0.4-1.1C185.2,109,185.2,108.6,185.1,108.3z M185.6,100.9c-0.4-0.5-0.9-0.7-1.7-0.7
			c-0.7,0-1.4,0.2-1.9,0.7c-0.5,0.5-0.9,1.1-1,1.8c-0.1,0.8,0,1.4,0.4,1.8c0.4,0.5,0.9,0.7,1.7,0.7c0.7,0,1.4-0.2,1.9-0.7
			c0.5-0.5,0.9-1.1,1-1.8C186.1,102,186,101.4,185.6,100.9z"/>
		<path class="st0" d="M196.1,111.1c-0.3,0.5-0.6,0.9-1,1.2c-0.4,0.3-0.9,0.6-1.4,0.8c-0.5,0.2-1,0.3-1.6,0.3
			c-0.6,0-1.1-0.1-1.5-0.3c-0.4-0.2-0.8-0.5-1.1-0.8c-0.3-0.3-0.5-0.8-0.6-1.2c-0.1-0.5-0.1-1,0-1.6l1.2-6.7
			c0.1-0.6,0.3-1.1,0.6-1.6c0.3-0.5,0.6-0.9,1-1.2c0.4-0.3,0.9-0.6,1.4-0.8c0.5-0.2,1-0.3,1.6-0.3s1.1,0.1,1.5,0.3
			c0.4,0.2,0.8,0.5,1.1,0.8c0.3,0.3,0.5,0.8,0.6,1.2c0.1,0.5,0.1,1,0,1.6l-1.2,6.7C196.6,110.1,196.4,110.6,196.1,111.1z
			 M196.4,102.9c0.1-0.8,0-1.4-0.3-2c-0.3-0.5-0.9-0.8-1.7-0.8c-0.8,0-1.5,0.3-2,0.8c-0.5,0.5-0.8,1.2-1,2l-1.1,6.5
			c-0.1,0.8,0,1.4,0.3,2c0.3,0.5,0.9,0.8,1.7,0.8c0.8,0,1.5-0.3,2-0.8c0.5-0.5,0.8-1.2,1-2L196.4,102.9z"/>
		<path class="st0" d="M206.6,111.1c-0.3,0.5-0.6,0.9-1,1.2c-0.4,0.3-0.9,0.6-1.4,0.8c-0.5,0.2-1,0.3-1.6,0.3
			c-0.6,0-1.1-0.1-1.5-0.3c-0.4-0.2-0.8-0.5-1.1-0.8c-0.3-0.3-0.5-0.8-0.6-1.2c-0.1-0.5-0.1-1,0-1.6l1.2-6.7
			c0.1-0.6,0.3-1.1,0.6-1.6c0.3-0.5,0.6-0.9,1-1.2c0.4-0.3,0.9-0.6,1.4-0.8c0.5-0.2,1-0.3,1.6-0.3c0.6,0,1.1,0.1,1.5,0.3
			c0.4,0.2,0.8,0.5,1.1,0.8c0.3,0.3,0.5,0.8,0.6,1.2c0.1,0.5,0.1,1,0,1.6l-1.2,6.7C207,110.1,206.8,110.6,206.6,111.1z M206.9,102.9
			c0.1-0.8,0-1.4-0.3-2c-0.3-0.5-0.9-0.8-1.7-0.8c-0.8,0-1.5,0.3-2,0.8c-0.5,0.5-0.8,1.2-1,2l-1.1,6.5c-0.1,0.8,0,1.4,0.3,2
			c0.3,0.5,0.9,0.8,1.7,0.8c0.8,0,1.5-0.3,2-0.8c0.5-0.5,0.8-1.2,1-2L206.9,102.9z"/>
		<path class="st0" d="M222,111.1c-0.3,0.5-0.6,0.9-1,1.2c-0.4,0.3-0.9,0.6-1.4,0.8c-0.5,0.2-1,0.3-1.6,0.3c-0.6,0-1.1-0.1-1.5-0.3
			c-0.4-0.2-0.8-0.5-1.1-0.8c-0.3-0.3-0.5-0.8-0.6-1.2c-0.1-0.5-0.1-1,0-1.6l1.2-6.7c0.1-0.6,0.3-1.1,0.6-1.6c0.3-0.5,0.6-0.9,1-1.2
			c0.4-0.3,0.9-0.6,1.4-0.8c0.5-0.2,1-0.3,1.6-0.3s1.1,0.1,1.5,0.3c0.4,0.2,0.8,0.5,1.1,0.8c0.3,0.3,0.5,0.8,0.6,1.2
			c0.1,0.5,0.1,1,0,1.6l-1.2,6.7C222.5,110.1,222.3,110.6,222,111.1z M222.3,102.9c0.1-0.8,0-1.4-0.3-2c-0.3-0.5-0.9-0.8-1.7-0.8
			c-0.8,0-1.5,0.3-2,0.8c-0.5,0.5-0.8,1.2-1,2l-1.1,6.5c-0.1,0.8,0,1.4,0.3,2c0.3,0.5,0.9,0.8,1.7,0.8s1.5-0.3,2-0.8
			c0.5-0.5,0.8-1.2,1-2L222.3,102.9z"/>
		<path class="st0" d="M224.6,113.3l0.2-1.3l6.9-7.2c0.3-0.3,0.6-0.7,0.8-1c0.2-0.3,0.3-0.7,0.4-1.1c0.1-0.8,0-1.4-0.3-1.9
			c-0.4-0.5-0.9-0.7-1.7-0.7c-0.3,0-0.7,0-1,0.1c-0.3,0.1-0.6,0.2-0.9,0.5c-0.3,0.2-0.5,0.5-0.7,0.8c-0.2,0.3-0.3,0.7-0.4,1.2h-1.4
			c0.1-0.6,0.3-1.1,0.6-1.6c0.3-0.5,0.6-0.9,1-1.2c0.4-0.3,0.9-0.6,1.4-0.8c0.5-0.2,1.1-0.3,1.7-0.3c0.6,0,1.1,0.1,1.6,0.3
			c0.4,0.2,0.8,0.4,1.1,0.8c0.3,0.3,0.5,0.7,0.6,1.2c0.1,0.5,0.1,1,0,1.6c-0.1,0.6-0.3,1.1-0.5,1.5c-0.3,0.4-0.6,0.9-1.1,1.4
			l-6.1,6.4h6.1l-0.2,1.3H224.6z"/>
		<path class="st0" d="M235.1,113.3l0.2-1.3l6.9-7.2c0.3-0.3,0.6-0.7,0.8-1c0.2-0.3,0.3-0.7,0.4-1.1c0.1-0.8,0-1.4-0.3-1.9
			c-0.4-0.5-0.9-0.7-1.7-0.7c-0.3,0-0.7,0-1,0.1c-0.3,0.1-0.6,0.2-0.9,0.5c-0.3,0.2-0.5,0.5-0.7,0.8c-0.2,0.3-0.3,0.7-0.4,1.2h-1.4
			c0.1-0.6,0.3-1.1,0.6-1.6c0.3-0.5,0.6-0.9,1-1.2c0.4-0.3,0.9-0.6,1.4-0.8c0.5-0.2,1.1-0.3,1.7-0.3c0.6,0,1.1,0.1,1.6,0.3
			c0.4,0.2,0.8,0.4,1.1,0.8c0.3,0.3,0.5,0.7,0.6,1.2c0.1,0.5,0.1,1,0,1.6c-0.1,0.6-0.3,1.1-0.5,1.5c-0.3,0.4-0.6,0.9-1.1,1.4
			L237,112h6.1l-0.2,1.3H235.1z"/>
		<path class="st0" d="M253.4,111.1c-0.3,0.5-0.6,0.9-1,1.2c-0.4,0.3-0.9,0.6-1.4,0.8c-0.5,0.2-1,0.3-1.6,0.3
			c-0.6,0-1.1-0.1-1.5-0.3c-0.4-0.2-0.8-0.5-1.1-0.8c-0.3-0.3-0.5-0.8-0.6-1.2c-0.1-0.5-0.1-1,0-1.6l1.2-6.7
			c0.1-0.6,0.3-1.1,0.6-1.6c0.3-0.5,0.6-0.9,1-1.2c0.4-0.3,0.9-0.6,1.4-0.8c0.5-0.2,1-0.3,1.6-0.3s1.1,0.1,1.5,0.3
			c0.4,0.2,0.8,0.5,1.1,0.8c0.3,0.3,0.5,0.8,0.6,1.2c0.1,0.5,0.1,1,0,1.6l-1.2,6.7C253.9,110.1,253.7,110.6,253.4,111.1z
			 M253.7,102.9c0.1-0.8,0-1.4-0.3-2c-0.3-0.5-0.9-0.8-1.7-0.8c-0.8,0-1.5,0.3-2,0.8c-0.5,0.5-0.8,1.2-1,2l-1.1,6.5
			c-0.1,0.8,0,1.4,0.3,2c0.3,0.5,0.9,0.8,1.7,0.8c0.8,0,1.5-0.3,2-0.8c0.5-0.5,0.8-1.2,1-2L253.7,102.9z"/>
		<path class="st0" d="M263.9,111.1c-0.3,0.5-0.6,0.9-1,1.2c-0.4,0.3-0.9,0.6-1.4,0.8c-0.5,0.2-1,0.3-1.6,0.3
			c-0.6,0-1.1-0.1-1.5-0.3c-0.4-0.2-0.8-0.5-1.1-0.8c-0.3-0.3-0.5-0.8-0.6-1.2c-0.1-0.5-0.1-1,0-1.6l1.2-6.7
			c0.1-0.6,0.3-1.1,0.6-1.6c0.3-0.5,0.6-0.9,1-1.2c0.4-0.3,0.9-0.6,1.4-0.8c0.5-0.2,1-0.3,1.6-0.3c0.6,0,1.1,0.1,1.5,0.3
			c0.4,0.2,0.8,0.5,1.1,0.8c0.3,0.3,0.5,0.8,0.6,1.2c0.1,0.5,0.1,1,0,1.6l-1.2,6.7C264.3,110.1,264.2,110.6,263.9,111.1z
			 M264.2,102.9c0.1-0.8,0-1.4-0.3-2c-0.3-0.5-0.9-0.8-1.7-0.8c-0.8,0-1.5,0.3-2,0.8c-0.5,0.5-0.8,1.2-1,2l-1.1,6.5
			c-0.1,0.8,0,1.4,0.3,2c0.3,0.5,0.9,0.8,1.7,0.8s1.5-0.3,2-0.8c0.5-0.5,0.8-1.2,1-2L264.2,102.9z"/>
		<path class="st0" d="M274.3,111.1c-0.3,0.5-0.6,0.9-1,1.2c-0.4,0.3-0.9,0.6-1.4,0.8c-0.5,0.2-1,0.3-1.6,0.3
			c-0.6,0-1.1-0.1-1.5-0.3c-0.4-0.2-0.8-0.5-1.1-0.8c-0.3-0.3-0.5-0.8-0.6-1.2c-0.1-0.5-0.1-1,0-1.6l1.2-6.7
			c0.1-0.6,0.3-1.1,0.6-1.6c0.3-0.5,0.6-0.9,1-1.2c0.4-0.3,0.9-0.6,1.4-0.8c0.5-0.2,1-0.3,1.6-0.3c0.6,0,1.1,0.1,1.5,0.3
			c0.4,0.2,0.8,0.5,1.1,0.8c0.3,0.3,0.5,0.8,0.6,1.2c0.1,0.5,0.1,1,0,1.6l-1.2,6.7C274.8,110.1,274.6,110.6,274.3,111.1z
			 M274.6,102.9c0.1-0.8,0-1.4-0.3-2c-0.3-0.5-0.9-0.8-1.7-0.8c-0.8,0-1.5,0.3-2,0.8c-0.5,0.5-0.8,1.2-1,2l-1.1,6.5
			c-0.1,0.8,0,1.4,0.3,2c0.3,0.5,0.9,0.8,1.7,0.8c0.8,0,1.5-0.3,2-0.8c0.5-0.5,0.8-1.2,1-2L274.6,102.9z"/>
		<path class="st0" d="M285.1,111c-0.3,0.5-0.7,0.9-1.1,1.3c-0.4,0.4-0.9,0.6-1.5,0.8c-0.5,0.2-1.1,0.3-1.7,0.3
			c-0.6,0-1.1-0.1-1.6-0.3c-0.5-0.2-0.9-0.5-1.2-0.8c-0.3-0.4-0.5-0.8-0.7-1.3c-0.1-0.5-0.1-1,0-1.6c0.1-0.8,0.5-1.5,1-2.1
			c0.5-0.6,1.1-1,1.8-1.4c-0.5-0.3-0.9-0.7-1.1-1.3s-0.3-1.2-0.2-1.9c0.1-0.6,0.3-1.1,0.6-1.5c0.3-0.5,0.6-0.9,1-1.2
			c0.4-0.3,0.9-0.6,1.4-0.8c0.5-0.2,1.1-0.3,1.6-0.3c0.6,0,1.1,0.1,1.5,0.3c0.4,0.2,0.8,0.5,1.1,0.8c0.3,0.3,0.5,0.7,0.6,1.2
			c0.1,0.5,0.1,1,0,1.5c-0.1,0.7-0.4,1.4-0.8,1.9c-0.4,0.5-0.9,0.9-1.6,1.3c0.5,0.3,1,0.8,1.3,1.4c0.3,0.6,0.4,1.3,0.2,2.1
			C285.6,110,285.4,110.5,285.1,111z M284.2,108.3c-0.1-0.3-0.2-0.6-0.4-0.9c-0.2-0.3-0.5-0.5-0.8-0.6c-0.3-0.1-0.7-0.2-1.1-0.2
			c-0.4,0-0.8,0.1-1.1,0.2c-0.4,0.1-0.7,0.3-1,0.6c-0.3,0.3-0.5,0.5-0.7,0.9c-0.2,0.3-0.3,0.7-0.4,1.1c-0.1,0.4-0.1,0.8,0,1.1
			c0.1,0.3,0.2,0.6,0.4,0.9c0.2,0.3,0.5,0.4,0.8,0.6c0.3,0.1,0.7,0.2,1.1,0.2c0.4,0,0.8-0.1,1.1-0.2c0.4-0.1,0.7-0.3,1-0.6
			c0.3-0.3,0.5-0.5,0.7-0.9c0.2-0.3,0.3-0.7,0.4-1.1C284.3,109,284.3,108.6,284.2,108.3z M284.8,100.9c-0.4-0.5-0.9-0.7-1.7-0.7
			c-0.7,0-1.4,0.2-1.9,0.7c-0.5,0.5-0.9,1.1-1,1.8c-0.1,0.8,0,1.4,0.4,1.8s0.9,0.7,1.7,0.7c0.7,0,1.4-0.2,1.9-0.7
			c0.5-0.5,0.9-1.1,1-1.8C285.3,102,285.2,101.4,284.8,100.9z"/>
	</g>
	<g>
		<g>
			<path class="st1" d="M11.5,113.1l-0.6-3.4H4.4l-1.8,3.4H0.9L9,98.3h1.3l2.8,14.9H11.5z M9.3,100.5l-4.2,7.8h5.5L9.3,100.5z"/>
			<path class="st1" d="M20,117.7l1-5.8c-0.5,0.5-1,0.9-1.5,1.1c-0.5,0.2-1,0.3-1.6,0.3c-0.5,0-1-0.1-1.4-0.2
				c-0.4-0.2-0.7-0.4-0.9-0.7c-0.2-0.3-0.4-0.6-0.5-0.9c-0.1-0.3-0.2-0.7-0.2-1.1c0-0.4,0-0.8,0-1.2c0-0.4,0.1-0.8,0.2-1.2
				c0.1-0.4,0.2-0.8,0.3-1.2c0.1-0.4,0.2-0.8,0.4-1.2c0.2-0.4,0.3-0.7,0.6-1.1c0.2-0.3,0.5-0.6,0.8-0.9c0.3-0.3,0.7-0.5,1.2-0.7
				c0.5-0.2,1-0.2,1.5-0.2c0.6,0,1.1,0.1,1.5,0.3c0.4,0.2,0.8,0.5,1.2,1.1l0.2-1.2h1.5l-2.6,14.9H20z M21.9,106.5
				c0-0.5,0-0.9-0.1-1.2c-0.1-0.4-0.3-0.7-0.6-0.9c-0.3-0.2-0.7-0.3-1.3-0.3s-1,0.1-1.4,0.3c-0.4,0.2-0.7,0.5-0.9,0.9
				c-0.2,0.4-0.4,0.8-0.6,1.2c-0.1,0.5-0.3,1-0.4,1.5c-0.1,0.5-0.1,1-0.2,1.5c0,0.5,0,0.9,0.1,1.3c0.1,0.4,0.3,0.7,0.6,0.9
				c0.3,0.2,0.7,0.3,1.3,0.3c0.6,0,1-0.1,1.4-0.3c0.4-0.2,0.7-0.5,0.9-0.9c0.2-0.4,0.4-0.8,0.6-1.3c0.1-0.5,0.3-1,0.3-1.5
				C21.8,107.5,21.8,107,21.9,106.5z"/>
			<path class="st1" d="M31.9,113.1l0.2-1.1c-0.4,0.4-0.9,0.7-1.4,0.9c-0.5,0.2-1.1,0.3-1.7,0.3c-1.1,0-1.9-0.3-2.5-1
				c-0.3-0.4-0.5-0.8-0.6-1.3c-0.1-0.5-0.1-1,0-1.6l1.2-6.5h1.5l-1.1,6.3c-0.2,0.9-0.1,1.6,0.3,2.1c0.4,0.5,0.9,0.7,1.7,0.7
				c0.8,0,1.4-0.2,2-0.7c0.5-0.5,0.9-1.1,1.1-2l1.1-6.3h1.5l-1.8,10.3H31.9z"/>
			<path class="st1" d="M36.6,113.1l1.8-10.3h1.5l-1.8,10.3H36.6z M38.8,99.9l0.3-1.7h1.7l-0.3,1.7H38.8z"/>
			<path class="st1" d="M49.3,113.1h-1.3L46,102.9h1.6l1.3,8.2l4.3-8.2h1.6L49.3,113.1z"/>
			<path class="st1" d="M62.4,110.2c-0.3,0.7-0.7,1.3-1.3,1.8c-0.4,0.4-0.9,0.6-1.4,0.9c-0.5,0.2-1.1,0.3-1.7,0.3s-1.2-0.1-1.6-0.3
				c-0.5-0.2-0.8-0.5-1.1-0.9c-0.2-0.3-0.4-0.6-0.5-0.9c-0.1-0.3-0.2-0.6-0.2-1c0-0.3,0-0.7,0-1.1c0-0.4,0.1-0.8,0.2-1.2
				c0.1-0.4,0.2-0.8,0.3-1.2c0.1-0.4,0.2-0.7,0.4-1.1c0.1-0.3,0.3-0.7,0.5-1c0.2-0.3,0.5-0.6,0.8-0.9c0.4-0.4,0.9-0.6,1.4-0.9
				c0.5-0.2,1.1-0.3,1.7-0.3s1.2,0.1,1.6,0.3c0.4,0.2,0.8,0.5,1.1,0.9c0.4,0.5,0.7,1.1,0.7,1.8c0,0.7,0,1.5-0.2,2.2
				C62.9,108.8,62.7,109.5,62.4,110.2z M61.7,107.1c0-0.3,0.1-0.6,0-0.9c0-0.3,0-0.5-0.1-0.8c-0.1-0.2-0.2-0.5-0.3-0.7
				c-0.4-0.5-1-0.8-1.7-0.8c-0.7,0-1.4,0.3-2,0.8c-0.2,0.2-0.4,0.4-0.6,0.7c-0.1,0.2-0.3,0.5-0.4,0.8c-0.1,0.3-0.2,0.6-0.3,0.9
				c-0.1,0.3-0.1,0.6-0.2,0.9c-0.1,0.3-0.1,0.6-0.1,0.9c0,0.3,0,0.6,0,0.9c0,0.3,0.1,0.5,0.1,0.8c0.1,0.3,0.2,0.5,0.3,0.6
				c0.4,0.5,1,0.8,1.7,0.8c0.8,0,1.4-0.2,2-0.8c0.2-0.2,0.4-0.4,0.6-0.6c0.2-0.2,0.3-0.5,0.4-0.8c0.1-0.3,0.2-0.6,0.3-0.9
				c0.1-0.3,0.1-0.6,0.2-0.9C61.6,107.7,61.7,107.4,61.7,107.1z"/>
			<path class="st1" d="M70.6,112.9c-0.5,0.2-1.2,0.3-1.9,0.3c-0.7,0-1.2-0.1-1.7-0.3s-0.9-0.5-1.3-1c-0.3-0.4-0.6-1-0.7-1.6
				c-0.1-0.7-0.1-1.4,0.1-2.3c0.2-0.9,0.4-1.6,0.7-2.3c0.3-0.7,0.8-1.2,1.2-1.6c0.5-0.4,1-0.8,1.6-1c0.6-0.2,1.2-0.3,1.9-0.3
				c0.7,0,1.3,0.1,1.8,0.3c0.5,0.2,0.9,0.6,1.3,1.2l-1.2,1c-0.3-0.4-0.6-0.7-0.9-0.9c-0.3-0.2-0.7-0.3-1.2-0.3c-0.5,0-1,0.1-1.4,0.3
				c-0.4,0.2-0.8,0.5-1.2,0.9c-0.3,0.3-0.5,0.7-0.7,1.1c-0.2,0.4-0.3,1-0.4,1.6c-0.1,0.7-0.2,1.2-0.1,1.6c0,0.4,0.1,0.8,0.3,1.1
				c0.2,0.4,0.5,0.7,0.9,0.9c0.4,0.2,0.8,0.3,1.3,0.3c0.5,0,0.9-0.1,1.3-0.3c0.4-0.2,0.8-0.5,1.3-0.9l0.8,1
				C71.8,112.3,71.2,112.7,70.6,112.9z"/>
			<path class="st1" d="M75.9,108.4c-0.2,1.1-0.1,2,0.3,2.6c0.4,0.6,1.1,0.9,2.1,0.9c0.6,0,1.1-0.1,1.5-0.3c0.4-0.2,0.9-0.5,1.4-0.9
				l0.9,0.9c-0.3,0.3-0.6,0.5-0.9,0.7c-0.3,0.2-0.6,0.4-0.9,0.5c-0.3,0.1-0.7,0.2-1,0.3c-0.4,0.1-0.8,0.1-1.2,0.1
				c-0.7,0-1.3-0.1-1.8-0.3c-0.5-0.2-0.9-0.5-1.2-1c-0.3-0.4-0.5-1-0.6-1.6c-0.1-0.7-0.1-1.4,0.1-2.3c0.3-1.7,0.9-3,1.8-3.9
				s2-1.4,3.3-1.4c1.3,0,2.3,0.4,2.9,1.3c0.6,0.9,0.7,2.1,0.5,3.6l-0.1,0.7H75.9z M81.5,106.7c0-0.2,0-0.3,0-0.4c0-0.1,0-0.2,0-0.4
				c0-0.1,0-0.2-0.1-0.4c-0.1-0.5-0.4-0.8-0.7-1.1c-0.4-0.3-0.8-0.4-1.4-0.4s-1.1,0.1-1.5,0.4c-0.5,0.3-0.9,0.7-1.1,1.1
				c-0.2,0.3-0.3,0.5-0.4,0.8c-0.1,0.2-0.2,0.5-0.3,1h5.4C81.5,107.1,81.5,106.9,81.5,106.7z M81.9,100.7l-1.5-2.2l-2.3,2.2h-1.4
				l3.2-3.2h1.4l2,3.2H81.9z"/>
			<path class="st1" d="M92,113.1c-0.4,0-0.8-0.1-1.1-0.2c-0.3-0.1-0.5-0.3-0.7-0.6c-0.2-0.2-0.3-0.5-0.3-0.9c-0.1-0.3,0-0.7,0-1.1
				l1.1-6.3h-1.3l0.2-1.1h1.3l0.6-3.2h1.5l-0.6,3.2h2.2l-0.2,1.1h-2.2l-1.1,6.3c-0.1,0.5,0,0.8,0.1,1.1c0.2,0.3,0.5,0.4,1,0.4h0.8
				l-0.2,1.3H92z"/>
			<path class="st1" d="M97.1,108.4c-0.2,1.1-0.1,2,0.3,2.6c0.4,0.6,1.1,0.9,2.1,0.9c0.6,0,1.1-0.1,1.5-0.3c0.4-0.2,0.9-0.5,1.4-0.9
				l0.9,0.9c-0.3,0.3-0.6,0.5-0.9,0.7c-0.3,0.2-0.6,0.4-0.9,0.5c-0.3,0.1-0.7,0.2-1,0.3c-0.4,0.1-0.8,0.1-1.2,0.1
				c-0.7,0-1.3-0.1-1.8-0.3c-0.5-0.2-0.9-0.5-1.2-1c-0.3-0.4-0.5-1-0.6-1.6c-0.1-0.7-0.1-1.4,0.1-2.3c0.3-1.7,0.9-3,1.8-3.9
				s2-1.4,3.3-1.4c1.3,0,2.3,0.4,2.9,1.3c0.6,0.9,0.7,2.1,0.5,3.6l-0.1,0.7H97.1z M102.7,106.7c0-0.2,0-0.3,0-0.4c0-0.1,0-0.2,0-0.4
				c0-0.1,0-0.2-0.1-0.4c-0.1-0.5-0.4-0.8-0.7-1.1c-0.4-0.3-0.8-0.4-1.4-0.4c-0.5,0-1.1,0.1-1.5,0.4c-0.5,0.3-0.9,0.7-1.1,1.1
				c-0.2,0.3-0.3,0.5-0.4,0.8c-0.1,0.2-0.2,0.5-0.3,1h5.4C102.7,107.1,102.7,106.9,102.7,106.7z"/>
			<path class="st1" d="M118.9,113.1l1.1-6.3c0.2-0.9,0.1-1.6-0.3-2.1c-0.4-0.4-0.9-0.7-1.7-0.7c-0.7,0-1.4,0.2-2,0.7
				c-0.6,0.4-0.9,1.1-1.1,1.9l-1.1,6.5h-1.5l1.1-6.3c0.2-0.9,0.1-1.6-0.3-2.1c-0.4-0.4-0.9-0.7-1.7-0.7c-0.8,0-1.4,0.2-2,0.7
				c-0.5,0.5-0.9,1.1-1.1,2l-1.1,6.3h-1.5l1.8-10.3h1.5l-0.2,1.1c0.4-0.4,0.9-0.7,1.4-0.9c0.5-0.2,1.1-0.3,1.7-0.3
				c0.7,0,1.3,0.1,1.8,0.4c0.5,0.3,0.8,0.7,1.1,1.3c1-1.1,2.2-1.7,3.7-1.7c0.6,0,1,0.1,1.5,0.2c0.4,0.2,0.8,0.4,1,0.7
				c0.6,0.7,0.8,1.7,0.6,2.9l-1.2,6.6H118.9z"/>
			<path class="st1" d="M131.5,113.1h-1.3l-1.9-10.3h1.6l1.3,8.2l4.3-8.2h1.6L131.5,113.1z"/>
			<path class="st1" d="M144.7,110.2c-0.3,0.7-0.7,1.3-1.3,1.8c-0.4,0.4-0.9,0.6-1.4,0.9c-0.5,0.2-1.1,0.3-1.7,0.3
				c-0.6,0-1.2-0.1-1.6-0.3c-0.4-0.2-0.8-0.5-1.1-0.9c-0.2-0.3-0.4-0.6-0.5-0.9c-0.1-0.3-0.2-0.6-0.2-1c0-0.3,0-0.7,0-1.1
				c0-0.4,0.1-0.8,0.2-1.2c0.1-0.4,0.2-0.8,0.3-1.2c0.1-0.4,0.2-0.7,0.4-1.1c0.1-0.3,0.3-0.7,0.5-1c0.2-0.3,0.5-0.6,0.8-0.9
				c0.4-0.4,0.9-0.6,1.4-0.9c0.5-0.2,1.1-0.3,1.7-0.3c0.6,0,1.2,0.1,1.6,0.3c0.4,0.2,0.8,0.5,1.1,0.9c0.4,0.5,0.6,1.1,0.7,1.8
				c0,0.7,0,1.5-0.2,2.2C145.2,108.8,145,109.5,144.7,110.2z M143.9,107.1c0-0.3,0.1-0.6,0-0.9c0-0.3,0-0.5-0.1-0.8
				c-0.1-0.2-0.2-0.5-0.3-0.7c-0.4-0.5-1-0.8-1.7-0.8c-0.7,0-1.4,0.3-2,0.8c-0.2,0.2-0.4,0.4-0.6,0.7c-0.1,0.2-0.3,0.5-0.4,0.8
				c-0.1,0.3-0.2,0.6-0.3,0.9c-0.1,0.3-0.1,0.6-0.2,0.9c-0.1,0.3-0.1,0.6-0.1,0.9c0,0.3,0,0.6,0,0.9c0,0.3,0.1,0.5,0.1,0.8
				c0.1,0.3,0.2,0.5,0.3,0.6c0.4,0.5,1,0.8,1.7,0.8c0.8,0,1.4-0.2,2-0.8c0.2-0.2,0.4-0.4,0.6-0.6c0.2-0.2,0.3-0.5,0.4-0.8
				c0.1-0.3,0.2-0.6,0.3-0.9c0.1-0.3,0.1-0.6,0.2-0.9C143.9,107.7,143.9,107.4,143.9,107.1z"/>
			<path class="st1" d="M146.2,113.1l0.2-1.3l7.1-7.6h-5.4l0.2-1.3h7.1l-0.2,1.3l-7.1,7.7h5.7l-0.2,1.3H146.2z"/>
			<path class="st1" d="M155.9,113.1l0.3-2h2l-0.3,2H155.9z"/>
		</g>
	</g>
	<path class="st1" d="M69.4,76.6L67,63c-0.1-0.6-0.6-1-1.2-1H37.3c-0.5,0-0.9,0.3-1.1,0.7L28.5,77c-0.2,0.4-0.6,0.7-1.1,0.7h-5
		c-1,0-1.6-1-1.1-1.9L57.7,8.9c0.2-0.4,0.6-0.7,1.1-0.7h4.4c0.6,0,1.1,0.4,1.2,1l12.7,66.8c0.1,0.8-0.4,1.5-1.2,1.5h-5.3
		C70,77.6,69.5,77.2,69.4,76.6z M57.6,22.2L40.9,53.7c-0.4,0.8,0.2,1.9,1.1,1.9h22.3c0.8,0,1.4-0.7,1.2-1.5L60,22.5
		C59.8,21.3,58.2,21.1,57.6,22.2z"/>
	<path class="st1" d="M93,77.6c-4.2,0-7.1-1.2-8.6-3.7c-1.5-2.4-2-5.5-1.3-9.1l9.8-55.7C93,8.7,93.4,8.3,94,8.3h4.7
		c0.7,0,1.2,0.6,1.1,1.3l-9.7,55c-0.4,2.3-0.3,4.1,0.4,5.3c0.7,1.2,2.3,1.8,4.8,1.8h2.5c0.7,0,1.2,0.6,1.1,1.3l-0.7,3.8
		c-0.1,0.5-0.6,0.9-1.1,0.9H93z"/>
	<path class="st1" d="M140.3,64.2c-1.3,3.3-3.4,6.2-6.2,8.6c-2,1.7-4.2,3-6.6,4c-2.4,1-5.1,1.5-8.1,1.5c-2.9,0-5.4-0.5-7.5-1.5
		c-2.1-1-3.8-2.3-5.2-4c-1-1.2-1.8-2.6-2.3-4c-0.5-1.5-0.8-3-0.9-4.6c-0.1-1.6-0.1-3.3,0-5c0.1-1.8,0.4-3.6,0.7-5.5
		c0.3-1.8,0.7-3.6,1.2-5.4c0.5-1.8,1.1-3.5,1.8-5.1c0.7-1.6,1.6-3.1,2.6-4.6c1-1.5,2.2-2.8,3.7-4c2-1.7,4.2-3,6.6-4
		c2.4-1,5.1-1.5,8.1-1.5c2.9,0,5.4,0.5,7.5,1.5c2.1,1,3.8,2.3,5.2,4c2,2.5,3,5.3,3.2,8.6c0.2,3.3-0.1,6.8-0.7,10.5
		C142.6,57.4,141.6,60.9,140.3,64.2z M136.9,49.6c0.2-1.4,0.2-2.7,0.2-4c0-1.3-0.2-2.5-0.5-3.7c-0.3-1.1-0.8-2.2-1.5-3.1
		c-1.9-2.3-4.6-3.5-8.2-3.5c-3.4,0-6.5,1.2-9.3,3.5c-1.1,0.9-1.9,1.9-2.6,3.1c-0.7,1.1-1.3,2.4-1.8,3.7c-0.5,1.3-0.9,2.6-1.2,4
		c-0.3,1.4-0.6,2.7-0.8,4.1c-0.2,1.4-0.4,2.7-0.6,4.1c-0.2,1.4-0.2,2.7-0.2,4c0.1,1.3,0.2,2.5,0.5,3.7c0.3,1.2,0.8,2.2,1.6,3
		c1.9,2.3,4.6,3.5,8.1,3.5c3.5,0,6.6-1.2,9.4-3.5c1-0.8,1.9-1.9,2.6-3c0.7-1.2,1.3-2.4,1.8-3.7c0.5-1.3,0.9-2.6,1.2-4
		c0.3-1.4,0.6-2.7,0.8-4.1C136.5,52.3,136.7,51,136.9,49.6z"/>
	<path class="st1" d="M175,77.3l-1.2-7.1c-0.1-0.4-0.4-0.7-0.8-0.7h-13.5c-0.3,0-0.6,0.2-0.7,0.4l-4,7.6c-0.1,0.3-0.4,0.4-0.7,0.4
		h-4.7c-0.6,0-1-0.7-0.7-1.2L169,38.6c0.1-0.3,0.4-0.4,0.7-0.4h3.7c0.4,0,0.7,0.3,0.8,0.7l7,38.2c0.1,0.5-0.3,1-0.8,1h-4.7
		C175.4,78,175.1,77.7,175,77.3z M172.6,62.8l-2.1-12.2c-0.1-0.8-1.2-1-1.6-0.3l-6.4,12.2c-0.3,0.6,0.1,1.2,0.7,1.2h8.5
		C172.3,63.8,172.7,63.3,172.6,62.8z"/>
	<path class="st1" d="M183.6,77l6.7-38.2c0.1-0.4,0.4-0.7,0.8-0.7h4.4c0.5,0,0.9,0.5,0.8,1l-5.7,32.2c-0.1,0.5,0.3,1,0.8,1h17
		c0.5,0,0.9,0.5,0.8,1l-0.7,4c-0.1,0.4-0.4,0.7-0.8,0.7h-23.4C184,78,183.6,77.5,183.6,77z"/>
	<path class="st1" d="M211.5,77l6.7-38.2c0.1-0.4,0.4-0.7,0.8-0.7h23.5c0.5,0,0.9,0.5,0.8,1l-0.7,4c-0.1,0.4-0.4,0.7-0.8,0.7h-17.7
		c-0.4,0-0.8,0.3-0.8,0.7l-1.7,9.5c-0.1,0.5,0.3,1,0.8,1h14.3c0.5,0,0.9,0.5,0.8,1l-0.7,4c-0.1,0.4-0.4,0.7-0.8,0.7h-14.9
		c-0.4,0-0.8,0.3-0.8,0.7l-1.7,9.8c-0.1,0.5,0.3,1,0.8,1h17.1c0.5,0,0.9,0.5,0.8,1l-0.7,4c-0.1,0.4-0.4,0.7-0.8,0.7h-23.5
		C211.8,78,211.4,77.5,211.5,77z"/>
	<path class="st1" d="M260.8,77.4l-5.1-15.6c-0.1-0.3-0.4-0.6-0.8-0.6h-6c-0.4,0-0.8,0.3-0.8,0.7l-2.7,15.4
		c-0.1,0.4-0.4,0.7-0.8,0.7h-4.4c-0.5,0-0.9-0.5-0.8-1l6.7-38.2c0.1-0.4,0.4-0.7,0.8-0.7h14.4c1.7,0,3.3,0.3,4.7,0.8
		c1.4,0.5,2.6,1.3,3.5,2.3c0.9,1,1.6,2.3,1.9,3.8c0.3,1.4,0.4,3.1,0,4.8c-0.5,3-1.8,5.4-3.7,7.3c-1.5,1.4-3.1,2.4-5,3.1
		c-0.4,0.2-0.7,0.6-0.5,1.1l5.3,15.5c0.2,0.5-0.2,1.1-0.8,1.1h-5.1C261.2,78,260.9,77.7,260.8,77.4z M257.9,55.5c2,0,3.6-0.5,5-1.5
		c1.4-1,2.2-2.4,2.6-4.5c0.3-2,0.1-3.4-0.8-4.3c-1-0.9-2.4-1.4-4.3-1.4H252c-0.4,0-0.8,0.3-0.8,0.7l-1.8,10c-0.1,0.5,0.3,1,0.8,1
		H257.9z"/>
	<path class="st1" d="M278.6,78.3c-1.9,0-3.6-0.3-5-0.9c-1.4-0.6-2.7-1.6-3.7-2.9l-0.6-0.8l4.8-4.1l0.7,0.9c0.5,0.6,1,1.1,1.7,1.5
		c0.4,0.3,1.2,0.6,2.9,0.6c2.2,0,3.9-0.6,5.3-2c1.4-1.3,2.4-3.3,2.8-5.9l4.6-25.9c0.1-0.4,0.4-0.7,0.8-0.7h4.4c0.5,0,0.9,0.5,0.8,1
		l-4.7,26.5c-0.3,1.9-1,3.7-1.8,5.2c-0.9,1.6-2,2.9-3.3,4c-1.3,1.1-2.8,1.9-4.4,2.5C282.1,78,280.4,78.3,278.6,78.3z"/>
	<path class="st1" d="M163.4,16.4c-4.1-5-9.3-8.9-15.3-11.7c-5-2.3-10.6-3.7-16.5-4c-0.5,0-1.4,0-2.2-0.1c-0.8,0-1.5,0.7-1.5,1.5
		v2.3c0,0.8,0.6,1.5,1.4,1.5c0.9,0,2,0,2.6,0.1c5,0.4,9.7,1.5,14,3.5c5.3,2.4,9.8,5.9,13.4,10.3c2,2.5,3.6,5,4.8,7.7
		c0.3,0.7,1.1,1,1.9,0.8l2.2-0.8c0.8-0.3,1.2-1.2,0.8-2C167.6,22.3,165.7,19.3,163.4,16.4z"/>
	<path class="st1" d="M156.1,22.5c-3.2-3.9-7.2-7-11.9-9.1c-3.6-1.7-7.5-2.7-11.8-3.1c-0.7-0.1-1.9-0.1-2.9-0.1
		c-0.8,0-1.5,0.6-1.5,1.5v2.3c0,0.8,0.6,1.5,1.4,1.5c0.9,0,1.9,0.1,2.5,0.1c3.6,0.3,7,1.2,10,2.6c4,1.8,7.4,4.4,10.1,7.7
		c1.3,1.6,2.4,3.3,3.2,5.1c0.3,0.7,1.1,1,1.8,0.7l2.2-0.8c0.8-0.3,1.2-1.3,0.8-2.1C159,26.6,157.6,24.5,156.1,22.5z"/>
	<path class="st1" d="M148.7,28.5c-2.3-2.8-5.2-5-8.6-6.6c-2.4-1.1-5.1-1.8-8.1-2.2c-0.6-0.1-1.7-0.1-2.6-0.1
		c-0.8,0-1.5,0.6-1.5,1.5v2.3c0,0.8,0.6,1.5,1.4,1.5c0.8,0,1.9,0.1,2.4,0.1c2.3,0.3,4.3,0.8,6.2,1.7c2.7,1.2,4.9,3,6.7,5.1
		c0.6,0.8,1.2,1.6,1.6,2.5c0.4,0.6,1.1,0.9,1.8,0.6l2.2-0.8c0.8-0.3,1.2-1.3,0.8-2.1C150.4,30.9,149.6,29.7,148.7,28.5z"/>
	<path class="st1" d="M288.8,89H15.2c-0.5,0-0.8-0.5-0.6-0.9l1.5-2.9c0.1-0.2,0.3-0.3,0.6-0.3h272.6c0.4,0,0.7,0.4,0.6,0.8l-0.5,2.9
		C289.4,88.7,289.1,89,288.8,89z"/>
</g>
</svg>
