<?xml version="1.0" encoding="utf-8"?>
<!-- Generator: Adobe Illustrator 22.0.0, SVG Export Plug-In . SVG Version: 6.00 Build 0)  -->
<svg version="1.1" id="Layer_1" xmlns="http://www.w3.org/2000/svg" xmlns:xlink="http://www.w3.org/1999/xlink" x="0px" y="0px"
	 viewBox="0 0 299 118.9" style="enable-background:new 0 0 299 118.9;" xml:space="preserve">
<style type="text/css">
	.st0{fill:#172C53;}
	.st1{enable-background:new    ;}
</style>
<path class="st0" d="M69.1,77l-2.4-13.7c-0.1-0.6-0.6-1-1.3-1H36.8c-0.5,0-0.9,0.3-1.1,0.7L28,77.3c-0.2,0.4-0.7,0.7-1.1,0.7h-5
	c-1,0-1.6-1-1.1-1.9L57.3,9c0.2-0.4,0.7-0.7,1.1-0.7h4.5c0.6,0,1.1,0.4,1.2,1l12.8,67.1c0.1,0.8-0.5,1.5-1.2,1.5h-5.3
	C69.7,78,69.2,77.6,69.1,77z M57.3,22.3L40.4,53.9c-0.5,0.8,0.2,1.9,1.1,1.9h22.4c0.8,0,1.4-0.7,1.3-1.5l-5.5-31.7
	C59.5,21.5,57.9,21.2,57.3,22.3z"/>
<path class="st0" d="M92.8,78c-4.2,0-7.1-1.2-8.7-3.7c-1.5-2.4-2-5.5-1.3-9.2l9.9-55.9c0.1-0.5,0.6-0.9,1.1-0.9h4.7
	c0.7,0,1.2,0.6,1.1,1.3l-9.7,55.2c-0.4,2.3-0.3,4.1,0.4,5.3c0.7,1.2,2.3,1.8,4.8,1.8h2.5c0.7,0,1.2,0.6,1.1,1.3L98,77.1
	c-0.1,0.5-0.6,0.9-1.1,0.9H92.8z"/>
<path class="st0" d="M140.3,64.5c-1.3,3.3-3.4,6.2-6.3,8.7c-2,1.7-4.2,3-6.7,4s-5.2,1.5-8.1,1.5s-5.5-0.5-7.6-1.5s-3.9-2.3-5.3-4
	c-1-1.2-1.8-2.6-2.3-4.1s-0.8-3-1-4.6c-0.1-1.6-0.1-3.3,0-5c0.1-1.8,0.4-3.6,0.7-5.5c0.3-1.8,0.7-3.6,1.2-5.4
	c0.5-1.8,1.1-3.5,1.8-5.1c0.7-1.6,1.6-3.1,2.6-4.6s2.2-2.8,3.7-4.1c2-1.7,4.2-3,6.7-4s5.2-1.5,8.1-1.5c2.9,0,5.5,0.5,7.6,1.5
	s3.9,2.3,5.3,4c2,2.5,3,5.4,3.2,8.7s-0.1,6.8-0.7,10.5C142.6,57.7,141.6,61.2,140.3,64.5z M136.9,49.8c0.2-1.4,0.2-2.7,0.2-4
	s-0.2-2.5-0.5-3.7c-0.3-1.1-0.8-2.2-1.5-3.1c-1.9-2.3-4.7-3.5-8.2-3.5s-6.6,1.2-9.3,3.5c-1.1,0.9-2,1.9-2.6,3.1
	c-0.7,1.1-1.3,2.4-1.8,3.7s-0.9,2.6-1.2,4c-0.3,1.4-0.6,2.7-0.8,4.1c-0.2,1.4-0.5,2.7-0.6,4.1c-0.2,1.4-0.2,2.7-0.2,4
	c0.1,1.3,0.2,2.5,0.5,3.7s0.8,2.2,1.6,3c1.9,2.3,4.6,3.5,8.1,3.5s6.7-1.2,9.4-3.5c1-0.8,1.9-1.9,2.6-3c0.7-1.2,1.3-2.4,1.8-3.7
	s0.9-2.6,1.2-4s0.6-2.7,0.8-4.1C136.5,52.6,136.7,51.2,136.9,49.8z"/>
<path class="st0" d="M175.2,77.6l-1.2-7.2c-0.1-0.4-0.4-0.7-0.8-0.7h-13.6c-0.3,0-0.6,0.2-0.7,0.5l-4,7.7c-0.1,0.3-0.4,0.4-0.7,0.4
	h-4.8c-0.6,0-1-0.7-0.7-1.2l20.7-38.3c0.1-0.3,0.4-0.4,0.7-0.4h3.7c0.4,0,0.8,0.3,0.8,0.7l7.1,38.3c0.1,0.5-0.3,1-0.8,1H176
	C175.6,78.3,175.2,78,175.2,77.6z M172.7,63.1l-2.1-12.3c-0.1-0.8-1.2-1-1.6-0.3l-6.5,12.3c-0.3,0.6,0.1,1.2,0.7,1.2h8.5
	C172.4,64.1,172.8,63.7,172.7,63.1z"/>
<path class="st0" d="M183.9,77.3l6.8-38.3c0.1-0.4,0.4-0.7,0.8-0.7h4.4c0.5,0,0.9,0.5,0.8,1L191,71.6c-0.1,0.5,0.3,1,0.8,1h17.1
	c0.5,0,0.9,0.5,0.8,1l-0.7,4.1c-0.1,0.4-0.4,0.7-0.8,0.7h-23.5C184.2,78.3,183.8,77.9,183.9,77.3z"/>
<path class="st0" d="M211.8,77.3l6.8-38.3c0.1-0.4,0.4-0.7,0.8-0.7H243c0.5,0,0.9,0.5,0.8,1l-0.7,4.1c-0.1,0.4-0.4,0.7-0.8,0.7
	h-17.8c-0.4,0-0.8,0.3-0.8,0.7l-1.7,9.6c-0.1,0.5,0.3,1,0.8,1h14.4c0.5,0,0.9,0.5,0.8,1l-0.7,4.1c-0.1,0.4-0.4,0.7-0.8,0.7h-14.9
	c-0.4,0-0.8,0.3-0.8,0.7l-1.7,9.9c-0.1,0.5,0.3,1,0.8,1H237c0.5,0,0.9,0.5,0.8,1l-0.7,4.1c-0.1,0.4-0.4,0.7-0.8,0.7h-23.6
	C212.1,78.3,211.7,77.9,211.8,77.3z"/>
<path class="st0" d="M261.4,77.8l-5.1-15.7c-0.1-0.3-0.4-0.6-0.8-0.6h-6c-0.4,0-0.8,0.3-0.8,0.7L246,77.6c-0.1,0.4-0.4,0.7-0.8,0.7
	h-4.4c-0.5,0-0.9-0.5-0.8-1l6.8-38.3c0.1-0.4,0.4-0.7,0.8-0.7h14.5c1.7,0,3.3,0.3,4.7,0.8c1.4,0.5,2.6,1.3,3.6,2.4
	c0.9,1,1.6,2.3,1.9,3.8s0.4,3.1,0,4.8c-0.5,3-1.8,5.5-3.8,7.4c-1.5,1.4-3.1,2.5-5,3.1c-0.4,0.2-0.7,0.6-0.5,1.1l5.3,15.6
	c0.2,0.5-0.2,1.1-0.8,1.1h-5.1C261.8,78.3,261.5,78.1,261.4,77.8z M258.4,55.8c2,0,3.6-0.5,5.1-1.5c1.4-1,2.2-2.5,2.6-4.5
	s0.1-3.4-0.8-4.3c-1-0.9-2.4-1.4-4.3-1.4h-8.4c-0.4,0-0.8,0.3-0.8,0.7L250,54.9c-0.1,0.5,0.3,1,0.8,1h7.6V55.8z"/>
<path class="st0" d="M279.2,78.6c-1.9,0-3.6-0.3-5-0.9s-2.7-1.6-3.8-2.9l-0.6-0.8l4.8-4.1l0.7,0.9c0.5,0.6,1,1.1,1.7,1.5
	c0.4,0.3,1.2,0.6,2.9,0.6c2.2,0,3.9-0.6,5.3-2c1.4-1.3,2.4-3.3,2.8-5.9l4.6-26.1c0.1-0.4,0.4-0.7,0.8-0.7h4.4c0.5,0,0.9,0.5,0.8,1
	L294,66c-0.3,1.9-1,3.7-1.9,5.3c-0.9,1.6-2,2.9-3.3,4s-2.8,1.9-4.4,2.5C282.8,78.3,281.1,78.6,279.2,78.6z"/>
<path class="st0" d="M163.5,16.5c-4.1-5-9.3-9-15.3-11.8c-5.1-2.3-10.6-3.7-16.6-4c-0.5,0-1.4,0-2.2-0.1c-0.8,0-1.5,0.7-1.5,1.5v2.3
	c0,0.8,0.6,1.5,1.5,1.5s2,0,2.6,0.1c5.1,0.4,9.8,1.5,14,3.5c5.3,2.5,9.8,5.9,13.5,10.3c2,2.5,3.6,5.1,4.9,7.8c0.3,0.7,1.1,1,1.9,0.8
	l2.2-0.8c0.8-0.3,1.2-1.2,0.8-2C167.7,22.4,165.8,19.4,163.5,16.5z"/>
<path class="st0" d="M156.1,22.6c-3.2-3.9-7.3-7-12-9.2c-3.6-1.7-7.6-2.7-11.8-3.1c-0.7-0.1-1.9-0.1-2.9-0.1c-0.8,0-1.5,0.6-1.5,1.5
	V14c0,0.8,0.6,1.5,1.4,1.5c0.9,0,1.9,0.1,2.5,0.1c3.7,0.3,7,1.2,10.1,2.6c4,1.8,7.4,4.5,10.1,7.8c1.3,1.6,2.4,3.3,3.3,5.1
	c0.3,0.7,1.1,1,1.8,0.7l2.2-0.8c0.8-0.3,1.2-1.3,0.8-2.1C159.1,26.7,157.7,24.6,156.1,22.6z"/>
<path class="st0" d="M148.8,28.7c-2.3-2.8-5.2-5-8.6-6.6c-2.4-1.1-5.2-1.9-8.1-2.2c-0.6-0.1-1.7-0.1-2.6-0.1c-0.8,0-1.5,0.6-1.5,1.5
	v2.4c0,0.8,0.6,1.5,1.4,1.5c0.9,0,1.9,0.1,2.4,0.1c2.3,0.3,4.3,0.8,6.2,1.7c2.7,1.2,5,3,6.8,5.2c0.6,0.8,1.2,1.6,1.7,2.5
	c0.4,0.6,1.1,0.9,1.8,0.6l2.2-0.8c0.8-0.3,1.2-1.3,0.8-2.1C150.4,31,149.7,29.8,148.8,28.7z"/>
<path class="st0" d="M289.5,89.4H14.6c-0.5,0-0.8-0.5-0.6-0.9l1.5-3c0.1-0.2,0.3-0.3,0.6-0.3H290c0.4,0,0.7,0.4,0.6,0.8l-0.5,3
	C290.1,89.2,289.8,89.4,289.5,89.4z"/>
<g class="st1">
	<path class="st0" d="M63.1,111.7c-0.8,2.1-2,3.7-3.6,4.8c-1.6,1.1-3.3,1.7-5.2,1.7c-1.7,0-3.1-0.5-4-1.3c-1-0.8-1.7-1.7-2.1-2.7
		c-0.1-0.3-0.2-0.7-0.3-1c-0.1-0.3-0.1-0.7-0.1-1.2c0-0.9,0.2-2.6,0.7-5.2c0.5-2.6,0.8-4.3,1.1-5.2c0.3-0.9,0.7-1.6,1.1-2.1
		c0.7-1,1.7-2,3-2.8c1.3-0.8,2.8-1.2,4.5-1.3c2.1,0,3.7,0.7,4.8,1.9c1.1,1.3,1.7,2.8,1.7,4.7h-3.5c-0.1-0.9-0.5-1.7-1.1-2.3
		c-0.6-0.6-1.5-0.9-2.5-0.9c-0.8,0-1.5,0.2-2.1,0.5c-0.6,0.3-1.1,0.7-1.6,1.2c-0.5,0.5-0.9,1.1-1.2,1.9c-0.3,0.8-0.6,2.3-1,4.5
		s-0.6,3.7-0.6,4.5c0,0.8,0.2,1.4,0.5,1.9c0.3,0.5,0.7,0.8,1.2,1.1c0.5,0.3,1.1,0.5,1.9,0.5c1.9,0,3.4-1,4.7-3.1H63.1z"/>
	<path class="st0" d="M78.8,113h-8.2l-2.6,5h-3.5l11.9-22.4h2.8l3.9,22.4h-3.5L78.8,113z M78.4,110l-1.4-9.8h-0.1L72,110H78.4z"/>
	<path class="st0" d="M91.9,95.6h3.3l-3.4,19.2h10.6l-0.6,3.2H87.9L91.9,95.6z"/>
	<path class="st0" d="M111.4,95.6h3.3l-3.4,19.2h10.6l-0.6,3.2h-13.9L111.4,95.6z"/>
	<path class="st0" d="M142.7,111.7c-0.8,2.1-2,3.7-3.6,4.8c-1.6,1.1-3.3,1.7-5.2,1.7c-1.7,0-3.1-0.5-4-1.3c-1-0.8-1.7-1.7-2.1-2.7
		c-0.1-0.3-0.2-0.7-0.3-1c-0.1-0.3-0.1-0.7-0.1-1.2c0-0.9,0.2-2.6,0.7-5.2c0.5-2.6,0.8-4.3,1.1-5.2c0.3-0.9,0.7-1.6,1.1-2.1
		c0.7-1,1.7-2,3-2.8c1.3-0.8,2.8-1.2,4.5-1.3c2.1,0,3.7,0.7,4.8,1.9c1.1,1.3,1.7,2.8,1.7,4.7h-3.5c-0.1-0.9-0.5-1.7-1.1-2.3
		c-0.6-0.6-1.5-0.9-2.5-0.9c-0.8,0-1.5,0.2-2.1,0.5c-0.6,0.3-1.1,0.7-1.6,1.2c-0.5,0.5-0.9,1.1-1.2,1.9c-0.3,0.8-0.6,2.3-1,4.5
		s-0.6,3.7-0.6,4.5c0,0.8,0.2,1.4,0.5,1.9c0.3,0.5,0.7,0.8,1.2,1.1c0.5,0.3,1.1,0.5,1.9,0.5c1.9,0,3.4-1,4.7-3.1H142.7z"/>
	<path class="st0" d="M150.3,95.6h13.9l-0.6,3.2h-10.6l-1.1,6.4h9l-0.5,3h-9l-1.2,6.6h10.6l-0.6,3.2h-13.9L150.3,95.6z"/>
	<path class="st0" d="M169.8,95.6h3.1l7,15.9h0.1l2.8-15.9h3.3l-4,22.4H179l-7-15.9H172l-2.8,15.9h-3.3L169.8,95.6z"/>
	<path class="st0" d="M196.5,98.6h-6l0.5-3h15.2l-0.5,3h-6l-3.4,19.4h-3.3L196.5,98.6z"/>
	<path class="st0" d="M211,95.6h13.9l-0.6,3.2h-10.6l-1.1,6.4h9l-0.5,3h-9l-1.2,6.6h10.6L221,118h-13.9L211,95.6z"/>
	<path class="st0" d="M230.5,95.6h8.5c1.8,0,3.2,0.5,4.2,1.5c1.2,1.1,1.6,2.7,1.3,4.8c-0.6,3-2.3,5.1-5.3,6.2l3.3,10h-3.9l-2.8-9.6
		h-4.2l-1.7,9.6h-3.3L230.5,95.6z M232.1,105.4h5c1.2,0,2.2-0.4,3-1.1c0.7-0.7,1.2-1.5,1.3-2.5c0.2-1.2,0-2-0.6-2.5
		c-0.5-0.5-1.2-0.7-2.3-0.7h-5.2L232.1,105.4z"/>
</g>
</svg>
