<?xml version="1.0" encoding="utf-8"?>
<!-- Generator: Adobe Illustrator 19.1.0, SVG Export Plug-In . SVG Version: 6.00 Build 0)  -->
<svg version="1.1" id="Layer_1" xmlns="http://www.w3.org/2000/svg" xmlns:xlink="http://www.w3.org/1999/xlink" x="0px" y="0px"
	 viewBox="30 7.3 191.7 117.8" enable-background="new 30 7.3 191.7 117.8" xml:space="preserve">
<g>
	<g>
		<path fill="#162C53" d="M180.1,125.1c-0.5,0-1-0.3-1.2-0.8c-0.1-0.4-3.4-8.9-2.9-14.3c0.1-1.6,1-9.8,4.5-12.6c1-0.8,2.1-1.1,3.2-1
			c4.3,0.6,10.2,2.2,13.5,4.7c0.6,0.4,0.7,1.2,0.3,1.8c-0.4,0.6-1.2,0.7-1.8,0.3c-3-2.2-8.3-3.7-12.3-4.2c-0.3,0-0.7,0-1.3,0.4
			c-2,1.6-3.2,6.7-3.6,10.8c-0.3,3.9,1.7,10.1,2.5,12.3c9.7-0.1,19.3-1.4,25.2-9.5c6.3-8.6,13-30,12.8-49.5
			c-0.2-18.8-6.5-33.9-11.7-43.3c-4.3-7.6-9.7-9.3-12.6-9.7c-4.1-0.5-12.9-0.7-17.5-0.7c-2.8,0-2.9,0.2-3,1.1c0,0.2-0.1,0.4-0.1,0.6
			c-0.2,1.1-0.8,5.4,0.9,15.7c1.4,8.7,6.8,8.9,12.1,9.1c5,0.2,12-1.8,12.1-1.8c0.6-0.2,1.2,0.1,1.5,0.7c9.5,18.8,9.8,35.7,8.5,46.6
			c-1.5,11.8-5.2,19.1-5.4,19.4c-0.3,0.6-1.1,0.9-1.8,0.6c-0.6-0.3-0.9-1.1-0.6-1.8c0.1-0.3,14.2-28.4-2.6-62.7
			c-2.2,0.6-7.6,1.8-11.7,1.7c-5.2-0.2-12.9-0.4-14.7-11.2c-1.7-10.4-1.2-15.1-0.9-16.6c0-0.2,0.1-0.3,0.1-0.5
			c0.5-2.4,1.4-3.4,5.7-3.4c4.8,0,13.5,0.2,17.8,0.7c3.4,0.4,9.7,2.4,14.6,11c5.4,9.6,11.9,25.1,12.1,44.5
			c0.2,20.3-6.6,41.9-13.3,51C201.6,123.8,190.8,125.1,180.1,125.1z"/>
	</g>
	<path fill="#162C53" d="M88.8,93.1L87,63.5H75.7L60.2,93.1h8.2l3.5-6.9H80v6.9H88.8z M75.2,79.5l5-9.8L80,79.5H75.2z"/>
	<polygon fill="#162C53" points="91.6,93.1 98,63.5 106.7,63.5 101.9,86.2 112.6,86.2 110.5,93.1 	"/>
	<polygon fill="#162C53" points="114,93.1 120.4,63.5 139.2,63.5 137.9,69.7 128.8,69.7 127.7,74.9 135.9,74.9 134.7,80.4 
		126.5,80.4 125.2,86.2 135.3,86.2 133.8,93.1 	"/>
	<path fill="#162C53" d="M166.4,71.5c0.3-5.9-4.8-8-8.9-8c-4.1,0-11.8,0-11.8,0l-6.5,29.8l8.8-0.2l1.6-10.8h2.1
		c1.2,0,2.6,10.8,2.6,10.8h8.8c0,0-0.5-1.2-1.2-5s-3-7.3-3-7.3C161.4,80.1,166.1,77.4,166.4,71.5z M157.3,72.8c-1,4-6.1,3.1-6.1,3.1
		l1.6-6.1C152.8,69.8,158.3,68.9,157.3,72.8z"/>
	<path fill="#162C53" d="M164.2,93.1l2-6.9c0,0,1.3,0,2.6,0s2.5-0.3,3.1-3.1s4.3-19.6,4.3-19.6h8.8c0,0-4.1,19.1-4.9,22.7
		s-4.5,6.9-7.9,6.9S164.2,93.1,164.2,93.1z"/>
	<polygon fill="#162C53" points="110.4,57.1 116.6,28.6 124.6,28.6 119.6,51.6 130.1,51.6 128.5,57.1 	"/>
	<path fill="#162C53" d="M150.9,28.1c-5,0-14.5,1.9-16.5,16.8c-1.8,13.3,8.5,13.1,10.7,13.1c11.1,0,16.1-8,17-18
		C163,29.5,155.9,28.1,150.9,28.1z M152.8,42.8c-0.3,1.8-1.7,8.3-5.8,9.2c-1.6,0.3-5.6-0.1-4.3-6.3c1.2-6.2,3-11.9,7.6-12.1
		C154.9,33.4,153.1,40.9,152.8,42.8z"/>
	<polygon fill="#162C53" points="144.7,26 149.9,26 151.7,22.9 152.8,22.9 152.8,26 159.9,26 157.6,19.5 149.5,19.5 	"/>
	<g>
		<path fill="#162C53" d="M40.1,111.9c-0.4-0.6-1-1.1-1.7-1.4c-0.7-0.3-1.6-0.5-2.7-0.5s-1.9,0.2-2.7,0.5c-0.7,0.3-1.3,0.8-1.8,1.5
			c-0.5,0.6-0.8,1.4-1,2.3s-0.3,1.9-0.3,3s0.1,2.1,0.2,3c0.2,0.9,0.5,1.6,0.9,2.3c0.4,0.6,1,1.1,1.7,1.4s1.6,0.5,2.7,0.5
			c1.1,0,2-0.2,2.7-0.5c0.7-0.3,1.3-0.8,1.8-1.5c0.5-0.6,0.8-1.4,1-2.3c0.2-0.9,0.3-1.9,0.3-3s-0.1-2.1-0.2-3
			C40.8,113.3,40.5,112.5,40.1,111.9z M38,118.8c0,0.5-0.1,0.9-0.2,1.2c-0.1,0.4-0.2,0.7-0.3,1s-0.3,0.5-0.5,0.7s-0.4,0.3-0.6,0.4
			c-0.2,0.1-0.5,0.1-0.8,0.1c-0.4,0-0.8-0.1-1.1-0.2c-0.3-0.2-0.5-0.4-0.7-0.8s-0.3-0.9-0.4-1.6c-0.1-0.7-0.1-1.5-0.1-2.5
			c0-0.8,0-1.5,0.1-2.1c0.1-0.6,0.2-1.1,0.4-1.5s0.4-0.7,0.7-0.9c0.3-0.2,0.7-0.3,1.2-0.3c0.3,0,0.5,0,0.8,0.1
			c0.2,0.1,0.4,0.2,0.6,0.3c0.2,0.2,0.3,0.4,0.5,0.6c0.1,0.3,0.2,0.6,0.3,1c0.1,0.4,0.1,0.8,0.2,1.3c0,0.5,0.1,1.1,0.1,1.8
			C38,117.9,38,118.4,38,118.8z"/>
		<path fill="#162C53" d="M52.9,118.4c-0.3-0.3-0.6-0.6-1-0.8c-0.4-0.3-0.8-0.5-1.3-0.7c0.4-0.2,0.8-0.4,1.1-0.7
			c0.3-0.3,0.6-0.5,0.8-0.8c0.2-0.3,0.4-0.6,0.5-0.9s0.2-0.6,0.2-1c0-0.5-0.1-1-0.3-1.4c-0.2-0.4-0.5-0.8-0.9-1.1
			c-0.4-0.3-0.9-0.5-1.5-0.7c-0.6-0.2-1.4-0.2-2.2-0.2c-0.9,0-1.6,0.1-2.3,0.3c-0.7,0.2-1.2,0.4-1.7,0.8c-0.4,0.3-0.8,0.7-1,1.2
			c-0.2,0.5-0.3,1-0.3,1.5c0,0.4,0.1,0.7,0.2,1.1c0.1,0.3,0.3,0.6,0.5,0.9s0.5,0.5,0.8,0.8c0.3,0.2,0.7,0.5,1.1,0.7
			c-0.5,0.2-1,0.5-1.4,0.8c-0.4,0.3-0.7,0.5-1,0.8c-0.3,0.3-0.5,0.6-0.6,1s-0.2,0.7-0.2,1.1c0,0.6,0.1,1.1,0.3,1.6
			c0.2,0.4,0.6,0.8,1,1.1c0.5,0.3,1,0.5,1.7,0.7c0.7,0.2,1.5,0.2,2.3,0.2c0.9,0,1.8-0.1,2.5-0.3c0.7-0.2,1.3-0.4,1.8-0.8
			c0.5-0.3,0.8-0.8,1.1-1.3c0.2-0.5,0.4-1.1,0.4-1.7c0-0.4-0.1-0.8-0.2-1.1C53.4,119,53.2,118.7,52.9,118.4z M46.7,112.5
			c0.3-0.3,0.8-0.4,1.5-0.4c0.3,0,0.6,0,0.9,0.1c0.3,0.1,0.5,0.2,0.6,0.3c0.2,0.1,0.3,0.3,0.4,0.5c0.1,0.2,0.1,0.4,0.1,0.7
			c0,0.4-0.2,0.8-0.5,1.2c-0.3,0.4-0.8,0.7-1.4,1c-0.4-0.2-0.7-0.4-1-0.5c-0.3-0.2-0.5-0.3-0.7-0.5c-0.2-0.2-0.3-0.4-0.4-0.6
			s-0.1-0.4-0.1-0.6C46.2,113.1,46.3,112.8,46.7,112.5z M50,121.9c-0.4,0.3-1,0.5-1.8,0.5s-1.4-0.1-1.8-0.4s-0.6-0.7-0.6-1.3
			c0-0.3,0-0.5,0.1-0.7s0.2-0.4,0.4-0.6c0.2-0.2,0.4-0.4,0.7-0.6c0.3-0.2,0.6-0.4,1-0.5c0.4,0.2,0.8,0.4,1.1,0.6s0.6,0.4,0.8,0.6
			c0.2,0.2,0.4,0.4,0.5,0.6s0.2,0.5,0.2,0.7C50.6,121.2,50.4,121.6,50,121.9z"/>
		<path fill="#162C53" d="M65.3,111.9c-0.4-0.6-1-1.1-1.7-1.4c-0.7-0.3-1.6-0.5-2.7-0.5s-1.9,0.2-2.7,0.5c-0.7,0.3-1.3,0.8-1.8,1.5
			c-0.5,0.6-0.8,1.4-1,2.3s-0.3,1.9-0.3,3s0.1,2.1,0.2,3c0.2,0.9,0.5,1.6,0.9,2.3c0.4,0.6,1,1.1,1.7,1.4c0.7,0.3,1.6,0.5,2.7,0.5
			c1.1,0,2-0.2,2.7-0.5s1.3-0.8,1.8-1.5c0.5-0.6,0.8-1.4,1-2.3s0.3-1.9,0.3-3s-0.1-2.1-0.2-3C66,113.3,65.7,112.5,65.3,111.9z
			 M63.2,118.8c0,0.5-0.1,0.9-0.2,1.2c-0.1,0.4-0.2,0.7-0.3,1s-0.3,0.5-0.5,0.7s-0.4,0.3-0.6,0.4c-0.2,0.1-0.5,0.1-0.8,0.1
			c-0.4,0-0.8-0.1-1.1-0.2c-0.3-0.2-0.5-0.4-0.7-0.8s-0.3-0.9-0.4-1.6c-0.1-0.7-0.1-1.5-0.1-2.5c0-0.8,0-1.5,0.1-2.1
			c0.1-0.6,0.2-1.1,0.4-1.5c0.2-0.4,0.4-0.7,0.7-0.9c0.3-0.2,0.7-0.3,1.2-0.3c0.3,0,0.5,0,0.8,0.1c0.2,0.1,0.4,0.2,0.6,0.3
			c0.2,0.2,0.3,0.4,0.5,0.6c0.1,0.3,0.2,0.6,0.3,1s0.1,0.8,0.2,1.3c0,0.5,0.1,1.1,0.1,1.8C63.2,117.9,63.2,118.4,63.2,118.8z"/>
		<path fill="#162C53" d="M77.9,111.9c-0.4-0.6-1-1.1-1.7-1.4c-0.7-0.3-1.6-0.5-2.7-0.5c-1.1,0-1.9,0.2-2.7,0.5
			c-0.7,0.3-1.3,0.8-1.8,1.5c-0.5,0.6-0.8,1.4-1,2.3s-0.3,1.9-0.3,3s0.1,2.1,0.2,3c0.2,0.9,0.5,1.6,0.9,2.3c0.4,0.6,1,1.1,1.7,1.4
			c0.7,0.3,1.6,0.5,2.7,0.5s2-0.2,2.7-0.5c0.7-0.3,1.3-0.8,1.8-1.5c0.5-0.6,0.8-1.4,1-2.3s0.3-1.9,0.3-3s-0.1-2.1-0.2-3
			C78.6,113.3,78.3,112.5,77.9,111.9z M75.8,118.8c0,0.5-0.1,0.9-0.2,1.2c-0.1,0.4-0.2,0.7-0.3,1c-0.1,0.3-0.3,0.5-0.5,0.7
			c-0.2,0.2-0.4,0.3-0.6,0.4s-0.5,0.1-0.8,0.1c-0.4,0-0.8-0.1-1.1-0.2c-0.3-0.2-0.5-0.4-0.7-0.8c-0.2-0.4-0.3-0.9-0.4-1.6
			c-0.1-0.7-0.1-1.5-0.1-2.5c0-0.8,0-1.5,0.1-2.1c0.1-0.6,0.2-1.1,0.4-1.5c0.2-0.4,0.4-0.7,0.7-0.9c0.3-0.2,0.7-0.3,1.2-0.3
			c0.3,0,0.5,0,0.8,0.1c0.2,0.1,0.4,0.2,0.6,0.3c0.2,0.2,0.3,0.4,0.5,0.6c0.1,0.3,0.2,0.6,0.3,1c0.1,0.4,0.1,0.8,0.2,1.3
			c0,0.5,0.1,1.1,0.1,1.8C75.8,117.9,75.8,118.4,75.8,118.8z"/>
		<path fill="#162C53" d="M96.1,111.9c-0.4-0.6-1-1.1-1.7-1.4c-0.7-0.3-1.6-0.5-2.7-0.5c-1.1,0-1.9,0.2-2.7,0.5
			c-0.7,0.3-1.3,0.8-1.8,1.5c-0.5,0.6-0.8,1.4-1,2.3c-0.2,0.9-0.3,1.9-0.3,3s0.1,2.1,0.2,3c0.2,0.9,0.5,1.6,0.9,2.3
			c0.4,0.6,1,1.1,1.7,1.4s1.6,0.5,2.7,0.5c1.1,0,2-0.2,2.7-0.5s1.3-0.8,1.8-1.5c0.5-0.6,0.8-1.4,1-2.3s0.3-1.9,0.3-3s-0.1-2.1-0.2-3
			C96.8,113.3,96.5,112.5,96.1,111.9z M94,118.8c0,0.5-0.1,0.9-0.2,1.2c-0.1,0.4-0.2,0.7-0.3,1s-0.3,0.5-0.5,0.7s-0.4,0.3-0.6,0.4
			c-0.2,0.1-0.5,0.1-0.8,0.1c-0.4,0-0.8-0.1-1.1-0.2c-0.3-0.2-0.5-0.4-0.7-0.8s-0.3-0.9-0.4-1.6s-0.1-1.5-0.1-2.5
			c0-0.8,0-1.5,0.1-2.1s0.2-1.1,0.4-1.5s0.4-0.7,0.7-0.9c0.3-0.2,0.7-0.3,1.2-0.3c0.3,0,0.5,0,0.8,0.1c0.2,0.1,0.4,0.2,0.6,0.3
			c0.2,0.2,0.3,0.4,0.5,0.6c0.1,0.3,0.2,0.6,0.3,1s0.1,0.8,0.2,1.3c0,0.5,0.1,1.1,0.1,1.8C94,117.9,94,118.4,94,118.8z"/>
		<path fill="#162C53" d="M109.4,122.2c0-0.1-0.1-0.2-0.2-0.2s-0.1-0.1-0.2-0.1h-6.2l1.8-1.7c0.9-0.8,1.7-1.5,2.2-2.1
			c0.6-0.6,1-1.2,1.3-1.7s0.5-1,0.6-1.4s0.1-0.9,0.1-1.3c0-0.5-0.1-1-0.3-1.5c-0.2-0.4-0.5-0.8-0.9-1.2c-0.4-0.3-0.9-0.6-1.5-0.8
			c-0.6-0.2-1.3-0.3-2.1-0.3c-0.5,0-1,0-1.5,0.1s-0.9,0.2-1.3,0.3c-0.4,0.1-0.7,0.3-1,0.4s-0.5,0.2-0.6,0.3
			c-0.1,0.1-0.2,0.2-0.2,0.2c0,0.1-0.1,0.1-0.1,0.2s0,0.2-0.1,0.3c0,0.1,0,0.3,0,0.4c0,0.2,0,0.5,0,0.6c0,0.2,0,0.3,0.1,0.4
			c0,0.1,0.1,0.2,0.1,0.2c0.1,0,0.1,0.1,0.2,0.1s0.3-0.1,0.4-0.2c0.2-0.1,0.4-0.2,0.7-0.4c0.3-0.1,0.6-0.3,1-0.4s0.8-0.2,1.3-0.2
			c0.3,0,0.6,0,0.9,0.1s0.5,0.2,0.6,0.4c0.2,0.2,0.3,0.3,0.4,0.6c0.1,0.2,0.1,0.4,0.1,0.7c0,0.3,0,0.5-0.1,0.8s-0.2,0.6-0.4,0.9
			c-0.2,0.3-0.4,0.7-0.8,1.1c-0.3,0.4-0.8,0.9-1.3,1.4l-2.7,2.6c-0.2,0.2-0.3,0.3-0.4,0.4s-0.2,0.3-0.2,0.4
			c-0.1,0.1-0.1,0.3-0.1,0.5s0,0.4,0,0.6c0,0.3,0,0.5,0.1,0.6c0,0.2,0.1,0.3,0.2,0.4s0.2,0.1,0.3,0.2c0.1,0,0.3,0,0.5,0h9
			c0.1,0,0.2,0,0.2-0.1c0.1,0,0.1-0.1,0.2-0.2c0-0.1,0.1-0.2,0.1-0.4c0-0.1,0-0.3,0-0.5s0-0.4,0-0.5
			C109.4,122.4,109.4,122.3,109.4,122.2z"/>
		<path fill="#162C53" d="M122,122.2c0-0.1-0.1-0.2-0.2-0.2s-0.1-0.1-0.2-0.1h-6.2l1.8-1.7c0.9-0.8,1.7-1.5,2.2-2.1
			c0.6-0.6,1-1.2,1.3-1.7s0.5-1,0.6-1.4s0.1-0.9,0.1-1.3c0-0.5-0.1-1-0.3-1.5c-0.2-0.4-0.5-0.8-0.9-1.2c-0.4-0.3-0.9-0.6-1.5-0.8
			c-0.6-0.2-1.3-0.3-2.1-0.3c-0.5,0-1,0-1.5,0.1s-0.9,0.2-1.3,0.3c-0.4,0.1-0.7,0.3-1,0.4s-0.5,0.2-0.6,0.3
			c-0.1,0.1-0.2,0.2-0.2,0.2c0,0.1-0.1,0.1-0.1,0.2s0,0.2-0.1,0.3c0,0.1,0,0.3,0,0.4c0,0.2,0,0.5,0,0.6c0,0.2,0,0.3,0.1,0.4
			c0,0.1,0.1,0.2,0.1,0.2c0.1,0,0.1,0.1,0.2,0.1s0.3-0.1,0.4-0.2c0.2-0.1,0.4-0.2,0.7-0.4c0.3-0.1,0.6-0.3,1-0.4s0.8-0.2,1.3-0.2
			c0.3,0,0.6,0,0.9,0.1s0.5,0.2,0.6,0.4c0.2,0.2,0.3,0.3,0.4,0.6c0.1,0.2,0.1,0.4,0.1,0.7c0,0.3,0,0.5-0.1,0.8s-0.2,0.6-0.4,0.9
			c-0.2,0.3-0.4,0.7-0.8,1.1c-0.3,0.4-0.8,0.9-1.3,1.4l-2.7,2.6c-0.2,0.2-0.3,0.3-0.4,0.4s-0.2,0.3-0.2,0.4
			c-0.1,0.1-0.1,0.3-0.1,0.5s0,0.4,0,0.6c0,0.3,0,0.5,0.1,0.6c0,0.2,0.1,0.3,0.2,0.4s0.2,0.1,0.3,0.2c0.1,0,0.3,0,0.5,0h9
			c0.1,0,0.2,0,0.2-0.1c0.1,0,0.1-0.1,0.2-0.2c0-0.1,0.1-0.2,0.1-0.4c0-0.1,0-0.3,0-0.5s0-0.4,0-0.5C122,122.4,122,122.3,122,122.2z
			"/>
		<path fill="#162C53" d="M133.9,111.9c-0.4-0.6-1-1.1-1.7-1.4c-0.7-0.3-1.6-0.5-2.7-0.5c-1.1,0-1.9,0.2-2.7,0.5
			c-0.7,0.3-1.3,0.8-1.8,1.5c-0.5,0.6-0.8,1.4-1,2.3s-0.3,1.9-0.3,3s0.1,2.1,0.2,3c0.2,0.9,0.5,1.6,0.9,2.3c0.4,0.6,1,1.1,1.7,1.4
			s1.6,0.5,2.7,0.5s2-0.2,2.7-0.5s1.3-0.8,1.8-1.5c0.5-0.6,0.8-1.4,1-2.3s0.3-1.9,0.3-3s-0.1-2.1-0.2-3
			C134.6,113.3,134.3,112.5,133.9,111.9z M131.8,118.8c0,0.5-0.1,0.9-0.2,1.2c-0.1,0.4-0.2,0.7-0.3,1c-0.1,0.3-0.3,0.5-0.5,0.7
			s-0.4,0.3-0.6,0.4c-0.2,0.1-0.5,0.1-0.8,0.1c-0.4,0-0.8-0.1-1.1-0.2c-0.3-0.2-0.5-0.4-0.7-0.8s-0.3-0.9-0.4-1.6s-0.1-1.5-0.1-2.5
			c0-0.8,0-1.5,0.1-2.1s0.2-1.1,0.4-1.5c0.2-0.4,0.4-0.7,0.7-0.9c0.3-0.2,0.7-0.3,1.2-0.3c0.3,0,0.5,0,0.8,0.1
			c0.2,0.1,0.4,0.2,0.6,0.3c0.2,0.2,0.3,0.4,0.5,0.6c0.1,0.3,0.2,0.6,0.3,1c0.1,0.4,0.1,0.8,0.2,1.3c0,0.5,0.1,1.1,0.1,1.8
			C131.8,117.9,131.8,118.4,131.8,118.8z"/>
		<path fill="#162C53" d="M146.5,111.9c-0.4-0.6-1-1.1-1.7-1.4s-1.6-0.5-2.7-0.5s-1.9,0.2-2.7,0.5c-0.7,0.3-1.3,0.8-1.8,1.5
			c-0.5,0.6-0.8,1.4-1,2.3s-0.3,1.9-0.3,3s0.1,2.1,0.2,3c0.2,0.9,0.5,1.6,0.9,2.3c0.4,0.6,1,1.1,1.7,1.4c0.7,0.3,1.6,0.5,2.7,0.5
			c1.1,0,2-0.2,2.7-0.5c0.7-0.3,1.3-0.8,1.8-1.5c0.5-0.6,0.8-1.4,1-2.3c0.2-0.9,0.3-1.9,0.3-3s-0.1-2.1-0.2-3
			C147.2,113.3,146.9,112.5,146.5,111.9z M144.4,118.8c0,0.5-0.1,0.9-0.2,1.2c-0.1,0.4-0.2,0.7-0.3,1c-0.1,0.3-0.3,0.5-0.5,0.7
			c-0.2,0.2-0.4,0.3-0.6,0.4s-0.5,0.1-0.8,0.1c-0.4,0-0.8-0.1-1.1-0.2c-0.3-0.2-0.5-0.4-0.7-0.8c-0.2-0.4-0.3-0.9-0.4-1.6
			s-0.1-1.5-0.1-2.5c0-0.8,0-1.5,0.1-2.1s0.2-1.1,0.4-1.5c0.2-0.4,0.4-0.7,0.7-0.9c0.3-0.2,0.7-0.3,1.2-0.3c0.3,0,0.5,0,0.8,0.1
			c0.2,0.1,0.4,0.2,0.6,0.3c0.2,0.2,0.3,0.4,0.5,0.6c0.1,0.3,0.2,0.6,0.3,1c0.1,0.4,0.1,0.8,0.2,1.3c0,0.5,0.1,1.1,0.1,1.8
			C144.4,117.9,144.4,118.4,144.4,118.8z"/>
		<path fill="#162C53" d="M159.1,111.9c-0.4-0.6-1-1.1-1.7-1.4s-1.6-0.5-2.7-0.5s-1.9,0.2-2.7,0.5c-0.7,0.3-1.3,0.8-1.8,1.5
			c-0.5,0.6-0.8,1.4-1,2.3s-0.3,1.9-0.3,3s0.1,2.1,0.2,3c0.2,0.9,0.5,1.6,0.9,2.3c0.4,0.6,1,1.1,1.7,1.4c0.7,0.3,1.6,0.5,2.7,0.5
			c1.1,0,2-0.2,2.7-0.5c0.7-0.3,1.3-0.8,1.8-1.5c0.5-0.6,0.8-1.4,1-2.3s0.3-1.9,0.3-3s-0.1-2.1-0.2-3
			C159.8,113.3,159.5,112.5,159.1,111.9z M156.9,118.8c0,0.5-0.1,0.9-0.2,1.2c-0.1,0.4-0.2,0.7-0.3,1c-0.1,0.3-0.3,0.5-0.5,0.7
			c-0.2,0.2-0.4,0.3-0.6,0.4s-0.5,0.1-0.8,0.1c-0.4,0-0.8-0.1-1.1-0.2c-0.3-0.2-0.5-0.4-0.7-0.8c-0.2-0.4-0.3-0.9-0.4-1.6
			s-0.1-1.5-0.1-2.5c0-0.8,0-1.5,0.1-2.1s0.2-1.1,0.4-1.5c0.2-0.4,0.4-0.7,0.7-0.9c0.3-0.2,0.7-0.3,1.2-0.3c0.3,0,0.5,0,0.8,0.1
			c0.2,0.1,0.4,0.2,0.6,0.3c0.2,0.2,0.3,0.4,0.5,0.6c0.1,0.3,0.2,0.6,0.3,1c0.1,0.4,0.1,0.8,0.2,1.3c0,0.5,0.1,1.1,0.1,1.8
			C157,117.9,157,118.4,156.9,118.8z"/>
		<path fill="#162C53" d="M171.9,118.4c-0.3-0.3-0.6-0.6-1-0.8c-0.4-0.3-0.8-0.5-1.3-0.7c0.4-0.2,0.8-0.4,1.1-0.7
			c0.3-0.3,0.6-0.5,0.8-0.8s0.4-0.6,0.5-0.9s0.2-0.6,0.2-1c0-0.5-0.1-1-0.3-1.4s-0.5-0.8-0.9-1.1c-0.4-0.3-0.9-0.5-1.5-0.7
			s-1.4-0.2-2.2-0.2c-0.9,0-1.6,0.1-2.3,0.3c-0.7,0.2-1.2,0.4-1.7,0.8c-0.4,0.3-0.8,0.7-1,1.2s-0.3,1-0.3,1.5c0,0.4,0.1,0.7,0.2,1.1
			c0.1,0.3,0.3,0.6,0.5,0.9s0.5,0.5,0.8,0.8c0.3,0.2,0.7,0.5,1.1,0.7c-0.5,0.2-1,0.5-1.4,0.8s-0.7,0.5-1,0.8s-0.5,0.6-0.6,1
			c-0.1,0.3-0.2,0.7-0.2,1.1c0,0.6,0.1,1.1,0.3,1.6c0.2,0.4,0.6,0.8,1,1.1c0.5,0.3,1,0.5,1.7,0.7s1.5,0.2,2.3,0.2
			c0.9,0,1.8-0.1,2.5-0.3c0.7-0.2,1.3-0.4,1.8-0.8c0.5-0.3,0.8-0.8,1.1-1.3c0.2-0.5,0.4-1.1,0.4-1.7c0-0.4-0.1-0.8-0.2-1.1
			C172.4,119,172.2,118.7,171.9,118.4z M165.6,112.5c0.3-0.3,0.8-0.4,1.5-0.4c0.3,0,0.6,0,0.9,0.1c0.3,0.1,0.5,0.2,0.6,0.3
			c0.2,0.1,0.3,0.3,0.4,0.5c0.1,0.2,0.1,0.4,0.1,0.7c0,0.4-0.2,0.8-0.5,1.2c-0.3,0.4-0.8,0.7-1.4,1c-0.4-0.2-0.7-0.4-1-0.5
			c-0.3-0.2-0.5-0.3-0.7-0.5s-0.3-0.4-0.4-0.6c-0.1-0.2-0.1-0.4-0.1-0.6C165.1,113.1,165.3,112.8,165.6,112.5z M169,121.9
			c-0.4,0.3-1,0.5-1.8,0.5s-1.4-0.1-1.8-0.4c-0.4-0.3-0.6-0.7-0.6-1.3c0-0.3,0-0.5,0.1-0.7s0.2-0.4,0.4-0.6s0.4-0.4,0.7-0.6
			s0.6-0.4,1-0.5c0.4,0.2,0.8,0.4,1.1,0.6s0.6,0.4,0.8,0.6s0.4,0.4,0.5,0.6s0.2,0.5,0.2,0.7C169.6,121.2,169.4,121.6,169,121.9z"/>
	</g>
	<path fill="#162C53" d="M106.5,57.1l-1.7-28.6H94.1L79,57.1h7.5l3.8-7.6h7.6v7.6H106.5z M92.7,44.9l5.2-10.3v10.3H92.7z"/>
</g>
</svg>
