<?xml version="1.0" encoding="utf-8"?>
<!-- Generator: Adobe Illustrator 19.2.1, SVG Export Plug-In . SVG Version: 6.00 Build 0)  -->
<svg version="1.1" id="Layer_1" xmlns="http://www.w3.org/2000/svg" xmlns:xlink="http://www.w3.org/1999/xlink" x="0px" y="0px"
	 viewBox="0 0 194 118.3" style="enable-background:new 0 0 194 118.3;" xml:space="preserve">
<style type="text/css">
	.st0{fill:#FFFFFF;}
</style>
<g>
	<g>
		<path class="st0" d="M151.5,118c-0.5,0-1-0.3-1.2-0.8c-0.1-0.4-3.4-8.9-2.9-14.3c0.1-1.6,1-9.8,4.5-12.6c1-0.8,2.1-1.1,3.2-1
			c4.3,0.6,10.2,2.2,13.5,4.7c0.6,0.4,0.7,1.2,0.3,1.8c-0.4,0.6-1.2,0.7-1.8,0.3c-3-2.2-8.3-3.7-12.3-4.2c-0.3,0-0.7,0-1.3,0.4
			c-2,1.6-3.2,6.7-3.6,10.8c-0.3,3.9,1.7,10.1,2.5,12.3c9.7-0.1,19.3-1.4,25.2-9.5c6.3-8.6,13-30,12.8-49.5
			c-0.2-18.8-6.5-33.9-11.7-43.3c-4.3-7.6-9.7-9.3-12.6-9.7c-4.1-0.5-12.9-0.7-17.5-0.7c-2.8,0-2.9,0.2-3,1.1c0,0.2-0.1,0.4-0.1,0.6
			c-0.2,1.1-0.8,5.4,0.9,15.7c1.4,8.7,6.8,8.9,12.1,9.1c5,0.2,12-1.8,12.1-1.8c0.6-0.2,1.2,0.1,1.5,0.7c9.5,18.8,9.8,35.7,8.5,46.6
			c-1.5,11.8-5.2,19.1-5.4,19.4c-0.3,0.6-1.1,0.9-1.8,0.6c-0.6-0.3-0.9-1.1-0.6-1.8c0.1-0.3,14.2-28.4-2.6-62.7
			c-2.2,0.6-7.6,1.8-11.7,1.7c-5.2-0.2-12.9-0.4-14.7-11.2c-1.7-10.4-1.2-15.1-0.9-16.6c0-0.2,0.1-0.3,0.1-0.5
			c0.4-2.3,1.3-3.3,5.6-3.3c4.8,0,13.5,0.2,17.8,0.7c3.4,0.4,9.7,2.4,14.6,11c5.4,9.6,11.9,25.1,12.1,44.5
			c0.2,20.3-6.6,41.9-13.3,51C173,116.7,162.2,118,151.5,118z"/>
	</g>
	<path class="st0" d="M60.2,86.1l-1.8-29.6H47L31.5,86.1h8.2l3.5-6.9h8.2v6.9H60.2z M46.6,72.5l5-9.8l-0.2,9.8H46.6z"/>
	<polygon class="st0" points="63,86.1 69.4,56.5 78,56.5 73.2,79.2 83.9,79.2 81.9,86.1 	"/>
	<polygon class="st0" points="85.4,86.1 91.8,56.5 110.6,56.5 109.2,62.7 100.2,62.7 99,67.8 107.3,67.8 106.1,73.3 97.8,73.3 
		96.6,79.2 106.6,79.2 105.1,86.1 	"/>
	<path class="st0" d="M137.7,64.5c0.3-5.9-4.8-8-8.9-8c-4.1,0-11.8,0-11.8,0l-6.5,29.8l8.8-0.2l1.6-10.8h2.1
		c1.2,0,2.6,10.8,2.6,10.8h8.8c0,0-0.5-1.2-1.2-5c-0.7-3.8-3-7.3-3-7.3C132.7,73.1,137.4,70.4,137.7,64.5z M128.6,65.8
		c-1,4-6.1,3.1-6.1,3.1l1.6-6.1C124.2,62.7,129.6,61.8,128.6,65.8z"/>
	<path class="st0" d="M135.6,86.1l2-6.9c0,0,1.3,0,2.6,0s2.5-0.3,3.1-3.1s4.3-19.6,4.3-19.6h8.8c0,0-4.1,19.1-4.9,22.7
		c-0.8,3.6-4.5,6.9-7.9,6.9S135.6,86.1,135.6,86.1z"/>
	<polygon class="st0" points="81.8,50.1 88,21.5 96,21.5 91,44.6 101.5,44.6 99.9,50.1 	"/>
	<path class="st0" d="M122.2,21.1c-5,0-14.5,1.9-16.5,16.8c-1.8,13.3,8.5,13.1,10.7,13.1c11.1,0,16.1-8,17-18
		C134.4,22.5,127.2,21.1,122.2,21.1z M124.2,35.7c-0.3,1.8-1.7,8.3-5.8,9.2c-1.6,0.3-5.6-0.1-4.3-6.3c1.2-6.2,3-11.9,7.6-12.1
		C126.2,26.4,124.4,33.9,124.2,35.7z"/>
	<polygon class="st0" points="116.1,19 121.3,19 123.1,15.8 124.2,15.8 124.2,19 131.3,19 129,12.5 120.8,12.5 	"/>
	<g>
		<path class="st0" d="M11.5,104.9c-0.4-0.6-1-1.1-1.7-1.4c-0.7-0.3-1.6-0.5-2.7-0.5c-1.1,0-1.9,0.2-2.7,0.5
			c-0.7,0.3-1.3,0.8-1.8,1.5c-0.5,0.6-0.8,1.4-1,2.3c-0.2,0.9-0.3,1.9-0.3,3c0,1.1,0.1,2.1,0.2,3c0.2,0.9,0.5,1.6,0.9,2.3
			c0.4,0.6,1,1.1,1.7,1.4c0.7,0.3,1.6,0.5,2.7,0.5c1.1,0,2-0.2,2.7-0.5c0.7-0.3,1.3-0.8,1.8-1.5c0.5-0.6,0.8-1.4,1-2.3
			c0.2-0.9,0.3-1.9,0.3-3c0-1.1-0.1-2.1-0.2-3C12.2,106.2,11.9,105.5,11.5,104.9z M9.3,111.8c0,0.5-0.1,0.9-0.2,1.2
			c-0.1,0.4-0.2,0.7-0.3,1c-0.1,0.3-0.3,0.5-0.5,0.7c-0.2,0.2-0.4,0.3-0.6,0.4c-0.2,0.1-0.5,0.1-0.8,0.1c-0.4,0-0.8-0.1-1.1-0.2
			c-0.3-0.2-0.5-0.4-0.7-0.8c-0.2-0.4-0.3-0.9-0.4-1.6c-0.1-0.7-0.1-1.5-0.1-2.5c0-0.8,0-1.5,0.1-2.1c0.1-0.6,0.2-1.1,0.4-1.5
			c0.2-0.4,0.4-0.7,0.7-0.9c0.3-0.2,0.7-0.3,1.2-0.3c0.3,0,0.5,0,0.8,0.1c0.2,0.1,0.4,0.2,0.6,0.3c0.2,0.2,0.3,0.4,0.5,0.6
			c0.1,0.3,0.2,0.6,0.3,1c0.1,0.4,0.1,0.8,0.2,1.3c0,0.5,0.1,1.1,0.1,1.8C9.4,110.8,9.4,111.3,9.3,111.8z"/>
		<path class="st0" d="M24.3,111.4c-0.3-0.3-0.6-0.6-1-0.8c-0.4-0.3-0.8-0.5-1.3-0.7c0.4-0.2,0.8-0.4,1.1-0.7
			c0.3-0.3,0.6-0.5,0.8-0.8c0.2-0.3,0.4-0.6,0.5-0.9c0.1-0.3,0.2-0.6,0.2-1c0-0.5-0.1-1-0.3-1.4c-0.2-0.4-0.5-0.8-0.9-1.1
			c-0.4-0.3-0.9-0.5-1.5-0.7c-0.6-0.2-1.4-0.2-2.2-0.2c-0.9,0-1.6,0.1-2.3,0.3c-0.7,0.2-1.2,0.4-1.7,0.8c-0.4,0.3-0.8,0.7-1,1.2
			c-0.2,0.5-0.3,1-0.3,1.5c0,0.4,0.1,0.7,0.2,1.1c0.1,0.3,0.3,0.6,0.5,0.9c0.2,0.3,0.5,0.5,0.8,0.8c0.3,0.2,0.7,0.5,1.1,0.7
			c-0.5,0.2-1,0.5-1.4,0.8c-0.4,0.3-0.7,0.5-1,0.8c-0.3,0.3-0.5,0.6-0.6,1s-0.2,0.7-0.2,1.1c0,0.6,0.1,1.1,0.3,1.6
			c0.2,0.4,0.6,0.8,1,1.1c0.5,0.3,1,0.5,1.7,0.7c0.7,0.2,1.5,0.2,2.3,0.2c0.9,0,1.8-0.1,2.5-0.3c0.7-0.2,1.3-0.4,1.8-0.8
			c0.5-0.3,0.8-0.8,1.1-1.3c0.2-0.5,0.4-1.1,0.4-1.7c0-0.4-0.1-0.8-0.2-1.1C24.8,112,24.6,111.7,24.3,111.4z M18,105.4
			c0.3-0.3,0.8-0.4,1.5-0.4c0.3,0,0.6,0,0.9,0.1c0.3,0.1,0.5,0.2,0.6,0.3c0.2,0.1,0.3,0.3,0.4,0.5c0.1,0.2,0.1,0.4,0.1,0.7
			c0,0.4-0.2,0.8-0.5,1.2c-0.3,0.4-0.8,0.7-1.4,1c-0.4-0.2-0.7-0.4-1-0.5c-0.3-0.2-0.5-0.3-0.7-0.5c-0.2-0.2-0.3-0.4-0.4-0.6
			c-0.1-0.2-0.1-0.4-0.1-0.6C17.5,106.1,17.7,105.7,18,105.4z M21.4,114.9c-0.4,0.3-1,0.5-1.8,0.5c-0.8,0-1.4-0.1-1.8-0.4
			c-0.4-0.3-0.6-0.7-0.6-1.3c0-0.3,0-0.5,0.1-0.7c0.1-0.2,0.2-0.4,0.4-0.6c0.2-0.2,0.4-0.4,0.7-0.6c0.3-0.2,0.6-0.4,1-0.5
			c0.4,0.2,0.8,0.4,1.1,0.6c0.3,0.2,0.6,0.4,0.8,0.6c0.2,0.2,0.4,0.4,0.5,0.6c0.1,0.2,0.2,0.5,0.2,0.7
			C22,114.2,21.8,114.6,21.4,114.9z"/>
		<path class="st0" d="M36.7,104.9c-0.4-0.6-1-1.1-1.7-1.4c-0.7-0.3-1.6-0.5-2.7-0.5c-1.1,0-1.9,0.2-2.7,0.5
			c-0.7,0.3-1.3,0.8-1.8,1.5c-0.5,0.6-0.8,1.4-1,2.3c-0.2,0.9-0.3,1.9-0.3,3c0,1.1,0.1,2.1,0.2,3c0.2,0.9,0.5,1.6,0.9,2.3
			c0.4,0.6,1,1.1,1.7,1.4c0.7,0.3,1.6,0.5,2.7,0.5c1.1,0,2-0.2,2.7-0.5c0.7-0.3,1.3-0.8,1.8-1.5c0.5-0.6,0.8-1.4,1-2.3
			c0.2-0.9,0.3-1.9,0.3-3c0-1.1-0.1-2.1-0.2-3C37.4,106.2,37.1,105.5,36.7,104.9z M34.5,111.8c0,0.5-0.1,0.9-0.2,1.2
			c-0.1,0.4-0.2,0.7-0.3,1c-0.1,0.3-0.3,0.5-0.5,0.7c-0.2,0.2-0.4,0.3-0.6,0.4c-0.2,0.1-0.5,0.1-0.8,0.1c-0.4,0-0.8-0.1-1.1-0.2
			c-0.3-0.2-0.5-0.4-0.7-0.8c-0.2-0.4-0.3-0.9-0.4-1.6c-0.1-0.7-0.1-1.5-0.1-2.5c0-0.8,0-1.5,0.1-2.1c0.1-0.6,0.2-1.1,0.4-1.5
			c0.2-0.4,0.4-0.7,0.7-0.9c0.3-0.2,0.7-0.3,1.2-0.3c0.3,0,0.5,0,0.8,0.1c0.2,0.1,0.4,0.2,0.6,0.3c0.2,0.2,0.3,0.4,0.5,0.6
			c0.1,0.3,0.2,0.6,0.3,1c0.1,0.4,0.1,0.8,0.2,1.3c0,0.5,0.1,1.1,0.1,1.8C34.6,110.8,34.5,111.3,34.5,111.8z"/>
		<path class="st0" d="M49.3,104.9c-0.4-0.6-1-1.1-1.7-1.4c-0.7-0.3-1.6-0.5-2.7-0.5c-1.1,0-1.9,0.2-2.7,0.5
			c-0.7,0.3-1.3,0.8-1.8,1.5c-0.5,0.6-0.8,1.4-1,2.3c-0.2,0.9-0.3,1.9-0.3,3c0,1.1,0.1,2.1,0.2,3c0.2,0.9,0.5,1.6,0.9,2.3
			c0.4,0.6,1,1.1,1.7,1.4c0.7,0.3,1.6,0.5,2.7,0.5c1.1,0,2-0.2,2.7-0.5c0.7-0.3,1.3-0.8,1.8-1.5c0.5-0.6,0.8-1.4,1-2.3
			c0.2-0.9,0.3-1.9,0.3-3c0-1.1-0.1-2.1-0.2-3C50,106.2,49.7,105.5,49.3,104.9z M47.1,111.8c0,0.5-0.1,0.9-0.2,1.2
			c-0.1,0.4-0.2,0.7-0.3,1c-0.1,0.3-0.3,0.5-0.5,0.7c-0.2,0.2-0.4,0.3-0.6,0.4c-0.2,0.1-0.5,0.1-0.8,0.1c-0.4,0-0.8-0.1-1.1-0.2
			c-0.3-0.2-0.5-0.4-0.7-0.8c-0.2-0.4-0.3-0.9-0.4-1.6c-0.1-0.7-0.1-1.5-0.1-2.5c0-0.8,0-1.5,0.1-2.1c0.1-0.6,0.2-1.1,0.4-1.5
			c0.2-0.4,0.4-0.7,0.7-0.9c0.3-0.2,0.7-0.3,1.2-0.3c0.3,0,0.5,0,0.8,0.1c0.2,0.1,0.4,0.2,0.6,0.3c0.2,0.2,0.3,0.4,0.5,0.6
			c0.1,0.3,0.2,0.6,0.3,1c0.1,0.4,0.1,0.8,0.2,1.3c0,0.5,0.1,1.1,0.1,1.8C47.2,110.8,47.1,111.3,47.1,111.8z"/>
		<path class="st0" d="M67.5,104.9c-0.4-0.6-1-1.1-1.7-1.4c-0.7-0.3-1.6-0.5-2.7-0.5c-1.1,0-1.9,0.2-2.7,0.5
			c-0.7,0.3-1.3,0.8-1.8,1.5c-0.5,0.6-0.8,1.4-1,2.3c-0.2,0.9-0.3,1.9-0.3,3c0,1.1,0.1,2.1,0.2,3c0.2,0.9,0.5,1.6,0.9,2.3
			c0.4,0.6,1,1.1,1.7,1.4c0.7,0.3,1.6,0.5,2.7,0.5c1.1,0,2-0.2,2.7-0.5c0.7-0.3,1.3-0.8,1.8-1.5c0.5-0.6,0.8-1.4,1-2.3
			c0.2-0.9,0.3-1.9,0.3-3c0-1.1-0.1-2.1-0.2-3C68.2,106.2,67.9,105.5,67.5,104.9z M65.3,111.8c0,0.5-0.1,0.9-0.2,1.2
			c-0.1,0.4-0.2,0.7-0.3,1c-0.1,0.3-0.3,0.5-0.5,0.7c-0.2,0.2-0.4,0.3-0.6,0.4c-0.2,0.1-0.5,0.1-0.8,0.1c-0.4,0-0.8-0.1-1.1-0.2
			c-0.3-0.2-0.5-0.4-0.7-0.8c-0.2-0.4-0.3-0.9-0.4-1.6c-0.1-0.7-0.1-1.5-0.1-2.5c0-0.8,0-1.5,0.1-2.1c0.1-0.6,0.2-1.1,0.4-1.5
			c0.2-0.4,0.4-0.7,0.7-0.9c0.3-0.2,0.7-0.3,1.2-0.3c0.3,0,0.5,0,0.8,0.1c0.2,0.1,0.4,0.2,0.6,0.3c0.2,0.2,0.3,0.4,0.5,0.6
			c0.1,0.3,0.2,0.6,0.3,1c0.1,0.4,0.1,0.8,0.2,1.3c0,0.5,0.1,1.1,0.1,1.8C65.4,110.8,65.4,111.3,65.3,111.8z"/>
		<path class="st0" d="M80.7,115.1c0-0.1-0.1-0.2-0.2-0.2c-0.1,0-0.1-0.1-0.2-0.1h-6.2l1.8-1.7c0.9-0.8,1.7-1.5,2.2-2.1
			c0.6-0.6,1-1.2,1.3-1.7c0.3-0.5,0.5-1,0.6-1.4c0.1-0.4,0.1-0.9,0.1-1.3c0-0.5-0.1-1-0.3-1.5c-0.2-0.4-0.5-0.8-0.9-1.2
			c-0.4-0.3-0.9-0.6-1.5-0.8c-0.6-0.2-1.3-0.3-2.1-0.3c-0.5,0-1,0-1.5,0.1c-0.5,0.1-0.9,0.2-1.3,0.3c-0.4,0.1-0.7,0.3-1,0.4
			c-0.3,0.1-0.5,0.2-0.6,0.3c-0.1,0.1-0.2,0.2-0.2,0.2c0,0.1-0.1,0.1-0.1,0.2c0,0.1,0,0.2-0.1,0.3c0,0.1,0,0.3,0,0.4
			c0,0.2,0,0.5,0,0.6c0,0.2,0,0.3,0.1,0.4c0,0.1,0.1,0.2,0.1,0.2c0.1,0,0.1,0.1,0.2,0.1c0.1,0,0.3-0.1,0.4-0.2
			c0.2-0.1,0.4-0.2,0.7-0.4c0.3-0.1,0.6-0.3,1-0.4c0.4-0.1,0.8-0.2,1.3-0.2c0.3,0,0.6,0,0.9,0.1c0.3,0.1,0.5,0.2,0.6,0.4
			c0.2,0.2,0.3,0.3,0.4,0.6c0.1,0.2,0.1,0.4,0.1,0.7c0,0.3,0,0.5-0.1,0.8c-0.1,0.3-0.2,0.6-0.4,0.9c-0.2,0.3-0.4,0.7-0.8,1.1
			c-0.3,0.4-0.8,0.9-1.3,1.4l-2.7,2.6c-0.2,0.2-0.3,0.3-0.4,0.4c-0.1,0.1-0.2,0.3-0.2,0.4c-0.1,0.1-0.1,0.3-0.1,0.5
			c0,0.2,0,0.4,0,0.6c0,0.3,0,0.5,0.1,0.6c0,0.2,0.1,0.3,0.2,0.4c0.1,0.1,0.2,0.1,0.3,0.2c0.1,0,0.3,0,0.5,0h9c0.1,0,0.2,0,0.2-0.1
			c0.1,0,0.1-0.1,0.2-0.2c0-0.1,0.1-0.2,0.1-0.4s0-0.3,0-0.5c0-0.2,0-0.4,0-0.5C80.8,115.4,80.8,115.2,80.7,115.1z"/>
		<path class="st0" d="M93.3,115.1c0-0.1-0.1-0.2-0.2-0.2c-0.1,0-0.1-0.1-0.2-0.1h-6.2l1.8-1.7c0.9-0.8,1.7-1.5,2.2-2.1
			c0.6-0.6,1-1.2,1.3-1.7c0.3-0.5,0.5-1,0.6-1.4c0.1-0.4,0.1-0.9,0.1-1.3c0-0.5-0.1-1-0.3-1.5c-0.2-0.4-0.5-0.8-0.9-1.2
			c-0.4-0.3-0.9-0.6-1.5-0.8c-0.6-0.2-1.3-0.3-2.1-0.3c-0.5,0-1,0-1.5,0.1c-0.5,0.1-0.9,0.2-1.3,0.3c-0.4,0.1-0.7,0.3-1,0.4
			c-0.3,0.1-0.5,0.2-0.6,0.3c-0.1,0.1-0.2,0.2-0.2,0.2c0,0.1-0.1,0.1-0.1,0.2c0,0.1,0,0.2-0.1,0.3c0,0.1,0,0.3,0,0.4
			c0,0.2,0,0.5,0,0.6c0,0.2,0,0.3,0.1,0.4c0,0.1,0.1,0.2,0.1,0.2c0.1,0,0.1,0.1,0.2,0.1c0.1,0,0.3-0.1,0.4-0.2
			c0.2-0.1,0.4-0.2,0.7-0.4c0.3-0.1,0.6-0.3,1-0.4c0.4-0.1,0.8-0.2,1.3-0.2c0.3,0,0.6,0,0.9,0.1c0.3,0.1,0.5,0.2,0.6,0.4
			c0.2,0.2,0.3,0.3,0.4,0.6c0.1,0.2,0.1,0.4,0.1,0.7c0,0.3,0,0.5-0.1,0.8c-0.1,0.3-0.2,0.6-0.4,0.9c-0.2,0.3-0.4,0.7-0.8,1.1
			c-0.3,0.4-0.8,0.9-1.3,1.4l-2.7,2.6c-0.2,0.2-0.3,0.3-0.4,0.4c-0.1,0.1-0.2,0.3-0.2,0.4c-0.1,0.1-0.1,0.3-0.1,0.5
			c0,0.2,0,0.4,0,0.6c0,0.3,0,0.5,0.1,0.6c0,0.2,0.1,0.3,0.2,0.4c0.1,0.1,0.2,0.1,0.3,0.2c0.1,0,0.3,0,0.5,0h9c0.1,0,0.2,0,0.2-0.1
			c0.1,0,0.1-0.1,0.2-0.2c0-0.1,0.1-0.2,0.1-0.4c0-0.1,0-0.3,0-0.5c0-0.2,0-0.4,0-0.5C93.4,115.4,93.4,115.2,93.3,115.1z"/>
		<path class="st0" d="M105.3,104.9c-0.4-0.6-1-1.1-1.7-1.4c-0.7-0.3-1.6-0.5-2.7-0.5c-1.1,0-1.9,0.2-2.7,0.5
			c-0.7,0.3-1.3,0.8-1.8,1.5c-0.5,0.6-0.8,1.4-1,2.3c-0.2,0.9-0.3,1.9-0.3,3c0,1.1,0.1,2.1,0.2,3c0.2,0.9,0.5,1.6,0.9,2.3
			c0.4,0.6,1,1.1,1.7,1.4c0.7,0.3,1.6,0.5,2.7,0.5c1.1,0,2-0.2,2.7-0.5c0.7-0.3,1.3-0.8,1.8-1.5c0.5-0.6,0.8-1.4,1-2.3
			c0.2-0.9,0.3-1.9,0.3-3c0-1.1-0.1-2.1-0.2-3C106,106.2,105.7,105.5,105.3,104.9z M103.1,111.8c0,0.5-0.1,0.9-0.2,1.2
			c-0.1,0.4-0.2,0.7-0.3,1c-0.1,0.3-0.3,0.5-0.5,0.7c-0.2,0.2-0.4,0.3-0.6,0.4c-0.2,0.1-0.5,0.1-0.8,0.1c-0.4,0-0.8-0.1-1.1-0.2
			c-0.3-0.2-0.5-0.4-0.7-0.8c-0.2-0.4-0.3-0.9-0.4-1.6c-0.1-0.7-0.1-1.5-0.1-2.5c0-0.8,0-1.5,0.1-2.1c0.1-0.6,0.2-1.1,0.4-1.5
			c0.2-0.4,0.4-0.7,0.7-0.9c0.3-0.2,0.7-0.3,1.2-0.3c0.3,0,0.5,0,0.8,0.1c0.2,0.1,0.4,0.2,0.6,0.3c0.2,0.2,0.3,0.4,0.5,0.6
			c0.1,0.3,0.2,0.6,0.3,1c0.1,0.4,0.1,0.8,0.2,1.3c0,0.5,0.1,1.1,0.1,1.8C103.2,110.8,103.1,111.3,103.1,111.8z"/>
		<path class="st0" d="M117.9,104.9c-0.4-0.6-1-1.1-1.7-1.4c-0.7-0.3-1.6-0.5-2.7-0.5c-1.1,0-1.9,0.2-2.7,0.5
			c-0.7,0.3-1.3,0.8-1.8,1.5c-0.5,0.6-0.8,1.4-1,2.3c-0.2,0.9-0.3,1.9-0.3,3c0,1.1,0.1,2.1,0.2,3c0.2,0.9,0.5,1.6,0.9,2.3
			c0.4,0.6,1,1.1,1.7,1.4c0.7,0.3,1.6,0.5,2.7,0.5c1.1,0,2-0.2,2.7-0.5c0.7-0.3,1.3-0.8,1.8-1.5c0.5-0.6,0.8-1.4,1-2.3
			c0.2-0.9,0.3-1.9,0.3-3c0-1.1-0.1-2.1-0.2-3C118.6,106.2,118.3,105.5,117.9,104.9z M115.7,111.8c0,0.5-0.1,0.9-0.2,1.2
			c-0.1,0.4-0.2,0.7-0.3,1c-0.1,0.3-0.3,0.5-0.5,0.7c-0.2,0.2-0.4,0.3-0.6,0.4c-0.2,0.1-0.5,0.1-0.8,0.1c-0.4,0-0.8-0.1-1.1-0.2
			c-0.3-0.2-0.5-0.4-0.7-0.8c-0.2-0.4-0.3-0.9-0.4-1.6c-0.1-0.7-0.1-1.5-0.1-2.5c0-0.8,0-1.5,0.1-2.1c0.1-0.6,0.2-1.1,0.4-1.5
			c0.2-0.4,0.4-0.7,0.7-0.9s0.7-0.3,1.2-0.3c0.3,0,0.5,0,0.8,0.1c0.2,0.1,0.4,0.2,0.6,0.3c0.2,0.2,0.3,0.4,0.5,0.6
			c0.1,0.3,0.2,0.6,0.3,1c0.1,0.4,0.1,0.8,0.2,1.3c0,0.5,0.1,1.1,0.1,1.8C115.8,110.8,115.7,111.3,115.7,111.8z"/>
		<path class="st0" d="M130.5,104.9c-0.4-0.6-1-1.1-1.7-1.4c-0.7-0.3-1.6-0.5-2.7-0.5c-1.1,0-1.9,0.2-2.7,0.5
			c-0.7,0.3-1.3,0.8-1.8,1.5c-0.5,0.6-0.8,1.4-1,2.3c-0.2,0.9-0.3,1.9-0.3,3c0,1.1,0.1,2.1,0.2,3c0.2,0.9,0.5,1.6,0.9,2.3
			c0.4,0.6,1,1.1,1.7,1.4c0.7,0.3,1.6,0.5,2.7,0.5c1.1,0,2-0.2,2.7-0.5c0.7-0.3,1.3-0.8,1.8-1.5c0.5-0.6,0.8-1.4,1-2.3
			c0.2-0.9,0.3-1.9,0.3-3c0-1.1-0.1-2.1-0.2-3C131.2,106.2,130.9,105.5,130.5,104.9z M128.3,111.8c0,0.5-0.1,0.9-0.2,1.2
			c-0.1,0.4-0.2,0.7-0.3,1c-0.1,0.3-0.3,0.5-0.5,0.7c-0.2,0.2-0.4,0.3-0.6,0.4c-0.2,0.1-0.5,0.1-0.8,0.1c-0.4,0-0.8-0.1-1.1-0.2
			c-0.3-0.2-0.5-0.4-0.7-0.8c-0.2-0.4-0.3-0.9-0.4-1.6c-0.1-0.7-0.1-1.5-0.1-2.5c0-0.8,0-1.5,0.1-2.1c0.1-0.6,0.2-1.1,0.4-1.5
			c0.2-0.4,0.4-0.7,0.7-0.9c0.3-0.2,0.7-0.3,1.2-0.3c0.3,0,0.5,0,0.8,0.1c0.2,0.1,0.4,0.2,0.6,0.3c0.2,0.2,0.3,0.4,0.5,0.6
			c0.1,0.3,0.2,0.6,0.3,1c0.1,0.4,0.1,0.8,0.2,1.3c0,0.5,0.1,1.1,0.1,1.8C128.4,110.8,128.3,111.3,128.3,111.8z"/>
		<path class="st0" d="M143.3,111.4c-0.3-0.3-0.6-0.6-1-0.8c-0.4-0.3-0.8-0.5-1.3-0.7c0.4-0.2,0.8-0.4,1.1-0.7
			c0.3-0.3,0.6-0.5,0.8-0.8c0.2-0.3,0.4-0.6,0.5-0.9c0.1-0.3,0.2-0.6,0.2-1c0-0.5-0.1-1-0.3-1.4c-0.2-0.4-0.5-0.8-0.9-1.1
			c-0.4-0.3-0.9-0.5-1.5-0.7c-0.6-0.2-1.4-0.2-2.2-0.2c-0.9,0-1.6,0.1-2.3,0.3c-0.7,0.2-1.2,0.4-1.7,0.8c-0.4,0.3-0.8,0.7-1,1.2
			c-0.2,0.5-0.3,1-0.3,1.5c0,0.4,0.1,0.7,0.2,1.1c0.1,0.3,0.3,0.6,0.5,0.9c0.2,0.3,0.5,0.5,0.8,0.8c0.3,0.2,0.7,0.5,1.1,0.7
			c-0.5,0.2-1,0.5-1.4,0.8c-0.4,0.3-0.7,0.5-1,0.8c-0.3,0.3-0.5,0.6-0.6,1c-0.1,0.3-0.2,0.7-0.2,1.1c0,0.6,0.1,1.1,0.3,1.6
			c0.2,0.4,0.6,0.8,1,1.1c0.5,0.3,1,0.5,1.7,0.7c0.7,0.2,1.5,0.2,2.3,0.2c0.9,0,1.8-0.1,2.5-0.3c0.7-0.2,1.3-0.4,1.8-0.8
			c0.5-0.3,0.8-0.8,1.1-1.3c0.2-0.5,0.4-1.1,0.4-1.7c0-0.4-0.1-0.8-0.2-1.1C143.7,112,143.5,111.7,143.3,111.4z M137,105.4
			c0.3-0.3,0.8-0.4,1.5-0.4c0.3,0,0.6,0,0.9,0.1c0.3,0.1,0.5,0.2,0.6,0.3c0.2,0.1,0.3,0.3,0.4,0.5c0.1,0.2,0.1,0.4,0.1,0.7
			c0,0.4-0.2,0.8-0.5,1.2c-0.3,0.4-0.8,0.7-1.4,1c-0.4-0.2-0.7-0.4-1-0.5c-0.3-0.2-0.5-0.3-0.7-0.5c-0.2-0.2-0.3-0.4-0.4-0.6
			c-0.1-0.2-0.1-0.4-0.1-0.6C136.5,106.1,136.7,105.7,137,105.4z M140.3,114.9c-0.4,0.3-1,0.5-1.8,0.5c-0.8,0-1.4-0.1-1.8-0.4
			c-0.4-0.3-0.6-0.7-0.6-1.3c0-0.3,0-0.5,0.1-0.7c0.1-0.2,0.2-0.4,0.4-0.6c0.2-0.2,0.4-0.4,0.7-0.6c0.3-0.2,0.6-0.4,1-0.5
			c0.4,0.2,0.8,0.4,1.1,0.6c0.3,0.2,0.6,0.4,0.8,0.6c0.2,0.2,0.4,0.4,0.5,0.6c0.1,0.2,0.2,0.5,0.2,0.7
			C140.9,114.2,140.7,114.6,140.3,114.9z"/>
	</g>
	<path class="st0" d="M77.9,50.1l-1.7-28.6H65.5L50.4,50.1h7.5l3.8-7.6h7.6v7.6H77.9z M64,37.9l5.2-10.3v10.3H64z"/>
</g>
</svg>
