<?xml version="1.0" encoding="utf-8"?>
<!-- Generator: Adobe Illustrator 19.1.0, SVG Export Plug-In . SVG Version: 6.00 Build 0)  -->
<svg version="1.1" id="Layer_1" xmlns="http://www.w3.org/2000/svg" xmlns:xlink="http://www.w3.org/1999/xlink" x="0px" y="0px"
	 viewBox="0 0 214.2 284.4" enable-background="new 0 0 214.2 284.4" xml:space="preserve">
<g>
	<polygon fill="#FFFFFF" points="0,284.4 0,33 105.8,0 214.2,33 214.2,284.4 	"/>
	<g>
		<polygon fill="#162C53" points="105.8,2.3 2.3,34.6 2.3,284.4 211.9,284.4 211.9,34.6 		"/>
		<path fill="#FFFFFF" d="M35.1,224.8l-1.4-3.6l-1.5,3.6H35.1z M34.4,219.5c0.1,0.4,0.3,0.9,0.4,1.3l2.1,5.3
			c0.5,1.4,0.8,1.4,1.1,1.4h0.1v0.3h-3.2v-0.3h0.3c0.5,0,0.6-0.1,0.6-0.3c0-0.1,0-0.3-0.1-0.5l-0.6-1.5H32l-0.4,1
			c-0.2,0.6-0.3,0.8-0.3,1c0,0.4,0.3,0.4,0.8,0.4h0.2v0.3h-2.4v-0.3H30c0.3,0,0.6-0.1,0.9-0.8l2.5-6c0.2-0.4,0.3-0.8,0.4-1.2H34.4z"
			/>
		<path fill="#FFFFFF" d="M43.7,221.5h-0.4c0-1-0.8-1.8-1.8-1.8c-1,0-1.8,0.5-1.8,1.6c0,1.9,4.4,1.2,4.4,4.2c0,1.6-1.3,2.5-2.8,2.5
			c-0.5,0-0.9-0.1-1.2-0.2c-0.3-0.1-0.5-0.1-0.6-0.1c-0.2,0-0.3,0.1-0.3,0.2h-0.4v-2.3h0.4c0.2,1.2,0.8,2,2.2,2
			c1.1,0,1.8-0.6,1.8-1.7c0-2-4.4-1.5-4.4-4.1c0-1.6,1.2-2.5,2.7-2.5c0.6,0,1.2,0.3,1.6,0.3c0.2,0,0.2-0.1,0.3-0.3h0.3V221.5z"/>
		<path fill="#FFFFFF" d="M50.4,221.5H50c0-1-0.8-1.8-1.8-1.8c-1,0-1.8,0.5-1.8,1.6c0,1.9,4.4,1.2,4.4,4.2c0,1.6-1.3,2.5-2.8,2.5
			c-0.5,0-0.9-0.1-1.2-0.2c-0.3-0.1-0.5-0.1-0.6-0.1c-0.2,0-0.3,0.1-0.3,0.2h-0.4v-2.3h0.4c0.2,1.2,0.8,2,2.2,2
			c1.1,0,1.8-0.6,1.8-1.7c0-2-4.4-1.5-4.4-4.1c0-1.6,1.2-2.5,2.7-2.5c0.6,0,1.2,0.3,1.6,0.3c0.2,0,0.2-0.1,0.3-0.3h0.3V221.5z"/>
		<path fill="#FFFFFF" d="M52,227.5h0.5c0.3,0,0.5-0.1,0.5-0.7v-6c0-0.7-0.1-0.8-0.5-0.8H52v-0.3h6.3v1.9h-0.4
			c0-1.1-0.6-1.6-1.7-1.6h-2v3.5h1.7c0.8,0,1.1-0.5,1.1-1.2h0.4v2.9H57c0-0.8-0.3-1.3-1.1-1.3h-1.7v3.7h2.1c1.1,0,1.7-0.5,1.7-1.6
			h0.4v2H52V227.5z"/>
		<path fill="#FFFFFF" d="M59.5,227.5h0.4c0.5,0,0.5-0.3,0.5-1.3v-5.6c0-0.4,0-0.6-0.5-0.6h-0.4v-0.3h2.3c0.1,0.3,0.3,0.8,0.5,1.2
			l2.1,4.8l2.1-4.9c0.2-0.4,0.3-0.8,0.4-1.1h2.3v0.3h-0.5c-0.4,0-0.4,0.3-0.4,0.7v5.8c0,0.8,0,1.1,0.5,1.1h0.4v0.3H66v-0.3h0.4
			c0.5,0,0.5-0.1,0.5-1.1v-5.5h0l-2.8,6.5h-0.4l-2.8-6.5h0v5.3c0,1,0,1.3,0.6,1.3h0.4v0.3h-2.4V227.5z"/>
		<path fill="#FFFFFF" d="M72.2,227.5h0.9c1.4,0,2.1-0.7,2.1-2c0-1.4-1.1-1.8-2.3-1.8h-0.7V227.5z M72.2,223.3h0.6
			c1.4,0,2.1-0.5,2.1-1.9c0-1-0.8-1.5-1.7-1.5h-1V223.3z M70,227.5h0.5c0.4,0,0.4-0.2,0.4-1.2v-5.2c0-1.1,0-1.2-0.4-1.2H70v-0.3h3.7
			c1.4,0,2.6,0.5,2.6,2c0,1.1-1.1,1.7-2.1,1.9v0c1.1,0.1,2.4,0.8,2.4,2c0,1.4-1.5,2.3-2.7,2.3h-4V227.5z"/>
		<path fill="#FFFFFF" d="M77.9,227.5h0.4c0.5,0,0.6-0.2,0.6-0.6v-6.3c0-0.6-0.2-0.7-0.6-0.7h-0.3v-0.3H81v0.3h-0.4
			c-0.5,0-0.6,0.2-0.6,0.7v6.9h1.8c0.9,0,1.7-0.6,1.7-1.8H84v2.1h-6.1V227.5z"/>
		<path fill="#FFFFFF" d="M84.8,227.5h0.5c0.3,0,0.5-0.1,0.5-0.7v-6c0-0.7-0.1-0.8-0.5-0.8h-0.4v-0.3h6.3v1.9h-0.4
			c0-1.1-0.6-1.6-1.7-1.6h-2v3.5h1.7c0.8,0,1.1-0.5,1.1-1.2h0.4v2.9h-0.4c0-0.8-0.3-1.3-1.1-1.3h-1.7v3.7h2.1c1.1,0,1.7-0.5,1.7-1.6
			h0.4v2h-6.5V227.5z"/>
		<path fill="#FFFFFF" d="M92.5,227.5h0.4c0.5,0,0.6-0.2,0.6-0.6v-6.3c0-0.6-0.2-0.7-0.6-0.7h-0.3v-0.3h3.2v0.3h-0.3
			c-0.5,0-0.6,0.1-0.6,0.7v6.3c0,0.4,0.1,0.6,0.6,0.6h0.4v0.3h-3.2V227.5z"/>
		<path fill="#FFFFFF" d="M101.3,224.8l-1.4-3.6l-1.5,3.6H101.3z M100.6,219.5c0.1,0.4,0.3,0.9,0.4,1.3l2.1,5.3
			c0.5,1.4,0.8,1.4,1.1,1.4h0.1v0.3h-3.2v-0.3h0.3c0.5,0,0.6-0.1,0.6-0.3c0-0.1,0-0.3-0.1-0.5l-0.6-1.5h-3.2l-0.4,1
			c-0.2,0.6-0.3,0.8-0.3,1c0,0.4,0.3,0.4,0.8,0.4h0.2v0.3H96v-0.3h0.1c0.3,0,0.6-0.1,0.9-0.8l2.5-6c0.2-0.4,0.3-0.8,0.4-1.2H100.6z"
			/>
		<path fill="#FFFFFF" d="M108.2,227.5h0.4c0.5,0,0.6-0.2,0.6-0.6v-6.3c0-0.6-0.2-0.7-0.6-0.7h-0.3v-0.3h3.2v0.3H111
			c-0.5,0-0.6,0.2-0.6,0.7v6.9h1.8c0.9,0,1.7-0.6,1.7-1.8h0.4v2.1h-6.1V227.5z"/>
		<path fill="#FFFFFF" d="M115.2,227.5h0.5c0.3,0,0.5-0.1,0.5-0.7v-6c0-0.7-0.1-0.8-0.5-0.8h-0.4v-0.3h6.3v1.9h-0.4
			c0-1.1-0.6-1.6-1.7-1.6h-2v3.5h1.7c0.8,0,1.1-0.5,1.1-1.2h0.4v2.9h-0.4c0-0.8-0.3-1.3-1.1-1.3h-1.7v3.7h2.1c1.1,0,1.7-0.5,1.7-1.6
			h0.4v2h-6.5V227.5z"/>
		<path fill="#FFFFFF" d="M129.3,221.7h-0.4c-0.1-1.1-0.9-1.9-2.1-1.9c-2.1,0-2.4,2.4-2.4,4c0,1.7,0.3,3.8,2.3,3.9
			c0.8,0,1.6-0.5,1.6-1.6v-0.9c0-0.4-0.1-0.6-0.4-0.6h-0.5v-0.3h2.9v0.3H130c-0.4,0-0.4,0.2-0.4,0.7v2.7h-0.3c0-0.1-0.1-0.3-0.4-0.3
			c-0.4,0-0.9,0.3-2.1,0.3c-2.8,0-3.7-1.9-3.7-4.4c0-2.3,1.4-4.2,3.8-4.2c0.6,0,1,0.1,1.3,0.2c0.3,0.1,0.5,0.2,0.7,0.2
			c0.1,0,0.2-0.1,0.2-0.3h0.4V221.7z"/>
		<path fill="#FFFFFF" d="M131,227.5h0.4c0.5,0,0.6-0.2,0.6-0.6v-6.3c0-0.6-0.2-0.7-0.6-0.7H131v-0.3h3.2v0.3h-0.3
			c-0.5,0-0.6,0.1-0.6,0.7v6.3c0,0.4,0.1,0.6,0.6,0.6h0.4v0.3H131V227.5z"/>
		<path fill="#FFFFFF" d="M140.2,221.5h-0.4c0-1-0.8-1.8-1.8-1.8c-1,0-1.8,0.5-1.8,1.6c0,1.9,4.4,1.2,4.4,4.2c0,1.6-1.3,2.5-2.8,2.5
			c-0.5,0-0.9-0.1-1.2-0.2c-0.3-0.1-0.5-0.1-0.6-0.1c-0.2,0-0.3,0.1-0.3,0.2h-0.4v-2.3h0.4c0.2,1.2,0.8,2,2.2,2
			c1.1,0,1.8-0.6,1.8-1.7c0-2-4.4-1.5-4.4-4.1c0-1.6,1.2-2.5,2.7-2.5c0.6,0,1.2,0.3,1.6,0.3c0.2,0,0.2-0.1,0.3-0.3h0.3V221.5z"/>
		<path fill="#FFFFFF" d="M141.7,227.5h0.4c0.5,0,0.6-0.2,0.6-0.6v-6.3c0-0.6-0.2-0.7-0.6-0.7h-0.3v-0.3h3.2v0.3h-0.4
			c-0.5,0-0.6,0.2-0.6,0.7v6.9h1.8c0.9,0,1.7-0.6,1.7-1.8h0.4v2.1h-6.1V227.5z"/>
		<path fill="#FFFFFF" d="M153.3,224.8l-1.4-3.6l-1.5,3.6H153.3z M152.7,219.5c0.1,0.4,0.3,0.9,0.4,1.3l2.1,5.3
			c0.5,1.4,0.8,1.4,1.1,1.4h0.1v0.3h-3.2v-0.3h0.3c0.5,0,0.6-0.1,0.6-0.3c0-0.1,0-0.3-0.1-0.5l-0.6-1.5h-3.2l-0.4,1
			c-0.2,0.6-0.3,0.8-0.3,1c0,0.4,0.3,0.4,0.8,0.4h0.2v0.3h-2.4v-0.3h0.1c0.3,0,0.6-0.1,0.9-0.8l2.5-6c0.2-0.4,0.3-0.8,0.4-1.2H152.7
			z"/>
		<path fill="#FFFFFF" d="M157.7,227.5h0.5c0.5,0,0.5-0.2,0.5-1.2v-6.3h-0.6c-1,0-1.8,0.6-1.8,1.7h-0.4v-2h6.9v2h-0.4
			c0-1.1-0.8-1.7-1.8-1.7H160v6.3c0,1,0,1.2,0.5,1.2h0.5v0.3h-3.3V227.5z"/>
		<path fill="#FFFFFF" d="M163.7,227.5h0.4c0.5,0,0.6-0.2,0.6-0.6v-6.3c0-0.6-0.2-0.7-0.6-0.7h-0.3v-0.3h3.2v0.3h-0.3
			c-0.5,0-0.6,0.1-0.6,0.7v6.3c0,0.4,0.1,0.6,0.6,0.6h0.4v0.3h-3.2V227.5z"/>
		<path fill="#FFFFFF" d="M175.3,219.9h-0.2c-0.5,0-0.6,0.3-1,1.5l-2.2,5.8c-0.1,0.2-0.1,0.4-0.2,0.6H171c-0.2-0.6-0.4-1.2-0.6-1.8
			l-2-5c-0.4-0.9-0.5-1.2-0.8-1.2h-0.3v-0.3h3.2v0.3H170c-0.3,0-0.4,0.1-0.4,0.3c0,0.2,0.1,0.4,0.4,1.2l1.8,4.8l1.9-5.1
			c0.1-0.3,0.2-0.6,0.2-0.9c0-0.2-0.2-0.3-0.5-0.3H173v-0.3h2.4V219.9z"/>
		<path fill="#FFFFFF" d="M179.3,224.8l-1.4-3.6l-1.5,3.6H179.3z M178.7,219.5c0.1,0.4,0.3,0.9,0.4,1.3l2.1,5.3
			c0.5,1.4,0.8,1.4,1.1,1.4h0.1v0.3h-3.2v-0.3h0.3c0.5,0,0.6-0.1,0.6-0.3c0-0.1,0-0.3-0.1-0.5l-0.6-1.5h-3.2l-0.4,1
			c-0.2,0.6-0.3,0.8-0.3,1c0,0.4,0.3,0.4,0.8,0.4h0.2v0.3h-2.4v-0.3h0.1c0.3,0,0.6-0.1,0.9-0.8l2.5-6c0.2-0.4,0.3-0.8,0.4-1.2H178.7
			z"/>
		<path fill="#FFFFFF" d="M52,242h1c2.2,0,2.8-1.9,2.8-3.8c0-2-0.6-3.8-2.8-3.8H52V242z M49.7,234.1H53c2.7,0,4.2,1.5,4.2,4.2
			c0,2.9-2.1,4-4.1,4h-3.4V242h0.5c0.4,0,0.5-0.1,0.5-1.3v-5.2c0-0.8,0-1.1-0.4-1.1h-0.5V234.1z"/>
		<path fill="#FFFFFF" d="M61.9,242.2c1.9,0,2.1-2.6,2.1-4c0-1.4-0.1-4-2.1-4c-1.9,0-2.1,2.6-2.1,4
			C59.8,239.6,59.9,242.2,61.9,242.2 M61.9,233.9c2.4,0,3.5,2.1,3.5,4.3s-1.1,4.3-3.5,4.3c-2.4,0-3.5-2.1-3.5-4.3
			S59.5,233.9,61.9,233.9"/>
		<path fill="#FFFFFF" d="M72.1,237.9H73c1,0,1.8-0.4,1.8-1.7c0-1.3-0.7-1.7-1.8-1.7h-0.9V237.9z M69.9,242h0.4
			c0.5,0,0.6-0.2,0.6-0.6v-6.3c0-0.6-0.2-0.7-0.6-0.7h-0.3v-0.3h3.8c1.4,0,2.6,0.5,2.6,1.8c0,1-1,1.9-2,2.1v0
			c1.4,0.3,1.7,0.6,1.7,2.1l0.1,1.4c0,0.2,0.1,0.4,0.3,0.4c0.3,0,0.4-0.3,0.6-0.6l0.3,0.1c-0.3,0.6-0.7,1-1.3,1
			c-1,0-1.2-0.8-1.2-1.6l-0.1-1.5c0-0.9-0.5-1.2-1.6-1.2h-0.8v3.1c0,0.5,0,0.7,0.6,0.7H73v0.3h-3.2V242z"/>
		<path fill="#FFFFFF" d="M77.8,242h0.4c0.5,0,0.6-0.2,0.6-0.6v-6.3c0-0.6-0.2-0.7-0.6-0.7h-0.3v-0.3H81v0.3h-0.3
			c-0.5,0-0.6,0.1-0.6,0.7v6.3c0,0.4,0.1,0.6,0.6,0.6H81v0.3h-3.2V242z"/>
		<path fill="#FFFFFF" d="M85.5,242.2c1.9,0,2.1-2.6,2.1-4c0-1.4-0.1-4-2.1-4c-1.9,0-2.1,2.6-2.1,4
			C83.5,239.6,83.6,242.2,85.5,242.2 M85.5,233.9c2.4,0,3.5,2.1,3.5,4.3s-1.1,4.3-3.5,4.3c-2.4,0-3.5-2.1-3.5-4.3
			S83.1,233.9,85.5,233.9"/>
		<path fill="#FFFFFF" d="M95.6,242h1c2.2,0,2.8-1.9,2.8-3.8c0-2-0.6-3.8-2.8-3.8h-0.9V242z M93.4,234.1h3.3c2.7,0,4.2,1.5,4.2,4.2
			c0,2.9-2.1,4-4.1,4h-3.4V242h0.5c0.4,0,0.5-0.1,0.5-1.3v-5.2c0-0.8,0-1.1-0.4-1.1h-0.5V234.1z"/>
		<path fill="#FFFFFF" d="M102,242h0.5c0.3,0,0.5-0.1,0.5-0.7v-6c0-0.7-0.1-0.8-0.5-0.8H102v-0.3h6.3v1.9h-0.4
			c0-1.1-0.6-1.6-1.7-1.6h-2v3.5h1.7c0.8,0,1.1-0.5,1.1-1.2h0.4v2.9H107c0-0.8-0.3-1.3-1.1-1.3h-1.7v3.7h2.1c1.1,0,1.7-0.5,1.7-1.6
			h0.4v2H102V242z"/>
		<path fill="#FFFFFF" d="M114.8,234.1h3.2v0.3h-0.5c-0.4,0-0.5,0.2-0.5,1.4v4.5c0,1.2-0.7,2.2-2.5,2.2c-0.6,0-1.3-0.1-1.7-0.3v-2
			h0.4c0,0.8,0.3,1.9,1.3,1.9c1,0,1.1-0.8,1.1-2v-4.4c0-1.2,0-1.3-0.6-1.3h-0.4V234.1z"/>
		<path fill="#FFFFFF" d="M123.3,239.3l-1.4-3.6l-1.5,3.6H123.3z M122.7,234c0.1,0.4,0.3,0.9,0.4,1.3l2.1,5.3
			c0.5,1.4,0.8,1.4,1.1,1.4h0.1v0.3h-3.2V242h0.3c0.5,0,0.6-0.1,0.6-0.3c0-0.1,0-0.3-0.1-0.5l-0.6-1.5h-3.2l-0.4,1
			c-0.2,0.6-0.3,0.8-0.3,1c0,0.4,0.3,0.4,0.8,0.4h0.2v0.3h-2.4V242h0.1c0.3,0,0.6-0.1,0.9-0.8l2.5-6c0.2-0.4,0.3-0.8,0.4-1.2H122.7z
			"/>
		<path fill="#FFFFFF" d="M126.8,242h0.4c0.5,0,0.5-0.5,0.5-1.4V236c0-1.5-0.1-1.6-0.5-1.6h-0.4v-0.3h2.3l4.1,6.4h0v-4.8
			c0-1,0-1.3-0.7-1.3h-0.4v-0.3h2.4v0.3h-0.3c-0.6,0-0.6,0.3-0.6,1.3v6.7h-0.7l-4.7-7.2h0v5.4c0,0.9,0,1.4,0.5,1.4h0.5v0.3h-2.3V242
			z"/>
		<path fill="#FFFFFF" d="M135.5,242h0.5c0.3,0,0.5-0.1,0.5-0.7v-6c0-0.7-0.1-0.8-0.5-0.8h-0.4v-0.3h6.3v1.9h-0.4
			c0-1.1-0.6-1.6-1.7-1.6h-2v3.5h1.7c0.8,0,1.1-0.5,1.1-1.2h0.4v2.9h-0.4c0-0.8-0.3-1.3-1.1-1.3h-1.7v3.7h2.1c1.1,0,1.7-0.5,1.7-1.6
			h0.4v2h-6.5V242z"/>
		<path fill="#FFFFFF" d="M143.2,242h0.4c0.5,0,0.6-0.2,0.6-0.6v-6.3c0-0.6-0.2-0.7-0.6-0.7h-0.3v-0.3h3.2v0.3H146
			c-0.5,0-0.6,0.1-0.6,0.7v6.3c0,0.4,0.1,0.6,0.6,0.6h0.4v0.3h-3.2V242z"/>
		<path fill="#FFFFFF" d="M149.5,237.9h0.9c1,0,1.8-0.4,1.8-1.7c0-1.3-0.7-1.7-1.8-1.7h-0.9V237.9z M147.3,242h0.4
			c0.5,0,0.6-0.2,0.6-0.6v-6.3c0-0.6-0.2-0.7-0.6-0.7h-0.3v-0.3h3.8c1.4,0,2.6,0.5,2.6,1.8c0,1-1,1.9-2,2.1v0
			c1.4,0.3,1.7,0.6,1.7,2.1l0.1,1.4c0,0.2,0.1,0.4,0.3,0.4c0.3,0,0.4-0.3,0.6-0.6l0.3,0.1c-0.3,0.6-0.7,1-1.3,1
			c-1,0-1.2-0.8-1.2-1.6l-0.1-1.5c0-0.9-0.5-1.2-1.6-1.2h-0.8v3.1c0,0.5,0,0.7,0.6,0.7h0.4v0.3h-3.2V242z"/>
		<path fill="#FFFFFF" d="M158.8,242.2c1.9,0,2.1-2.6,2.1-4c0-1.4-0.1-4-2.1-4c-1.9,0-2.1,2.6-2.1,4
			C156.8,239.6,156.9,242.2,158.8,242.2 M158.8,233.9c2.4,0,3.5,2.1,3.5,4.3s-1.1,4.3-3.5,4.3c-2.4,0-3.5-2.1-3.5-4.3
			S156.4,233.9,158.8,233.9"/>
		<rect x="29.8" y="207.4" fill="#8FA142" width="152.7" height="0.9"/>
		<path fill="#FFFFFF" d="M59.1,187.8l-4.5-11.4l-4.8,11.4L59.1,187.8z M49.4,188.8l-2.1,5.4c-0.1,0.4-0.2,0.7-0.2,0.9
			c0,0.9,1.3,1,2.4,1h0.4v1l-7.2,0v-1c2,0,2.8-1.1,3.5-2.9l8.9-21.9l1.3,0l8.9,22.5c0.5,1.4,1.1,2.2,2.5,2.3h0.5v1l-9.1,0l0-1h0.4
			c0.9,0,2.4,0,2.4-0.9c0-0.5-0.2-0.9-0.5-1.7l-1.9-4.7L49.4,188.8z"/>
		<path fill="#FFFFFF" d="M83.7,171.7v1h-1.1c-2.2,0-2.2,0.9-2.2,2.5l0,20.9h5.2c3.8,0,5.8-1.9,5.9-5.3h1.3l0,6.4l-18.5,0v-1h1.4
			c1.3,0,1.6-0.6,1.6-2.6v-16.9c0-3.5,0-3.9-2.1-3.9l-0.9,0v-1L83.7,171.7z"/>
		<path fill="#FFFFFF" d="M99.7,196.1h1.4c1.3,0,1.6-0.6,1.6-2.6l0-16.9c0-3.5,0-3.9-2.1-3.9h-0.9v-1l19.3,0v5.9h-1.3
			c0-3.4-1.9-4.9-5.2-4.9l-6.6,0v11h4.5c3,0,4.6-0.7,4.6-3.9h1.3v8.8H115c0-3.4-2.1-3.8-3.9-3.8l-5.2,0l0,11.3l6.2,0
			c3.6,0,5.9-0.8,6-4.9h1.2v5.9l-19.7,0V196.1z"/>
		<path fill="#FFFFFF" d="M134.4,183.3l3.5,0c3.2,0,5.5-2.3,5.5-5.5c0-3.6-2.2-5-5.6-5h-3.4L134.4,183.3z M128.2,196.1h1.4
			c1.3,0,1.6-0.6,1.6-2.6l0-16.9c0-3.5,0-3.9-2.1-3.9h-0.9v-1l9.4,0c4.1,0,9.6,0.8,9.6,6c0,3.5-3.4,5.4-6.4,6v0.1
			c2.5,0.4,5,1.7,5,4.6v5c0,0.8,0,2.5,1.2,2.5c1.1,0,1.4-1,1.8-1.8l1.1,0.4c-0.8,1.6-1.9,3.2-3.9,3.2c-2.7,0-3.4-1.6-3.4-4.4v-3.7
			c0-4-1.1-5.4-5.1-5.4h-3v8.7c0,2.6,0.1,3.1,1.9,3.1h1.1v1l-9.2,0V196.1z"/>
		<path fill="#FFFFFF" d="M154.5,190.8h1.3c0.1,3.4,1,5.9,4,5.9c3.3,0,3.6-3,3.6-5.6l0-15.6c0-2,0-2.8-1.9-2.8h-1.4v-1l9.5,0v1h-1.3
			c-1.7,0-1.7,0.8-1.7,2.8v13.1c0,5-1,9.1-7,9.1c-1.8,0-3.5-0.2-5.2-1V190.8z"/>
		<path fill="#FFFFFF" d="M182.5,186.8c-1.2,0-2.1-1-2.1-2.1c0-1.2,1-2.1,2.1-2.1c1.2,0,2.1,1,2.1,2.1
			C184.6,185.8,183.7,186.8,182.5,186.8L182.5,186.8z"/>
		<path fill="#FFFFFF" d="M29.8,186.8c-1.2,0-2.1-1-2.1-2.1c0-1.2,1-2.1,2.1-2.1c1.2,0,2.1,1,2.1,2.1C32,185.9,31,186.8,29.8,186.8"
			/>
		<path fill="#8FA142" d="M112.4,42.6v-2.2c0-1.7,1.4-3.1,3.1-3.1c1.7,0,3.1,1.4,3.1,3.1v2.2H112.4z M101.1,42.6v-3.5
			c0-2.3,1.8-4.2,4.1-4.2c2.3,0,4.1,1.9,4.1,4.2v3.5H101.1z M91.9,42.6v-2.2c0-1.7,1.4-3.1,3-3.1c1.7,0,3,1.4,3,3.1v2.2H91.9z
			 M119.2,42.6v-2.2c0-2.1-1.7-3.8-3.7-3.8c-2.1,0-3.7,1.7-3.7,3.8v2.2H110v-3.5c0-2.7-2.1-4.8-4.7-4.8c-2.6,0-4.7,2.2-4.7,4.8v3.5
			h-1.8v-2.2c0-2.1-1.7-3.8-3.7-3.8c-2,0-3.7,1.7-3.7,3.8v2.2h-1.5v0.6h1.5h7.4h1.8h9.5h1.8h7.4h1.4v-0.6H119.2z"/>
		<path fill="#8FA142" d="M91.9,45.7h3.9v4.1h-3.9V45.7z M110.1,45.7h3.9v4.1h-3.9V45.7z M105.6,45.7h3.9v4.1h-3.9V45.7z
			 M100.4,49.8h-3.9v-4.1h3.9V49.8z M101,45.7h3.9v4.1H101V45.7z M118.6,49.8h-3.9v-4.1h3.9V49.8z M119.2,49.8v-4.1h1.4V45H89.8v0.6
			h1.5v4.1h-4.9v0.6h38v-0.6H119.2z"/>
		<rect x="36.3" y="135.6" fill="#8FA142" width="138.2" height="0.6"/>
		<path fill="#8FA142" d="M171.1,151.2H39.6v-11.2l131.5,0V151.2z M174.5,139.9v-0.6h-2.8v0H39v0h-2.7v0.6H39v11.2h-2.7v0.6h138.2
			v-0.6h-2.8v-11.2H174.5z"/>
		<rect x="36.3" y="154.3" fill="#8FA142" width="138.2" height="0.6"/>
		<rect x="36.3" y="157.4" fill="#8FA142" width="138.2" height="0.6"/>
		<rect x="36.3" y="160.5" fill="#8FA142" width="138.2" height="0.6"/>
		<path fill="#8FA142" d="M43.2,148.8h0.8v-6.6h-0.8V148.8z M44.7,149.4h-2v-7.8h2V149.4z"/>
		<path fill="#8FA142" d="M48.4,148.8h1.8v-6.6h-1.8V148.8z M50.8,149.4h-3v-7.8h3V149.4z"/>
		<path fill="#8FA142" d="M54.5,148.8h1.8v-6.6h-1.8V148.8z M56.9,149.4h-3v-7.8h3V149.4z"/>
		<path fill="#8FA142" d="M60.7,148.8h3v-6.6h-3V148.8z M64.2,149.4h-4.2v-7.8h4.2V149.4z"/>
		<path fill="#8FA142" d="M68,148.8H72v-6.6H68V148.8z M72.6,149.4h-5.3v-7.8h5.3V149.4z"/>
		<path fill="#8FA142" d="M76.3,148.8h4v-6.6h-4V148.8z M81,149.4h-5.2v-7.8H81V149.4z"/>
		<path fill="#8FA142" d="M84.7,148.8h4.5v-6.6h-4.5V148.8z M89.7,149.4h-5.7v-7.8h5.7V149.4z"/>
		<path fill="#8FA142" d="M93.4,148.8h4.9v-6.6h-4.9V148.8z M99,149.4h-6.1v-7.8H99V149.4z"/>
		<path fill="#8FA142" d="M102.7,148.8h5.7v-6.6h-5.7V148.8z M109,149.4h-6.9v-7.8h6.9V149.4z"/>
		<path fill="#8FA142" d="M112.7,148.8h5v-6.6h-5V148.8z M118.3,149.4h-6.2v-7.8h6.2V149.4z"/>
		<path fill="#8FA142" d="M122,148.8h4.5v-6.6H122V148.8z M127.1,149.4h-5.7v-7.8h5.7V149.4z"/>
		<path fill="#8FA142" d="M130.8,148.8h4v-6.6h-4V148.8z M135.4,149.4h-5.2v-7.8h5.2V149.4z"/>
		<path fill="#8FA142" d="M139.1,148.8h4.1v-6.6h-4.1V148.8z M143.8,149.4h-5.3v-7.8h5.3V149.4z"/>
		<path fill="#8FA142" d="M147.5,148.8h3v-6.6h-3V148.8z M151.1,149.4h-4.2v-7.8h4.2V149.4z"/>
		<path fill="#8FA142" d="M154.8,148.8l1.9,0v-6.6h-1.9V148.8z M157.3,149.4l-3,0v-7.8h3V149.4z"/>
		<path fill="#8FA142" d="M161,148.9h1.9v-6.6H161V148.9z M163.4,149.4h-3v-7.8h3V149.4z"/>
		<path fill="#8FA142" d="M167.1,148.9h0.8v-6.6h-0.8V148.9z M168.6,149.4h-2v-7.8h2V149.4z"/>
		<path fill="#8FA142" d="M43.2,126.2c0-18.9,5.8-36.4,16.7-50.8c7.1-9.3,15.2-16.2,26.5-22.2h38.1c11.2,6,19.4,12.9,26.5,22.2
			c10.9,14.4,16.7,31.9,16.7,50.8v5.6H43.2V126.2z M168.3,131.8v-5.6c0-19-5.8-36.7-16.8-51.2c-7.1-9.4-15.4-16.3-26.8-22.4l-0.1,0
			H86.3l-0.2,0c-11.4,6.1-19.6,13-26.8,22.4c-11,14.5-16.8,32.2-16.8,51.2v5.6h-6.2v0.6h138.2v-0.6H168.3z"/>
		<path fill="#8FA142" d="M90.7,124.1h28.9v-1.5H90.7V124.1z M120.3,124.8H90V122h30.3V124.8z"/>
		<path fill="#8FA142" d="M90.7,128.4h28.9v-1.5H90.7V128.4z M120.3,129H90v-2.8h30.3V129z"/>
		<path fill="#8FA142" d="M127.3,123.9h18.5v-1.5h-18.5V123.9z M146.5,124.6h-19.9v-2.8h19.9V124.6z"/>
		<path fill="#8FA142" d="M127.3,128.4h18.5v-1.5h-18.5V128.4z M146.5,129h-19.9v-2.8h19.9V129z"/>
		<path fill="#8FA142" d="M153.6,123.9h10.2v-1.5h-10.2V123.9z M164.5,124.6H153v-2.8h11.5V124.6z"/>
		<path fill="#8FA142" d="M153.6,128.4h10.2v-1.4h-10.2V128.4z M164.5,129H153v-2.8h11.5V129z"/>
		<path fill="#8FA142" d="M64.5,123.9h18.5v-1.5H64.5V123.9z M83.8,124.6H63.9v-2.8h19.9V124.6z"/>
		<path fill="#8FA142" d="M64.5,128.4h18.5v-1.5H64.5V128.4z M83.8,129H63.9v-2.8h19.9V129z"/>
		<path fill="#8FA142" d="M46.7,123.9h10v-1.5h-10V123.9z M57.4,124.6H46v-2.8h11.4V124.6z"/>
		<path fill="#8FA142" d="M46.7,128.4h10v-1.4h-10V128.4z M57.4,129H46v-2.8h11.4V129z"/>
		<path fill="#8FA142" d="M114,118.4c0-1.4,0.1-2.8,0.1-4.2h5.3c0,1.5,0,2.8-0.1,4.2H114z M90.6,114.2h4.8c0,1.4,0,2.8,0.1,4.2h-4.8
			C90.6,117.1,90.6,115.7,90.6,114.2 M100,61.3h2.4c-0.4,1.4-0.7,2.8-1.1,4.2h-2.7C99.1,64.1,99.5,62.7,100,61.3 M111.1,65.5h-2.8
			c-0.3-1.4-0.7-2.8-1-4.2h2.5C110.2,62.7,110.7,64.1,111.1,65.5 M105.2,113.6v-4.2h8.2c0,1.4,0,2.8,0.1,4.2H105.2z M96.1,109.4h8.5
			v4.2H96C96,112.2,96.1,110.8,96.1,109.4 M95.6,104.6c-0.1,1.4-0.1,2.8-0.2,4.2h-4.7c0.1-1.4,0.1-2.8,0.2-4.2H95.6z M95.9,99.8
			c-0.1,1.4-0.2,2.8-0.3,4.2H91c0.1-1.4,0.2-2.8,0.4-4.2H95.9z M96.3,95c-0.1,1.4-0.3,2.8-0.4,4.2h-4.5c0.1-1.4,0.3-2.8,0.5-4.2
			H96.3z M96.8,90.2c-0.2,1.4-0.3,2.8-0.5,4.2H92c0.2-1.4,0.4-2.8,0.6-4.2H96.8z M97.5,85.4c-0.2,1.4-0.4,2.8-0.6,4.2h-4.2
			c0.2-1.4,0.5-2.8,0.8-4.2H97.5z M98.2,80.6c-0.2,1.4-0.5,2.8-0.7,4.1h-3.9c0.3-1.4,0.6-2.8,0.9-4.1H98.2z M99.1,75.7
			c-0.3,1.4-0.5,2.8-0.8,4.2h-3.7c0.3-1.4,0.7-2.8,1-4.2H99.1z M100.1,70.9c-0.3,1.4-0.6,2.8-0.9,4.2h-3.4c0.4-1.4,0.7-2.8,1.1-4.2
			H100.1z M100.3,70.3h-3c0.4-1.4,0.8-2.8,1.2-4.2h2.8C100.9,67.5,100.6,68.9,100.3,70.3 M104.6,66.1v4.2h-3.6
			c0.3-1.4,0.6-2.8,1-4.2H104.6z M104.6,65.5h-2.5c0.3-1.4,0.7-2.8,1.1-4.2h1.5V65.5z M105.2,65.5v-4.2h1.4c0.4,1.4,0.7,2.8,1.1,4.2
			H105.2z M108.8,70.3h-3.6v-4.2h2.6C108.2,67.5,108.5,68.9,108.8,70.3 M110.4,75.1c-0.3-1.4-0.5-2.8-0.8-4.2h3.2
			c0.4,1.4,0.8,2.8,1.2,4.2H110.4z M111.3,79.9c-0.2-1.4-0.5-2.8-0.7-4.2h3.6c0.4,1.4,0.7,2.8,1,4.2H111.3z M112,84.7
			c-0.2-1.4-0.4-2.8-0.6-4.1h3.9c0.3,1.4,0.6,2.8,0.9,4.1H112z M112.7,89.5c-0.2-1.4-0.3-2.8-0.5-4.2h4.3c0.3,1.4,0.6,2.8,0.8,4.2
			H112.7z M113.2,94.3c-0.1-1.4-0.3-2.8-0.4-4.2h4.6c0.2,1.4,0.5,2.8,0.7,4.2H113.2z M113.6,99.1c-0.1-1.4-0.2-2.8-0.3-4.2h4.8
			c0.2,1.4,0.4,2.8,0.5,4.2H113.6z M113.9,103.9c-0.1-1.4-0.1-2.8-0.2-4.2h5.1c0.1,1.4,0.3,2.8,0.4,4.2H113.9z M113.9,104.6h5.2
			c0.1,1.4,0.2,2.8,0.2,4.2H114C114,107.4,114,106,113.9,104.6 M105.2,104.6h8c0.1,1.4,0.1,2.8,0.1,4.2h-8.2V104.6z M104.6,104.6
			v4.2h-8.5c0-1.4,0.1-2.8,0.2-4.2H104.6z M104.6,99.8v4.2h-8.3c0.1-1.4,0.2-2.8,0.3-4.2H104.6z M104.6,95v4.2h-8
			c0.1-1.4,0.2-2.8,0.4-4.2H104.6z M104.6,90.2v4.2H97c0.1-1.4,0.3-2.8,0.5-4.2H104.6z M104.6,85.4v4.2h-7c0.2-1.4,0.4-2.8,0.6-4.2
			H104.6z M104.6,80.6v4.1h-6.3c0.2-1.4,0.4-2.8,0.7-4.1H104.6z M104.6,75.7v4.2H99c0.2-1.4,0.5-2.8,0.8-4.2H104.6z M104.6,75.1
			h-4.6c0.3-1.4,0.6-2.8,0.9-4.2h3.8V75.1z M105.2,75.1v-4.2h3.7c0.3,1.4,0.6,2.8,0.8,4.2H105.2z M105.2,79.9v-4.2h4.7
			c0.3,1.4,0.5,2.8,0.7,4.2H105.2z M105.2,84.7v-4.1h5.5c0.2,1.4,0.4,2.8,0.6,4.1H105.2z M105.2,89.5v-4.2h6.3
			c0.2,1.4,0.4,2.8,0.5,4.2H105.2z M105.2,94.3v-4.2h6.9c0.2,1.4,0.3,2.8,0.4,4.2H105.2z M113,99.8c0.1,1.4,0.2,2.8,0.2,4.2h-8v-4.2
			H113z M105.2,99.1V95h7.4c0.1,1.4,0.2,2.8,0.3,4.2H105.2z M112.6,70.3h-3.1c-0.3-1.4-0.6-2.8-0.9-4.2h2.8
			C111.8,67.5,112.2,68.9,112.6,70.3 M90.6,113.6c0-1.4,0-2.8,0.1-4.2h4.7c0,1.4-0.1,2.8-0.1,4.2H90.6z M96.1,118.4
			c0-1.3-0.1-2.7-0.1-4.2h8.5v4.2H96.1z M105.2,118.4v-4.2h8.2c0,1.3,0,2.7-0.1,4.2H105.2z M114.1,113.6c0-1.4,0-2.8-0.1-4.2h5.3
			c0,1.4,0.1,2.8,0.1,4.2H114.1z M110.3,60.9l-0.1-0.3H99.5L99.4,61C93.1,79.8,90,97.1,90,113.9c0,1.7,0,3.2,0.1,4.7l0,0.5h30l0-0.3
			c0-1.5,0.1-3.1,0.1-4.9C120.1,97.5,117,80.7,110.3,60.9"/>
		<path fill="#8FA142" d="M79,65.5h-1.5c1.5-1.4,3.1-2.8,4.8-4.1H83C81.6,62.7,80.3,64,79,65.5 M54.1,118.4c0.1-1.4,0.3-2.8,0.4-4.1
			h2.6c-0.1,1.4-0.2,2.7-0.3,4.1H54.1z M47.2,114.2h2.3c-0.2,1.4-0.3,2.7-0.5,4.1h-2.3C46.8,117,47,115.6,47.2,114.2 M72.2,66.1h1
			c-1.4,1.3-2.7,2.7-4,4.1H68C69.4,68.8,70.7,67.5,72.2,66.1 M77.8,61.3l0.9,0c-1.7,1.3-3.3,2.7-4.8,4.1h-1.1
			C74.5,64,76.1,62.6,77.8,61.3 M75,65.5c1.6-1.4,3.2-2.8,4.9-4.1h1.4c-1.7,1.3-3.3,2.7-4.8,4.1H75z M71.9,70.3h-1.8
			c1.3-1.4,2.7-2.8,4.1-4.1h1.5C74.4,67.5,73.1,68.8,71.9,70.3 M72.8,70.3c1.3-1.4,2.6-2.8,3.9-4.1h1.6c-1.2,1.4-2.4,2.7-3.5,4.1
			H72.8z M68.9,75.1c1-1.4,2.1-2.8,3.3-4.1h2.1c-1.1,1.3-2,2.7-3,4.1H68.9z M65.8,79.9c0.9-1.4,1.7-2.8,2.7-4.1h2.4
			c-0.9,1.4-1.8,2.7-2.6,4.1H65.8z M63.1,84.7c0.7-1.4,1.5-2.8,2.3-4.1h2.5c-0.8,1.4-1.5,2.7-2.2,4.1H63.1z M60.9,89.5
			c0.6-1.4,1.2-2.8,1.9-4.1h2.6c-0.7,1.4-1.3,2.7-1.9,4.1H60.9z M59.1,94.3c0.5-1.4,1-2.8,1.5-4.1h2.5c-0.6,1.4-1.1,2.7-1.6,4.1
			H59.1z M57.6,99.1c0.4-1.4,0.8-2.8,1.3-4.1h2.5c-0.5,1.4-0.9,2.7-1.3,4.1H57.6z M56.4,103.9c0.3-1.4,0.7-2.8,1-4.1h2.5
			c-0.4,1.4-0.7,2.7-1,4.1H56.4z M55.4,108.8c0.2-1.4,0.5-2.8,0.8-4.1h2.5c-0.3,1.4-0.5,2.7-0.8,4.1H55.4z M55.3,109.4h2.6
			c-0.2,1.4-0.4,2.7-0.5,4.1h-2.6C54.8,112.2,55,110.8,55.3,109.4 M50.3,109.4c-0.3,1.4-0.5,2.7-0.7,4.1h-2.3
			c0.2-1.4,0.5-2.8,0.7-4.1H50.3z M51.3,104.6c-0.3,1.4-0.6,2.7-0.9,4.1h-2.2c0.3-1.4,0.6-2.8,1-4.1H51.3z M52.7,99.8
			c-0.4,1.4-0.8,2.7-1.2,4.1h-2.2c0.4-1.4,0.8-2.8,1.2-4.1H52.7z M54.3,95c-0.5,1.4-1,2.7-1.4,4.1h-2.1c0.5-1.4,1-2.8,1.5-4.1H54.3z
			 M56.3,90.2c-0.6,1.4-1.2,2.7-1.7,4.1h-1.9c0.6-1.4,1.2-2.8,1.8-4.1H56.3z M58.6,85.4c-0.7,1.4-1.4,2.7-2.1,4.1h-1.8
			c0.7-1.4,1.4-2.8,2.2-4.1H58.6z M61.4,80.6c-0.9,1.4-1.7,2.7-2.4,4.1h-1.7c0.8-1.4,1.7-2.8,2.6-4.1H61.4z M64.7,75.7
			c-1,1.3-1.9,2.7-2.9,4.1h-1.5c1-1.4,2-2.8,3-4.1H64.7z M65.2,75.1h-1.3c1.1-1.4,2.3-2.8,3.5-4.1h1.2
			C67.5,72.3,66.3,73.7,65.2,75.1 M66.1,75.1c1.1-1.4,2.2-2.8,3.4-4.1h1.8c-1.1,1.3-2.2,2.7-3.2,4.1H66.1z M62.7,79.9
			c0.9-1.4,1.9-2.8,2.9-4.1h2.1c-0.9,1.3-1.8,2.7-2.7,4.1H62.7z M59.8,84.7c0.8-1.4,1.6-2.8,2.5-4.1h2.3c-0.8,1.3-1.5,2.7-2.2,4.1
			H59.8z M57.3,89.5c0.7-1.4,1.4-2.8,2.1-4.1H62c-0.7,1.3-1.3,2.7-1.8,4.1H57.3z M55.3,94.3c0.5-1.4,1.1-2.8,1.7-4.1h2.9
			c-0.5,1.3-1.1,2.7-1.5,4.1H55.3z M53.6,99.1c0.4-1.4,0.9-2.8,1.4-4.1h3.1c-0.4,1.4-0.9,2.7-1.3,4.1H53.6z M55.5,104.6
			c-0.3,1.4-0.6,2.7-0.8,4.1h-3.6c0.3-1.4,0.6-2.8,0.9-4.1H55.5z M52.2,103.9c0.4-1.4,0.7-2.8,1.2-4.1h3.3c-0.4,1.4-0.7,2.7-1,4.1
			H52.2z M53.9,114.2c-0.2,1.4-0.3,2.7-0.4,4.1h-3.7c0.1-1.4,0.3-2.8,0.5-4.1H53.9z M50.3,113.6c0.2-1.4,0.4-2.8,0.7-4.1h3.6
			c-0.2,1.4-0.4,2.7-0.6,4.1H50.3z M77.6,60.6L77.6,60.6c-18.3,14.1-29.5,34.7-31.6,58l0,0.4h11.6l0-0.3
			C58.7,96.3,67.8,76.4,84,61.4l0.8-0.7L77.6,60.6z"/>
		<path fill="#8FA142" d="M81.1,58.7h3.7l0.7-0.7L82,58L81.1,58.7z M85.1,59.4h-5.7l2.4-2l5.3,0L85.1,59.4z"/>
		<path fill="#8FA142" d="M84.7,55.6h2.9c0.1-0.1,0.4-0.4,0.7-0.7h-2.7C85.4,55,85.1,55.3,84.7,55.6 M87.8,56.3h-4.9l0.7-0.6
			c1-0.8,1.6-1.3,1.6-1.3l0.1-0.1h4.5l-0.5,0.5C88.8,55.3,87.9,56.2,87.8,56.3L87.8,56.3z"/>
		<path fill="#8FA142" d="M161.4,118.4c-0.1-1.4-0.3-2.8-0.5-4.1h2.3c0.2,1.4,0.4,2.7,0.5,4.1H161.4z M153.3,114.2h2.6
			c0.2,1.4,0.3,2.7,0.4,4.1h-2.8C153.5,117,153.4,115.6,153.3,114.2 M127.4,61.3l0.7,0c1.7,1.3,3.3,2.7,4.8,4.1h-1.5
			C130.2,64,128.9,62.7,127.4,61.3 M137.6,65.5h-1.1c-1.5-1.4-3.1-2.8-4.8-4.1h0.9C134.4,62.6,136,64,137.6,65.5 M142.4,70.3h-1.2
			c-1.3-1.4-2.6-2.8-4-4.1h1C139.7,67.5,141.1,68.8,142.4,70.3 M160.2,109.4h2.2c0.3,1.4,0.5,2.7,0.7,4.1h-2.3
			C160.7,112.2,160.5,110.8,160.2,109.4 M154.3,104.6c0.3,1.4,0.6,2.7,0.8,4.1h-2.5c-0.2-1.4-0.5-2.8-0.8-4.1H154.3z M153.1,99.8
			c0.4,1.4,0.7,2.7,1,4.1h-2.5c-0.3-1.4-0.6-2.8-1-4.1H153.1z M151.6,95c0.4,1.4,0.9,2.7,1.3,4.1h-2.5c-0.4-1.4-0.8-2.8-1.3-4.1
			H151.6z M149.9,90.2c0.5,1.3,1.1,2.7,1.5,4.1h-2.5c-0.5-1.4-1-2.8-1.6-4.1H149.9z M147.7,85.4c0.7,1.3,1.3,2.7,1.9,4.1H147
			c-0.6-1.4-1.2-2.8-1.9-4.1H147.7z M145.1,80.6c0.8,1.3,1.6,2.7,2.3,4.1h-2.6c-0.7-1.4-1.4-2.8-2.2-4.1H145.1z M142,75.8
			c0.9,1.3,1.8,2.7,2.7,4.1h-2.5c-0.8-1.4-1.7-2.8-2.6-4.1H142z M138.3,70.9c1.1,1.3,2.3,2.7,3.3,4.1h-2.4c-1-1.4-2-2.8-3-4.1H138.3
			z M137.7,70.3h-2c-1.1-1.4-2.3-2.8-3.5-4.1h1.6C135.1,67.5,136.4,68.8,137.7,70.3 M144.4,75.1h-2c-1-1.4-2.1-2.8-3.2-4.1h1.8
			C142.1,72.3,143.3,73.7,144.4,75.1 M148.6,79.9c-0.9-1.4-1.9-2.8-2.9-4.1h1.4c1,1.3,2,2.7,3,4.1H148.6z M151.5,84.7
			c-0.8-1.4-1.6-2.8-2.4-4.1h1.5c0.9,1.4,1.8,2.7,2.6,4.1H151.5z M153.9,89.5c-0.6-1.4-1.3-2.8-2.1-4.1h1.7c0.8,1.4,1.5,2.7,2.2,4.1
			H153.9z M155.9,94.3c-0.5-1.4-1.1-2.8-1.7-4.1h1.8c0.7,1.4,1.3,2.7,1.8,4.1H155.9z M157.6,99.1c-0.4-1.4-0.9-2.8-1.4-4.1h2
			c0.5,1.4,1.1,2.7,1.5,4.1H157.6z M159,103.9c-0.4-1.4-0.7-2.8-1.2-4.1h2.1c0.4,1.4,0.9,2.7,1.2,4.1H159z M159.1,104.6h2.2
			c0.4,1.4,0.7,2.7,1,4.1h-2.2C159.8,107.4,159.5,106,159.1,104.6 M158.4,104.6c0.3,1.4,0.6,2.7,0.9,4.1h-3.6
			c-0.2-1.4-0.5-2.8-0.8-4.1H158.4z M157.1,99.8c0.4,1.4,0.8,2.7,1.2,4.1h-3.5c-0.3-1.4-0.6-2.8-1-4.1H157.1z M155.5,95
			c0.5,1.4,1,2.7,1.4,4.1h-3.3c-0.4-1.4-0.8-2.8-1.3-4.1H155.5z M153.5,90.2c0.6,1.4,1.2,2.7,1.7,4.1h-3.1c-0.5-1.4-1-2.8-1.5-4.1
			H153.5z M151.1,85.4c0.7,1.4,1.4,2.7,2.1,4.1h-2.8c-0.6-1.4-1.2-2.8-1.8-4.1H151.1z M145.5,79.9c-0.8-1.4-1.7-2.8-2.7-4.1h2.1
			c1,1.3,2,2.7,2.9,4.1H145.5z M148.2,80.6c0.9,1.3,1.7,2.7,2.5,4.1h-2.5c-0.7-1.4-1.5-2.8-2.2-4.1H148.2z M146.6,75.1h-1.3
			c-1.1-1.4-2.2-2.8-3.4-4.1h1.2C144.3,72.3,145.5,73.7,146.6,75.1 M136.3,66.1c1.4,1.3,2.8,2.7,4.1,4.1h-1.8
			c-1.2-1.4-2.5-2.8-3.9-4.1H136.3z M134,65.5c-1.5-1.4-3.1-2.8-4.8-4.1h1.4c1.7,1.3,3.3,2.7,4.9,4.1H134z M152.6,109.4h2.6
			c0.2,1.4,0.4,2.7,0.6,4.1h-2.6C153,112.2,152.9,110.8,152.6,109.4 M160.3,114.2c0.2,1.4,0.3,2.7,0.5,4.1H157
			c-0.1-1.4-0.3-2.8-0.4-4.1H160.3z M156.5,113.6c-0.2-1.4-0.4-2.8-0.6-4.1h3.6c0.3,1.4,0.5,2.7,0.7,4.1H156.5z M164.5,118.7
			c-2.1-23.3-13.3-43.9-31.5-58l-0.1-0.1l-7.2,0l0.8,0.7c16.2,15.1,25.3,34.9,26.4,57.4l0,0.3h11.6L164.5,118.7z"/>
		<path fill="#8FA142" d="M125.7,58.7h3.7l-0.8-0.7l-3.5,0L125.7,58.7z M131.1,59.4h-5.7l-2-2l5.3,0L131.1,59.4z"/>
		<path fill="#8FA142" d="M122.9,55.6h2.9c-0.4-0.3-0.7-0.6-0.8-0.7h-2.7C122.5,55.2,122.8,55.5,122.9,55.6 M127.6,56.3h-4.9
			l-0.1-0.1c0,0-0.9-0.9-1.3-1.3l-0.5-0.5h4.5l0.1,0.1c0,0,0.6,0.5,1.6,1.3L127.6,56.3z"/>
		<path fill="#8FA142" d="M100.8,58c-0.1,0.2-0.1,0.5-0.2,0.7l8.4,0l-0.2-0.7L100.8,58z M99.8,59.4l0.1-0.4c0.1-0.4,0.3-0.9,0.4-1.3
			l0.1-0.2l8.9,0l0.7,2H99.8z"/>
		<path fill="#8FA142" d="M116.6,61.3c1,1.3,1.9,2.7,2.8,4.2H117c-0.6-1.4-1.3-2.8-2-4.2H116.6z M126,65.5h-2.1
			c-1.1-1.4-2.2-2.8-3.3-4.1l2,0C123.7,62.7,124.9,64,126,65.5 M140.3,118.4c-0.1-1.4-0.2-2.8-0.3-4.1h5.1c0.1,1.4,0.2,2.8,0.3,4.1
			H140.3z M127.1,114.2h6c0.1,1.4,0.2,2.7,0.3,4.1h-6.2c0-0.9,0-1.8,0-2.6C127.2,115.3,127.1,114.7,127.1,114.2 M132.1,104.6
			c0.2,1.4,0.3,2.7,0.5,4.1H127c-0.1-1.4-0.2-2.8-0.3-4.1H132.1z M131.4,99.8c0.2,1.4,0.4,2.7,0.6,4.1h-5.4
			c-0.1-1.4-0.3-2.8-0.4-4.1H131.4z M130.6,95c0.3,1.4,0.5,2.7,0.8,4.1h-5.1c-0.2-1.4-0.4-2.8-0.6-4.1H130.6z M129.5,90.2
			c0.3,1.3,0.6,2.7,0.9,4.1h-4.9c-0.2-1.4-0.5-2.8-0.7-4.1H129.5z M128.2,85.4c0.4,1.3,0.8,2.7,1.1,4.1h-4.7
			c-0.3-1.4-0.6-2.8-0.9-4.1H128.2z M126.7,80.6c0.5,1.3,0.9,2.7,1.4,4.1h-4.5c-0.3-1.4-0.7-2.8-1.1-4.1H126.7z M124.8,75.7
			c0.6,1.3,1.1,2.7,1.6,4.1h-4.1c-0.4-1.4-0.8-2.8-1.3-4.1H124.8z M122.6,70.9c0.7,1.3,1.4,2.7,2,4.1h-3.8c-0.5-1.4-1-2.8-1.5-4.1
			H122.6z M122.2,70.3h-3.2c-0.5-1.4-1.1-2.8-1.7-4.1h2.6C120.7,67.5,121.5,68.8,122.2,70.3 M129.9,75.1c-0.7-1.4-1.5-2.8-2.3-4.1
			h2.4c0.9,1.4,1.8,2.7,2.6,4.1H129.9z M132.2,79.9c-0.6-1.4-1.2-2.8-1.9-4.1h2.7c0.8,1.4,1.5,2.7,2.3,4.1H132.2z M134.1,84.7
			c-0.5-1.4-1-2.8-1.6-4.1h3.1c0.7,1.4,1.3,2.7,1.9,4.1H134.1z M135.6,89.5c-0.4-1.4-0.9-2.8-1.3-4.1h3.4c0.6,1.4,1.1,2.7,1.7,4.1
			H135.6z M136.9,94.3c-0.3-1.4-0.7-2.8-1.1-4.1h3.8c0.5,1.4,1,2.7,1.4,4.1H136.9z M138,99.1c-0.3-1.4-0.6-2.8-0.9-4.1h4.2
			c0.4,1.4,0.8,2.7,1.2,4.1H138z M138.8,103.9c-0.2-1.4-0.5-2.8-0.7-4.1h4.5c0.3,1.4,0.7,2.7,0.9,4.1H138.8z M139.5,108.8
			c-0.2-1.4-0.3-2.8-0.6-4.1h4.7c0.3,1.4,0.5,2.8,0.7,4.1H139.5z M139.6,109.4h4.9c0.2,1.4,0.4,2.8,0.5,4.1H140
			C139.9,112.2,139.7,110.8,139.6,109.4 M138.2,104.6c0.2,1.4,0.4,2.7,0.6,4.1h-5.5c-0.1-1.4-0.3-2.8-0.5-4.1H138.2z M137.4,99.8
			c0.3,1.4,0.5,2.7,0.7,4.1h-5.4c-0.2-1.4-0.4-2.8-0.6-4.1H137.4z M136.4,95c0.3,1.4,0.6,2.7,0.9,4.1H132c-0.2-1.4-0.5-2.8-0.7-4.1
			H136.4z M135.1,90.2c0.4,1.4,0.8,2.7,1.1,4.1h-5.1c-0.3-1.4-0.6-2.8-0.9-4.1H135.1z M133.6,85.4c0.5,1.3,0.9,2.7,1.3,4.1H130
			c-0.3-1.4-0.7-2.8-1.1-4.1H133.6z M131.7,80.6c0.6,1.3,1.1,2.7,1.6,4.1h-4.6c-0.4-1.4-0.9-2.8-1.3-4.1H131.7z M125.3,75.1
			c-0.6-1.4-1.3-2.8-2-4.1h3.5c0.8,1.3,1.6,2.7,2.4,4.1H125.3z M129.5,75.7c0.7,1.3,1.3,2.7,1.9,4.1h-4.3c-0.5-1.4-1-2.8-1.6-4.1
			H129.5z M127,109.4h5.7c0.1,1.4,0.3,2.7,0.4,4.1h-5.9C127.1,112.2,127.1,110.8,127,109.4 M139.4,114.2c0.1,1.4,0.2,2.7,0.3,4.1
			H134c-0.1-1.4-0.2-2.8-0.3-4.1H139.4z M133.7,113.6c-0.1-1.4-0.2-2.8-0.4-4.1h5.6c0.2,1.4,0.3,2.7,0.4,4.1H133.7z M129.5,70.3
			h-2.4c-0.9-1.4-1.8-2.8-2.8-4.1h2.1C127.6,67.5,128.6,68.9,129.5,70.3 M120.2,65.5c-0.9-1.4-1.8-2.8-2.8-4.1l2.3,0
			c1.2,1.3,2.3,2.7,3.4,4.1H120.2z M123.6,66.1c1,1.3,1.9,2.7,2.8,4.1H123c-0.7-1.4-1.5-2.8-2.3-4.1H123.6z M126.5,119h19.7l0-0.5
			c-1.3-22.3-9.3-42.3-23.1-57.8l-0.2-0.2l-8.8,0l0.2,0.5c8.1,16,12.3,34.4,12.3,54.6c0,0.9,0,1.9,0,2.9L126.5,119z"/>
		<path fill="#8FA142" d="M112.5,55.6h5.7l-0.6-0.7h-5.4L112.5,55.6z M119.7,56.3h-7.6l-1-2h6.8L119.7,56.3z"/>
		<path fill="#8FA142" d="M114,58.7h6.7l-0.6-0.7h-6.4L114,58.7z M122.2,59.4h-8.6l-1-2h7.8L122.2,59.4z"/>
		<path fill="#8FA142" d="M93,65.5h-2.4c0.9-1.4,1.8-2.8,2.8-4.2l1.5,0C94.3,62.7,93.6,64.1,93,65.5 M76.6,118.4
			c0.1-1.4,0.2-2.8,0.3-4.1h6c0,0.5,0,1,0,1.5c0,0.8,0,1.8,0,2.6H76.6z M64.9,114.2H70c-0.1,1.4-0.2,2.7-0.3,4.1h-5.1
			C64.7,117,64.8,115.6,64.9,114.2 M87.5,61.3l2,0c-1.2,1.3-2.3,2.7-3.3,4.1H84C85.1,64,86.3,62.7,87.5,61.3 M86.9,65.5
			c1.1-1.4,2.2-2.8,3.4-4.1l2.3,0c-1,1.3-1.9,2.7-2.8,4.1H86.9z M87,70.3h-3.4c0.9-1.4,1.8-2.8,2.8-4.1h2.9
			C88.5,67.5,87.8,68.9,87,70.3 M87.8,70.3c0.7-1.4,1.5-2.8,2.4-4.1h2.6c-0.6,1.4-1.2,2.7-1.7,4.1H87.8z M85.5,75.1
			c0.6-1.4,1.3-2.8,2-4.1h3.3c-0.5,1.4-1,2.7-1.5,4.1H85.5z M83.6,79.9c0.5-1.4,1-2.8,1.6-4.1H89c-0.5,1.4-0.9,2.7-1.3,4.1H83.6z
			 M82,84.7c0.4-1.4,0.9-2.8,1.4-4.1h4.2c-0.4,1.4-0.7,2.7-1.1,4.1H82z M80.7,89.5c0.3-1.4,0.7-2.8,1.1-4.1h4.5
			c-0.3,1.4-0.6,2.8-0.9,4.1H80.7z M79.6,94.3c0.3-1.4,0.6-2.8,0.9-4.1h4.7c-0.3,1.4-0.5,2.7-0.7,4.1H79.6z M78.7,99.1
			c0.2-1.4,0.5-2.8,0.7-4.1h4.9c-0.2,1.4-0.4,2.8-0.6,4.1H78.7z M78,103.9c0.2-1.4,0.4-2.8,0.6-4.1h5.2c-0.2,1.4-0.3,2.8-0.4,4.1H78
			z M77.4,108.8c0.1-1.4,0.3-2.8,0.5-4.1h5.4c-0.1,1.4-0.2,2.8-0.3,4.1H77.4z M77.3,109.4H83c-0.1,1.4-0.1,2.8-0.1,4.1H77
			C77.1,112.2,77.2,110.8,77.3,109.4 M70.4,109.4c-0.2,1.4-0.3,2.7-0.4,4.1H65c0.1-1.4,0.3-2.8,0.5-4.1H70.4z M71.1,104.6
			c-0.2,1.4-0.4,2.7-0.6,4.1h-4.9c0.2-1.4,0.5-2.8,0.7-4.1H71.1z M71.9,99.8c-0.3,1.4-0.5,2.7-0.7,4.1h-4.7c0.3-1.4,0.6-2.8,0.9-4.1
			H71.9z M72.9,95c-0.3,1.4-0.6,2.7-0.9,4.1h-4.5c0.4-1.4,0.7-2.8,1.2-4.1H72.9z M74.2,90.2c-0.4,1.4-0.8,2.7-1.1,4.1h-4.2
			c0.4-1.4,0.9-2.8,1.4-4.1H74.2z M75.7,85.4c-0.5,1.3-0.9,2.7-1.3,4.1h-3.8c0.5-1.4,1.1-2.8,1.7-4.1H75.7z M77.5,80.6
			c-0.6,1.4-1.1,2.7-1.6,4.1h-3.4c0.6-1.4,1.3-2.8,1.9-4.1H77.5z M79.8,75.7c-0.7,1.3-1.3,2.7-1.9,4.1h-3c0.7-1.4,1.5-2.8,2.3-4.1
			H79.8z M80.8,75.1c0.7-1.4,1.5-2.8,2.4-4.1h3.5c-0.7,1.3-1.3,2.7-2,4.1H80.8z M78.6,79.9c0.6-1.4,1.3-2.8,1.9-4.1h4
			c-0.6,1.3-1.1,2.7-1.6,4.1H78.6z M76.6,84.7c0.5-1.4,1.1-2.8,1.6-4.1h4.3c-0.5,1.3-0.9,2.7-1.3,4.1H76.6z M75.1,89.5
			c0.4-1.4,0.9-2.8,1.3-4.1h4.7c-0.4,1.3-0.8,2.7-1.1,4.1H75.1z M73.8,94.3c0.3-1.4,0.7-2.8,1.1-4.1h4.9c-0.3,1.3-0.6,2.7-0.9,4.1
			H73.8z M72.7,99.1c0.3-1.4,0.6-2.8,0.9-4.1h5.2c-0.3,1.4-0.5,2.7-0.7,4.1H72.7z M77.2,104.6c-0.2,1.4-0.3,2.7-0.5,4.1h-5.5
			c0.2-1.4,0.3-2.8,0.6-4.1H77.2z M71.9,103.9c0.2-1.4,0.5-2.8,0.7-4.1h5.3c-0.2,1.4-0.4,2.7-0.6,4.1H71.9z M80.5,70.3
			c1-1.4,2-2.8,3-4.1h2.1c-1,1.3-1.9,2.7-2.8,4.1H80.5z M82.4,70.9c-0.8,1.3-1.6,2.7-2.3,4.1h-2.6c0.8-1.4,1.7-2.8,2.6-4.1H82.4z
			 M76.2,114.2c-0.1,1.4-0.2,2.7-0.3,4.1h-5.6c0.1-1.4,0.2-2.8,0.3-4.1H76.2z M70.7,113.6c0.1-1.4,0.3-2.8,0.4-4.1h5.6
			c-0.1,1.4-0.3,2.7-0.4,4.1H70.7z M96,60.6l-8.8,0L87,60.8c-13.8,15.5-21.8,35.5-23.1,57.8l0,0.5h19.4l0.3-0.1l0-0.3
			c0-0.9,0-1.9,0-2.9c0-20.3,4.1-38.7,12.3-54.6L96,60.6z"/>
		<path fill="#8FA142" d="M91.7,55.6h5.7l0.3-0.7h-5.4L91.7,55.6z M97.9,56.3h-7.6l1.8-2h6.8L97.9,56.3z"/>
		<path fill="#8FA142" d="M89.3,58.7H96l0.3-0.7h-6.4L89.3,58.7z M96.4,59.4h-8.6l1.8-2h7.8L96.4,59.4z"/>
		<path fill="#8FA142" d="M101.5,54.9c-0.1,0.2-0.1,0.5-0.2,0.7l7,0l-0.2-0.7L101.5,54.9z M100.4,56.3l0.1-0.4
			c0.1-0.4,0.3-0.9,0.4-1.3l0.1-0.2l7.4,0l0.7,2H100.4z"/>
	</g>
</g>
</svg>
