<?xml version="1.0" encoding="utf-8"?>
<!-- Generator: Adobe Illustrator 19.2.1, SVG Export Plug-In . SVG Version: 6.00 Build 0)  -->
<svg version="1.1" id="Layer_1" xmlns="http://www.w3.org/2000/svg" xmlns:xlink="http://www.w3.org/1999/xlink" x="0px" y="0px"
	 viewBox="0 0 138.8 171.8" style="enable-background:new 0 0 138.8 171.8;" xml:space="preserve">
<style type="text/css">
	.st0{fill:#FFFFFF;}
	.st1{fill:#162C53;}
</style>
<polygon class="st0" points="0,150.5 0,0 138.8,0 138.8,150.5 70.2,171.9 "/>
<polygon class="st1" points="70.2,169.8 136.8,149 136.8,0 2,0 2,149 "/>
<g>
	<rect x="105.1" y="94.6" class="st0" width="2" height="5.2"/>
	<rect x="31.6" y="94.6" class="st0" width="2" height="5.2"/>
	<rect x="72.3" y="37" class="st0" width="3.6" height="3.9"/>
	<path class="st0" d="M116.8,124.2c-0.7,0-1.2-0.6-1.2-1.2s0.6-1.2,1.2-1.2s1.2,0.6,1.2,1.2S117.5,124.2,116.8,124.2"/>
	<path class="st0" d="M22,124.2c-0.7,0-1.2-0.6-1.2-1.2s0.6-1.2,1.2-1.2s1.2,0.6,1.2,1.2S22.6,124.2,22,124.2"/>
	<rect x="28.6" y="105.4" class="st0" width="81.6" height="1.9"/>
	<rect x="99.7" y="94.6" class="st0" width="2.8" height="5.2"/>
	<rect x="93.5" y="94.6" class="st0" width="3.5" height="5.2"/>
	<rect x="87.5" y="94.6" class="st0" width="3.5" height="5.2"/>
	<rect x="81" y="94.6" class="st0" width="3.8" height="5.2"/>
	<rect x="74.3" y="94.6" class="st0" width="4.1" height="5.2"/>
	<rect x="67.1" y="94.6" class="st0" width="4.6" height="5.2"/>
	<rect x="60.3" y="94.6" class="st0" width="4.1" height="5.2"/>
	<rect x="53.9" y="94.6" class="st0" width="3.7" height="5.2"/>
	<rect x="47.8" y="94.6" class="st0" width="3.5" height="5.2"/>
	<rect x="41.8" y="94.6" class="st0" width="3.5" height="5.2"/>
	<rect x="36.4" y="94.6" class="st0" width="2.8" height="5.2"/>
	<path class="st0" d="M78.6,85.8H60.3v-1.7h18.2C78.6,84.1,78.6,85.8,78.6,85.8z M78.6,88.8H60.3v-1.7h18.2
		C78.6,87.2,78.6,88.8,78.6,88.8z"/>
	<path class="st0" d="M94.3,85.7H82.4V84h11.9V85.7z M94.3,89H82.4v-1.7h11.9V89z"/>
	<path class="st0" d="M105,85.7h-7V84h7V85.7z M105,89h-7v-1.7h7V89z"/>
	<path class="st0" d="M40.6,85.7h-7V84h7V85.7z M40.6,89h-7v-1.7h7V89z"/>
	<path class="st0" d="M72.5,47.2c4.1,11.9,6,22.3,6,32.1c0,1,0,2,0,2.9v0.2H60.3v-0.2c0-1,0-2,0-2.9c0-10.1,1.9-20.7,5.7-32.1
		C66,47.2,72.5,47.2,72.5,47.2z"/>
	<path class="st0" d="M80.1,47.2c8.4,9.3,13.3,21.5,14.1,35v0.2H82.3v-0.2c0-0.6,0-1.2,0-1.8c0-12.3-2.6-23.6-7.5-33.2
		C74.8,47.2,80.1,47.2,80.1,47.2z"/>
	<path class="st0" d="M86,47.2c11,8.4,17.8,20.9,19,35v0.2h-7v-0.2c-0.7-13.5-6.6-25.9-16.4-35C81.6,47.2,86,47.2,86,47.2z"/>
	<rect x="28.6" y="101.9" class="st0" width="81.6" height="1.9"/>
	<rect x="28.6" y="90.5" class="st0" width="81.6" height="1.9"/>
	<rect x="58" y="37" class="st0" width="3.4" height="3.9"/>
	<rect x="62.6" y="37" class="st0" width="3.5" height="3.9"/>
	<rect x="77.3" y="37" class="st0" width="3.3" height="3.9"/>
	<rect x="67.4" y="37" class="st0" width="3.5" height="3.9"/>
	<path class="st0" d="M65.4,35.5h7.7v-3.7c-0.2-2-1.8-3.6-3.8-3.6c-2.1,0-3.8,1.8-3.8,3.9L65.4,35.5L65.4,35.5z"/>
	<path class="st0" d="M76.2,33.7c0-1.4,1-2.3,2.3-2.3s2.3,1,2.3,2.3v1.7h-4.5v-1.7H76.2z"/>
	<path class="st0" d="M58,33.7c0-1.4,1-2.3,2.3-2.3s2.3,1,2.3,2.3v1.7H58V33.7z"/>
	<path class="st0" d="M30.6,125.6l-1.5,3.6c-0.1,0.2-0.1,0.5-0.1,0.6c0,0.6,0.8,0.7,1.6,0.7h0.2v0.7h-4.7v-0.7
		c1.4,0,1.8-0.8,2.3-1.9l5.9-14.5h0.9l5.9,14.9c0.3,0.9,0.8,1.5,1.6,1.5H43v0.7h-6.1v-0.7h0.6c0.6,0,1.6,0,1.6-0.6
		c0-0.3-0.1-0.6-0.3-1.1l-1.2-3.2H30.6z M37,125l-2.9-7.5l-3.2,7.5H37z"/>
	<path class="st0" d="M53.4,114.4v0.7h-0.7c-1.5,0-1.5,0.6-1.5,1.6v13.8h3.4c2.5,0,3.8-1.2,3.8-3.5h0.8v4.2H46.9v-0.7h0.9
		c0.9,0,1-0.5,1-1.7v-11.1c0-2.4,0-2.6-1.4-2.6h-0.6v-0.7C46.8,114.4,53.4,114.4,53.4,114.4z"/>
	<path class="st0" d="M63.9,130.5h0.9c0.9,0,1-0.5,1-1.7v-11.1c0-2.4,0-2.6-1.4-2.6h-0.6v-0.7h12.7v3.9h-0.8c0-2.3-1.2-3.3-3.5-3.3
		H68v7.3h2.9c1.9,0,3-0.5,3-2.6h0.8v5.9H74c0-2.3-1.5-2.5-2.6-2.5h-3.5v7.4H72c2.4,0,3.8-0.6,3.9-3.3h0.8v3.9h-13v-0.8h0.2V130.5z"
		/>
	<path class="st0" d="M82.7,130.5h0.9c0.9,0,1-0.5,1-1.7v-11.1c0-2.4,0-2.6-1.4-2.6h-0.6v-0.7h6.2c2.7,0,6.4,0.6,6.4,3.9
		c0,2.4-2.3,3.6-4.3,3.9l0,0c1.7,0.3,3.3,1.1,3.3,3v3.4c0,0.6,0,1.6,0.8,1.6s0.9-0.7,1.2-1.1l0.7,0.2c-0.5,1.1-1.2,2.1-2.6,2.1
		c-1.8,0-2.3-1.1-2.3-2.9V126c0-2.7-0.8-3.5-3.4-3.5h-2v5.7c0,1.7,0.1,2,1.2,2h0.8v0.7h-6.1L82.7,130.5L82.7,130.5z M86.9,121.9h2.3
		c2.1,0,3.7-1.5,3.7-3.6c0-2.4-1.5-3.4-3.7-3.4h-2.3V121.9z"/>
	<path class="st0" d="M100.1,127h0.8c0.1,2.3,0.7,3.9,2.7,3.9c2.1,0,2.4-1.9,2.4-3.7V117c0-1.4,0-1.8-1.2-1.8h-0.9v-0.7h6.3v0.7
		h-0.9c-1.1,0-1.1,0.6-1.1,1.8v8.7c0,3.3-0.7,6-4.6,6c-1.1,0-2.4-0.1-3.4-0.7C100.1,130.9,100.1,127,100.1,127z"/>
	<path class="st0" d="M71.6,43.4l-0.3-1.1h-3.9c-0.1,0.2-0.1,0.7-0.2,1.1H71.6z"/>
	<path class="st0" d="M72.3,45.6c-0.1-0.3-0.2-0.8-0.3-1.1h-5.2c-0.1,0.3-0.2,0.8-0.3,1.1H72.3z"/>
	<path class="st0" d="M77.2,43.4c-0.6-0.7-1-1.1-1-1.1h-3.5l0.6,1.1H77.2z"/>
	<path class="st0" d="M79.2,45.6c-0.3-0.3-0.7-0.8-1-1.1h-4.4l0.6,1.1H79.2z"/>
	<path class="st0" d="M82.2,43.4c-0.8-0.7-1.4-1.1-1.4-1.1h-3.3c0.3,0.3,0.8,0.8,1.1,1.1H82.2z"/>
	<path class="st0" d="M80.7,45.6c-0.3-0.3-0.7-0.8-1.1-1.1h3.7c0.3,0.3,0.9,0.8,1.4,1.1H80.7z"/>
	<path class="st0" d="M57.1,47.2c-9.8,9.1-15.6,21.5-16.4,35v0.2h-7v-0.2c1.2-14.1,8.1-26.6,19-35C52.7,47.2,57.1,47.2,57.1,47.2z"
		/>
	<path class="st0" d="M56.5,85.7H44.6V84h11.9V85.7z M56.5,89H44.6v-1.7h11.9V89z"/>
	<path class="st0" d="M63.9,47.2c-5,9.7-7.5,21-7.5,33.2c0,0.6,0,1.1,0,1.8v0.2H44.6v-0.2c0.8-13.5,5.6-25.5,14.1-35
		C58.7,47.2,63.9,47.2,63.9,47.2z"/>
	<path class="st0" d="M64.4,45.6l0.6-1.1h-4.4c-0.3,0.3-0.7,0.8-1,1.1H64.4z"/>
	<path class="st0" d="M65.5,43.4l0.6-1.1h-3.6c0,0-0.3,0.5-0.9,1.1H65.5z"/>
	<path class="st0" d="M58,45.6c0.3-0.3,0.7-0.7,1-1.1h-3.7c-0.5,0.3-0.9,0.7-1.4,1.1H58z"/>
	<path class="st0" d="M60,43.4c0,0,0.7-0.7,1.1-1.1h-3.3c0,0-0.5,0.5-1.4,1.1H60z"/>
</g>
</svg>
