<?xml version="1.0" encoding="utf-8"?>
<!-- Generator: Adobe Illustrator 19.1.0, SVG Export Plug-In . SVG Version: 6.00 Build 0)  -->
<svg version="1.1" id="Layer_1" xmlns="http://www.w3.org/2000/svg" xmlns:xlink="http://www.w3.org/1999/xlink" x="0px" y="0px"
	 viewBox="-263 212.2 191.7 117.8" enable-background="new -263 212.2 191.7 117.8" xml:space="preserve">
<g>
	<g>
		<path fill="#162C53" d="M-112.9,330c-0.5,0-1-0.3-1.2-0.8c-0.1-0.4-3.4-8.9-2.9-14.3c0.1-1.6,1-9.8,4.5-12.6c1-0.8,2.1-1.1,3.2-1
			c4.3,0.6,10.2,2.2,13.5,4.7c0.6,0.4,0.7,1.2,0.3,1.8s-1.2,0.7-1.8,0.3c-3-2.2-8.3-3.7-12.3-4.2c-0.3,0-0.7,0-1.3,0.4
			c-2,1.6-3.2,6.7-3.6,10.8c-0.3,3.9,1.7,10.1,2.5,12.3c9.7-0.1,19.3-1.4,25.2-9.5c6.3-8.6,13-30,12.8-49.5
			c-0.2-18.8-6.5-33.9-11.7-43.3c-4.3-7.6-9.7-9.3-12.6-9.7c-4.1-0.5-12.9-0.7-17.5-0.7c-2.8,0-2.9,0.2-3,1.1c0,0.2-0.1,0.4-0.1,0.6
			c-0.2,1.1-0.8,5.4,0.9,15.7c1.4,8.7,6.8,8.9,12.1,9.1c5,0.2,12-1.8,12.1-1.8c0.6-0.2,1.2,0.1,1.5,0.7c9.5,18.8,9.8,35.7,8.5,46.6
			c-1.5,11.8-5.2,19.1-5.4,19.4c-0.3,0.6-1.1,0.9-1.8,0.6c-0.6-0.3-0.9-1.1-0.6-1.8c0.1-0.3,14.2-28.4-2.6-62.7
			c-2.2,0.6-7.6,1.8-11.7,1.7c-5.2-0.2-12.9-0.4-14.7-11.2c-1.7-10.4-1.2-15.1-0.9-16.6c0-0.2,0.1-0.3,0.1-0.5
			c0.5-2.4,1.4-3.4,5.7-3.4c4.8,0,13.5,0.2,17.8,0.7c3.4,0.4,9.7,2.4,14.6,11c5.4,9.6,11.9,25.1,12.1,44.5
			c0.2,20.3-6.6,41.9-13.3,51C-91.4,328.7-102.2,330-112.9,330z"/>
	</g>
	<path fill="#162C53" d="M-204.2,298l-1.8-29.6h-11.3l-15.5,29.6h8.2l3.5-6.9h8.1v6.9H-204.2z M-217.8,284.4l5-9.8l-0.2,9.8H-217.8z
		"/>
	<polygon fill="#162C53" points="-201.4,298 -195,268.4 -186.3,268.4 -191.1,291.1 -180.4,291.1 -182.5,298 	"/>
	<polygon fill="#162C53" points="-179,298 -172.6,268.4 -153.8,268.4 -155.1,274.6 -164.2,274.6 -165.3,279.8 -157.1,279.8 
		-158.3,285.3 -166.5,285.3 -167.8,291.1 -157.7,291.1 -159.2,298 	"/>
	<path fill="#162C53" d="M-126.6,276.4c0.3-5.9-4.8-8-8.9-8c-4.1,0-11.8,0-11.8,0l-6.5,29.8l8.8-0.2l1.6-10.8h2.1
		c1.2,0,2.6,10.8,2.6,10.8h8.8c0,0-0.5-1.2-1.2-5c-0.7-3.8-3-7.3-3-7.3C-131.6,285-126.9,282.3-126.6,276.4z M-135.7,277.7
		c-1,4-6.1,3.1-6.1,3.1l1.6-6.1C-140.2,274.7-134.7,273.8-135.7,277.7z"/>
	<path fill="#162C53" d="M-128.8,298l2-6.9c0,0,1.3,0,2.6,0s2.5-0.3,3.1-3.1s4.3-19.6,4.3-19.6h8.8c0,0-4.1,19.1-4.9,22.7
		c-0.8,3.6-4.5,6.9-7.9,6.9S-128.8,298-128.8,298z"/>
	<polygon fill="#162C53" points="-182.6,262 -176.4,233.5 -168.4,233.5 -173.4,256.5 -162.9,256.5 -164.5,262 	"/>
	<path fill="#162C53" d="M-142.1,233c-5,0-14.5,1.9-16.5,16.8c-1.8,13.3,8.5,13.1,10.7,13.1c11.1,0,16.1-8,17-18
		C-130,234.4-137.1,233-142.1,233z M-140.2,247.7c-0.3,1.8-1.7,8.3-5.8,9.2c-1.6,0.3-5.6-0.1-4.3-6.3c1.2-6.2,3-11.9,7.6-12.1
		C-138.1,238.3-139.9,245.8-140.2,247.7z"/>
	<polygon fill="#162C53" points="-148.3,230.9 -143.1,230.9 -141.3,227.8 -140.2,227.8 -140.2,230.9 -133.1,230.9 -135.4,224.4 
		-143.5,224.4 	"/>
	<g>
		<path fill="#162C53" d="M-252.9,316.8c-0.4-0.6-1-1.1-1.7-1.4c-0.7-0.3-1.6-0.5-2.7-0.5s-1.9,0.2-2.7,0.5
			c-0.7,0.3-1.3,0.8-1.8,1.5c-0.5,0.6-0.8,1.4-1,2.3c-0.2,0.9-0.3,1.9-0.3,3c0,1.1,0.1,2.1,0.2,3c0.2,0.9,0.5,1.6,0.9,2.3
			c0.4,0.6,1,1.1,1.7,1.4c0.7,0.3,1.6,0.5,2.7,0.5s2-0.2,2.7-0.5c0.7-0.3,1.3-0.8,1.8-1.5c0.5-0.6,0.8-1.4,1-2.3
			c0.2-0.9,0.3-1.9,0.3-3s-0.1-2.1-0.2-3C-252.2,318.2-252.5,317.4-252.9,316.8z M-255,323.7c0,0.5-0.1,0.9-0.2,1.2
			c-0.1,0.4-0.2,0.7-0.3,1c-0.1,0.3-0.3,0.5-0.5,0.7c-0.2,0.2-0.4,0.3-0.6,0.4c-0.2,0.1-0.5,0.1-0.8,0.1c-0.4,0-0.8-0.1-1.1-0.2
			c-0.3-0.2-0.5-0.4-0.7-0.8c-0.2-0.4-0.3-0.9-0.4-1.6c-0.1-0.7-0.1-1.5-0.1-2.5c0-0.8,0-1.5,0.1-2.1c0.1-0.6,0.2-1.1,0.4-1.5
			c0.2-0.4,0.4-0.7,0.7-0.9c0.3-0.2,0.7-0.3,1.2-0.3c0.3,0,0.5,0,0.8,0.1c0.2,0.1,0.4,0.2,0.6,0.3c0.2,0.2,0.3,0.4,0.5,0.6
			c0.1,0.3,0.2,0.6,0.3,1c0.1,0.4,0.1,0.8,0.2,1.3c0,0.5,0.1,1.1,0.1,1.8C-255,322.8-255,323.3-255,323.7z"/>
		<path fill="#162C53" d="M-240.1,323.3c-0.3-0.3-0.6-0.6-1-0.8c-0.4-0.3-0.8-0.5-1.3-0.7c0.4-0.2,0.8-0.4,1.1-0.7
			c0.3-0.3,0.6-0.5,0.8-0.8c0.2-0.3,0.4-0.6,0.5-0.9c0.1-0.3,0.2-0.6,0.2-1c0-0.5-0.1-1-0.3-1.4s-0.5-0.8-0.9-1.1
			c-0.4-0.3-0.9-0.5-1.5-0.7c-0.6-0.2-1.4-0.2-2.2-0.2c-0.9,0-1.6,0.1-2.3,0.3c-0.7,0.2-1.2,0.4-1.7,0.8c-0.4,0.3-0.8,0.7-1,1.2
			s-0.3,1-0.3,1.5c0,0.4,0.1,0.7,0.2,1.1c0.1,0.3,0.3,0.6,0.5,0.9c0.2,0.3,0.5,0.5,0.8,0.8c0.3,0.2,0.7,0.5,1.1,0.7
			c-0.5,0.2-1,0.5-1.4,0.8c-0.4,0.3-0.7,0.5-1,0.8c-0.3,0.3-0.5,0.6-0.6,1c-0.1,0.4-0.2,0.7-0.2,1.1c0,0.6,0.1,1.1,0.3,1.6
			c0.2,0.4,0.6,0.8,1,1.1c0.5,0.3,1,0.5,1.7,0.7c0.7,0.2,1.5,0.2,2.3,0.2c0.9,0,1.8-0.1,2.5-0.3c0.7-0.2,1.3-0.4,1.8-0.8
			c0.5-0.3,0.8-0.8,1.1-1.3c0.2-0.5,0.4-1.1,0.4-1.7c0-0.4-0.1-0.8-0.2-1.1C-239.6,323.9-239.8,323.6-240.1,323.3z M-246.3,317.4
			c0.3-0.3,0.8-0.4,1.5-0.4c0.3,0,0.6,0,0.9,0.1c0.3,0.1,0.5,0.2,0.6,0.3c0.2,0.1,0.3,0.3,0.4,0.5c0.1,0.2,0.1,0.4,0.1,0.7
			c0,0.4-0.2,0.8-0.5,1.2c-0.3,0.4-0.8,0.7-1.4,1c-0.4-0.2-0.7-0.4-1-0.5c-0.3-0.2-0.5-0.3-0.7-0.5c-0.2-0.2-0.3-0.4-0.4-0.6
			c-0.1-0.2-0.1-0.4-0.1-0.6C-246.8,318-246.7,317.7-246.3,317.4z M-243,326.8c-0.4,0.3-1,0.5-1.8,0.5c-0.8,0-1.4-0.1-1.8-0.4
			c-0.4-0.3-0.6-0.7-0.6-1.3c0-0.3,0-0.5,0.1-0.7c0.1-0.2,0.2-0.4,0.4-0.6c0.2-0.2,0.4-0.4,0.7-0.6c0.3-0.2,0.6-0.4,1-0.5
			c0.4,0.2,0.8,0.4,1.1,0.6c0.3,0.2,0.6,0.4,0.8,0.6c0.2,0.2,0.4,0.4,0.5,0.6c0.1,0.2,0.2,0.5,0.2,0.7
			C-242.4,326.1-242.6,326.5-243,326.8z"/>
		<path fill="#162C53" d="M-227.7,316.8c-0.4-0.6-1-1.1-1.7-1.4c-0.7-0.3-1.6-0.5-2.7-0.5c-1.1,0-1.9,0.2-2.7,0.5
			c-0.7,0.3-1.3,0.8-1.8,1.5c-0.5,0.6-0.8,1.4-1,2.3c-0.2,0.9-0.3,1.9-0.3,3c0,1.1,0.1,2.1,0.2,3c0.2,0.9,0.5,1.6,0.9,2.3
			c0.4,0.6,1,1.1,1.7,1.4c0.7,0.3,1.6,0.5,2.7,0.5s2-0.2,2.7-0.5c0.7-0.3,1.3-0.8,1.8-1.5c0.5-0.6,0.8-1.4,1-2.3s0.3-1.9,0.3-3
			s-0.1-2.1-0.2-3C-227,318.2-227.3,317.4-227.7,316.8z M-229.8,323.7c0,0.5-0.1,0.9-0.2,1.2c-0.1,0.4-0.2,0.7-0.3,1
			c-0.1,0.3-0.3,0.5-0.5,0.7c-0.2,0.2-0.4,0.3-0.6,0.4s-0.5,0.1-0.8,0.1c-0.4,0-0.8-0.1-1.1-0.2c-0.3-0.2-0.5-0.4-0.7-0.8
			c-0.2-0.4-0.3-0.9-0.4-1.6c-0.1-0.7-0.1-1.5-0.1-2.5c0-0.8,0-1.5,0.1-2.1s0.2-1.1,0.4-1.5c0.2-0.4,0.4-0.7,0.7-0.9
			c0.3-0.2,0.7-0.3,1.2-0.3c0.3,0,0.5,0,0.8,0.1c0.2,0.1,0.4,0.2,0.6,0.3c0.2,0.2,0.3,0.4,0.5,0.6c0.1,0.3,0.2,0.6,0.3,1
			c0.1,0.4,0.1,0.8,0.2,1.3c0,0.5,0.1,1.1,0.1,1.8C-229.8,322.8-229.8,323.3-229.8,323.7z"/>
		<path fill="#162C53" d="M-215.1,316.8c-0.4-0.6-1-1.1-1.7-1.4c-0.7-0.3-1.6-0.5-2.7-0.5c-1.1,0-1.9,0.2-2.7,0.5
			c-0.7,0.3-1.3,0.8-1.8,1.5c-0.5,0.6-0.8,1.4-1,2.3c-0.2,0.9-0.3,1.9-0.3,3c0,1.1,0.1,2.1,0.2,3c0.2,0.9,0.5,1.6,0.9,2.3
			c0.4,0.6,1,1.1,1.7,1.4c0.7,0.3,1.6,0.5,2.7,0.5c1.1,0,2-0.2,2.7-0.5c0.7-0.3,1.3-0.8,1.8-1.5c0.5-0.6,0.8-1.4,1-2.3
			s0.3-1.9,0.3-3s-0.1-2.1-0.2-3C-214.4,318.2-214.7,317.4-215.1,316.8z M-217.2,323.7c0,0.5-0.1,0.9-0.2,1.2
			c-0.1,0.4-0.2,0.7-0.3,1c-0.1,0.3-0.3,0.5-0.5,0.7c-0.2,0.2-0.4,0.3-0.6,0.4s-0.5,0.1-0.8,0.1c-0.4,0-0.8-0.1-1.1-0.2
			c-0.3-0.2-0.5-0.4-0.7-0.8c-0.2-0.4-0.3-0.9-0.4-1.6c-0.1-0.7-0.1-1.5-0.1-2.5c0-0.8,0-1.5,0.1-2.1c0.1-0.6,0.2-1.1,0.4-1.5
			s0.4-0.7,0.7-0.9c0.3-0.2,0.7-0.3,1.2-0.3c0.3,0,0.5,0,0.8,0.1c0.2,0.1,0.4,0.2,0.6,0.3c0.2,0.2,0.3,0.4,0.5,0.6
			c0.1,0.3,0.2,0.6,0.3,1c0.1,0.4,0.1,0.8,0.2,1.3c0,0.5,0.1,1.1,0.1,1.8C-217.2,322.8-217.2,323.3-217.2,323.7z"/>
		<path fill="#162C53" d="M-196.9,316.8c-0.4-0.6-1-1.1-1.7-1.4c-0.7-0.3-1.6-0.5-2.7-0.5c-1.1,0-1.9,0.2-2.7,0.5
			c-0.7,0.3-1.3,0.8-1.8,1.5c-0.5,0.6-0.8,1.4-1,2.3c-0.2,0.9-0.3,1.9-0.3,3c0,1.1,0.1,2.1,0.2,3c0.2,0.9,0.5,1.6,0.9,2.3
			c0.4,0.6,1,1.1,1.7,1.4c0.7,0.3,1.6,0.5,2.7,0.5c1.1,0,2-0.2,2.7-0.5c0.7-0.3,1.3-0.8,1.8-1.5c0.5-0.6,0.8-1.4,1-2.3
			s0.3-1.9,0.3-3s-0.1-2.1-0.2-3C-196.2,318.2-196.5,317.4-196.9,316.8z M-199,323.7c0,0.5-0.1,0.9-0.2,1.2c-0.1,0.4-0.2,0.7-0.3,1
			c-0.1,0.3-0.3,0.5-0.5,0.7c-0.2,0.2-0.4,0.3-0.6,0.4s-0.5,0.1-0.8,0.1c-0.4,0-0.8-0.1-1.1-0.2c-0.3-0.2-0.5-0.4-0.7-0.8
			c-0.2-0.4-0.3-0.9-0.4-1.6c-0.1-0.7-0.1-1.5-0.1-2.5c0-0.8,0-1.5,0.1-2.1c0.1-0.6,0.2-1.1,0.4-1.5c0.2-0.4,0.4-0.7,0.7-0.9
			c0.3-0.2,0.7-0.3,1.2-0.3c0.3,0,0.5,0,0.8,0.1c0.2,0.1,0.4,0.2,0.6,0.3c0.2,0.2,0.3,0.4,0.5,0.6c0.1,0.3,0.2,0.6,0.3,1
			c0.1,0.4,0.1,0.8,0.2,1.3c0,0.5,0.1,1.1,0.1,1.8C-199,322.8-199,323.3-199,323.7z"/>
		<path fill="#162C53" d="M-183.6,327.1c0-0.1-0.1-0.2-0.2-0.2c-0.1,0-0.1-0.1-0.2-0.1h-6.2l1.8-1.7c0.9-0.8,1.7-1.5,2.2-2.1
			c0.6-0.6,1-1.2,1.3-1.7s0.5-1,0.6-1.4c0.1-0.4,0.1-0.9,0.1-1.3c0-0.5-0.1-1-0.3-1.5c-0.2-0.4-0.5-0.8-0.9-1.2
			c-0.4-0.3-0.9-0.6-1.5-0.8c-0.6-0.2-1.3-0.3-2.1-0.3c-0.5,0-1,0-1.5,0.1s-0.9,0.2-1.3,0.3c-0.4,0.1-0.7,0.3-1,0.4
			s-0.5,0.2-0.6,0.3c-0.1,0.1-0.2,0.2-0.2,0.2c0,0.1-0.1,0.1-0.1,0.2c0,0.1,0,0.2-0.1,0.3c0,0.1,0,0.3,0,0.4c0,0.2,0,0.5,0,0.6
			c0,0.2,0,0.3,0.1,0.4c0,0.1,0.1,0.2,0.1,0.2c0.1,0,0.1,0.1,0.2,0.1c0.1,0,0.3-0.1,0.4-0.2c0.2-0.1,0.4-0.2,0.7-0.4
			c0.3-0.1,0.6-0.3,1-0.4c0.4-0.1,0.8-0.2,1.3-0.2c0.3,0,0.6,0,0.9,0.1c0.3,0.1,0.5,0.2,0.6,0.4c0.2,0.2,0.3,0.3,0.4,0.6
			c0.1,0.2,0.1,0.4,0.1,0.7c0,0.3,0,0.5-0.1,0.8c-0.1,0.3-0.2,0.6-0.4,0.9c-0.2,0.3-0.4,0.7-0.8,1.1c-0.3,0.4-0.8,0.9-1.3,1.4
			l-2.7,2.6c-0.2,0.2-0.3,0.3-0.4,0.4c-0.1,0.1-0.2,0.3-0.2,0.4c-0.1,0.1-0.1,0.3-0.1,0.5c0,0.2,0,0.4,0,0.6c0,0.3,0,0.5,0.1,0.6
			c0,0.2,0.1,0.3,0.2,0.4c0.1,0.1,0.2,0.1,0.3,0.2c0.1,0,0.3,0,0.5,0h9c0.1,0,0.2,0,0.2-0.1c0.1,0,0.1-0.1,0.2-0.2
			c0-0.1,0.1-0.2,0.1-0.4c0-0.1,0-0.3,0-0.5c0-0.2,0-0.4,0-0.5C-183.6,327.3-183.6,327.2-183.6,327.1z"/>
		<path fill="#162C53" d="M-171,327.1c0-0.1-0.1-0.2-0.2-0.2c-0.1,0-0.1-0.1-0.2-0.1h-6.2l1.8-1.7c0.9-0.8,1.7-1.5,2.2-2.1
			c0.6-0.6,1-1.2,1.3-1.7s0.5-1,0.6-1.4c0.1-0.4,0.1-0.9,0.1-1.3c0-0.5-0.1-1-0.3-1.5c-0.2-0.4-0.5-0.8-0.9-1.2
			c-0.4-0.3-0.9-0.6-1.5-0.8c-0.6-0.2-1.3-0.3-2.1-0.3c-0.5,0-1,0-1.5,0.1s-0.9,0.2-1.3,0.3c-0.4,0.1-0.7,0.3-1,0.4
			s-0.5,0.2-0.6,0.3c-0.1,0.1-0.2,0.2-0.2,0.2c0,0.1-0.1,0.1-0.1,0.2c0,0.1,0,0.2-0.1,0.3c0,0.1,0,0.3,0,0.4c0,0.2,0,0.5,0,0.6
			c0,0.2,0,0.3,0.1,0.4c0,0.1,0.1,0.2,0.1,0.2c0.1,0,0.1,0.1,0.2,0.1c0.1,0,0.3-0.1,0.4-0.2c0.2-0.1,0.4-0.2,0.7-0.4
			c0.3-0.1,0.6-0.3,1-0.4c0.4-0.1,0.8-0.2,1.3-0.2c0.3,0,0.6,0,0.9,0.1c0.3,0.1,0.5,0.2,0.6,0.4c0.2,0.2,0.3,0.3,0.4,0.6
			c0.1,0.2,0.1,0.4,0.1,0.7c0,0.3,0,0.5-0.1,0.8c-0.1,0.3-0.2,0.6-0.4,0.9c-0.2,0.3-0.4,0.7-0.8,1.1c-0.3,0.4-0.8,0.9-1.3,1.4
			l-2.7,2.6c-0.2,0.2-0.3,0.3-0.4,0.4c-0.1,0.1-0.2,0.3-0.2,0.4c-0.1,0.1-0.1,0.3-0.1,0.5c0,0.2,0,0.4,0,0.6c0,0.3,0,0.5,0.1,0.6
			c0,0.2,0.1,0.3,0.2,0.4c0.1,0.1,0.2,0.1,0.3,0.2c0.1,0,0.3,0,0.5,0h9c0.1,0,0.2,0,0.2-0.1c0.1,0,0.1-0.1,0.2-0.2
			c0-0.1,0.1-0.2,0.1-0.4c0-0.1,0-0.3,0-0.5c0-0.2,0-0.4,0-0.5C-171,327.3-171,327.2-171,327.1z"/>
		<path fill="#162C53" d="M-159.1,316.8c-0.4-0.6-1-1.1-1.7-1.4c-0.7-0.3-1.6-0.5-2.7-0.5c-1.1,0-1.9,0.2-2.7,0.5
			c-0.7,0.3-1.3,0.8-1.8,1.5c-0.5,0.6-0.8,1.4-1,2.3c-0.2,0.9-0.3,1.9-0.3,3c0,1.1,0.1,2.1,0.2,3c0.2,0.9,0.5,1.6,0.9,2.3
			c0.4,0.6,1,1.1,1.7,1.4c0.7,0.3,1.6,0.5,2.7,0.5s2-0.2,2.7-0.5c0.7-0.3,1.3-0.8,1.8-1.5c0.5-0.6,0.8-1.4,1-2.3s0.3-1.9,0.3-3
			s-0.1-2.1-0.2-3C-158.4,318.2-158.7,317.4-159.1,316.8z M-161.2,323.7c0,0.5-0.1,0.9-0.2,1.2c-0.1,0.4-0.2,0.7-0.3,1
			c-0.1,0.3-0.3,0.5-0.5,0.7c-0.2,0.2-0.4,0.3-0.6,0.4c-0.2,0.1-0.5,0.1-0.8,0.1c-0.4,0-0.8-0.1-1.1-0.2c-0.3-0.2-0.5-0.4-0.7-0.8
			c-0.2-0.4-0.3-0.9-0.4-1.6c-0.1-0.7-0.1-1.5-0.1-2.5c0-0.8,0-1.5,0.1-2.1c0.1-0.6,0.2-1.1,0.4-1.5s0.4-0.7,0.7-0.9
			c0.3-0.2,0.7-0.3,1.2-0.3c0.3,0,0.5,0,0.8,0.1c0.2,0.1,0.4,0.2,0.6,0.3c0.2,0.2,0.3,0.4,0.5,0.6c0.1,0.3,0.2,0.6,0.3,1
			c0.1,0.4,0.1,0.8,0.2,1.3c0,0.5,0.1,1.1,0.1,1.8C-161.2,322.8-161.2,323.3-161.2,323.7z"/>
		<path fill="#162C53" d="M-146.5,316.8c-0.4-0.6-1-1.1-1.7-1.4c-0.7-0.3-1.6-0.5-2.7-0.5s-1.9,0.2-2.7,0.5
			c-0.7,0.3-1.3,0.8-1.8,1.5c-0.5,0.6-0.8,1.4-1,2.3c-0.2,0.9-0.3,1.9-0.3,3c0,1.1,0.1,2.1,0.2,3c0.2,0.9,0.5,1.6,0.9,2.3
			c0.4,0.6,1,1.1,1.7,1.4c0.7,0.3,1.6,0.5,2.7,0.5c1.1,0,2-0.2,2.7-0.5c0.7-0.3,1.3-0.8,1.8-1.5c0.5-0.6,0.8-1.4,1-2.3
			s0.3-1.9,0.3-3s-0.1-2.1-0.2-3C-145.8,318.2-146.1,317.4-146.5,316.8z M-148.6,323.7c0,0.5-0.1,0.9-0.2,1.2
			c-0.1,0.4-0.2,0.7-0.3,1c-0.1,0.3-0.3,0.5-0.5,0.7c-0.2,0.2-0.4,0.3-0.6,0.4s-0.5,0.1-0.8,0.1c-0.4,0-0.8-0.1-1.1-0.2
			c-0.3-0.2-0.5-0.4-0.7-0.8c-0.2-0.4-0.3-0.9-0.4-1.6c-0.1-0.7-0.1-1.5-0.1-2.5c0-0.8,0-1.5,0.1-2.1s0.2-1.1,0.4-1.5
			s0.4-0.7,0.7-0.9s0.7-0.3,1.2-0.3c0.3,0,0.5,0,0.8,0.1c0.2,0.1,0.4,0.2,0.6,0.3c0.2,0.2,0.3,0.4,0.5,0.6c0.1,0.3,0.2,0.6,0.3,1
			c0.1,0.4,0.1,0.8,0.2,1.3c0,0.5,0.1,1.1,0.1,1.8C-148.6,322.8-148.6,323.3-148.6,323.7z"/>
		<path fill="#162C53" d="M-133.9,316.8c-0.4-0.6-1-1.1-1.7-1.4c-0.7-0.3-1.6-0.5-2.7-0.5s-1.9,0.2-2.7,0.5
			c-0.7,0.3-1.3,0.8-1.8,1.5c-0.5,0.6-0.8,1.4-1,2.3c-0.2,0.9-0.3,1.9-0.3,3c0,1.1,0.1,2.1,0.2,3c0.2,0.9,0.5,1.6,0.9,2.3
			c0.4,0.6,1,1.1,1.7,1.4c0.7,0.3,1.6,0.5,2.7,0.5c1.1,0,2-0.2,2.7-0.5c0.7-0.3,1.3-0.8,1.8-1.5c0.5-0.6,0.8-1.4,1-2.3
			s0.3-1.9,0.3-3s-0.1-2.1-0.2-3C-133.2,318.2-133.5,317.4-133.9,316.8z M-136.1,323.7c0,0.5-0.1,0.9-0.2,1.2
			c-0.1,0.4-0.2,0.7-0.3,1c-0.1,0.3-0.3,0.5-0.5,0.7c-0.2,0.2-0.4,0.3-0.6,0.4s-0.5,0.1-0.8,0.1c-0.4,0-0.8-0.1-1.1-0.2
			c-0.3-0.2-0.5-0.4-0.7-0.8c-0.2-0.4-0.3-0.9-0.4-1.6c-0.1-0.7-0.1-1.5-0.1-2.5c0-0.8,0-1.5,0.1-2.1s0.2-1.1,0.4-1.5
			s0.4-0.7,0.7-0.9s0.7-0.3,1.2-0.3c0.3,0,0.5,0,0.8,0.1c0.2,0.1,0.4,0.2,0.6,0.3c0.2,0.2,0.3,0.4,0.5,0.6c0.1,0.3,0.2,0.6,0.3,1
			c0.1,0.4,0.1,0.8,0.2,1.3c0,0.5,0.1,1.1,0.1,1.8C-136,322.8-136,323.3-136.1,323.7z"/>
		<path fill="#162C53" d="M-121.1,323.3c-0.3-0.3-0.6-0.6-1-0.8c-0.4-0.3-0.8-0.5-1.3-0.7c0.4-0.2,0.8-0.4,1.1-0.7
			c0.3-0.3,0.6-0.5,0.8-0.8c0.2-0.3,0.4-0.6,0.5-0.9c0.1-0.3,0.2-0.6,0.2-1c0-0.5-0.1-1-0.3-1.4s-0.5-0.8-0.9-1.1s-0.9-0.5-1.5-0.7
			c-0.6-0.2-1.4-0.2-2.2-0.2c-0.9,0-1.6,0.1-2.3,0.3c-0.7,0.2-1.2,0.4-1.7,0.8c-0.4,0.3-0.8,0.7-1,1.2s-0.3,1-0.3,1.5
			c0,0.4,0.1,0.7,0.2,1.1c0.1,0.3,0.3,0.6,0.5,0.9c0.2,0.3,0.5,0.5,0.8,0.8c0.3,0.2,0.7,0.5,1.1,0.7c-0.5,0.2-1,0.5-1.4,0.8
			c-0.4,0.3-0.7,0.5-1,0.8c-0.3,0.3-0.5,0.6-0.6,1c-0.1,0.3-0.2,0.7-0.2,1.1c0,0.6,0.1,1.1,0.3,1.6c0.2,0.4,0.6,0.8,1,1.1
			c0.5,0.3,1,0.5,1.7,0.7c0.7,0.2,1.5,0.2,2.3,0.2c0.9,0,1.8-0.1,2.5-0.3c0.7-0.2,1.3-0.4,1.8-0.8c0.5-0.3,0.8-0.8,1.1-1.3
			c0.2-0.5,0.4-1.1,0.4-1.7c0-0.4-0.1-0.8-0.2-1.1C-120.6,323.9-120.8,323.6-121.1,323.3z M-127.4,317.4c0.3-0.3,0.8-0.4,1.5-0.4
			c0.3,0,0.6,0,0.9,0.1c0.3,0.1,0.5,0.2,0.6,0.3c0.2,0.1,0.3,0.3,0.4,0.5c0.1,0.2,0.1,0.4,0.1,0.7c0,0.4-0.2,0.8-0.5,1.2
			s-0.8,0.7-1.4,1c-0.4-0.2-0.7-0.4-1-0.5c-0.3-0.2-0.5-0.3-0.7-0.5c-0.2-0.2-0.3-0.4-0.4-0.6c-0.1-0.2-0.1-0.4-0.1-0.6
			C-127.9,318-127.7,317.7-127.4,317.4z M-124,326.8c-0.4,0.3-1,0.5-1.8,0.5s-1.4-0.1-1.8-0.4c-0.4-0.3-0.6-0.7-0.6-1.3
			c0-0.3,0-0.5,0.1-0.7c0.1-0.2,0.2-0.4,0.4-0.6c0.2-0.2,0.4-0.4,0.7-0.6c0.3-0.2,0.6-0.4,1-0.5c0.4,0.2,0.8,0.4,1.1,0.6
			c0.3,0.2,0.6,0.4,0.8,0.6c0.2,0.2,0.4,0.4,0.5,0.6c0.1,0.2,0.2,0.5,0.2,0.7C-123.4,326.1-123.6,326.5-124,326.8z"/>
	</g>
	<path fill="#162C53" d="M-186.5,262l-1.7-28.6h-10.7L-214,262h7.5l3.8-7.6h7.6v7.6H-186.5z M-200.3,249.8l5.2-10.3v10.3H-200.3z"/>
</g>
</svg>
