<?xml version="1.0" encoding="utf-8"?>
<!-- Generator: Adobe Illustrator 19.2.1, SVG Export Plug-In . SVG Version: 6.00 Build 0)  -->
<svg version="1.1" id="Layer_1" xmlns="http://www.w3.org/2000/svg" xmlns:xlink="http://www.w3.org/1999/xlink" x="0px" y="0px"
	 viewBox="0 0 191.7 117.8" style="enable-background:new 0 0 191.7 117.8;" xml:space="preserve">
<style type="text/css">
	.st0{fill:#FFFFFF;}
</style>
<g>
	<g>
		<path class="st0" d="M150.1,117.8c-0.5,0-1-0.3-1.2-0.8c-0.1-0.4-3.4-8.9-2.9-14.3c0.1-1.6,1-9.8,4.5-12.6c1-0.8,2.1-1.1,3.2-1
			c4.3,0.6,10.2,2.2,13.5,4.7c0.6,0.4,0.7,1.2,0.3,1.8s-1.2,0.7-1.8,0.3c-3-2.2-8.3-3.7-12.3-4.2c-0.3,0-0.7,0-1.3,0.4
			c-2,1.6-3.2,6.7-3.6,10.8c-0.3,3.9,1.7,10.1,2.5,12.3c9.7-0.1,19.3-1.4,25.2-9.5c6.3-8.6,13-30,12.8-49.5
			c-0.2-18.8-6.5-33.9-11.7-43.3c-4.3-7.6-9.7-9.3-12.6-9.7c-4.1-0.5-12.9-0.7-17.5-0.7c-2.8,0-2.9,0.2-3,1.1c0,0.2-0.1,0.4-0.1,0.6
			c-0.2,1.1-0.8,5.4,0.9,15.7c1.4,8.7,6.8,8.9,12.1,9.1c5,0.2,12-1.8,12.1-1.8c0.6-0.2,1.2,0.1,1.5,0.7c9.5,18.8,9.8,35.7,8.5,46.6
			c-1.5,11.8-5.2,19.1-5.4,19.4c-0.3,0.6-1.1,0.9-1.8,0.6c-0.6-0.3-0.9-1.1-0.6-1.8c0.1-0.3,14.2-28.4-2.6-62.7
			c-2.2,0.6-7.6,1.8-11.7,1.7c-5.2-0.2-12.9-0.4-14.7-11.2c-1.7-10.4-1.2-15.1-0.9-16.6c0-0.2,0.1-0.3,0.1-0.5
			C142.1,1,143,0,147.3,0c4.8,0,13.5,0.2,17.8,0.7c3.4,0.4,9.7,2.4,14.6,11c5.4,9.6,11.9,25.1,12.1,44.5c0.2,20.3-6.6,41.9-13.3,51
			C171.6,116.5,160.8,117.8,150.1,117.8z"/>
	</g>
	<path class="st0" d="M58.8,85.8L57,56.2H45.7L30.2,85.8h8.2l3.5-6.9H50v6.9H58.8z M45.2,72.2l5-9.8L50,72.2H45.2z"/>
	<polygon class="st0" points="61.6,85.8 68,56.2 76.7,56.2 71.9,78.9 82.6,78.9 80.5,85.8 	"/>
	<polygon class="st0" points="84,85.8 90.4,56.2 109.2,56.2 107.9,62.4 98.8,62.4 97.7,67.6 105.9,67.6 104.7,73.1 96.5,73.1 
		95.2,78.9 105.3,78.9 103.8,85.8 	"/>
	<path class="st0" d="M136.4,64.2c0.3-5.9-4.8-8-8.9-8s-11.8,0-11.8,0L109.2,86l8.8-0.2l1.6-10.8h2.1c1.2,0,2.6,10.8,2.6,10.8h8.8
		c0,0-0.5-1.2-1.2-5s-3-7.3-3-7.3C131.4,72.8,136.1,70.1,136.4,64.2z M127.3,65.5c-1,4-6.1,3.1-6.1,3.1l1.6-6.1
		C122.8,62.5,128.3,61.6,127.3,65.5z"/>
	<path class="st0" d="M134.2,85.8l2-6.9c0,0,1.3,0,2.6,0c1.3,0,2.5-0.3,3.1-3.1c0.6-2.8,4.3-19.6,4.3-19.6h8.8
		c0,0-4.1,19.1-4.9,22.7s-4.5,6.9-7.9,6.9C138.8,85.8,134.2,85.8,134.2,85.8z"/>
	<polygon class="st0" points="80.4,49.8 86.6,21.3 94.6,21.3 89.6,44.3 100.1,44.3 98.5,49.8 	"/>
	<path class="st0" d="M120.9,20.8c-5,0-14.5,1.9-16.5,16.8c-1.8,13.3,8.5,13.1,10.7,13.1c11.1,0,16.1-8,17-18
		C133,22.2,125.9,20.8,120.9,20.8z M122.8,35.5c-0.3,1.8-1.7,8.3-5.8,9.2c-1.6,0.3-5.6-0.1-4.3-6.3c1.2-6.2,3-11.9,7.6-12.1
		C124.9,26.1,123.1,33.6,122.8,35.5z"/>
	<polygon class="st0" points="114.7,18.7 119.9,18.7 121.7,15.6 122.8,15.6 122.8,18.7 129.9,18.7 127.6,12.2 119.5,12.2 	"/>
	<g>
		<path class="st0" d="M10.1,104.6c-0.4-0.6-1-1.1-1.7-1.4s-1.6-0.5-2.7-0.5s-1.9,0.2-2.7,0.5c-0.7,0.3-1.3,0.8-1.8,1.5
			c-0.5,0.6-0.8,1.4-1,2.3s-0.3,1.9-0.3,3s0.1,2.1,0.2,3c0.2,0.9,0.5,1.6,0.9,2.3c0.4,0.6,1,1.1,1.7,1.4s1.6,0.5,2.7,0.5
			s2-0.2,2.7-0.5s1.3-0.8,1.8-1.5c0.5-0.6,0.8-1.4,1-2.3s0.3-1.9,0.3-3s-0.1-2.1-0.2-3C10.8,106,10.5,105.2,10.1,104.6z M8,111.5
			c0,0.5-0.1,0.9-0.2,1.2c-0.1,0.4-0.2,0.7-0.3,1s-0.3,0.5-0.5,0.7c-0.2,0.2-0.4,0.3-0.6,0.4s-0.5,0.1-0.8,0.1
			c-0.4,0-0.8-0.1-1.1-0.2c-0.3-0.2-0.5-0.4-0.7-0.8s-0.3-0.9-0.4-1.6s-0.1-1.5-0.1-2.5c0-0.8,0-1.5,0.1-2.1s0.2-1.1,0.4-1.5
			c0.2-0.4,0.4-0.7,0.7-0.9c0.3-0.2,0.7-0.3,1.2-0.3c0.3,0,0.5,0,0.8,0.1c0.2,0.1,0.4,0.2,0.6,0.3c0.2,0.2,0.3,0.4,0.5,0.6
			c0.1,0.3,0.2,0.6,0.3,1s0.1,0.8,0.2,1.3c0,0.5,0.1,1.1,0.1,1.8C8,110.6,8,111.1,8,111.5z"/>
		<path class="st0" d="M22.9,111.1c-0.3-0.3-0.6-0.6-1-0.8c-0.4-0.3-0.8-0.5-1.3-0.7c0.4-0.2,0.8-0.4,1.1-0.7
			c0.3-0.3,0.6-0.5,0.8-0.8s0.4-0.6,0.5-0.9s0.2-0.6,0.2-1c0-0.5-0.1-1-0.3-1.4s-0.5-0.8-0.9-1.1c-0.4-0.3-0.9-0.5-1.5-0.7
			s-1.4-0.2-2.2-0.2c-0.9,0-1.6,0.1-2.3,0.3c-0.7,0.2-1.2,0.4-1.7,0.8c-0.4,0.3-0.8,0.7-1,1.2s-0.3,1-0.3,1.5c0,0.4,0.1,0.7,0.2,1.1
			c0.1,0.3,0.3,0.6,0.5,0.9s0.5,0.5,0.8,0.8c0.3,0.2,0.7,0.5,1.1,0.7c-0.5,0.2-1,0.5-1.4,0.8s-0.7,0.5-1,0.8s-0.5,0.6-0.6,1
			s-0.2,0.7-0.2,1.1c0,0.6,0.1,1.1,0.3,1.6c0.2,0.4,0.6,0.8,1,1.1c0.5,0.3,1,0.5,1.7,0.7s1.5,0.2,2.3,0.2c0.9,0,1.8-0.1,2.5-0.3
			c0.7-0.2,1.3-0.4,1.8-0.8c0.5-0.3,0.8-0.8,1.1-1.3c0.2-0.5,0.4-1.1,0.4-1.7c0-0.4-0.1-0.8-0.2-1.1
			C23.4,111.7,23.2,111.4,22.9,111.1z M16.7,105.2c0.3-0.3,0.8-0.4,1.5-0.4c0.3,0,0.6,0,0.9,0.1c0.3,0.1,0.5,0.2,0.6,0.3
			c0.2,0.1,0.3,0.3,0.4,0.5c0.1,0.2,0.1,0.4,0.1,0.7c0,0.4-0.2,0.8-0.5,1.2c-0.3,0.4-0.8,0.7-1.4,1c-0.4-0.2-0.7-0.4-1-0.5
			c-0.3-0.2-0.5-0.3-0.7-0.5s-0.3-0.4-0.4-0.6c-0.1-0.2-0.1-0.4-0.1-0.6C16.2,105.8,16.3,105.5,16.7,105.2z M20,114.6
			c-0.4,0.3-1,0.5-1.8,0.5s-1.4-0.1-1.8-0.4c-0.4-0.3-0.6-0.7-0.6-1.3c0-0.3,0-0.5,0.1-0.7s0.2-0.4,0.4-0.6s0.4-0.4,0.7-0.6
			s0.6-0.4,1-0.5c0.4,0.2,0.8,0.4,1.1,0.6s0.6,0.4,0.8,0.6s0.4,0.4,0.5,0.6s0.2,0.5,0.2,0.7C20.6,113.9,20.4,114.3,20,114.6z"/>
		<path class="st0" d="M35.3,104.6c-0.4-0.6-1-1.1-1.7-1.4s-1.6-0.5-2.7-0.5c-1.1,0-1.9,0.2-2.7,0.5c-0.7,0.3-1.3,0.8-1.8,1.5
			c-0.5,0.6-0.8,1.4-1,2.3s-0.3,1.9-0.3,3s0.1,2.1,0.2,3c0.2,0.9,0.5,1.6,0.9,2.3c0.4,0.6,1,1.1,1.7,1.4s1.6,0.5,2.7,0.5
			s2-0.2,2.7-0.5s1.3-0.8,1.8-1.5c0.5-0.6,0.8-1.4,1-2.3s0.3-1.9,0.3-3s-0.1-2.1-0.2-3C36,106,35.7,105.2,35.3,104.6z M33.2,111.5
			c0,0.5-0.1,0.9-0.2,1.2c-0.1,0.4-0.2,0.7-0.3,1s-0.3,0.5-0.5,0.7c-0.2,0.2-0.4,0.3-0.6,0.4s-0.5,0.1-0.8,0.1
			c-0.4,0-0.8-0.1-1.1-0.2c-0.3-0.2-0.5-0.4-0.7-0.8s-0.3-0.9-0.4-1.6c-0.1-0.7-0.1-1.5-0.1-2.5c0-0.8,0-1.5,0.1-2.1
			s0.2-1.1,0.4-1.5s0.4-0.7,0.7-0.9c0.3-0.2,0.7-0.3,1.2-0.3c0.3,0,0.5,0,0.8,0.1c0.2,0.1,0.4,0.2,0.6,0.3c0.2,0.2,0.3,0.4,0.5,0.6
			c0.1,0.3,0.2,0.6,0.3,1s0.1,0.8,0.2,1.3c0,0.5,0.1,1.1,0.1,1.8C33.2,110.6,33.2,111.1,33.2,111.5z"/>
		<path class="st0" d="M47.9,104.6c-0.4-0.6-1-1.1-1.7-1.4s-1.6-0.5-2.7-0.5c-1.1,0-1.9,0.2-2.7,0.5c-0.7,0.3-1.3,0.8-1.8,1.5
			c-0.5,0.6-0.8,1.4-1,2.3s-0.3,1.9-0.3,3s0.1,2.1,0.2,3c0.2,0.9,0.5,1.6,0.9,2.3c0.4,0.6,1,1.1,1.7,1.4s1.6,0.5,2.7,0.5
			c1.1,0,2-0.2,2.7-0.5s1.3-0.8,1.8-1.5c0.5-0.6,0.8-1.4,1-2.3s0.3-1.9,0.3-3s-0.1-2.1-0.2-3C48.6,106,48.3,105.2,47.9,104.6z
			 M45.8,111.5c0,0.5-0.1,0.9-0.2,1.2c-0.1,0.4-0.2,0.7-0.3,1s-0.3,0.5-0.5,0.7s-0.4,0.3-0.6,0.4s-0.5,0.1-0.8,0.1
			c-0.4,0-0.8-0.1-1.1-0.2c-0.3-0.2-0.5-0.4-0.7-0.8s-0.3-0.9-0.4-1.6c-0.1-0.7-0.1-1.5-0.1-2.5c0-0.8,0-1.5,0.1-2.1
			s0.2-1.1,0.4-1.5s0.4-0.7,0.7-0.9c0.3-0.2,0.7-0.3,1.2-0.3c0.3,0,0.5,0,0.8,0.1c0.2,0.1,0.4,0.2,0.6,0.3c0.2,0.2,0.3,0.4,0.5,0.6
			c0.1,0.3,0.2,0.6,0.3,1s0.1,0.8,0.2,1.3c0,0.5,0.1,1.1,0.1,1.8C45.8,110.6,45.8,111.1,45.8,111.5z"/>
		<path class="st0" d="M66.1,104.6c-0.4-0.6-1-1.1-1.7-1.4s-1.6-0.5-2.7-0.5c-1.1,0-1.9,0.2-2.7,0.5c-0.7,0.3-1.3,0.8-1.8,1.5
			c-0.5,0.6-0.8,1.4-1,2.3s-0.3,1.9-0.3,3s0.1,2.1,0.2,3c0.2,0.9,0.5,1.6,0.9,2.3c0.4,0.6,1,1.1,1.7,1.4s1.6,0.5,2.7,0.5
			c1.1,0,2-0.2,2.7-0.5s1.3-0.8,1.8-1.5c0.5-0.6,0.8-1.4,1-2.3s0.3-1.9,0.3-3s-0.1-2.1-0.2-3C66.8,106,66.5,105.2,66.1,104.6z
			 M64,111.5c0,0.5-0.1,0.9-0.2,1.2c-0.1,0.4-0.2,0.7-0.3,1s-0.3,0.5-0.5,0.7s-0.4,0.3-0.6,0.4s-0.5,0.1-0.8,0.1
			c-0.4,0-0.8-0.1-1.1-0.2c-0.3-0.2-0.5-0.4-0.7-0.8s-0.3-0.9-0.4-1.6c-0.1-0.7-0.1-1.5-0.1-2.5c0-0.8,0-1.5,0.1-2.1
			s0.2-1.1,0.4-1.5s0.4-0.7,0.7-0.9c0.3-0.2,0.7-0.3,1.2-0.3c0.3,0,0.5,0,0.8,0.1c0.2,0.1,0.4,0.2,0.6,0.3c0.2,0.2,0.3,0.4,0.5,0.6
			c0.1,0.3,0.2,0.6,0.3,1s0.1,0.8,0.2,1.3c0,0.5,0.1,1.1,0.1,1.8C64,110.6,64,111.1,64,111.5z"/>
		<path class="st0" d="M79.4,114.9c0-0.1-0.1-0.2-0.2-0.2c-0.1,0-0.1-0.1-0.2-0.1h-6.2l1.8-1.7c0.9-0.8,1.7-1.5,2.2-2.1
			c0.6-0.6,1-1.2,1.3-1.7s0.5-1,0.6-1.4s0.1-0.9,0.1-1.3c0-0.5-0.1-1-0.3-1.5c-0.2-0.4-0.5-0.8-0.9-1.2c-0.4-0.3-0.9-0.6-1.5-0.8
			c-0.6-0.2-1.3-0.3-2.1-0.3c-0.5,0-1,0-1.5,0.1s-0.9,0.2-1.3,0.3c-0.4,0.1-0.7,0.3-1,0.4s-0.5,0.2-0.6,0.3
			c-0.1,0.1-0.2,0.2-0.2,0.2c0,0.1-0.1,0.1-0.1,0.2s0,0.2-0.1,0.3c0,0.1,0,0.3,0,0.4c0,0.2,0,0.5,0,0.6c0,0.2,0,0.3,0.1,0.4
			c0,0.1,0.1,0.2,0.1,0.2c0.1,0,0.1,0.1,0.2,0.1c0.1,0,0.3-0.1,0.4-0.2c0.2-0.1,0.4-0.2,0.7-0.4c0.3-0.1,0.6-0.3,1-0.4
			s0.8-0.2,1.3-0.2c0.3,0,0.6,0,0.9,0.1c0.3,0.1,0.5,0.2,0.6,0.4c0.2,0.2,0.3,0.3,0.4,0.6c0.1,0.2,0.1,0.4,0.1,0.7
			c0,0.3,0,0.5-0.1,0.8s-0.2,0.6-0.4,0.9s-0.4,0.7-0.8,1.1c-0.3,0.4-0.8,0.9-1.3,1.4l-2.7,2.6c-0.2,0.2-0.3,0.3-0.4,0.4
			c-0.1,0.1-0.2,0.3-0.2,0.4c-0.1,0.1-0.1,0.3-0.1,0.5s0,0.4,0,0.6c0,0.3,0,0.5,0.1,0.6c0,0.2,0.1,0.3,0.2,0.4
			c0.1,0.1,0.2,0.1,0.3,0.2c0.1,0,0.3,0,0.5,0h9c0.1,0,0.2,0,0.2-0.1c0.1,0,0.1-0.1,0.2-0.2c0-0.1,0.1-0.2,0.1-0.4
			c0-0.1,0-0.3,0-0.5s0-0.4,0-0.5C79.4,115.1,79.4,115,79.4,114.9z"/>
		<path class="st0" d="M92,114.9c0-0.1-0.1-0.2-0.2-0.2c-0.1,0-0.1-0.1-0.2-0.1h-6.2l1.8-1.7c0.9-0.8,1.7-1.5,2.2-2.1
			c0.6-0.6,1-1.2,1.3-1.7s0.5-1,0.6-1.4s0.1-0.9,0.1-1.3c0-0.5-0.1-1-0.3-1.5c-0.2-0.4-0.5-0.8-0.9-1.2c-0.4-0.3-0.9-0.6-1.5-0.8
			c-0.6-0.2-1.3-0.3-2.1-0.3c-0.5,0-1,0-1.5,0.1s-0.9,0.2-1.3,0.3c-0.4,0.1-0.7,0.3-1,0.4s-0.5,0.2-0.6,0.3
			c-0.1,0.1-0.2,0.2-0.2,0.2c0,0.1-0.1,0.1-0.1,0.2s0,0.2-0.1,0.3c0,0.1,0,0.3,0,0.4c0,0.2,0,0.5,0,0.6c0,0.2,0,0.3,0.1,0.4
			c0,0.1,0.1,0.2,0.1,0.2c0.1,0,0.1,0.1,0.2,0.1c0.1,0,0.3-0.1,0.4-0.2c0.2-0.1,0.4-0.2,0.7-0.4c0.3-0.1,0.6-0.3,1-0.4
			s0.8-0.2,1.3-0.2c0.3,0,0.6,0,0.9,0.1c0.3,0.1,0.5,0.2,0.6,0.4c0.2,0.2,0.3,0.3,0.4,0.6c0.1,0.2,0.1,0.4,0.1,0.7
			c0,0.3,0,0.5-0.1,0.8s-0.2,0.6-0.4,0.9s-0.4,0.7-0.8,1.1c-0.3,0.4-0.8,0.9-1.3,1.4l-2.7,2.6c-0.2,0.2-0.3,0.3-0.4,0.4
			c-0.1,0.1-0.2,0.3-0.2,0.4c-0.1,0.1-0.1,0.3-0.1,0.5s0,0.4,0,0.6c0,0.3,0,0.5,0.1,0.6c0,0.2,0.1,0.3,0.2,0.4
			c0.1,0.1,0.2,0.1,0.3,0.2c0.1,0,0.3,0,0.5,0h9c0.1,0,0.2,0,0.2-0.1c0.1,0,0.1-0.1,0.2-0.2c0-0.1,0.1-0.2,0.1-0.4
			c0-0.1,0-0.3,0-0.5s0-0.4,0-0.5C92,115.1,92,115,92,114.9z"/>
		<path class="st0" d="M103.9,104.6c-0.4-0.6-1-1.1-1.7-1.4s-1.6-0.5-2.7-0.5c-1.1,0-1.9,0.2-2.7,0.5c-0.7,0.3-1.3,0.8-1.8,1.5
			c-0.5,0.6-0.8,1.4-1,2.3s-0.3,1.9-0.3,3s0.1,2.1,0.2,3c0.2,0.9,0.5,1.6,0.9,2.3c0.4,0.6,1,1.1,1.7,1.4s1.6,0.5,2.7,0.5
			s2-0.2,2.7-0.5s1.3-0.8,1.8-1.5c0.5-0.6,0.8-1.4,1-2.3s0.3-1.9,0.3-3s-0.1-2.1-0.2-3C104.6,106,104.3,105.2,103.9,104.6z
			 M101.8,111.5c0,0.5-0.1,0.9-0.2,1.2c-0.1,0.4-0.2,0.7-0.3,1s-0.3,0.5-0.5,0.7s-0.4,0.3-0.6,0.4c-0.2,0.1-0.5,0.1-0.8,0.1
			c-0.4,0-0.8-0.1-1.1-0.2c-0.3-0.2-0.5-0.4-0.7-0.8s-0.3-0.9-0.4-1.6c-0.1-0.7-0.1-1.5-0.1-2.5c0-0.8,0-1.5,0.1-2.1
			s0.2-1.1,0.4-1.5s0.4-0.7,0.7-0.9c0.3-0.2,0.7-0.3,1.2-0.3c0.3,0,0.5,0,0.8,0.1c0.2,0.1,0.4,0.2,0.6,0.3c0.2,0.2,0.3,0.4,0.5,0.6
			c0.1,0.3,0.2,0.6,0.3,1s0.1,0.8,0.2,1.3c0,0.5,0.1,1.1,0.1,1.8C101.8,110.6,101.8,111.1,101.8,111.5z"/>
		<path class="st0" d="M116.5,104.6c-0.4-0.6-1-1.1-1.7-1.4s-1.6-0.5-2.7-0.5s-1.9,0.2-2.7,0.5c-0.7,0.3-1.3,0.8-1.8,1.5
			c-0.5,0.6-0.8,1.4-1,2.3s-0.3,1.9-0.3,3s0.1,2.1,0.2,3c0.2,0.9,0.5,1.6,0.9,2.3c0.4,0.6,1,1.1,1.7,1.4s1.6,0.5,2.7,0.5
			c1.1,0,2-0.2,2.7-0.5s1.3-0.8,1.8-1.5c0.5-0.6,0.8-1.4,1-2.3s0.3-1.9,0.3-3s-0.1-2.1-0.2-3C117.2,106,116.9,105.2,116.5,104.6z
			 M114.4,111.5c0,0.5-0.1,0.9-0.2,1.2c-0.1,0.4-0.2,0.7-0.3,1s-0.3,0.5-0.5,0.7s-0.4,0.3-0.6,0.4s-0.5,0.1-0.8,0.1
			c-0.4,0-0.8-0.1-1.1-0.2c-0.3-0.2-0.5-0.4-0.7-0.8s-0.3-0.9-0.4-1.6c-0.1-0.7-0.1-1.5-0.1-2.5c0-0.8,0-1.5,0.1-2.1
			s0.2-1.1,0.4-1.5s0.4-0.7,0.7-0.9s0.7-0.3,1.2-0.3c0.3,0,0.5,0,0.8,0.1c0.2,0.1,0.4,0.2,0.6,0.3c0.2,0.2,0.3,0.4,0.5,0.6
			c0.1,0.3,0.2,0.6,0.3,1s0.1,0.8,0.2,1.3c0,0.5,0.1,1.1,0.1,1.8C114.4,110.6,114.4,111.1,114.4,111.5z"/>
		<path class="st0" d="M129.1,104.6c-0.4-0.6-1-1.1-1.7-1.4s-1.6-0.5-2.7-0.5s-1.9,0.2-2.7,0.5c-0.7,0.3-1.3,0.8-1.8,1.5
			c-0.5,0.6-0.8,1.4-1,2.3s-0.3,1.9-0.3,3s0.1,2.1,0.2,3c0.2,0.9,0.5,1.6,0.9,2.3c0.4,0.6,1,1.1,1.7,1.4s1.6,0.5,2.7,0.5
			c1.1,0,2-0.2,2.7-0.5s1.3-0.8,1.8-1.5c0.5-0.6,0.8-1.4,1-2.3s0.3-1.9,0.3-3s-0.1-2.1-0.2-3C129.8,106,129.5,105.2,129.1,104.6z
			 M126.9,111.5c0,0.5-0.1,0.9-0.2,1.2c-0.1,0.4-0.2,0.7-0.3,1s-0.3,0.5-0.5,0.7s-0.4,0.3-0.6,0.4s-0.5,0.1-0.8,0.1
			c-0.4,0-0.8-0.1-1.1-0.2c-0.3-0.2-0.5-0.4-0.7-0.8s-0.3-0.9-0.4-1.6c-0.1-0.7-0.1-1.5-0.1-2.5c0-0.8,0-1.5,0.1-2.1
			s0.2-1.1,0.4-1.5s0.4-0.7,0.7-0.9s0.7-0.3,1.2-0.3c0.3,0,0.5,0,0.8,0.1c0.2,0.1,0.4,0.2,0.6,0.3c0.2,0.2,0.3,0.4,0.5,0.6
			c0.1,0.3,0.2,0.6,0.3,1s0.1,0.8,0.2,1.3c0,0.5,0.1,1.1,0.1,1.8C127,110.6,127,111.1,126.9,111.5z"/>
		<path class="st0" d="M141.9,111.1c-0.3-0.3-0.6-0.6-1-0.8c-0.4-0.3-0.8-0.5-1.3-0.7c0.4-0.2,0.8-0.4,1.1-0.7
			c0.3-0.3,0.6-0.5,0.8-0.8c0.2-0.3,0.4-0.6,0.5-0.9c0.1-0.3,0.2-0.6,0.2-1c0-0.5-0.1-1-0.3-1.4c-0.2-0.4-0.5-0.8-0.9-1.1
			c-0.4-0.3-0.9-0.5-1.5-0.7c-0.6-0.2-1.4-0.2-2.2-0.2c-0.9,0-1.6,0.1-2.3,0.3c-0.7,0.2-1.2,0.4-1.7,0.8c-0.4,0.3-0.8,0.7-1,1.2
			s-0.3,1-0.3,1.5c0,0.4,0.1,0.7,0.2,1.1c0.1,0.3,0.3,0.6,0.5,0.9s0.5,0.5,0.8,0.8c0.3,0.2,0.7,0.5,1.1,0.7c-0.5,0.2-1,0.5-1.4,0.8
			s-0.7,0.5-1,0.8s-0.5,0.6-0.6,1c-0.1,0.3-0.2,0.7-0.2,1.1c0,0.6,0.1,1.1,0.3,1.6c0.2,0.4,0.6,0.8,1,1.1c0.5,0.3,1,0.5,1.7,0.7
			s1.5,0.2,2.3,0.2c0.9,0,1.8-0.1,2.5-0.3c0.7-0.2,1.3-0.4,1.8-0.8c0.5-0.3,0.8-0.8,1.1-1.3c0.2-0.5,0.4-1.1,0.4-1.7
			c0-0.4-0.1-0.8-0.2-1.1C142.4,111.7,142.2,111.4,141.9,111.1z M135.6,105.2c0.3-0.3,0.8-0.4,1.5-0.4c0.3,0,0.6,0,0.9,0.1
			s0.5,0.2,0.6,0.3c0.2,0.1,0.3,0.3,0.4,0.5c0.1,0.2,0.1,0.4,0.1,0.7c0,0.4-0.2,0.8-0.5,1.2s-0.8,0.7-1.4,1c-0.4-0.2-0.7-0.4-1-0.5
			c-0.3-0.2-0.5-0.3-0.7-0.5s-0.3-0.4-0.4-0.6c-0.1-0.2-0.1-0.4-0.1-0.6C135.1,105.8,135.3,105.5,135.6,105.2z M139,114.6
			c-0.4,0.3-1,0.5-1.8,0.5s-1.4-0.1-1.8-0.4s-0.6-0.7-0.6-1.3c0-0.3,0-0.5,0.1-0.7s0.2-0.4,0.4-0.6s0.4-0.4,0.7-0.6
			c0.3-0.2,0.6-0.4,1-0.5c0.4,0.2,0.8,0.4,1.1,0.6s0.6,0.4,0.8,0.6c0.2,0.2,0.4,0.4,0.5,0.6c0.1,0.2,0.2,0.5,0.2,0.7
			C139.6,113.9,139.4,114.3,139,114.6z"/>
	</g>
	<path class="st0" d="M76.5,49.8l-1.7-28.6H64.1L49,49.8h7.5l3.8-7.6h7.6v7.6H76.5z M62.7,37.6l5.2-10.3v10.3H62.7z"/>
</g>
</svg>
