<?xml version="1.0" encoding="utf-8"?>
<!-- Generator: Adobe Illustrator 19.1.0, SVG Export Plug-In . SVG Version: 6.00 Build 0)  -->
<svg version="1.1" id="Layer_1" xmlns="http://www.w3.org/2000/svg" xmlns:xlink="http://www.w3.org/1999/xlink" x="0px" y="0px"
	 viewBox="0 0 228.2 139.2" enable-background="new 0 0 228.2 139.2" xml:space="preserve">
<g>
	<path fill="#162C53" d="M153.5,68.2c0,0,0,17.3-15,20.6c0,0,26.2,4,32.8-16.7S153.5,68.2,153.5,68.2z"/>
	<g>
		<g>
			<path fill="#162C53" d="M37,139.2l-2.3-39H20l-20,39h11.2l5.1-10h9.2l-0.1,10H37z M19.4,123.2l6.4-12.4l-0.1,12.4H19.4z"/>
			<polygon fill="#162C53" points="40.5,139.2 48.8,100.2 59.8,100.2 53.9,129.2 67.9,129.2 65.8,139.2 			"/>
			<polygon fill="#162C53" points="69.6,139.2 77.8,100.2 102,100.2 100.5,107.2 88.4,107.2 86.4,116.2 97.7,116.2 96.2,123.2 
				85,123.2 83.7,129.2 97,129.2 94.9,139.2 			"/>
			<path fill="#162C53" d="M137.1,110.3c0.4-7.6-6.2-10-11.5-10s-15.3,0-15.3,0l-8.3,39h11l2.8-13h2.4c1.6,0,3.4,13,3.4,13h11.3
				c0,0-0.6-2.2-1.5-7.1c-0.9-4.9-3.9-9.6-3.9-9.6C130.7,121.6,136.7,117.9,137.1,110.3z M125.4,111.7c-1.3,5.1-7.3,4-7.3,4l1.7-8
				C119.8,107.7,126.7,106.6,125.4,111.7z"/>
			<path fill="#162C53" d="M134.3,139.2l2.6-10c0,0,1.7,0,3.4,0s3.2-0.2,4-3.8s5.3-25.2,5.3-25.2h11.5c0,0-5.3,25.1-6.3,29.7
				c-1,4.7-5.9,9.3-10.3,9.3S134.3,139.2,134.3,139.2z"/>
			<polygon fill="#162C53" points="65,93.2 72.7,57.2 83.2,57.2 77.7,84.2 90.5,84.2 88.5,93.2 			"/>
			<path fill="#162C53" d="M117.1,53.9c-6.5,0-18.7,2.4-21.3,21.7c-2.3,17.1,11,16.9,13.9,16.9c14.3,0,20.8-10.3,22-23.2
				C132.8,55.8,123.6,53.9,117.1,53.9z M119.6,72.9c-0.4,2.4-2.2,10.8-7.5,11.9c-2.1,0.4-7.2-0.1-5.6-8.1c1.6-8,3.8-15.4,9.8-15.6
				C122.3,60.8,120,70.5,119.6,72.9z"/>
			<polygon fill="#162C53" points="109.2,52.2 115.9,52.2 118.7,47.2 118.7,47.2 121.1,52.2 128.8,52.2 125.8,44.2 115.3,44.2 			
				"/>
			<path fill="#162C53" d="M59.6,93.2l-2.2-36H42.3l-18.6,36h10.7l5.1-10h9.9l-0.2,10H59.6z M42.6,77.2l7-13.7l-0.2,13.7H42.6z"/>
		</g>
		<circle fill="#162C53" cx="185.1" cy="43.1" r="43.1"/>
		<g>
			
				<text transform="matrix(1 0 0 1 155.7923 59.6765)" fill="#FFFFFF" font-family="'GloucesterMT-ExtraCondensed'" font-size="44.4325px">Chat</text>
		</g>
	</g>
</g>
</svg>
