<?xml version="1.0" encoding="utf-8"?>
<!-- Generator: Adobe Illustrator 19.1.0, SVG Export Plug-In . SVG Version: 6.00 Build 0)  -->
<svg version="1.1" id="Layer_1" xmlns="http://www.w3.org/2000/svg" xmlns:xlink="http://www.w3.org/1999/xlink" x="0px" y="0px"
	 viewBox="-245 201.8 228.2 139.2" enable-background="new -245 201.8 228.2 139.2" xml:space="preserve">
<g>
	<path fill="#162C53" d="M-91.5,270c0,0,0,17.3-15,20.6c0,0,26.2,4,32.8-16.7S-91.5,270-91.5,270z"/>
	<g>
		<g>
			<path fill="#162C53" d="M-208,341l-2.3-39H-225l-20,39h11.2l5.1-10h9.2l-0.1,10H-208z M-225.6,325l6.4-12.4l-0.1,12.4H-225.6z"/>
			<polygon fill="#162C53" points="-204.5,341 -196.2,302 -185.2,302 -191.1,331 -177.1,331 -179.2,341 			"/>
			<polygon fill="#162C53" points="-175.4,341 -167.2,302 -143,302 -144.5,309 -156.6,309 -158.6,318 -147.3,318 -148.8,325 
				-160,325 -161.3,331 -148,331 -150.1,341 			"/>
			<path fill="#162C53" d="M-107.9,312.1c0.4-7.6-6.2-10-11.5-10s-15.3,0-15.3,0l-8.3,39h11l2.8-13h2.4c1.6,0,3.4,13,3.4,13h11.3
				c0,0-0.6-2.2-1.5-7.1c-0.9-4.9-3.9-9.6-3.9-9.6C-114.3,323.4-108.3,319.7-107.9,312.1z M-119.6,313.5c-1.3,5.1-7.3,4-7.3,4l1.7-8
				C-125.2,309.5-118.3,308.4-119.6,313.5z"/>
			<path fill="#162C53" d="M-110.7,341l2.6-10c0,0,1.7,0,3.4,0s3.2-0.2,4-3.8c0.8-3.6,5.3-25.2,5.3-25.2h11.5c0,0-5.3,25.1-6.3,29.7
				c-1,4.7-5.9,9.3-10.3,9.3S-110.7,341-110.7,341z"/>
			<polygon fill="#162C53" points="-180,295 -172.3,259 -161.8,259 -167.3,286 -154.5,286 -156.5,295 			"/>
			<path fill="#162C53" d="M-127.9,255.7c-6.5,0-18.7,2.4-21.3,21.7c-2.3,17.1,11,16.9,13.9,16.9c14.3,0,20.8-10.3,22-23.2
				C-112.2,257.6-121.4,255.7-127.9,255.7z M-125.4,274.7c-0.4,2.4-2.2,10.8-7.5,11.9c-2.1,0.4-7.2-0.1-5.6-8.1s3.8-15.4,9.8-15.6
				C-122.7,262.6-125,272.3-125.4,274.7z"/>
			<polygon fill="#162C53" points="-135.8,254 -129.1,254 -126.3,249 -126.3,249 -123.9,254 -116.2,254 -119.2,246 -129.7,246 			
				"/>
			<path fill="#162C53" d="M-185.4,295l-2.2-36h-15.1l-18.6,36h10.7l5.1-10h9.9l-0.2,10H-185.4z M-202.4,279l7-13.7l-0.2,13.7
				H-202.4z"/>
		</g>
		<circle fill="#162C53" cx="-59.9" cy="244.9" r="43.1"/>
		<g>
			<g enable-background="new    ">
				<path fill="#FFFFFF" d="M-72.4,253.2c-0.1,2.7-0.8,4.8-2,6.4s-2.7,2.3-4.6,2.3c-2.7,0-4.8-1.5-6.5-4.4
					c-1.6-2.9-2.4-7.2-2.4-12.8c0-5.6,0.8-9.9,2.4-12.9c1.6-3,3.6-4.5,6.1-4.5c1,0,2.2,0.3,3.4,1c0.2,0.1,0.3,0.1,0.4,0.1
					c0.1,0,0.2-0.1,0.4-0.3c0.1-0.1,0.2-0.2,0.4-0.2h1.2c0.3,0,0.4,0.2,0.4,0.6v7.1c0,0.4-0.1,0.6-0.4,0.6h-1
					c-0.3,0-0.5-0.1-0.6-0.2s-0.3-0.6-0.4-1.3c-0.9-3.3-2-5-3.5-5c-0.9,0-1.5,0.4-2,1.3s-0.8,2.5-1.1,4.9c-0.2,2.4-0.4,4.9-0.4,7.3
					c0,5.4,0.3,9.4,0.9,11.9c0.6,2.5,1.7,3.8,3.2,3.8c1.8,0,3-2,3.6-6.1L-72.4,253.2z"/>
				<path fill="#FFFFFF" d="M-65.7,244.8v13.5c0,0.5,0.2,0.9,0.5,1.3c0.2,0.2,0.2,0.3,0.2,0.4v1.2c0,0.2-0.1,0.3-0.3,0.3h-5.4
					c-0.2,0-0.3-0.1-0.3-0.3V260c0-0.1,0.1-0.2,0.3-0.4c0.5-0.4,0.7-0.9,0.7-1.5v-26.5c0-0.8-0.3-1.3-0.9-1.6
					c-0.3-0.1-0.4-0.3-0.4-0.6v-1.1c0-0.3,0.2-0.4,0.5-0.4l5.1-0.2v14.8c1.4-1.2,2.7-1.8,4-1.8c2.4,0,3.6,1.4,3.6,4.3v13.4
					c0,0.4,0.2,0.9,0.6,1.4c0.2,0.2,0.3,0.4,0.3,0.5v0.9c0,0.2-0.1,0.3-0.3,0.3H-63c-0.2,0-0.3-0.1-0.3-0.3V260
					c0-0.1,0.1-0.2,0.2-0.3c0.4-0.3,0.6-0.7,0.6-1.1v-13.4c0-1-0.4-1.6-1.3-1.6C-64.5,243.6-65.1,244-65.7,244.8z"/>
				<path fill="#FFFFFF" d="M-48.5,248.4v-3c0-1.8-0.7-2.7-2.1-2.7c-0.5,0-0.7,0.2-0.7,0.5c0,0.1,0,0.3,0.1,0.5
					c0.2,0.4,0.3,0.8,0.3,1.1c0,0.6-0.2,1-0.5,1.4c-0.4,0.4-0.9,0.6-1.5,0.6c-0.7,0-1.3-0.2-1.7-0.6c-0.4-0.4-0.6-1-0.6-1.7
					c0-1.1,0.5-2.1,1.5-2.8s2.2-1.1,3.5-1.1c1.9,0,3.4,0.5,4.4,1.5s1.6,2.5,1.6,4.3v10.8c0,0.6,0.1,1,0.2,1.4
					c0.1,0.3,0.4,0.5,0.8,0.6c0.3,0.1,0.5,0.3,0.5,0.6v0.9c0,0.8-0.6,1.1-1.8,1.1c-1.6,0-2.7-0.8-3.3-2.3c-1.4,1.6-2.7,2.4-4,2.4
					c-1.2,0-2.2-0.5-3-1.5c-0.8-1-1.2-2.3-1.2-3.9C-56,252.4-53.5,249.7-48.5,248.4z M-48.5,250.7c-2,0.8-3.1,2.4-3.1,5
					c0,2,0.5,3,1.6,3c0.5,0,0.8-0.2,1.1-0.7c0.3-0.5,0.4-1,0.4-1.5V250.7z"/>
				<path fill="#FFFFFF" d="M-41,243.4h-0.8c-0.3,0-0.5-0.1-0.5-0.4v-1.1c0-0.3,0.2-0.6,0.5-0.8c0.4-0.3,0.7-0.6,0.8-1
					c0.1-0.4,0.2-1,0.2-1.9v-3.6c0-0.3,0.2-0.5,0.7-0.6l2.6-0.3c0.2,0,0.4,0,0.5,0c0.2,0,0.3,0.2,0.3,0.5v6.9h2.2
					c0.4,0,0.6,0.2,0.6,0.5v1.3c0,0.3-0.2,0.5-0.5,0.5h-2.3v13.2c0,1.4,0.4,2.1,1.3,2.1c0.2,0,0.4,0,0.7-0.1c0.2,0,0.3-0.1,0.4-0.1
					c0.3,0,0.4,0.1,0.5,0.3l0.3,1c0,0.1,0.1,0.2,0.1,0.2c0,0.3-0.5,0.7-1.4,1.2c-1,0.5-1.9,0.7-2.7,0.7c-2.3,0-3.4-1.4-3.4-4.2
					V243.4z"/>
			</g>
		</g>
	</g>
</g>
</svg>
