<?xml version="1.0" encoding="utf-8"?>
<!-- Generator: Adobe Illustrator 19.2.1, SVG Export Plug-In . SVG Version: 6.00 Build 0)  -->
<svg version="1.1" id="Layer_1" xmlns="http://www.w3.org/2000/svg" xmlns:xlink="http://www.w3.org/1999/xlink" x="0px" y="0px"
	 viewBox="0 0 297.8 117.8" style="enable-background:new 0 0 297.8 117.8;" xml:space="preserve">
<style type="text/css">
	.st0{fill:#172B53;stroke:#172B53;stroke-width:0.2;stroke-miterlimit:10;}
	.st1{fill:#172C53;}
</style>
<g>
	<g>
		<path class="st0" d="M174.3,111.1c-0.3,0.5-0.6,0.9-1,1.2c-0.4,0.3-0.9,0.6-1.4,0.8c-0.5,0.2-1,0.3-1.6,0.3
			c-0.6,0-1.1-0.1-1.5-0.3c-0.4-0.2-0.8-0.5-1.1-0.8c-0.3-0.3-0.5-0.8-0.6-1.2c-0.1-0.5-0.1-1,0-1.6l1.2-6.6
			c0.1-0.6,0.3-1.1,0.6-1.6s0.6-0.9,1-1.2c0.4-0.3,0.9-0.6,1.4-0.8c0.5-0.2,1-0.3,1.6-0.3s1.1,0.1,1.5,0.3c0.4,0.2,0.8,0.5,1.1,0.8
			c0.3,0.3,0.5,0.8,0.6,1.2s0.1,1,0,1.6l-1.2,6.6C174.8,110,174.6,110.6,174.3,111.1z M174.6,102.9c0.1-0.8,0-1.4-0.3-1.9
			c-0.3-0.5-0.9-0.8-1.7-0.8c-0.8,0-1.5,0.3-2,0.8c-0.5,0.5-0.8,1.2-1,1.9l-1.1,6.5c-0.1,0.8,0,1.4,0.3,1.9c0.3,0.5,0.9,0.8,1.7,0.8
			c0.8,0,1.5-0.3,2-0.8c0.5-0.5,0.8-1.2,1-1.9L174.6,102.9z"/>
		<path class="st0" d="M185.1,111c-0.3,0.5-0.7,0.9-1.1,1.3c-0.4,0.4-0.9,0.6-1.5,0.8c-0.5,0.2-1.1,0.3-1.7,0.3
			c-0.6,0-1.1-0.1-1.6-0.3c-0.5-0.2-0.9-0.5-1.2-0.8c-0.3-0.4-0.5-0.8-0.7-1.3c-0.1-0.5-0.1-1,0-1.6c0.1-0.8,0.5-1.5,1-2.1
			c0.5-0.6,1.1-1,1.8-1.4c-0.5-0.3-0.9-0.7-1.1-1.3c-0.2-0.5-0.3-1.1-0.2-1.9c0.1-0.6,0.3-1.1,0.6-1.5c0.3-0.5,0.6-0.9,1-1.2
			c0.4-0.3,0.9-0.6,1.4-0.8c0.5-0.2,1-0.3,1.6-0.3s1.1,0.1,1.5,0.3c0.4,0.2,0.8,0.4,1.1,0.8c0.3,0.3,0.5,0.7,0.6,1.2
			c0.1,0.5,0.1,1,0,1.5c-0.1,0.7-0.4,1.4-0.8,1.9c-0.4,0.5-0.9,0.9-1.6,1.3c0.5,0.3,1,0.8,1.3,1.4c0.3,0.6,0.4,1.3,0.2,2.1
			C185.6,109.9,185.4,110.5,185.1,111z M184.2,108.2c-0.1-0.3-0.2-0.6-0.4-0.9c-0.2-0.3-0.5-0.4-0.8-0.6c-0.3-0.1-0.7-0.2-1.1-0.2
			c-0.4,0-0.8,0.1-1.1,0.2c-0.4,0.1-0.7,0.3-1,0.6c-0.3,0.3-0.5,0.5-0.7,0.9c-0.2,0.3-0.3,0.7-0.4,1.1c-0.1,0.4-0.1,0.8,0,1.1
			c0.1,0.3,0.2,0.6,0.4,0.9c0.2,0.3,0.5,0.4,0.8,0.6c0.3,0.1,0.7,0.2,1.1,0.2s0.8-0.1,1.1-0.2c0.4-0.1,0.7-0.3,1-0.6
			c0.3-0.3,0.5-0.5,0.7-0.9c0.2-0.3,0.3-0.7,0.4-1.1C184.3,108.9,184.3,108.5,184.2,108.2z M184.7,100.9c-0.4-0.5-0.9-0.7-1.7-0.7
			c-0.7,0-1.4,0.2-1.9,0.7c-0.5,0.5-0.9,1.1-1,1.8c-0.1,0.8,0,1.4,0.4,1.8c0.4,0.5,0.9,0.7,1.7,0.7c0.7,0,1.4-0.2,1.9-0.7
			c0.5-0.5,0.9-1.1,1-1.8C185.2,102,185.1,101.4,184.7,100.9z"/>
		<path class="st0" d="M195.2,111.1c-0.3,0.5-0.6,0.9-1,1.2c-0.4,0.3-0.9,0.6-1.4,0.8c-0.5,0.2-1,0.3-1.6,0.3
			c-0.6,0-1.1-0.1-1.5-0.3c-0.4-0.2-0.8-0.5-1.1-0.8c-0.3-0.3-0.5-0.8-0.6-1.2c-0.1-0.5-0.1-1,0-1.6l1.2-6.6
			c0.1-0.6,0.3-1.1,0.6-1.6c0.3-0.5,0.6-0.9,1-1.2c0.4-0.3,0.9-0.6,1.4-0.8c0.5-0.2,1-0.3,1.6-0.3c0.6,0,1.1,0.1,1.5,0.3
			c0.4,0.2,0.8,0.5,1.1,0.8c0.3,0.3,0.5,0.8,0.6,1.2s0.1,1,0,1.6l-1.2,6.6C195.7,110,195.5,110.6,195.2,111.1z M195.5,102.9
			c0.1-0.8,0-1.4-0.3-1.9c-0.3-0.5-0.9-0.8-1.7-0.8c-0.8,0-1.5,0.3-2,0.8c-0.5,0.5-0.8,1.2-1,1.9l-1.1,6.5c-0.1,0.8,0,1.4,0.3,1.9
			c0.3,0.5,0.9,0.8,1.7,0.8c0.8,0,1.5-0.3,2-0.8c0.5-0.5,0.8-1.2,1-1.9L195.5,102.9z"/>
		<path class="st0" d="M205.6,111.1c-0.3,0.5-0.6,0.9-1,1.2c-0.4,0.3-0.9,0.6-1.4,0.8c-0.5,0.2-1,0.3-1.6,0.3
			c-0.6,0-1.1-0.1-1.5-0.3c-0.4-0.2-0.8-0.5-1.1-0.8c-0.3-0.3-0.5-0.8-0.6-1.2c-0.1-0.5-0.1-1,0-1.6l1.2-6.6
			c0.1-0.6,0.3-1.1,0.6-1.6c0.3-0.5,0.6-0.9,1-1.2c0.4-0.3,0.9-0.6,1.4-0.8c0.5-0.2,1-0.3,1.6-0.3s1.1,0.1,1.5,0.3
			c0.4,0.2,0.8,0.5,1.1,0.8c0.3,0.3,0.5,0.8,0.6,1.2c0.1,0.5,0.1,1,0,1.6l-1.2,6.6C206.1,110,205.9,110.6,205.6,111.1z M205.9,102.9
			c0.1-0.8,0-1.4-0.3-1.9c-0.3-0.5-0.9-0.8-1.7-0.8c-0.8,0-1.5,0.3-2,0.8c-0.5,0.5-0.8,1.2-1,1.9l-1.1,6.5c-0.1,0.8,0,1.4,0.3,1.9
			c0.3,0.5,0.9,0.8,1.7,0.8c0.8,0,1.5-0.3,2-0.8c0.5-0.5,0.8-1.2,1-1.9L205.9,102.9z"/>
		<path class="st0" d="M221,111.1c-0.3,0.5-0.6,0.9-1,1.2c-0.4,0.3-0.9,0.6-1.4,0.8c-0.5,0.2-1,0.3-1.6,0.3c-0.6,0-1.1-0.1-1.5-0.3
			c-0.4-0.2-0.8-0.5-1.1-0.8c-0.3-0.3-0.5-0.8-0.6-1.2c-0.1-0.5-0.1-1,0-1.6l1.2-6.6c0.1-0.6,0.3-1.1,0.6-1.6c0.3-0.5,0.6-0.9,1-1.2
			c0.4-0.3,0.9-0.6,1.4-0.8c0.5-0.2,1-0.3,1.6-0.3s1.1,0.1,1.5,0.3c0.4,0.2,0.8,0.5,1.1,0.8c0.3,0.3,0.5,0.8,0.6,1.2
			c0.1,0.5,0.1,1,0,1.6l-1.2,6.6C221.5,110,221.3,110.6,221,111.1z M221.3,102.9c0.1-0.8,0-1.4-0.3-1.9c-0.3-0.5-0.9-0.8-1.7-0.8
			c-0.8,0-1.5,0.3-2,0.8c-0.5,0.5-0.8,1.2-1,1.9l-1.1,6.5c-0.1,0.8,0,1.4,0.3,1.9c0.3,0.5,0.9,0.8,1.7,0.8c0.8,0,1.5-0.3,2-0.8
			c0.5-0.5,0.8-1.2,1-1.9L221.3,102.9z"/>
		<path class="st0" d="M223.6,113.2l0.2-1.3l6.9-7.1c0.3-0.3,0.6-0.7,0.8-1c0.2-0.3,0.3-0.7,0.4-1.1c0.1-0.8,0-1.4-0.3-1.9
			c-0.4-0.5-0.9-0.7-1.7-0.7c-0.3,0-0.7,0-1,0.1c-0.3,0.1-0.6,0.2-0.9,0.5c-0.3,0.2-0.5,0.5-0.7,0.8c-0.2,0.3-0.3,0.7-0.4,1.2h-1.4
			c0.1-0.6,0.3-1.1,0.6-1.5c0.3-0.5,0.6-0.9,1-1.2c0.4-0.3,0.9-0.6,1.4-0.8c0.5-0.2,1.1-0.3,1.7-0.3c0.6,0,1.1,0.1,1.6,0.3
			c0.4,0.2,0.8,0.4,1.1,0.8c0.3,0.3,0.5,0.7,0.6,1.2c0.1,0.5,0.1,1,0,1.6c-0.1,0.6-0.3,1.1-0.5,1.5c-0.3,0.4-0.6,0.9-1.1,1.4
			l-6.1,6.3h6.1l-0.2,1.3H223.6z"/>
		<path class="st0" d="M234,113.2l0.2-1.3l6.9-7.1c0.3-0.3,0.6-0.7,0.8-1c0.2-0.3,0.3-0.7,0.4-1.1c0.1-0.8,0-1.4-0.3-1.9
			c-0.4-0.5-0.9-0.7-1.7-0.7c-0.3,0-0.7,0-1,0.1c-0.3,0.1-0.6,0.2-0.9,0.5s-0.5,0.5-0.7,0.8c-0.2,0.3-0.3,0.7-0.4,1.2h-1.4
			c0.1-0.6,0.3-1.1,0.6-1.5c0.3-0.5,0.6-0.9,1-1.2c0.4-0.3,0.9-0.6,1.4-0.8c0.5-0.2,1.1-0.3,1.7-0.3c0.6,0,1.1,0.1,1.6,0.3
			c0.4,0.2,0.8,0.4,1.1,0.8c0.3,0.3,0.5,0.7,0.6,1.2c0.1,0.5,0.1,1,0,1.6c-0.1,0.6-0.3,1.1-0.5,1.5c-0.3,0.4-0.6,0.9-1.1,1.4
			L236,112h6.1l-0.2,1.3H234z"/>
		<path class="st0" d="M252.2,111.1c-0.3,0.5-0.6,0.9-1,1.2c-0.4,0.3-0.9,0.6-1.4,0.8c-0.5,0.2-1,0.3-1.6,0.3
			c-0.6,0-1.1-0.1-1.5-0.3c-0.4-0.2-0.8-0.5-1.1-0.8c-0.3-0.3-0.5-0.8-0.6-1.2c-0.1-0.5-0.1-1,0-1.6l1.2-6.6
			c0.1-0.6,0.3-1.1,0.6-1.6c0.3-0.5,0.6-0.9,1-1.2c0.4-0.3,0.9-0.6,1.4-0.8c0.5-0.2,1-0.3,1.6-0.3s1.1,0.1,1.5,0.3
			c0.4,0.2,0.8,0.5,1.1,0.8c0.3,0.3,0.5,0.8,0.6,1.2c0.1,0.5,0.1,1,0,1.6l-1.2,6.6C252.7,110,252.5,110.6,252.2,111.1z M252.5,102.9
			c0.1-0.8,0-1.4-0.3-1.9c-0.3-0.5-0.9-0.8-1.7-0.8c-0.8,0-1.5,0.3-2,0.8c-0.5,0.5-0.8,1.2-1,1.9l-1.1,6.5c-0.1,0.8,0,1.4,0.3,1.9
			c0.3,0.5,0.9,0.8,1.7,0.8c0.8,0,1.5-0.3,2-0.8c0.5-0.5,0.8-1.2,1-1.9L252.5,102.9z"/>
		<path class="st0" d="M262.7,111.1c-0.3,0.5-0.6,0.9-1,1.2c-0.4,0.3-0.9,0.6-1.4,0.8c-0.5,0.2-1,0.3-1.6,0.3
			c-0.6,0-1.1-0.1-1.5-0.3c-0.4-0.2-0.8-0.5-1.1-0.8c-0.3-0.3-0.5-0.8-0.6-1.2c-0.1-0.5-0.1-1,0-1.6l1.2-6.6
			c0.1-0.6,0.3-1.1,0.6-1.6c0.3-0.5,0.6-0.9,1-1.2c0.4-0.3,0.9-0.6,1.4-0.8c0.5-0.2,1-0.3,1.6-0.3c0.6,0,1.1,0.1,1.5,0.3
			c0.4,0.2,0.8,0.5,1.1,0.8c0.3,0.3,0.5,0.8,0.6,1.2c0.1,0.5,0.1,1,0,1.6l-1.2,6.6C263.1,110,262.9,110.6,262.7,111.1z M263,102.9
			c0.1-0.8,0-1.4-0.3-1.9c-0.3-0.5-0.9-0.8-1.7-0.8c-0.8,0-1.5,0.3-2,0.8c-0.5,0.5-0.8,1.2-1,1.9l-1.1,6.5c-0.1,0.8,0,1.4,0.3,1.9
			c0.3,0.5,0.9,0.8,1.7,0.8s1.5-0.3,2-0.8c0.5-0.5,0.8-1.2,1-1.9L263,102.9z"/>
		<path class="st0" d="M273.1,111.1c-0.3,0.5-0.6,0.9-1,1.2c-0.4,0.3-0.9,0.6-1.4,0.8c-0.5,0.2-1,0.3-1.6,0.3
			c-0.6,0-1.1-0.1-1.5-0.3c-0.4-0.2-0.8-0.5-1.1-0.8c-0.3-0.3-0.5-0.8-0.6-1.2c-0.1-0.5-0.1-1,0-1.6l1.2-6.6
			c0.1-0.6,0.3-1.1,0.6-1.6s0.6-0.9,1-1.2c0.4-0.3,0.9-0.6,1.4-0.8c0.5-0.2,1-0.3,1.6-0.3c0.6,0,1.1,0.1,1.5,0.3
			c0.4,0.2,0.8,0.5,1.1,0.8c0.3,0.3,0.5,0.8,0.6,1.2c0.1,0.5,0.1,1,0,1.6l-1.2,6.6C273.6,110,273.4,110.6,273.1,111.1z M273.4,102.9
			c0.1-0.8,0-1.4-0.3-1.9c-0.3-0.5-0.9-0.8-1.7-0.8c-0.8,0-1.5,0.3-2,0.8c-0.5,0.5-0.8,1.2-1,1.9l-1.1,6.5c-0.1,0.8,0,1.4,0.3,1.9
			c0.3,0.5,0.9,0.8,1.7,0.8c0.8,0,1.5-0.3,2-0.8c0.5-0.5,0.8-1.2,1-1.9L273.4,102.9z"/>
		<path class="st0" d="M283.8,111c-0.3,0.5-0.7,0.9-1.1,1.3c-0.4,0.4-0.9,0.6-1.5,0.8c-0.5,0.2-1.1,0.3-1.7,0.3s-1.1-0.1-1.6-0.3
			c-0.5-0.2-0.9-0.5-1.2-0.8c-0.3-0.4-0.5-0.8-0.7-1.3c-0.1-0.5-0.1-1,0-1.6c0.1-0.8,0.5-1.5,1-2.1c0.5-0.6,1.1-1,1.8-1.4
			c-0.5-0.3-0.9-0.7-1.1-1.3c-0.2-0.5-0.3-1.1-0.2-1.9c0.1-0.6,0.3-1.1,0.6-1.5c0.3-0.5,0.6-0.9,1-1.2c0.4-0.3,0.9-0.6,1.4-0.8
			c0.5-0.2,1-0.3,1.6-0.3c0.6,0,1.1,0.1,1.5,0.3c0.4,0.2,0.8,0.4,1.1,0.8c0.3,0.3,0.5,0.7,0.6,1.2c0.1,0.5,0.1,1,0,1.5
			c-0.1,0.7-0.4,1.4-0.8,1.9c-0.4,0.5-0.9,0.9-1.6,1.3c0.5,0.3,1,0.8,1.3,1.4c0.3,0.6,0.4,1.3,0.2,2.1
			C284.3,109.9,284.1,110.5,283.8,111z M282.9,108.2c-0.1-0.3-0.2-0.6-0.4-0.9c-0.2-0.3-0.5-0.4-0.8-0.6c-0.3-0.1-0.7-0.2-1.1-0.2
			c-0.4,0-0.8,0.1-1.1,0.2c-0.4,0.1-0.7,0.3-1,0.6c-0.3,0.3-0.5,0.5-0.7,0.9c-0.2,0.3-0.3,0.7-0.4,1.1c-0.1,0.4-0.1,0.8,0,1.1
			c0.1,0.3,0.2,0.6,0.4,0.9c0.2,0.3,0.5,0.4,0.8,0.6c0.3,0.1,0.7,0.2,1.1,0.2s0.8-0.1,1.1-0.2c0.4-0.1,0.7-0.3,1-0.6
			c0.3-0.3,0.5-0.5,0.7-0.9c0.2-0.3,0.3-0.7,0.4-1.1C283,108.9,283,108.5,282.9,108.2z M283.5,100.9c-0.4-0.5-0.9-0.7-1.7-0.7
			c-0.7,0-1.4,0.2-1.9,0.7c-0.5,0.5-0.9,1.1-1,1.8c-0.1,0.8,0,1.4,0.4,1.8c0.4,0.5,0.9,0.7,1.7,0.7c0.7,0,1.4-0.2,1.9-0.7
			c0.5-0.5,0.9-1.1,1-1.8C284,102,283.9,101.4,283.5,100.9z"/>
	</g>
	<g>
		<g>
			<path class="st1" d="M11.4,113.1l-0.6-3.3H4.3l-1.8,3.3H0.9l8-14.8h1.3l2.8,14.8H11.4z M9.2,100.5l-4.2,7.8h5.5L9.2,100.5z"/>
			<path class="st1" d="M19.9,117.6l1-5.8c-0.5,0.5-1,0.9-1.5,1.1c-0.5,0.2-1,0.3-1.6,0.3c-0.5,0-1-0.1-1.4-0.2
				c-0.4-0.2-0.7-0.4-0.9-0.7c-0.2-0.3-0.4-0.6-0.5-0.9c-0.1-0.3-0.2-0.7-0.2-1.1c0-0.4,0-0.8,0-1.2c0-0.4,0.1-0.8,0.2-1.2
				c0.1-0.4,0.2-0.8,0.3-1.2c0.1-0.4,0.2-0.8,0.4-1.2c0.2-0.4,0.3-0.7,0.6-1.1c0.2-0.3,0.5-0.6,0.8-0.9c0.3-0.3,0.7-0.5,1.2-0.7
				c0.5-0.2,0.9-0.2,1.5-0.2c0.6,0,1.1,0.1,1.5,0.3c0.4,0.2,0.8,0.5,1.2,1.1l0.2-1.2H24l-2.6,14.8H19.9z M21.7,106.5
				c0-0.5,0-0.9-0.1-1.2c-0.1-0.4-0.3-0.7-0.6-0.9s-0.7-0.3-1.3-0.3s-1,0.1-1.4,0.3s-0.7,0.5-0.9,0.9c-0.2,0.4-0.4,0.8-0.6,1.2
				c-0.1,0.5-0.3,1-0.4,1.5c-0.1,0.5-0.1,1-0.2,1.5c0,0.5,0,0.9,0.1,1.2c0.1,0.4,0.3,0.7,0.6,0.9c0.3,0.2,0.7,0.3,1.3,0.3
				c0.6,0,1-0.1,1.4-0.3c0.4-0.2,0.7-0.5,0.9-0.9c0.2-0.4,0.4-0.8,0.6-1.2c0.1-0.5,0.3-1,0.3-1.5C21.7,107.5,21.7,107,21.7,106.5z"
				/>
			<path class="st1" d="M31.7,113.1l0.2-1.1c-0.4,0.4-0.9,0.7-1.4,0.9c-0.5,0.2-1.1,0.3-1.7,0.3c-1.1,0-1.9-0.3-2.5-1
				c-0.3-0.4-0.5-0.8-0.6-1.3c-0.1-0.5-0.1-1,0-1.6l1.1-6.5h1.5l-1.1,6.3c-0.2,0.9-0.1,1.6,0.3,2c0.4,0.4,0.9,0.7,1.7,0.7
				c0.8,0,1.4-0.2,2-0.7c0.5-0.5,0.9-1.1,1.1-2l1.1-6.3H35l-1.8,10.2H31.7z"/>
			<path class="st1" d="M36.4,113.1l1.8-10.2h1.5l-1.8,10.2H36.4z M38.6,99.9l0.3-1.7h1.7l-0.3,1.7H38.6z"/>
			<path class="st1" d="M49,113.1h-1.3l-1.9-10.2h1.6l1.3,8.2l4.3-8.2h1.6L49,113.1z"/>
			<path class="st1" d="M62.1,110.2c-0.3,0.7-0.7,1.3-1.3,1.8c-0.4,0.4-0.9,0.6-1.4,0.8c-0.5,0.2-1.1,0.3-1.7,0.3s-1.2-0.1-1.6-0.3
				c-0.5-0.2-0.8-0.5-1.1-0.8c-0.2-0.3-0.4-0.6-0.5-0.9c-0.1-0.3-0.2-0.6-0.2-1c0-0.3,0-0.7,0-1.1c0-0.4,0.1-0.8,0.2-1.2
				c0.1-0.4,0.2-0.8,0.3-1.2c0.1-0.4,0.2-0.7,0.4-1.1c0.1-0.3,0.3-0.7,0.5-1c0.2-0.3,0.5-0.6,0.8-0.9c0.4-0.4,0.9-0.6,1.4-0.9
				c0.5-0.2,1.1-0.3,1.7-0.3s1.2,0.1,1.6,0.3c0.4,0.2,0.8,0.5,1.1,0.9c0.4,0.5,0.6,1.1,0.7,1.8c0,0.7,0,1.4-0.2,2.2
				C62.6,108.7,62.4,109.5,62.1,110.2z M61.4,107.1c0-0.3,0.1-0.6,0-0.9c0-0.3,0-0.5-0.1-0.8c-0.1-0.2-0.2-0.5-0.3-0.7
				c-0.4-0.5-1-0.7-1.7-0.7c-0.7,0-1.4,0.3-2,0.7c-0.2,0.2-0.4,0.4-0.6,0.7c-0.1,0.2-0.3,0.5-0.4,0.8c-0.1,0.3-0.2,0.6-0.3,0.9
				c-0.1,0.3-0.1,0.6-0.2,0.9c-0.1,0.3-0.1,0.6-0.1,0.9c0,0.3,0,0.6,0,0.9c0,0.3,0.1,0.5,0.1,0.8c0.1,0.2,0.2,0.5,0.3,0.6
				c0.4,0.5,1,0.7,1.7,0.7c0.7,0,1.4-0.2,2-0.7c0.2-0.2,0.4-0.4,0.5-0.6c0.2-0.2,0.3-0.5,0.4-0.8c0.1-0.3,0.2-0.6,0.3-0.9
				c0.1-0.3,0.1-0.6,0.2-0.9C61.3,107.7,61.4,107.4,61.4,107.1z"/>
			<path class="st1" d="M70.3,112.9c-0.5,0.2-1.2,0.3-1.9,0.3c-0.7,0-1.2-0.1-1.7-0.3c-0.5-0.2-0.9-0.5-1.3-1
				c-0.3-0.4-0.6-1-0.7-1.6c-0.1-0.7-0.1-1.4,0.1-2.3c0.2-0.9,0.4-1.6,0.7-2.3c0.3-0.7,0.8-1.2,1.2-1.6c0.5-0.4,1-0.8,1.6-1
				c0.6-0.2,1.2-0.3,1.9-0.3c0.7,0,1.3,0.1,1.8,0.3c0.5,0.2,0.9,0.6,1.3,1.2l-1.2,1c-0.3-0.4-0.6-0.7-0.9-0.9
				c-0.3-0.2-0.7-0.3-1.2-0.3c-0.5,0-1,0.1-1.4,0.3c-0.4,0.2-0.8,0.5-1.2,0.9c-0.3,0.3-0.5,0.7-0.7,1.1c-0.2,0.4-0.3,1-0.4,1.6
				c-0.1,0.7-0.2,1.2-0.1,1.6c0,0.4,0.1,0.8,0.3,1.1c0.2,0.4,0.5,0.7,0.9,0.9c0.4,0.2,0.8,0.3,1.3,0.3c0.5,0,0.9-0.1,1.3-0.3
				c0.4-0.2,0.8-0.5,1.3-0.9l0.8,1C71.4,112.2,70.8,112.6,70.3,112.9z"/>
			<path class="st1" d="M75.5,108.3c-0.2,1.1-0.1,2,0.3,2.6c0.4,0.6,1.1,0.9,2.1,0.9c0.6,0,1.1-0.1,1.5-0.3c0.4-0.2,0.9-0.5,1.3-0.9
				l0.9,0.9c-0.3,0.3-0.6,0.5-0.9,0.7c-0.3,0.2-0.6,0.4-0.9,0.5c-0.3,0.1-0.7,0.2-1,0.3c-0.4,0.1-0.8,0.1-1.2,0.1
				c-0.7,0-1.3-0.1-1.8-0.3c-0.5-0.2-0.9-0.5-1.2-1c-0.3-0.4-0.5-1-0.6-1.6c-0.1-0.7-0.1-1.4,0.1-2.3c0.3-1.7,0.9-2.9,1.8-3.9
				c0.9-0.9,2-1.4,3.3-1.4c1.3,0,2.3,0.4,2.9,1.3c0.6,0.9,0.7,2.1,0.5,3.6l-0.1,0.7H75.5z M81.1,106.7c0-0.2,0-0.3,0-0.4
				c0-0.1,0-0.2,0-0.4s0-0.2-0.1-0.4c-0.1-0.5-0.4-0.8-0.7-1.1c-0.4-0.3-0.8-0.4-1.4-0.4s-1,0.1-1.5,0.4c-0.5,0.3-0.9,0.7-1.1,1.1
				c-0.2,0.3-0.3,0.5-0.4,0.7c-0.1,0.2-0.2,0.5-0.3,1h5.4C81.1,107,81.1,106.8,81.1,106.7z M81.5,100.7L80,98.6l-2.3,2.2h-1.4
				l3.2-3.2h1.4l2,3.2H81.5z"/>
			<path class="st1" d="M91.6,113.1c-0.4,0-0.8-0.1-1.1-0.2c-0.3-0.1-0.5-0.3-0.7-0.6c-0.2-0.2-0.3-0.5-0.3-0.9
				c-0.1-0.3,0-0.7,0-1.1l1.1-6.3h-1.3l0.2-1.1h1.3l0.6-3.2h1.5l-0.6,3.2h2.2l-0.2,1.1H92l-1.1,6.2c-0.1,0.5,0,0.8,0.1,1.1
				c0.2,0.3,0.5,0.4,1,0.4h0.8l-0.2,1.3H91.6z"/>
			<path class="st1" d="M96.6,108.3c-0.2,1.1-0.1,2,0.3,2.6c0.4,0.6,1.1,0.9,2.1,0.9c0.6,0,1.1-0.1,1.5-0.3c0.4-0.2,0.9-0.5,1.3-0.9
				l0.9,0.9c-0.3,0.3-0.6,0.5-0.9,0.7c-0.3,0.2-0.6,0.4-0.9,0.5c-0.3,0.1-0.7,0.2-1,0.3c-0.4,0.1-0.8,0.1-1.2,0.1
				c-0.7,0-1.3-0.1-1.8-0.3c-0.5-0.2-0.9-0.5-1.2-1c-0.3-0.4-0.5-1-0.6-1.6c-0.1-0.7-0.1-1.4,0.1-2.3c0.3-1.7,0.9-2.9,1.8-3.9
				c0.9-0.9,2-1.4,3.3-1.4c1.3,0,2.3,0.4,2.9,1.3c0.6,0.9,0.7,2.1,0.5,3.6l-0.1,0.7H96.6z M102.2,106.7c0-0.2,0-0.3,0-0.4
				c0-0.1,0-0.2,0-0.4c0-0.1,0-0.2-0.1-0.4c-0.1-0.5-0.4-0.8-0.7-1.1c-0.4-0.3-0.8-0.4-1.4-0.4s-1,0.1-1.5,0.4
				c-0.5,0.3-0.9,0.7-1.1,1.1c-0.2,0.3-0.3,0.5-0.4,0.7c-0.1,0.2-0.2,0.5-0.3,1h5.4C102.2,107,102.2,106.8,102.2,106.7z"/>
			<path class="st1" d="M118.4,113.1l1.1-6.3c0.2-0.9,0.1-1.6-0.3-2c-0.4-0.4-0.9-0.7-1.7-0.7c-0.7,0-1.4,0.2-2,0.7
				s-0.9,1.1-1.1,1.9l-1.1,6.5h-1.5l1.1-6.3c0.2-0.9,0.1-1.6-0.3-2c-0.4-0.4-0.9-0.7-1.7-0.7c-0.8,0-1.4,0.2-2,0.7
				c-0.5,0.5-0.9,1.1-1.1,2l-1.1,6.3h-1.5l1.8-10.2h1.5l-0.2,1.1c0.4-0.4,0.9-0.7,1.4-0.9c0.5-0.2,1.1-0.3,1.7-0.3
				c0.7,0,1.3,0.1,1.8,0.4c0.5,0.3,0.8,0.7,1.1,1.3c1-1.1,2.2-1.7,3.7-1.7c0.6,0,1,0.1,1.5,0.2c0.4,0.2,0.8,0.4,1,0.7
				c0.6,0.7,0.8,1.7,0.6,2.8l-1.2,6.5H118.4z"/>
			<path class="st1" d="M130.9,113.1h-1.3l-1.9-10.2h1.6l1.3,8.2l4.3-8.2h1.6L130.9,113.1z"/>
			<path class="st1" d="M144,110.2c-0.3,0.7-0.7,1.3-1.3,1.8c-0.4,0.4-0.9,0.6-1.4,0.8c-0.5,0.2-1.1,0.3-1.7,0.3s-1.2-0.1-1.6-0.3
				c-0.4-0.2-0.8-0.5-1.1-0.8c-0.2-0.3-0.4-0.6-0.5-0.9c-0.1-0.3-0.2-0.6-0.2-1c0-0.3,0-0.7,0-1.1c0-0.4,0.1-0.8,0.2-1.2
				c0.1-0.4,0.2-0.8,0.3-1.2c0.1-0.4,0.2-0.7,0.4-1.1c0.1-0.3,0.3-0.7,0.5-1c0.2-0.3,0.5-0.6,0.8-0.9c0.4-0.4,0.9-0.6,1.4-0.9
				c0.5-0.2,1.1-0.3,1.7-0.3c0.6,0,1.2,0.1,1.6,0.3c0.4,0.2,0.8,0.5,1.1,0.9c0.4,0.5,0.6,1.1,0.7,1.8c0,0.7,0,1.4-0.2,2.2
				C144.5,108.7,144.3,109.5,144,110.2z M143.3,107.1c0-0.3,0.1-0.6,0-0.9c0-0.3,0-0.5-0.1-0.8c-0.1-0.2-0.2-0.5-0.3-0.7
				c-0.4-0.5-1-0.7-1.7-0.7c-0.7,0-1.4,0.3-2,0.7c-0.2,0.2-0.4,0.4-0.6,0.7c-0.1,0.2-0.3,0.5-0.4,0.8c-0.1,0.3-0.2,0.6-0.3,0.9
				c-0.1,0.3-0.1,0.6-0.2,0.9c-0.1,0.3-0.1,0.6-0.1,0.9c0,0.3,0,0.6,0,0.9c0,0.3,0.1,0.5,0.1,0.8c0.1,0.2,0.2,0.5,0.3,0.6
				c0.4,0.5,1,0.7,1.7,0.7c0.7,0,1.4-0.2,2-0.7c0.2-0.2,0.4-0.4,0.5-0.6c0.2-0.2,0.3-0.5,0.4-0.8c0.1-0.3,0.2-0.6,0.3-0.9
				c0.1-0.3,0.1-0.6,0.2-0.9C143.2,107.7,143.2,107.4,143.3,107.1z"/>
			<path class="st1" d="M145.5,113.1l0.2-1.3l7-7.6h-5.4l0.2-1.3h7.1l-0.2,1.3l-7.1,7.6h5.7l-0.2,1.3H145.5z"/>
			<path class="st1" d="M155.2,113.1l0.3-2h2l-0.3,2H155.2z"/>
		</g>
	</g>
	<path class="st1" d="M69.1,76.7l-2.4-13.5c-0.1-0.6-0.6-1-1.2-1H37.1c-0.5,0-0.9,0.3-1.1,0.7l-7.6,14.3c-0.2,0.4-0.6,0.7-1.1,0.7
		h-5c-1,0-1.6-1-1.1-1.9L57.4,9.3c0.2-0.4,0.6-0.7,1.1-0.7h4.4c0.6,0,1.1,0.4,1.2,1l12.7,66.5c0.1,0.8-0.4,1.5-1.2,1.5h-5.3
		C69.7,77.7,69.2,77.3,69.1,76.7z M57.4,22.5L40.6,53.9c-0.4,0.8,0.2,1.9,1.1,1.9H64c0.8,0,1.4-0.7,1.2-1.5l-5.5-31.4
		C59.5,21.7,57.9,21.4,57.4,22.5z"/>
	<path class="st1" d="M92.5,77.7c-4.2,0-7.1-1.2-8.6-3.6c-1.5-2.4-1.9-5.4-1.3-9.1l9.8-55.4c0.1-0.5,0.6-0.9,1.1-0.9h4.7
		c0.7,0,1.2,0.6,1.1,1.3l-9.7,54.7c-0.4,2.3-0.3,4.1,0.4,5.2c0.7,1.2,2.3,1.7,4.7,1.7h2.4c0.7,0,1.2,0.6,1.1,1.3l-0.7,3.8
		c-0.1,0.5-0.6,0.9-1.1,0.9H92.5z"/>
	<path class="st1" d="M139.6,64.3c-1.3,3.3-3.4,6.1-6.2,8.6c-2,1.7-4.2,3-6.6,4c-2.4,1-5.1,1.5-8,1.5c-2.9,0-5.4-0.5-7.5-1.5
		c-2.1-1-3.8-2.3-5.2-4c-1-1.2-1.8-2.6-2.2-4c-0.5-1.5-0.8-3-0.9-4.6c-0.1-1.6-0.1-3.2,0-5c0.1-1.7,0.4-3.6,0.7-5.4
		c0.3-1.8,0.7-3.6,1.2-5.4c0.5-1.8,1.1-3.5,1.8-5c0.7-1.6,1.5-3.1,2.5-4.6c1-1.5,2.2-2.8,3.7-4c2-1.7,4.2-3,6.6-4
		c2.4-1,5.1-1.5,8-1.5c2.9,0,5.4,0.5,7.5,1.5c2.1,1,3.8,2.3,5.2,4c2,2.5,3,5.3,3.2,8.6c0.2,3.3-0.1,6.7-0.7,10.4
		C141.9,57.6,140.9,61,139.6,64.3z M136.2,49.8c0.2-1.4,0.2-2.7,0.2-4c0-1.3-0.2-2.5-0.5-3.6c-0.3-1.1-0.8-2.1-1.5-3.1
		c-1.9-2.3-4.6-3.5-8.1-3.5c-3.4,0-6.5,1.2-9.2,3.5c-1.1,0.9-1.9,1.9-2.6,3.1c-0.7,1.1-1.3,2.3-1.8,3.6c-0.5,1.3-0.9,2.6-1.2,4
		c-0.3,1.4-0.6,2.7-0.8,4.1c-0.2,1.4-0.4,2.7-0.6,4.1c-0.2,1.4-0.2,2.7-0.2,4c0.1,1.3,0.2,2.5,0.5,3.7c0.3,1.2,0.8,2.2,1.6,3
		c1.9,2.3,4.6,3.5,8,3.5c3.5,0,6.6-1.2,9.3-3.5c1-0.8,1.8-1.8,2.6-3c0.7-1.2,1.3-2.4,1.8-3.7c0.5-1.3,0.9-2.6,1.2-4
		c0.3-1.4,0.6-2.7,0.8-4.1C135.8,52.5,136,51.2,136.2,49.8z"/>
	<path class="st1" d="M174.2,77.4l-1.2-7.1c-0.1-0.4-0.4-0.7-0.8-0.7h-13.4c-0.3,0-0.6,0.2-0.7,0.4l-4,7.6c-0.1,0.3-0.4,0.4-0.7,0.4
		h-4.7c-0.6,0-1-0.7-0.7-1.2l20.5-38c0.1-0.3,0.4-0.4,0.7-0.4h3.6c0.4,0,0.7,0.3,0.8,0.7l7,38c0.1,0.5-0.3,1-0.8,1H175
		C174.6,78,174.2,77.8,174.2,77.4z M171.8,63l-2.1-12.1c-0.1-0.8-1.2-1-1.6-0.2l-6.4,12.1c-0.3,0.6,0.1,1.2,0.7,1.2h8.5
		C171.5,64,171.9,63.5,171.8,63z"/>
	<path class="st1" d="M182.8,77.1l6.7-38c0.1-0.4,0.4-0.7,0.8-0.7h4.4c0.5,0,0.9,0.5,0.8,1l-5.6,32c-0.1,0.5,0.3,1,0.8,1h16.9
		c0.5,0,0.9,0.5,0.8,1l-0.7,4c-0.1,0.4-0.4,0.7-0.8,0.7h-23.3C183.1,78,182.7,77.6,182.8,77.1z"/>
	<path class="st1" d="M210.5,77.1l6.7-38c0.1-0.4,0.4-0.7,0.8-0.7h23.4c0.5,0,0.9,0.5,0.8,1l-0.7,4c-0.1,0.4-0.4,0.7-0.8,0.7h-17.6
		c-0.4,0-0.7,0.3-0.8,0.7l-1.7,9.5c-0.1,0.5,0.3,1,0.8,1h14.2c0.5,0,0.9,0.5,0.8,1l-0.7,4c-0.1,0.4-0.4,0.7-0.8,0.7h-14.8
		c-0.4,0-0.7,0.3-0.8,0.7l-1.7,9.8c-0.1,0.5,0.3,1,0.8,1h17c0.5,0,0.9,0.5,0.8,1l-0.7,4c-0.1,0.4-0.4,0.7-0.8,0.7h-23.4
		C210.8,78,210.4,77.6,210.5,77.1z"/>
	<path class="st1" d="M259.6,77.5L254.5,62c-0.1-0.3-0.4-0.6-0.8-0.6h-5.9c-0.4,0-0.7,0.3-0.8,0.7l-2.7,15.3
		c-0.1,0.4-0.4,0.7-0.8,0.7H239c-0.5,0-0.9-0.5-0.8-1l6.7-38c0.1-0.4,0.4-0.7,0.8-0.7h14.4c1.7,0,3.3,0.3,4.7,0.8
		c1.4,0.5,2.6,1.3,3.5,2.3c0.9,1,1.6,2.3,1.9,3.8c0.3,1.4,0.4,3.1,0,4.8c-0.5,3-1.8,5.4-3.7,7.3c-1.4,1.4-3.1,2.4-5,3.1
		c-0.4,0.2-0.7,0.6-0.5,1.1l5.2,15.4c0.2,0.5-0.2,1.1-0.8,1.1h-5.1C260,78,259.7,77.8,259.6,77.5z M256.7,55.7c2,0,3.6-0.5,5-1.5
		c1.3-1,2.2-2.4,2.5-4.5c0.3-2,0.1-3.4-0.8-4.3c-1-0.9-2.4-1.4-4.3-1.4h-8.3c-0.4,0-0.7,0.3-0.8,0.7l-1.8,10c-0.1,0.5,0.3,1,0.8,1
		H256.7z"/>
	<path class="st1" d="M277.3,78.4c-1.9,0-3.6-0.3-5-0.9c-1.4-0.6-2.7-1.6-3.7-2.9l-0.6-0.8l4.7-4.1l0.7,0.9c0.5,0.6,1,1.1,1.7,1.5
		c0.4,0.3,1.2,0.6,2.9,0.6c2.2,0,3.9-0.6,5.3-2c1.4-1.3,2.3-3.3,2.8-5.8l4.6-25.8c0.1-0.4,0.4-0.7,0.8-0.7h4.4c0.5,0,0.9,0.5,0.8,1
		l-4.7,26.4c-0.3,1.9-1,3.7-1.8,5.2c-0.9,1.6-2,2.9-3.3,4c-1.3,1.1-2.8,1.9-4.4,2.5C280.8,78.1,279.1,78.4,277.3,78.4z"/>
	<path class="st1" d="M162.6,16.8c-4.1-5-9.2-8.9-15.2-11.7c-5-2.3-10.5-3.7-16.5-4c-0.5,0-1.4,0-2.2-0.1c-0.8,0-1.5,0.7-1.5,1.5
		v2.3c0,0.8,0.6,1.5,1.4,1.5c0.9,0,2,0,2.6,0.1c5,0.4,9.7,1.5,13.9,3.5c5.2,2.4,9.7,5.9,13.3,10.2c1.9,2.4,3.5,5,4.8,7.7
		c0.3,0.7,1.1,1,1.8,0.8l2.2-0.8c0.8-0.3,1.2-1.2,0.8-2C166.8,22.7,164.9,19.6,162.6,16.8z"/>
	<path class="st1" d="M155.3,22.8c-3.2-3.9-7.2-6.9-11.9-9.1c-3.6-1.7-7.5-2.7-11.7-3c-0.7-0.1-1.9-0.1-2.9-0.1
		c-0.8,0-1.5,0.6-1.5,1.5v2.3c0,0.8,0.6,1.5,1.4,1.5c0.9,0,1.9,0.1,2.5,0.1c3.6,0.3,7,1.2,10,2.6c4,1.8,7.3,4.4,10,7.7
		c1.3,1.6,2.3,3.3,3.2,5.1c0.3,0.7,1.1,1,1.8,0.7l2.2-0.8c0.8-0.3,1.2-1.3,0.8-2C158.2,26.9,156.9,24.8,155.3,22.8z"/>
	<path class="st1" d="M148,28.8c-2.3-2.8-5.2-5-8.5-6.5c-2.4-1.1-5.1-1.8-8-2.2c-0.6-0.1-1.7-0.1-2.6-0.1c-0.8,0-1.5,0.6-1.5,1.5
		v2.3c0,0.8,0.6,1.4,1.4,1.5c0.8,0,1.8,0.1,2.4,0.1c2.3,0.3,4.3,0.8,6.1,1.7c2.7,1.2,4.9,3,6.7,5.1c0.6,0.8,1.2,1.6,1.6,2.4
		c0.4,0.6,1.1,0.9,1.8,0.6l2.2-0.8c0.8-0.3,1.2-1.3,0.8-2.1C149.7,31.2,148.9,30,148,28.8z"/>
	<path class="st1" d="M287.5,89H15.1c-0.5,0-0.8-0.5-0.6-0.9l1.5-2.9c0.1-0.2,0.3-0.3,0.6-0.3H288c0.4,0,0.7,0.4,0.6,0.8l-0.5,2.9
		C288,88.8,287.8,89,287.5,89z"/>
</g>
</svg>
