<?xml version="1.0" encoding="utf-8"?>
<!-- Generator: Adobe Illustrator 19.1.0, SVG Export Plug-In . SVG Version: 6.00 Build 0)  -->
<svg version="1.1" id="Layer_1" xmlns="http://www.w3.org/2000/svg" xmlns:xlink="http://www.w3.org/1999/xlink" x="0px" y="0px"
	 viewBox="0 0 907.9 948.6" enable-background="new 0 0 907.9 948.6" xml:space="preserve">
<g>
	<g>
		<path fill="#CDCCCC" d="M176.3,891.1l-25.8-65.7L123,891.1L176.3,891.1z M120.5,897.1l-12.4,31.4c-0.8,2.1-1,3.9-1,5.4
			c0,5.2,7.2,5.6,14.1,5.6h2.1v6l-41.5,0v-6c11.6,0,15.9-6.6,20-16.5l51.5-126.7h7.4l51.7,130c3.1,7.9,6.6,12.8,14.3,13.2h3.1v6
			l-52.9,0v-6h2.5c5.2,0,13.6-0.2,13.6-5.4c0-2.7-1-5.2-2.9-9.7l-11.2-27.3L120.5,897.1z"/>
		<path fill="#CDCCCC" d="M318.7,798.3v6l-6.2,0c-12.6,0-12.6,5-12.6,14.3v120.9l30,0c22.1,0,33.7-10.8,33.9-30.8h7.2v36.8l-107.1,0
			v-6h8.1c7.4,0,9.1-3.5,9.1-15.1l0-97.7c0-20.2-0.2-22.3-12-22.3H264v-6L318.7,798.3z"/>
		<path fill="#CDCCCC" d="M411.3,939.4h8.1c7.4,0,9.1-3.5,9.1-15.1l0-97.8c0-20.3-0.2-22.3-12-22.3h-5.2v-6l111.6,0v34.1h-7.2
			c0-19.8-10.7-28.1-30.2-28.1l-38.2,0l0,63.9l25.8,0c17.2,0,26.7-3.9,26.7-22.7h7.2l0,50.8h-7.2c0-19.6-12.4-22.1-22.3-22.1
			l-30.2,0v65.3l36,0c21.1,0,33.9-4.6,34.9-28.3h7.2l0,34.3l-114.1,0V939.4z"/>
		<path fill="#CDCCCC" d="M612.4,864.9h20c18.6,0,32-13,32-31.6c0-20.7-12.6-29.1-32.2-29.1l-19.8,0V864.9z M576.4,939.4h8.1
			c7.4,0,9.1-3.5,9.1-15.1l0-97.7c0-20.3-0.2-22.3-12-22.3h-5.2v-6l54.1,0c24,0,55.8,4.5,55.8,34.9c0,20.5-19.4,31.2-37.2,34.5v0.4
			c14.5,2.5,28.9,10.1,28.9,26.9V924c0,4.6,0,14.3,6.8,14.3c6.4,0,7.9-6,10.3-10.3l6.2,2.3c-4.3,9.5-11.2,18.4-22.7,18.4
			c-15.7,0-19.4-9.5-19.4-25.2l0-21.5c0-23.4-6.6-31-29.6-31l-17.4,0l0,50.4c0,14.9,0.6,18,10.7,18h6.4v6l-53.1,0V939.4z"/>
		<path fill="#CDCCCC" d="M728.3,908.5h7.2c0.6,19.4,6,34.1,23.3,34.1c19,0,20.9-17.2,20.9-32.2v-90.1c0-11.4,0-16.1-10.7-16.1h-8.1
			v-6l55.2,0v6h-7.6c-9.9,0-9.9,4.6-9.9,16.1l0,75.8c0,28.9-5.6,52.5-40.3,52.5c-10.1,0-20.3-1.2-30-5.8V908.5z"/>
		<path fill="#CDCCCC" d="M895.5,890.5c-6.8,0-12.4-5.6-12.4-12.4s5.6-12.4,12.4-12.4c6.8,0,12.4,5.6,12.4,12.4
			C907.9,885,902.3,890.5,895.5,890.5L895.5,890.5z"/>
		<path fill="#CDCCCC" d="M12.4,890.8c-6.8,0-12.4-5.6-12.4-12.4c0-6.8,5.6-12.4,12.4-12.4c6.9,0,12.4,5.6,12.4,12.4
			C24.8,885.2,19.3,890.8,12.4,890.8"/>
		<path fill="#CDCCCC" d="M495,48.9V36.2c0-10.1,8-18.3,17.9-18.3c9.9,0,17.9,8.2,17.9,18.3v12.7H495z M429.2,48.9V28.3
			C429.2,14.9,439.9,4,453,4c13.2,0,23.9,10.9,23.9,24.4v20.6H429.2z M375.8,48.9V36.2c0-10,7.9-18.1,17.7-18.1
			c9.8,0,17.7,8.1,17.7,18.1v12.6H375.8z M534.5,48.9V36.2c0-12.1-9.7-22-21.6-22c-11.9,0-21.6,9.9-21.6,22v12.7h-10.6V28.3
			c0-15.5-12.4-28.1-27.6-28.1c-15.2,0-27.6,12.6-27.6,28.1v20.6H415V36.2c0-12.1-9.6-21.9-21.5-21.9c-11.8,0-21.5,9.8-21.5,21.9
			v12.7h-8.8v3.8h8.8H415h10.5h55.2h10.6h43.2h8.3v-3.8H534.5z"/>
	</g>
	<path fill="#CDCCCC" d="M375.7,66.9h22.7V91h-22.7V66.9z M481.6,66.9h22.7V91h-22.7V66.9z M455.1,66.9h22.7V91h-22.7V66.9z
		 M424.9,91h-22.7V66.9h22.7V91z M428.7,66.9h22.7V91h-22.7V66.9z M530.8,91h-22.7V66.9h22.7V91z M534.5,91V66.9h8.3v-3.8H363.3v3.8
		h8.7V91h-28.3v3.8h221.1V91H534.5z"/>
	<rect x="52.4" y="589.5" fill="#CDCCCC" width="803.8" height="3.7"/>
	<path fill="#CDCCCC" d="M836,680.2H71.6v-65.3l764.4,0V680.2z M856.2,614.9v-3.7h-16.5v0H67.9v0H52.4v3.7h15.5v65.4H52.4v3.7h803.8
		v-3.7h-16.5v-65.4H856.2z"/>
	<rect x="52.4" y="698.3" fill="#CDCCCC" width="803.8" height="3.7"/>
	<rect x="52.4" y="716.4" fill="#CDCCCC" width="803.8" height="3.7"/>
	<rect x="52.4" y="734.4" fill="#CDCCCC" width="803.8" height="3.7"/>
	<path fill="#CDCCCC" d="M92.6,666.8h4.9v-38.4h-4.9V666.8z M100.9,670.2H89.1v-45.3h11.8V670.2z"/>
	<path fill="#CDCCCC" d="M122.5,666.8h10.7v-38.4h-10.7V666.8z M136.7,670.2H119v-45.3h17.6V670.2z"/>
	<path fill="#CDCCCC" d="M158.2,666.8H169v-38.4h-10.8V666.8z M172.4,670.2h-17.6v-45.3h17.6V670.2z"/>
	<path fill="#CDCCCC" d="M194,666.8h17.5v-38.4H194V666.8z M214.9,670.2h-24.4v-45.3h24.4V670.2z"/>
	<path fill="#CDCCCC" d="M236.4,666.8h23.7v-38.4h-23.7V666.8z M263.6,670.2H233v-45.3h30.6V670.2z"/>
	<path fill="#CDCCCC" d="M285.1,666.8h23.4v-38.4h-23.4V666.8z M312,670.2h-30.3v-45.3H312V670.2z"/>
	<path fill="#CDCCCC" d="M333.5,666.8h26.1v-38.4h-26.1V666.8z M363.1,670.2h-33v-45.3h33V670.2z"/>
	<path fill="#CDCCCC" d="M384.6,666.8h28.8v-38.4h-28.8V666.8z M416.8,670.2h-35.7v-45.3h35.7V670.2z"/>
	<path fill="#CDCCCC" d="M438.4,666.8h33.4v-38.4h-33.4V666.8z M475.2,670.2h-40.3v-45.3h40.3V670.2z"/>
	<path fill="#CDCCCC" d="M496.7,666.8h28.9v-38.4h-28.9V666.8z M529.1,670.2h-35.8v-45.3h35.8V670.2z"/>
	<path fill="#CDCCCC" d="M550.6,666.8H577v-38.4h-26.4V666.8z M580.5,670.2h-33.3v-45.3h33.3V670.2z"/>
	<path fill="#CDCCCC" d="M602,666.8h23.3v-38.4H602V666.8z M628.8,670.2h-30.2v-45.3h30.2V670.2z"/>
	<path fill="#CDCCCC" d="M650.3,666.8h23.8v-38.4h-23.8V666.8z M677.5,670.2h-30.7v-45.3h30.7V670.2z"/>
	<path fill="#CDCCCC" d="M699.1,666.8h17.4v-38.4h-17.4V666.8z M720,670.2h-24.3v-45.3H720V670.2z"/>
	<path fill="#CDCCCC" d="M741.5,666.8l10.8,0v-38.4h-10.8V666.8z M755.8,670.2l-17.7,0v-45.3h17.7V670.2z"/>
	<path fill="#CDCCCC" d="M777.3,666.8h10.8v-38.4h-10.8V666.8z M791.6,670.2h-17.7v-45.3h17.7V670.2z"/>
	<path fill="#CDCCCC" d="M813.2,666.8h4.8v-38.4h-4.8V666.8z M821.5,670.2h-11.8v-45.3h11.8V670.2z"/>
	<g>
		<path fill="#CDCCCC" d="M92.4,534.9c0-109.7,33.5-211.9,97-295.4c41.1-54.1,88.7-94,154-129.1H565c65.4,35.2,112.9,75,154,129.1
			c63.5,83.5,97,185.6,97,295.4v32.8H92.4V534.9z M819.8,567.8v-32.8c0-110.6-33.8-213.5-97.8-297.6
			c-41.6-54.7-89.6-94.9-155.7-130.4l-0.4-0.2H343l-0.9,0.2C276,142.4,228,182.6,186.5,237.3c-64,84.1-97.8,187.1-97.8,297.6v32.8
			H52.4v3.7h803.8v-3.7H819.8z"/>
	</g>
	<path fill="#CDCCCC" d="M368.7,523H537v-8.5H368.7V523z M540.8,526.9h-176v-16.2h176V526.9z"/>
	<path fill="#CDCCCC" d="M368.7,547.7H537v-8.5H368.7V547.7z M540.8,551.6h-176v-16.2h176V551.6z"/>
	<path fill="#CDCCCC" d="M581.2,521.9H689v-8.5H581.2V521.9z M692.9,525.8H577.3v-16.3h115.6V525.8z"/>
	<path fill="#CDCCCC" d="M581.2,547.7H689v-8.5H581.2V547.7z M692.9,551.6H577.3v-16.3h115.6V551.6z"/>
	<path fill="#CDCCCC" d="M734.6,521.8h59.1v-8.4h-59.1V521.8z M797.7,525.8h-67v-16.3h67V525.8z"/>
	<path fill="#CDCCCC" d="M734.6,547.7h59.1v-8.4h-59.1V547.7z M797.7,551.6h-67v-16.3h67V551.6z"/>
	<path fill="#CDCCCC" d="M216.6,521.9h107.8v-8.5H216.6V521.9z M328.3,525.8H212.7v-16.3h115.6V525.8z"/>
	<path fill="#CDCCCC" d="M216.6,547.7h107.8v-8.5H216.6V547.7z M328.3,551.6H212.7v-16.3h115.6V551.6z"/>
	<path fill="#CDCCCC" d="M112.7,521.8H171v-8.4h-58.3V521.8z M174.9,525.8h-66.2v-16.3h66.2V525.8z"/>
	<path fill="#CDCCCC" d="M112.7,547.7H171v-8.4h-58.3V547.7z M174.9,551.6h-66.2v-16.3h66.2V551.6z"/>
	<g>
		<path fill="#CDCCCC" d="M504.4,489.6c0.2-8.4,0.3-16.4,0.3-24.1h31.1c0,8.5-0.1,16.5-0.3,24.1H504.4z M368.2,465.5h27.6
			c0,8.2,0.1,16.3,0.3,24.1h-27.6C368.3,482,368.2,474.1,368.2,465.5 M422.8,157.7h14.1c-2.1,8-4.2,16.1-6.1,24.1H415
			C417.5,173.9,420.1,165.8,422.8,157.7 M487.4,181.9h-16c-2-8.1-4-16.1-6.1-24.1h14.3C482.3,165.9,484.9,173.9,487.4,181.9
			 M453.1,461.7v-24.1h47.5c0.2,8,0.3,16.1,0.3,24.1H453.1z M400,437.5h49.3v24.1h-49.6C399.7,453.6,399.8,445.6,400,437.5
			 M397.2,409.5c-0.4,8.1-0.7,16.1-0.9,24.1h-27.5c0.3-8,0.7-16.1,1.2-24.1H397.2z M398.9,381.6c-0.6,8.1-1.1,16.1-1.5,24.1h-27
			c0.6-8,1.3-16.1,2.1-24.1H398.9z M401.3,353.6c-0.8,8.1-1.5,16.1-2.1,24.1h-26.3c0.8-8,1.8-16.1,2.9-24.1H401.3z M404.4,325.6
			c-1,8.1-1.9,16.1-2.7,24.1h-25.4c1.1-8,2.4-16.1,3.7-24.1H404.4z M408.1,297.6c-1.2,8-2.3,16.1-3.3,24.1h-24.2
			c1.4-8,2.8-16.1,4.4-24.1H408.1z M412.5,269.6c-1.4,8.1-2.7,16.1-3.8,24.1h-22.8c1.6-8,3.4-16.1,5.2-24.1H412.5z M417.6,241.7
			c-1.6,8.1-3,16.1-4.4,24.1h-21.3c1.9-8,3.8-16,5.9-24.1H417.6z M423.4,213.7c-1.8,8-3.4,16.1-5,24.1h-19.6
			c2.1-8,4.3-16.1,6.6-24.1H423.4z M424.2,209.9h-17.7c2.3-8,4.7-16.1,7.2-24.1h16.1C427.9,193.8,426,201.8,424.2,209.9
			 M449.3,185.7v24.1h-21.1c1.8-8,3.7-16.1,5.6-24.1H449.3z M449.3,181.9h-14.6c2-8.1,4-16.1,6.1-24.1h8.4V181.9z M453.1,181.9
			v-24.1h8.2c2.1,8,4.2,16.1,6.1,24.1H453.1z M473.9,209.9h-20.8v-24.1h15.3C470.3,193.7,472.2,201.8,473.9,209.9 M483.5,237.8
			c-1.5-8.1-3.1-16.1-4.8-24.1h18.4c2.4,8.1,4.6,16.2,6.8,24.1H483.5z M488.5,265.8c-1.3-8.1-2.8-16.1-4.3-24.1h20.6
			c2.2,8.1,4.2,16.2,6.1,24.1H488.5z M492.8,293.8c-1.1-8.1-2.3-16.1-3.6-24.1h22.7c1.9,8.1,3.7,16.2,5.4,24.1H492.8z M496.5,321.8
			c-0.9-8.1-2-16.1-3.1-24.1h24.8c1.7,8.1,3.2,16.2,4.7,24.1H496.5z M499.4,349.7c-0.8-8.1-1.6-16.1-2.5-24.1h26.5
			c1.4,8.1,2.7,16.2,3.9,24.1H499.4z M501.7,377.7c-0.6-8.1-1.2-16.1-2-24.1h28.2c1.2,8.1,2.2,16.1,3.1,24.1H501.7z M503.4,405.7
			c-0.4-8.1-0.9-16.1-1.4-24.1h29.4c0.9,8.1,1.6,16.1,2.2,24.1H503.4z M503.5,409.5h30.4c0.6,8.1,1,16.1,1.3,24.1h-30.9
			C504.2,425.6,503.9,417.6,503.5,409.5 M453.1,409.5h46.6c0.4,8,0.6,16.1,0.8,24.1h-47.4V409.5z M449.3,409.5v24.1h-49.2
			c0.2-8,0.5-16.1,0.9-24.1H449.3z M449.3,381.6v24.1h-48.1c0.4-8,1-16.1,1.5-24.1H449.3z M449.3,353.6v24.1H403
			c0.6-8,1.3-16.1,2.1-24.1H449.3z M449.3,325.6v24.1h-43.8c0.8-8,1.7-16.1,2.7-24.1H449.3z M449.3,297.6v24.1h-40.6
			c1-8,2.1-16.1,3.3-24.1H449.3z M449.3,269.6v24.1h-36.7c1.2-8,2.5-16.1,3.9-24.1H449.3z M449.3,241.7v24.1h-32.2
			c1.4-8,2.9-16.1,4.4-24.1H449.3z M449.3,237.8h-27c1.6-8,3.2-16.1,5-24.1h22V237.8z M453.1,237.8v-24.1h21.6
			c1.7,8,3.3,16.1,4.9,24.1H453.1z M453.1,265.8v-24.1h27.2c1.5,8,3,16.1,4.3,24.1H453.1z M453.1,293.8v-24.1h32.2
			c1.3,8,2.5,16.1,3.7,24.1H453.1z M453.1,321.8v-24.1h36.4c1.1,8,2.2,16.1,3.1,24.1H453.1z M453.1,349.7v-24.1h40
			c0.9,8,1.7,16.1,2.5,24.1H453.1z M498.1,381.6c0.5,8,1,16.1,1.4,24.1h-46.4v-24.1H498.1z M453.1,377.7v-24.1h42.8
			c0.7,8,1.4,16.1,2,24.1H453.1z M496,209.9h-18.1c-1.7-8.1-3.6-16.1-5.5-24.1h16.3C491.2,193.9,493.6,201.9,496,209.9 M368.2,461.7
			c0-8,0.2-16.1,0.5-24.1h27.5c-0.2,8.1-0.3,16.1-0.3,24.1H368.2z M400,489.6c-0.2-7.9-0.3-16-0.3-24.1h49.6v24.1H400z M453.1,489.6
			v-24.1h47.8c0,7.8-0.1,15.7-0.3,24.1H453.1z M504.7,461.7c0-8.1-0.1-16.1-0.3-24.1h30.9c0.3,8.1,0.5,16.1,0.5,24.1H504.7z
			 M482.9,155.6l-0.7-1.7h-62.2l-0.7,2c-37,109.6-55,210.2-55,307.4c0,9.8,0.1,18.7,0.4,27.1l0,3h174.5l0.1-1.9
			c0.3-8.9,0.4-18.2,0.4-28.4C539.7,368.4,521.7,270.7,482.9,155.6"/>
		<path fill="#CDCCCC" d="M300.5,181.8h-8.8c9-8.3,18.3-16.4,28.1-24.1l4.2,0C315.8,165.6,308.1,173.6,300.5,181.8 M156,489.6
			c0.8-8.1,1.6-16.1,2.6-24h15.3c-0.8,8-1.4,16-1.8,24H156z M115.7,465.5h13.4c-1.1,7.9-2,16-2.7,24h-13.5
			C113.6,481.5,114.6,473.5,115.7,465.5 M260.9,185.8h6.1c-8.1,7.7-15.7,15.8-23.1,24.1h-7C244.6,201.5,252.6,193.5,260.9,185.8
			 M293.8,157.8h5.5c-9.7,7.7-19,15.7-28,24.1h-6.2C274.3,173.5,283.9,165.5,293.8,157.8 M277.2,181.8c9.1-8.3,18.5-16.4,28.4-24.1
			l8.1,0c-9.7,7.7-18.9,15.7-27.7,24.1H277.2z M259.3,209.8h-10.2c7.6-8.3,15.5-16.3,23.7-24.1h8.9
			C273.9,193.5,266.5,201.5,259.3,209.8 M264.5,209.8c7.3-8.3,14.9-16.4,22.9-24.1h9.5c-7.1,7.9-14,15.8-20.5,24.1H264.5z
			 M242,237.8c6-8.3,12.5-16.3,19.2-24h12.3c-6.1,7.9-11.9,15.9-17.5,24H242z M223.6,265.8c5-8.2,10.2-16.3,15.7-24h14
			c-5.3,7.9-10.4,15.9-15.2,24H223.6z M208.1,293.7c4.1-8.2,8.6-16.2,13.2-24h14.6c-4.5,7.9-8.8,15.9-12.8,24H208.1z M195.3,321.7
			c3.4-8.2,7-16.2,10.8-24.1h15c-3.9,7.9-7.5,15.9-10.9,24.1H195.3z M184.8,349.7c2.8-8.2,5.8-16.2,9-24h14.7
			c-3.3,7.9-6.3,15.9-9.2,24H184.8z M176.1,377.7c2.3-8.2,4.7-16.2,7.4-24.1H198c-2.7,7.9-5.1,15.9-7.4,24.1H176.1z M169,405.6
			c1.8-8.2,3.8-16.2,5.9-24h14.6c-2.2,7.9-4.1,16-5.9,24H169z M163.4,433.6c1.4-8.1,3-16.2,4.7-24.1h14.6c-1.7,7.9-3.2,16-4.5,24.1
			H163.4z M162.7,437.6h14.9c-1.2,8-2.3,16-3.1,24.1h-15.3C160.2,453.5,161.3,445.4,162.7,437.6 M133.6,437.6
			c-1.5,7.9-2.8,16-3.9,24.1h-13.4c1.2-8.1,2.6-16.1,4.2-24.1H133.6z M139.7,409.6c-1.9,7.9-3.7,15.9-5.3,24.1h-13.1
			c1.7-8.1,3.6-16.1,5.7-24.1H139.7z M147.5,381.6c-2.4,7.9-4.7,15.9-6.7,24h-12.7c2.2-8.1,4.6-16.1,7.2-24H147.5z M157,353.6
			c-3,7.9-5.7,15.9-8.3,24.1h-12c2.8-8.1,5.7-16.1,8.9-24.1H157z M168.4,325.7c-3.5,7.9-6.9,15.9-10,24h-11.3
			c3.4-8.1,6.9-16.1,10.7-24H168.4z M182.2,297.7c-4.2,7.9-8.3,15.9-12,24.1h-10.3c4-8.2,8.2-16.2,12.7-24.1H182.2z M198.5,269.7
			c-5,7.9-9.7,15.9-14.2,24h-9.6c4.7-8.2,9.7-16.2,14.9-24H198.5z M217.6,241.7c-5.8,7.8-11.3,15.9-16.6,24h-8.7
			c5.6-8.2,11.4-16.2,17.4-24H217.6z M220.6,237.8h-7.7c6.5-8.2,13.3-16.2,20.4-24h7.1C233.5,221.6,226.8,229.5,220.6,237.8
			 M225.6,237.8c6.4-8.2,13.1-16.2,20-24h10.3c-6.5,7.8-12.8,15.8-18.7,24H225.6z M205.7,265.8c5.4-8.2,10.9-16.3,16.8-24h12.1
			c-5.4,7.8-10.6,15.8-15.5,24H205.7z M188.9,293.7c4.5-8.2,9.3-16.2,14.3-24h13.5c-4.6,7.8-8.9,15.8-13,24H188.9z M174.5,321.7
			c3.8-8.2,7.9-16.2,12.2-24.1h15.1c-3.8,7.8-7.3,15.9-10.7,24.1H174.5z M162.6,349.7c3.2-8.1,6.5-16.2,10.1-24h16.8
			c-3.1,7.9-6.1,15.9-8.9,24H162.6z M152.8,377.7c2.6-8.1,5.4-16.2,8.4-24.1h18.1c-2.6,7.9-5,15.9-7.3,24.1H152.8z M164,409.6
			c-1.7,7.9-3.2,15.9-4.6,24.1h-21c1.6-8.1,3.4-16.1,5.3-24.1H164z M144.8,405.6c2.1-8.1,4.3-16.1,6.8-24h19.3
			c-2.1,7.9-4.1,15.9-5.9,24H144.8z M154.6,465.5c-1,7.9-1.9,15.9-2.6,24h-21.7c0.8-8.1,1.6-16.1,2.7-24H154.6z M133.7,461.6
			c1.2-8.1,2.5-16.1,4-24.1h21.1c-1.3,7.9-2.5,15.9-3.6,24.1H133.7z M292.5,153.8l-0.5,0.4c-106,81.9-171,201.6-183.2,337.1
			l-0.2,2.1h67.3l0.1-1.9c6.7-130.6,59.8-245.9,153.6-333.7l4.8-4.1L292.5,153.8z"/>
	</g>
	<path fill="#CDCCCC" d="M313.1,142.7h21.3l4-4h-20.5L313.1,142.7z M335.9,146.4h-33.2l13.8-11.5h31L335.9,146.4z"/>
	<g>
		<path fill="#CDCCCC" d="M333.7,124.6h16.7c0.8-0.8,2.4-2.4,4-4h-15.9C337.7,121.2,336,122.6,333.7,124.6 M351.9,128.3h-28.6l4-3.3
			c5.7-4.8,9.3-7.8,9.3-7.8l0.5-0.4h26l-3,3.2c-2.5,2.7-7.7,7.8-7.7,7.8L351.9,128.3z"/>
		<path fill="#CDCCCC" d="M780.1,489.6c-0.8-8.1-1.6-16.1-2.7-24h13.4c1.1,8,2.1,16,2.9,24H780.1z M732.5,465.5h15.4
			c1,7.9,1.9,15.9,2.6,24h-16.1C733.9,481.5,733.3,473.5,732.5,465.5 M582.4,157.8l4.2,0c9.9,7.6,19.2,15.7,28.1,24.1h-8.8
			C598.3,173.6,590.6,165.6,582.4,157.8 M641.3,181.8h-6.2c-9-8.3-18.3-16.4-28-24.1h5.5C622.5,165.5,632.1,173.5,641.3,181.8
			 M669.6,209.8h-7c-7.4-8.2-15.1-16.3-23.1-24.1h6.1C653.8,193.5,661.9,201.5,669.6,209.8 M772.8,437.6h13.1c1.6,7.9,3,16,4.2,24.1
			h-13.4C775.6,453.5,774.3,445.5,772.8,437.6 M738.3,409.6c1.7,7.9,3.3,15.9,4.7,24.1h-14.8c-1.3-8.1-2.8-16.1-4.5-24.1H738.3z
			 M731.5,381.6c2.1,7.9,4.1,15.9,5.9,24h-14.6c-1.8-8.1-3.8-16.1-5.9-24H731.5z M723,353.6c2.6,7.9,5.1,15.9,7.4,24.1h-14.5
			c-2.3-8.1-4.7-16.1-7.4-24.1H723z M712.7,325.7c3.2,7.8,6.2,15.9,9,24h-14.5c-2.8-8.1-5.9-16.1-9.2-24H712.7z M700.3,297.7
			c3.8,7.8,7.4,15.9,10.8,24.1h-14.9c-3.4-8.1-7.1-16.1-10.9-24.1H700.3z M685.2,269.7c4.6,7.8,9,15.8,13.2,24h-14.9
			c-4.1-8.1-8.3-16.2-12.8-24H685.2z M667.2,241.7c5.5,7.8,10.7,15.8,15.7,24h-14.5c-4.8-8.2-9.9-16.2-15.2-24H667.2z M645.3,213.7
			c6.7,7.8,13.1,15.7,19.2,24h-14c-5.6-8.2-11.4-16.2-17.5-24H645.3z M641.9,209.8h-11.8c-6.5-8.2-13.4-16.2-20.5-24.1h9.5
			C627,193.5,634.6,201.5,641.9,209.8 M680.8,237.8h-11.6c-5.9-8.3-12.2-16.3-18.7-24h10.3C667.8,221.5,674.5,229.5,680.8,237.8
			 M705.4,265.8c-5.3-8.2-10.8-16.2-16.6-24h7.9c6.1,7.8,11.9,15.9,17.4,24H705.4z M722.1,293.7c-4.5-8.2-9.2-16.2-14.2-24h8.9
			c5.2,7.9,10.2,15.9,14.9,24H722.1z M736.3,321.7c-3.8-8.2-7.8-16.2-12-24.1h9.6c4.5,7.9,8.7,15.9,12.7,24.1H736.3z M748,349.7
			c-3.1-8.1-6.4-16.2-10-24h10.6c3.8,7.9,7.3,15.9,10.7,24H748z M757.7,377.7c-2.6-8.1-5.3-16.2-8.3-24.1h11.4
			c3.2,7.9,6.2,15.9,8.9,24.1H757.7z M765.7,405.6c-2.1-8.1-4.3-16.1-6.7-24h12.1c2.6,7.9,5,16,7.2,24H765.7z M766.7,409.6h12.7
			c2.1,7.9,4,16,5.7,24.1H772C770.4,425.5,768.6,417.5,766.7,409.6 M762.6,409.6c2,7.9,3.7,15.9,5.3,24.1h-21
			c-1.4-8.1-2.9-16.2-4.6-24.1H762.6z M754.8,381.6c2.4,7.9,4.7,15.9,6.8,24h-20.2c-1.8-8.2-3.8-16.2-5.9-24H754.8z M745.2,353.6
			c3,7.9,5.8,15.9,8.4,24.1h-19.2c-2.3-8.2-4.7-16.2-7.3-24.1H745.2z M733.7,325.7c3.6,7.9,6.9,15.9,10.1,24h-18
			c-2.8-8.2-5.7-16.2-8.9-24H733.7z M719.8,297.7c4.3,7.9,8.3,15.9,12.2,24.1h-16.6c-3.4-8.2-6.9-16.2-10.7-24.1H719.8z
			 M687.4,265.8c-4.9-8.2-10.1-16.3-15.5-24h12c5.9,7.8,11.4,15.9,16.8,24H687.4z M703.2,269.7c5,7.9,9.8,15.9,14.3,24h-14.8
			c-4.1-8.2-8.5-16.2-13-24H703.2z M693.6,237.8h-7.7c-6.3-8.3-12.9-16.2-19.8-24h7.1C680.3,221.5,687.1,229.6,693.6,237.8
			 M633.6,185.8c8.2,7.7,16.1,15.8,23.7,24.1h-10.2c-7.2-8.3-14.6-16.3-22.5-24.1H633.6z M620.5,181.8c-8.8-8.4-18.1-16.4-27.7-24.1
			l8.1,0c9.9,7.7,19.3,15.7,28.4,24.1H620.5z M728.9,437.6h14.9c1.3,7.9,2.5,15.9,3.6,24.1H732C731.2,453.5,730.1,445.5,728.9,437.6
			 M773.4,465.5c1.1,7.9,2,16,2.7,24h-21.7c-0.7-8.1-1.6-16.1-2.6-24H773.4z M751.3,461.6c-1.1-8.1-2.2-16.2-3.6-24.1h21.1
			c1.5,7.9,2.8,16,4,24.1H751.3z M797.7,491.4c-12.2-135.5-77.2-255.2-183.2-337.1l-0.5-0.4l-41.9,0l4.7,4.1
			c93.9,87.8,147.1,203.2,153.7,333.7l0.1,1.9h67.2L797.7,491.4z"/>
	</g>
	<path fill="#CDCCCC" d="M572,142.7h21.3l-4.8-4H568L572,142.7z M603.7,146.4h-33.2L558.8,135h31L603.7,146.4z"/>
	<g>
		<path fill="#CDCCCC" d="M556.1,124.6h16.7c-2.4-2-4-3.4-4.8-4h-15.9C553.7,122.2,555.3,123.8,556.1,124.6 M583.1,128.3h-28.6
			l-0.6-0.5c0,0-5.2-5.2-7.6-7.8l-3-3.2h26l0.5,0.4c0,0,3.5,3,9.3,7.8L583.1,128.3z"/>
		<path fill="#CDCCCC" d="M427.7,138.7c-0.4,1.3-0.8,2.7-1.2,4l48.7,0l-1.4-3.9L427.7,138.7z M421.3,146.4l0.8-2.4
			c0.8-2.5,1.6-5.1,2.4-7.7l0.4-1.4l51.6,0l4,11.4L421.3,146.4z"/>
		<path fill="#CDCCCC" d="M519.4,157.7c5.8,7.8,11.3,15.9,16.5,24.1h-14.1c-3.7-8.1-7.4-16.2-11.4-24.2L519.4,157.7z M573.9,181.9
			h-12.1c-6.2-8.3-12.7-16.3-19.5-24.1l11.6,0C560.9,165.6,567.5,173.7,573.9,181.9 M657.3,489.6c-0.5-8.2-1-16.2-1.7-24.1h29.5
			c0.8,8,1.4,16,1.9,24.1H657.3z M580.6,465.5h34.6c0.6,7.9,1.2,15.9,1.6,24.1h-36.3c0.1-5,0.2-10.3,0.2-15.2
			C580.7,471.4,580.6,468.5,580.6,465.5 M609.5,409.6c1,7.9,1.9,15.9,2.8,24.1h-32.6c-0.4-8.1-0.9-16.1-1.5-24.1H609.5z
			 M605.5,381.6c1.3,7.9,2.4,15.9,3.5,24.1h-31.1c-0.7-8.1-1.5-16.1-2.4-24.1H605.5z M600.5,353.6c1.5,7.9,3,15.9,4.3,24.1H575
			c-1-8.1-2.1-16.1-3.3-24.1H600.5z M594.4,325.6c1.9,7.8,3.7,15.9,5.3,24.1h-28.6c-1.3-8.1-2.7-16.1-4.2-24.1H594.4z M587,297.6
			c2.3,7.8,4.4,15.9,6.4,24.1h-27.3c-1.6-8.1-3.4-16.1-5.3-24.1H587z M578,269.7c2.8,7.8,5.4,15.8,7.9,24.1h-25.9
			c-2-8.1-4-16.1-6.3-24.1H578z M567.2,241.7c3.3,7.8,6.4,15.9,9.4,24.1h-24c-2.3-8.1-4.9-16.1-7.5-24.1H567.2z M554,213.7
			c4,7.8,7.9,15.8,11.5,24.1h-21.8c-2.7-8.1-5.6-16.1-8.6-24.1H554z M552,209.8h-18.5c-3.2-8.1-6.6-16.1-10.1-24.1h14.9
			C543.2,193.5,547.7,201.6,552,209.8 M596.8,237.8c-4.3-8.3-8.9-16.3-13.6-24.1H597c5.3,7.9,10.2,15.9,15.1,24.1H596.8z
			 M609.9,265.8c-3.5-8.2-7.2-16.3-11.2-24.1h15.7c4.6,7.9,9,15.9,13.2,24.1H609.9z M620.9,293.8c-2.9-8.2-6.1-16.2-9.4-24.1h18
			c3.9,7.9,7.6,16,11.2,24.1H620.9z M630.1,321.7c-2.4-8.2-5-16.3-7.7-24.1h20c3.4,7.9,6.6,16,9.6,24.1H630.1z M637.5,349.7
			c-2-8.2-4.1-16.2-6.4-24.1h22.3c2.9,7.9,5.6,16,8.2,24.1H637.5z M643.6,377.7c-1.6-8.2-3.3-16.2-5.2-24.1h24.4
			c2.4,7.9,4.6,16,6.7,24.1H643.6z M648.5,405.7c-1.3-8.2-2.6-16.2-4.1-24.1h26.1c2,8,3.8,16,5.4,24.1H648.5z M652.3,433.6
			c-1-8.2-2-16.2-3.2-24.1h27.6c1.6,8,3,16,4.2,24.1H652.3z M652.8,437.5h28.7c1.2,8,2.2,16,3.1,24.1h-29.4
			C654.5,453.5,653.7,445.4,652.8,437.5 M645.2,409.6c1.2,7.9,2.2,15.9,3.2,24.1h-32.2c-0.9-8.2-1.8-16.2-2.8-24.1H645.2z
			 M640.4,381.6c1.5,7.9,2.9,15.9,4.1,24.1h-31.6c-1.1-8.2-2.2-16.2-3.5-24.1H640.4z M634.4,353.6c1.9,7.9,3.6,15.9,5.2,24.1h-30.9
			c-1.3-8.2-2.8-16.2-4.3-24.1H634.4z M627.1,325.6c2.3,7.9,4.4,15.9,6.4,24.1h-29.9c-1.7-8.2-3.4-16.2-5.3-24.1H627.1z
			 M618.2,297.6c2.8,7.9,5.3,15.9,7.8,24.1h-28.6c-2-8.2-4.1-16.3-6.4-24.1H618.2z M607.3,269.7c3.3,7.9,6.5,15.9,9.5,24.1h-26.9
			c-2.4-8.3-5.1-16.2-7.8-24.1H607.3z M569.8,237.8c-3.6-8.3-7.4-16.3-11.4-24.1h20.2c4.8,7.8,9.4,15.8,13.7,24.1H569.8z
			 M594.4,241.7c4,7.8,7.7,15.9,11.3,24.1h-25c-3-8.2-6-16.3-9.3-24.1H594.4z M579.8,437.5h32.9c0.8,7.9,1.5,15.9,2.2,24.1h-34.4
			C580.4,453.5,580.2,445.5,579.8,437.5 M651.7,465.5c0.7,7.9,1.2,15.9,1.7,24.1h-32.6c-0.5-8.2-1-16.2-1.6-24.1H651.7z
			 M618.8,461.6c-0.7-8.2-1.4-16.2-2.2-24.1h32.3c0.9,7.9,1.7,15.9,2.4,24.1H618.8z M594.5,209.8h-13.7c-5.1-8.2-10.4-16.3-16-24.1
			h12.2C583,193.6,588.9,201.6,594.5,209.8 M540.5,181.9c-5.2-8.3-10.6-16.3-16.4-24.1l13.1,0c6.9,7.8,13.4,15.8,19.7,24.1H540.5z
			 M559.9,185.7c5.7,7.8,11.2,15.8,16.4,24.1h-19.8c-4.3-8.2-8.7-16.3-13.4-24.1H559.9z M576.6,493.5h114.5l-0.2-2.6
			c-7.6-129.7-54.1-245.9-134.5-336l-1-0.9l-51.4-0.1l1.4,2.8c47.3,93,71.3,199.9,71.3,317.7c0,5.4-0.1,11.3-0.2,17.1L576.6,493.5z"
			/>
	</g>
	<path fill="#CDCCCC" d="M495.6,124.6h33.3l-3.6-4h-31.7L495.6,124.6z M537.4,128.3h-44.1l-5.7-11.6H527L537.4,128.3z"/>
	<path fill="#CDCCCC" d="M504.1,142.7h39.1l-3.6-4h-37.5L504.1,142.7z M551.6,146.5h-49.9l-5.7-11.6h45.2L551.6,146.5z"/>
	<g>
		<path fill="#CDCCCC" d="M381.9,181.9h-14.1c5.2-8.3,10.7-16.4,16.5-24.1l9,0C389.3,165.6,385.6,173.7,381.9,181.9 M286.9,489.6
			c0.5-8.2,1-16.2,1.6-24.1h34.6c0,3-0.1,5.9-0.1,8.9c0,4.9,0.1,10.3,0.2,15.2H286.9z M218.7,465.5h29.5c-0.7,7.9-1.2,15.9-1.7,24.1
			h-29.7C217.2,481.5,217.9,473.5,218.7,465.5 M349.9,157.8l11.5,0c-6.8,7.8-13.3,15.8-19.5,24.1h-12.1
			C336.3,173.7,342.9,165.6,349.9,157.8 M346.8,181.9c6.3-8.3,12.8-16.4,19.7-24.1l13.1,0c-5.7,7.8-11.2,15.8-16.4,24.1H346.8z
			 M347.3,209.8h-19.8c5.2-8.3,10.6-16.3,16.4-24.1h16.9C356,193.5,351.6,201.6,347.3,209.8 M351.7,209.8
			c4.3-8.3,8.9-16.3,13.7-24.1h14.9c-3.5,8-6.9,16-10.1,24.1H351.7z M338.2,237.8c3.6-8.3,7.5-16.3,11.5-24.1h19
			c-3,7.9-5.9,16-8.6,24.1H338.2z M327.1,265.8c3-8.2,6.1-16.3,9.4-24.1h22.1c-2.6,8-5.2,16-7.5,24.1H327.1z M317.9,293.8
			c2.5-8.2,5.1-16.2,7.9-24.1h24.3c-2.2,8-4.3,16-6.3,24.1H317.9z M310.3,321.7c2-8.2,4.1-16.3,6.4-24.1h26.2
			c-1.9,8-3.7,16-5.3,24.1H310.3z M304,349.7c1.7-8.2,3.4-16.2,5.3-24.1h27.5c-1.5,8-2.9,16-4.2,24.1H304z M298.9,377.7
			c1.4-8.2,2.8-16.2,4.4-24.1H332c-1.2,8-2.3,16-3.3,24.1H298.9z M294.7,405.7c1.1-8.2,2.2-16.2,3.5-24.1h30c-0.9,8-1.7,16-2.4,24.1
			H294.7z M291.4,433.6c0.9-8.2,1.8-16.2,2.8-24.1h31.3c-0.6,8-1.1,16-1.5,24.1H291.4z M291,437.5h32.9c-0.4,8-0.6,16-0.7,24.1
			h-34.4C289.5,453.5,290.2,445.4,291,437.5 M250.9,437.5c-0.9,7.9-1.7,15.9-2.4,24.1h-29.4c0.9-8.1,1.9-16.1,3.1-24.1H250.9z
			 M254.6,409.6c-1.2,7.9-2.2,15.9-3.2,24.1h-28.6c1.2-8.1,2.7-16.1,4.2-24.1H254.6z M259.4,381.6c-1.5,7.9-2.9,15.9-4.1,24.1h-27.4
			c1.6-8.1,3.4-16.1,5.4-24.1H259.4z M265.3,353.6c-1.8,7.9-3.6,15.9-5.2,24.1h-26c2.1-8.1,4.3-16.2,6.7-24.1H265.3z M272.6,325.6
			c-2.3,7.9-4.4,15.9-6.3,24.1h-24.2c2.5-8.1,5.3-16.1,8.2-24.1H272.6z M281.3,297.6c-2.7,7.9-5.3,15.9-7.7,24.1h-21.9
			c3-8.1,6.3-16.2,9.6-24.1H281.3z M292.2,269.7c-3.3,7.9-6.5,15.9-9.4,24.1H263c3.6-8.1,7.3-16.2,11.2-24.1H292.2z M305,241.7
			c-3.9,7.8-7.6,15.9-11.2,24.1h-17.6c4.2-8.2,8.6-16.2,13.2-24.1H305z M311.4,237.8c4.3-8.3,8.9-16.3,13.7-24.1h20.2
			c-4,7.8-7.8,15.8-11.4,24.1H311.4z M298.1,265.8c3.6-8.2,7.3-16.3,11.3-24.1h23c-3.3,7.8-6.4,15.9-9.3,24.1H298.1z M286.9,293.8
			c3-8.2,6.1-16.2,9.5-24.1h25.2c-2.7,7.8-5.4,15.8-7.8,24.1H286.9z M277.7,321.7c2.4-8.2,5-16.3,7.8-24.1h27.2
			c-2.3,7.8-4.4,15.9-6.4,24.1H277.7z M270.2,349.7c2-8.2,4.1-16.2,6.4-24.1h28.8c-1.9,7.8-3.6,15.9-5.3,24.1H270.2z M264.1,377.7
			c1.6-8.2,3.3-16.2,5.2-24.1h30c-1.5,7.9-3,15.9-4.3,24.1H264.1z M290.3,409.6c-1,7.9-1.9,15.9-2.8,24.1h-32.2
			c1-8.2,2-16.2,3.2-24.1H290.3z M259.2,405.7c1.3-8.2,2.7-16.2,4.2-24.1h31c-1.3,7.9-2.4,15.9-3.5,24.1H259.2z M309.3,209.8
			c5.6-8.2,11.5-16.2,17.6-24.1H339c-5.6,7.8-10.9,15.9-16,24.1H309.3z M320.5,213.7c-4.7,7.8-9.3,15.8-13.6,24.1h-15.3
			c4.8-8.2,9.8-16.2,15.1-24.1H320.5z M284.6,465.5c-0.6,7.9-1.2,15.9-1.6,24.1h-32.6c0.5-8.1,1.1-16.2,1.7-24.1H284.6z
			 M252.4,461.6c0.7-8.2,1.5-16.2,2.4-24.1h32.3c-0.8,7.9-1.5,15.9-2.2,24.1H252.4z M399.7,153.8l-51.4,0.1l-1,0.9
			c-80.4,90.1-126.8,206.3-134.5,336l-0.2,2.6h112.6l2-0.5l0-2c-0.1-5.3-0.2-11.3-0.2-16.6c0-117.8,24-224.8,71.3-317.7L399.7,153.8
			z"/>
	</g>
	<path fill="#CDCCCC" d="M374.8,124.6h33.3l2-4h-31.7L374.8,124.6z M410.4,128.3h-44.1l10.4-11.6h39.4L410.4,128.3z"/>
	<path fill="#CDCCCC" d="M360.5,142.7h39.1l2-4h-37.5L360.5,142.7z M402,146.5h-49.9l10.4-11.6h45.2L402,146.5z"/>
	<path fill="#CDCCCC" d="M431.4,120.5c-0.4,1.4-0.8,2.7-1.2,4.1l40.4,0l-1.4-4L431.4,120.5z M425.1,128.3l0.8-2.4
		c0.8-2.5,1.6-5.2,2.4-7.8l0.4-1.3l43.3,0l4,11.5L425.1,128.3z"/>
</g>
</svg>
