<?xml version="1.0" encoding="utf-8"?>
<!-- Generator: Adobe Illustrator 19.1.0, SVG Export Plug-In . SVG Version: 6.00 Build 0)  -->
<svg version="1.1" id="Layer_1" xmlns="http://www.w3.org/2000/svg" xmlns:xlink="http://www.w3.org/1999/xlink" x="0px" y="0px"
	 viewBox="0 0 276.7 66.4" enable-background="new 0 0 276.7 66.4" xml:space="preserve">
<g>
	<path fill="#B7BBC5" d="M253.9,48.4C227.2,53,6.1,65.3,6.1,65.3L3.5,22.2L245.5,0C245.5,0,254,31.2,253.9,48.4z"/>
	<path fill="#E2E4E9" d="M244.4,45.4C207.3,56.6,5.8,66,5.8,66L0.6,21.3c0,0,112.2-8.1,137.8-10.3S245.5,0,245.5,0
		S250.2,31.2,244.4,45.4z"/>
</g>
<path fill="none" d="M27.3,50.6c0,0,129.5-9.1,200.2-17.8"/>
<text transform="matrix(0.9974 -7.235545e-02 7.235545e-02 0.9974 31.548 50.3407)"><tspan x="0" y="0" fill="#162C53" font-family="'DINCondensed-Bold'" font-size="20.9473px">S</tspan><tspan x="8.9" y="0" fill="#162C53" font-family="'DINCondensed-Bold'" font-size="20.9473px" rotate="-0.1">u</tspan><tspan x="17.5" y="0" fill="#162C53" font-family="'DINCondensed-Bold'" font-size="20.9473px" rotate="-0.1">a</tspan><tspan x="25.6" y="0" fill="#162C53" font-family="'DINCondensed-Bold'" font-size="20.9473px" rotate="-0.2"> </tspan><tspan x="30" y="0" fill="#162C53" font-family="'DINCondensed-Bold'" font-size="20.9473px" rotate="-0.2">h</tspan><tspan x="38.5" y="-0.1" fill="#162C53" font-family="'DINCondensed-Bold'" font-size="20.9473px" rotate="-0.3">i</tspan><tspan x="42.8" y="-0.1" fill="#162C53" font-family="'DINCondensed-Bold'" font-size="20.9473px" rotate="-0.3">s</tspan><tspan x="50.6" y="-0.1" fill="#162C53" font-family="'DINCondensed-Bold'" font-size="20.9473px" rotate="-0.4">t</tspan><tspan x="55.3" y="-0.2" fill="#162C53" font-family="'DINCondensed-Bold'" font-size="20.9473px" rotate="-0.4">ó</tspan><tspan x="63.5" y="-0.2" fill="#162C53" font-family="'DINCondensed-Bold'" font-size="20.9473px" rotate="-0.5">r</tspan><tspan x="69.7" y="-0.3" fill="#162C53" font-family="'DINCondensed-Bold'" font-size="20.9473px" rotate="-0.5">i</tspan><tspan x="74" y="-0.3" fill="#162C53" font-family="'DINCondensed-Bold'" font-size="20.9473px" rotate="-0.6">a</tspan><tspan x="82.2" y="-0.4" fill="#162C53" font-family="'DINCondensed-Bold'" font-size="20.9473px" rotate="-0.6"> </tspan><tspan x="86.5" y="-0.5" fill="#162C53" font-family="'DINCondensed-Bold'" font-size="20.9473px" rotate="-0.7">c</tspan><tspan x="94.7" y="-0.6" fill="#162C53" font-family="'DINCondensed-Bold'" font-size="20.9473px" rotate="-0.8">o</tspan><tspan x="102.8" y="-0.7" fill="#162C53" font-family="'DINCondensed-Bold'" font-size="20.9473px" rotate="-0.9">m</tspan><tspan x="115.7" y="-0.9" fill="#162C53" font-family="'DINCondensed-Bold'" font-size="20.9473px" rotate="-1"> </tspan><tspan x="120" y="-0.9" fill="#162C53" font-family="'DINCondensed-Bold'" font-size="20.9473px" rotate="-1.1">o</tspan><tspan x="128.2" y="-1.1" fill="#162C53" font-family="'DINCondensed-Bold'" font-size="20.9473px" rotate="-1.1"> </tspan><tspan x="132.4" y="-1.2" fill="#162C53" font-family="'DINCondensed-Bold'" font-size="20.9473px" rotate="-1.2">A</tspan><tspan x="141.4" y="-1.4" fill="#162C53" font-family="'DINCondensed-Bold'" font-size="20.9473px" rotate="-1.3">l</tspan><tspan x="145.7" y="-1.5" fill="#162C53" font-family="'DINCondensed-Bold'" font-size="20.9473px" rotate="-1.5">ô</tspan><tspan x="153.8" y="-1.7" fill="#162C53" font-family="'DINCondensed-Bold'" font-size="20.9473px" rotate="-1.6"> </tspan><tspan x="158.2" y="-1.8" fill="#162C53" font-family="'DINCondensed-Bold'" font-size="20.9473px" rotate="-1.7">A</tspan><tspan x="167.1" y="-2.1" fill="#162C53" font-family="'DINCondensed-Bold'" font-size="20.9473px" rotate="-1.9">l</tspan><tspan x="171.4" y="-2.2" fill="#162C53" font-family="'DINCondensed-Bold'" font-size="20.9473px" rotate="-2">e</tspan><tspan x="179.5" y="-2.5" fill="#162C53" font-family="'DINCondensed-Bold'" font-size="20.9473px" rotate="-2.3">r</tspan><tspan x="185.8" y="-2.8" fill="#162C53" font-family="'DINCondensed-Bold'" font-size="20.9473px" rotate="-2.5">j</tspan></text>
</svg>
