<?xml version="1.0" encoding="utf-8"?>
<!-- Generator: Adobe Illustrator 19.1.0, SVG Export Plug-In . SVG Version: 6.00 Build 0)  -->
<svg version="1.1" id="Layer_1" xmlns="http://www.w3.org/2000/svg" xmlns:xlink="http://www.w3.org/1999/xlink" x="0px" y="0px"
	 viewBox="0 0 75 75" enable-background="new 0 0 75 75" xml:space="preserve">
<g>
	<linearGradient id="SVGID_1_" gradientUnits="userSpaceOnUse" x1="37.5023" y1="-3.612990e-05" x2="37.5023" y2="74.7264">
		<stop  offset="0" style="stop-color:#42BCE8"/>
		<stop  offset="1" style="stop-color:#23A7DC"/>
	</linearGradient>
	<circle fill="url(#SVGID_1_)" cx="37.5" cy="37.5" r="37.5"/>
	<g>
		<path fill="#FFFFFF" d="M55.7,21.6l-6.7,33.8c0,0-0.9,2.3-3.5,1.2L30.1,44.7L24.5,42L15,38.8c0,0-1.5-0.5-1.6-1.6
			C13.3,36,15,35.4,15,35.4l37.6-14.8C52.7,20.7,55.7,19.3,55.7,21.6z"/>
		<path fill="#D2E5F1" d="M28.9,55c0,0-0.5,0-1-1.8C27.3,51.4,24.5,42,24.5,42l22.7-14.4c0,0,1.3-0.8,1.3,0c0,0,0.2,0.1-0.5,0.8
			C47.3,29,30.1,44.4,30.1,44.4"/>
		<path fill="#B5CFE4" d="M36,49.3l-6.1,5.6c0,0-0.5,0.4-1,0.1l1.2-10.4"/>
	</g>
</g>
</svg>
