<?xml version="1.0" encoding="utf-8"?>
<!-- Generator: Adobe Illustrator 19.1.0, SVG Export Plug-In . SVG Version: 6.00 Build 0)  -->
<svg version="1.1" id="Layer_1" xmlns="http://www.w3.org/2000/svg" xmlns:xlink="http://www.w3.org/1999/xlink" x="0px" y="0px"
	 viewBox="0 0 75 75" enable-background="new 0 0 75 75" xml:space="preserve">
<linearGradient id="SVGID_1_" gradientUnits="userSpaceOnUse" x1="0" y1="37.5" x2="75" y2="37.5" gradientTransform="matrix(0 1 -1 0 75 0)">
	<stop  offset="0" style="stop-color:#60FB7C"/>
	<stop  offset="1" style="stop-color:#06B825"/>
</linearGradient>
<path fill="url(#SVGID_1_)" d="M-0.1,60V15c0-8.3,6.7-15,15-15h45.1c8.3,0,15,6.7,15,15V60c0,8.3-6.7,15-15,15H14.9
	C6.6,75-0.1,68.3-0.1,60z"/>
<g>
	<g>
		<path fill="#FFFFFF" d="M57.4,17.7c-5.1-5.1-11.8-7.9-19-7.9c-14.8,0-26.9,12.1-26.9,26.9c0,4.7,1.2,9.4,3.6,13.4L11.3,64
			l14.3-3.6c3.9,2.1,8.4,3.4,12.9,3.4H38v-0.2c15,0,27.1-12.1,27.1-27C65.1,29.7,62.4,22.8,57.4,17.7z M38.3,59L38.3,59
			c-4,0-8-1-11.4-3.1l-0.8-0.5l-8.5,2.2l2.3-8.2l-0.5-0.8C17.2,45.1,16,41,16,36.7c0-12.3,10-22.3,22.4-22.3c6,0,11.6,2.3,15.8,6.6
			s6.5,9.8,6.5,15.8C60.7,49,50.7,59,38.3,59z M50.6,42.4c-0.7-0.3-4-2-4.6-2.2s-1.1-0.3-1.5,0.3c-0.4,0.7-1.7,2.2-2.1,2.6
			c-0.4,0.4-0.8,0.5-1.5,0.2s-2.8-1-5.4-3.3c-2-1.8-3.3-4-3.7-4.7c-0.4-0.7,0-1,0.3-1.4c0.3-0.3,0.7-0.8,1-1.2s0.4-0.7,0.7-1.1
			c0.2-0.4,0.1-0.8-0.1-1.2c-0.2-0.3-1.5-3.6-2.1-5c-0.5-1.3-1.1-1.1-1.5-1.2c-0.4,0-0.8,0-1.3,0c-0.4,0-1.2,0.2-1.8,0.8
			s-2.4,2.3-2.4,5.6s2.4,6.5,2.7,6.9c0.3,0.4,4.7,7.2,11.5,10.1c1.6,0.7,2.9,1.1,3.8,1.4c1.6,0.5,3.1,0.4,4.2,0.3
			c1.3-0.2,4-1.6,4.5-3.2c0.6-1.6,0.6-2.9,0.4-3.2C51.7,42.9,51.3,42.7,50.6,42.4z"/>
	</g>
</g>
</svg>
