<!-- Generator: Adobe Illustrator 19.1.0, SVG Export Plug-In  -->
<svg version="1.1"
	 xmlns="http://www.w3.org/2000/svg" xmlns:xlink="http://www.w3.org/1999/xlink" xmlns:a="http://ns.adobe.com/AdobeSVGViewerExtensions/3.0/"
	 x="0px" y="0px" width="59px" height="59px" viewBox="0 0 59 59" enable-background="new 0 0 59 59" xml:space="preserve">
<defs>
</defs>
<circle fill="#172B53" cx="29.5" cy="29.5" r="29.5"/>
<path fill="#03173A" d="M29,10.3c-6.3,0.1-11.8,3.2-15.2,7.9C12.9,19.5,7.2,27,0.7,35.9c2.9,12.9,14.2,22.6,27.9,23
	c7.8-8.6,14.3-16.2,15.7-18c2.6-3.3,4.1-7.5,4-12C48.1,18.5,39.5,10.1,29,10.3z M25.2,33c-0.9-0.9-1.4-1.7-1.6-2.5
	c2.5,0.8,4.5,2.5,5.9,4.7C28.3,35.2,26.9,34.7,25.2,33z M30.6,46.5c3.4-3.2,6.4-6.5,7-6.9c0.3-0.2,0.5-0.3,0.6-0.4
	c0.9-0.6,0.7-1.3,0.3-1.7c-0.2-0.2-1.2-1.1-2.1-2l3.8-4.2c0.2,0,0.4-0.2,0.3-0.4c-0.3-6.9-5.9-12.3-12.7-12.4
	c-0.2,0-0.4,0.2-0.4,0.4l-3.3,4.7c-0.9-0.9-2.8-2.8-3.2-3.1c-0.5-0.4-1-0.3-1.5,0.3c-0.1,0.1-0.2,0.3-0.3,0.5
	c-0.5,0.9-4.1,6.4-6.7,11.5c-0.2-1-0.3-2.1-0.4-3.2C11.9,20,19.5,12.2,29,12c9.5-0.1,17.3,7.5,17.5,17
	C46.6,38.2,39.6,45.8,30.6,46.5z"/>
<g>
	<path fill="#FFFFFF" d="M19.8,20.8c0.5-0.6,1-0.7,1.5-0.3c0.5,0.4,3.3,3.3,3.6,3.6c0.3,0.3,1,0.9,0.4,1.8s-3.2,3.6,0.2,7.3
		s6.2,2,6.9,1.4c0.8-0.5,1.5-1.4,2.4-0.5c0.9,0.9,3.4,3.3,3.8,3.7c0.4,0.4,0.6,1.1-0.3,1.7C37.4,40,34.9,42,30,39.8
		s-9.2-8-10.9-11.2S18.7,22,19.8,20.8z"/>
	<g>
		<path fill="#FFFFFF" d="M40.3,31.6h-1.2c-0.2,0-0.3-0.1-0.3-0.3c-0.2-5.8-4.8-10.5-10.7-10.7c-0.2,0-0.3-0.2-0.3-0.3V19
			c0-0.2,0.2-0.4,0.4-0.4c6.9,0.2,12.4,5.7,12.6,12.6C40.7,31.4,40.5,31.6,40.3,31.6z"/>
	</g>
	<g>
		<path fill="#FFFFFF" d="M36.9,31.6h-1.2c-0.2,0-0.3-0.1-0.3-0.3c-0.2-3.9-3.3-7.1-7.2-7.3c-0.2,0-0.3-0.2-0.3-0.3v-1.2
			c0-0.2,0.2-0.4,0.4-0.3c4.9,0.2,8.9,4.2,9.1,9.2C37.3,31.4,37.1,31.6,36.9,31.6z"/>
	</g>
	<g>
		<path fill="#FFFFFF" d="M33.6,31.6h-1.2c-0.2,0-0.3-0.1-0.3-0.3c-0.2-2.1-1.8-3.8-4-4c-0.2,0-0.3-0.2-0.3-0.3v-1.2
			c0-0.2,0.2-0.4,0.4-0.4c3.1,0.2,5.7,2.7,5.9,5.9C34,31.4,33.8,31.6,33.6,31.6z"/>
	</g>
</g>
<path fill="#FFFFFF" d="M29.5,10.5c-10.5,0-19,8.5-19,19c0,10.5,8.5,19,19,19s19-8.5,19-19C48.5,19,40,10.5,29.5,10.5z M29.5,46.7
	c-9.5,0-17.2-7.7-17.2-17.2S20,12.3,29.5,12.3S46.7,20,46.7,29.5S39,46.7,29.5,46.7z"/>
</svg>
