<!-- Generator: Adobe Illustrator 19.1.0, SVG Export Plug-In  -->
<svg version="1.1"
	 xmlns="http://www.w3.org/2000/svg" xmlns:xlink="http://www.w3.org/1999/xlink" xmlns:a="http://ns.adobe.com/AdobeSVGViewerExtensions/3.0/"
	 x="0px" y="0px" width="197.4px" height="59px" viewBox="0 0 197.4 59" enable-background="new 0 0 197.4 59" xml:space="preserve"
	>
<defs>
</defs>
<path fill="#172B53" d="M167.8,0H29.6C13.3,0,0,13.1,0,29.5S13.3,59,29.6,59h138.2c16.4,0,29.6-13.1,29.6-29.5
	C197.4,13.1,184.2,0,167.8,0z"/>
<path fill="#03173A" d="M167.9,10.5c-6.3,0-11.8,3-15.3,7.7c-1.8,2.4-20.7,26.9-30.1,40.8H167c7.8-8.4,14.4-15.9,15.7-17.6
	c2.6-3.3,4.2-7.4,4.2-11.9C186.9,19,178.4,10.5,167.9,10.5z M168.1,35.4c-1.2,0-2.6-0.6-4.2-2.3c-0.9-0.9-1.3-1.8-1.6-2.5
	C164.7,31.5,166.8,33.2,168.1,35.4z M169,46.7c3.4-3.1,6.5-6.5,7.1-6.8c0.3-0.2,0.5-0.3,0.6-0.4c0.9-0.6,0.7-1.3,0.3-1.7
	c-0.2-0.3-1.2-1.2-2.1-2.1l3.9-4.1c0.2,0,0.4-0.2,0.4-0.4c-0.2-6.9-5.7-12.4-12.6-12.6c-0.2,0-0.4,0.2-0.4,0.4l-3.3,4.7
	c-0.9-0.9-2.8-2.8-3.2-3.2c-0.5-0.4-1-0.3-1.5,0.3c-0.1,0.1-0.2,0.3-0.3,0.5c-0.5,0.9-4.2,6.4-6.9,11.5c-0.2-1-0.3-2.1-0.3-3.2
	c0-9.5,7.7-17.2,17.2-17.2c9.5,0,17.2,7.7,17.2,17.2C185.2,38.6,178,46.1,169,46.7z"/>
<g>
	<path fill="#FFFFFF" d="M158.2,20.8c0.5-0.6,1-0.7,1.5-0.3c0.5,0.4,3.3,3.3,3.6,3.6c0.3,0.3,1,0.9,0.4,1.8s-3.2,3.6,0.2,7.3
		s6.2,2,6.9,1.4c0.8-0.5,1.5-1.4,2.4-0.5c0.9,0.9,3.4,3.3,3.8,3.7c0.4,0.4,0.6,1.1-0.3,1.7c-0.9,0.6-3.4,2.5-8.3,0.3
		c-5-2.2-9.2-8-10.9-11.2S157.2,22,158.2,20.8z"/>
	<g>
		<path fill="#FFFFFF" d="M178.8,31.6h-1.2c-0.2,0-0.3-0.1-0.3-0.3c-0.2-5.8-4.8-10.5-10.7-10.7c-0.2,0-0.3-0.2-0.3-0.3V19
			c0-0.2,0.2-0.4,0.4-0.4c6.9,0.2,12.4,5.7,12.6,12.6C179.1,31.4,179,31.6,178.8,31.6z"/>
	</g>
	<g>
		<path fill="#FFFFFF" d="M175.3,31.6h-1.2c-0.2,0-0.3-0.1-0.3-0.3c-0.2-3.9-3.3-7.1-7.2-7.3c-0.2,0-0.3-0.2-0.3-0.3v-1.2
			c0-0.2,0.2-0.4,0.4-0.3c4.9,0.2,8.9,4.2,9.1,9.2C175.7,31.4,175.5,31.6,175.3,31.6z"/>
	</g>
	<g>
		<path fill="#FFFFFF" d="M172.1,31.6h-1.2c-0.2,0-0.3-0.1-0.3-0.3c-0.2-2.1-1.8-3.8-4-4c-0.2,0-0.3-0.2-0.3-0.3v-1.2
			c0-0.2,0.2-0.4,0.4-0.4c3.1,0.2,5.7,2.7,5.9,5.9C172.4,31.4,172.3,31.6,172.1,31.6z"/>
	</g>
</g>
<path fill="#FFFFFF" d="M167.9,10.5c-10.5,0-19,8.5-19,19c0,10.5,8.5,19,19,19c10.5,0,19-8.5,19-19C186.9,19,178.4,10.5,167.9,10.5z
	 M167.9,46.7c-9.5,0-17.2-7.7-17.2-17.2s7.7-17.2,17.2-17.2s17.2,7.7,17.2,17.2S177.4,46.7,167.9,46.7z"/>
</svg>
