<?xml version="1.0" encoding="utf-8"?>
<!-- Generator: Adobe Illustrator 17.1.0, SVG Export Plug-In . SVG Version: 6.00 Build 0)  -->
<!DOCTYPE svg PUBLIC "-//W3C//DTD SVG 1.1//EN" "http://www.w3.org/Graphics/SVG/1.1/DTD/svg11.dtd">
<svg version="1.1" id="Layer_1" xmlns="http://www.w3.org/2000/svg" xmlns:xlink="http://www.w3.org/1999/xlink" x="0px" y="0px"
	 viewBox="0 0 349.1 102" enable-background="new 0 0 349.1 102" xml:space="preserve">
<g>
	<path fill="#FFFFFF" d="M17.3,86.3h0.1l5.3-35.6c0.1-0.7,0.8-1.3,1.5-1.3h8.5c0.8,0,1.5,0.7,1.5,1.5v48.9c0,0.8-0.7,1.5-1.5,1.5
		h-4.7c-0.8,0-1.5-0.7-1.5-1.5V64.1h-0.1l-5.3,35.9c-0.1,0.8-0.8,1.3-1.5,1.3h-5.1c-0.8,0-1.4-0.5-1.5-1.3L7.3,64.6H7.1v35.2
		c0,0.8-0.7,1.5-1.5,1.5H1.5c-0.8,0-1.5-0.7-1.5-1.5V50.9c0-0.8,0.7-1.5,1.5-1.5h8.5c0.8,0,1.4,0.5,1.5,1.3L17.3,86.3z"/>
	<path fill="#FFFFFF" d="M64.9,101.4h-5.1c-0.8,0-1.4-0.6-1.5-1.3l-1-6.8c-0.1-0.7-0.8-1.3-1.5-1.3h-7.4c-0.8,0-1.4,0.6-1.5,1.3
		l-1,6.8c-0.1,0.7-0.8,1.3-1.5,1.3h-4.4c-0.9,0-1.7-0.8-1.5-1.8l7.8-48.9c0.1-0.7,0.8-1.3,1.5-1.3H57c0.8,0,1.4,0.5,1.5,1.3
		l7.8,48.9C66.5,100.5,65.8,101.4,64.9,101.4z M49.8,84.9h4.3c0.9,0,1.6-0.8,1.5-1.8L52,58.6h-0.1l-3.6,24.5
		C48.1,84.1,48.9,84.9,49.8,84.9z"/>
	<path fill="#FFFFFF" d="M77.9,63.7h-0.1v36.1c0,0.8-0.7,1.5-1.5,1.5h-4.3c-0.8,0-1.5-0.7-1.5-1.5V50.9c0-0.8,0.7-1.5,1.5-1.5h7.5
		c0.7,0,1.3,0.5,1.5,1.1l7.9,30H89V50.9c0-0.8,0.7-1.5,1.5-1.5h4.2c0.8,0,1.5,0.7,1.5,1.5v48.9c0,0.8-0.7,1.5-1.5,1.5H89
		c-0.7,0-1.3-0.5-1.5-1.1L77.9,63.7z"/>
	<path fill="#FFFFFF" d="M102.1,50.9c0-0.8,0.7-1.5,1.5-1.5H115c8.2,0,12.2,4.5,12.2,12.8v26.3c0,8.3-4,12.8-12.2,12.8h-11.4
		c-0.8,0-1.5-0.7-1.5-1.5V50.9z M110.3,58.4v34c0,0.8,0.7,1.5,1.5,1.5h3.1c2.6,0,4.2-1.3,4.2-5v-27c0-3.7-1.6-5-4.2-5h-3.1
		C111,56.8,110.3,57.5,110.3,58.4z"/>
	<path fill="#FFFFFF" d="M157,101.4h-5.1c-0.8,0-1.4-0.6-1.5-1.3l-1-6.8c-0.1-0.7-0.8-1.3-1.5-1.3h-7.4c-0.8,0-1.4,0.6-1.5,1.3
		l-1,6.8c-0.1,0.7-0.8,1.3-1.5,1.3H132c-0.9,0-1.7-0.8-1.5-1.8l7.8-48.9c0.1-0.7,0.8-1.3,1.5-1.3h9.3c0.8,0,1.4,0.5,1.5,1.3
		l7.8,48.9C158.6,100.5,157.9,101.4,157,101.4z M141.9,84.9h4.3c0.9,0,1.6-0.8,1.5-1.8l-3.6-24.5H144l-3.6,24.5
		C140.2,84.1,141,84.9,141.9,84.9z"/>
	<path fill="#FFFFFF" d="M180.3,49.4c0.8,0,1.5,0.7,1.5,1.5v38.5c0,3.7,1.6,5,4.2,5s4.2-1.3,4.2-5V50.9c0-0.8,0.7-1.5,1.5-1.5h4.7
		c0.8,0,1.5,0.7,1.5,1.5v38c0,8.3-4.2,13.1-12.2,13.1c-8,0-12.2-4.7-12.2-13.1v-38c0-0.8,0.7-1.5,1.5-1.5H180.3z"/>
	<path fill="#FFFFFF" d="M220.8,86.3h0.1l5.3-35.6c0.1-0.7,0.8-1.3,1.5-1.3h8.5c0.8,0,1.5,0.7,1.5,1.5v48.9c0,0.8-0.7,1.5-1.5,1.5
		h-4.7c-0.8,0-1.5-0.7-1.5-1.5V64.1h-0.1l-5.3,35.9c-0.1,0.7-0.8,1.3-1.5,1.3H218c-0.8,0-1.4-0.5-1.5-1.3l-5.7-35.5h-0.1v35.2
		c0,0.8-0.7,1.5-1.5,1.5H205c-0.8,0-1.5-0.7-1.5-1.5V50.9c0-0.8,0.7-1.5,1.5-1.5h8.5c0.8,0,1.4,0.5,1.5,1.3L220.8,86.3z"/>
	<path fill="#FFFFFF" d="M277.9,50.9v5.4c0,0.2,0,0.4-0.1,0.6l-14.5,34.9c-0.4,1,0.3,2.1,1.4,2.1h11.7c0.8,0,1.5,0.7,1.5,1.5v4.4
		c0,0.8-0.7,1.5-1.5,1.5h-20.8c-0.8,0-1.5-0.7-1.5-1.5v-5.4c0-0.2,0-0.4,0.1-0.6l14.5-34.9c0.4-1-0.3-2.1-1.4-2.1h-10.9
		c-0.8,0-1.5-0.7-1.5-1.5v-4.4c0-0.8,0.7-1.5,1.5-1.5h20.1C277.2,49.4,277.9,50.1,277.9,50.9z"/>
	<path fill="#FFFFFF" d="M307.3,101.4h-5.1c-0.8,0-1.4-0.6-1.5-1.3l-1-6.8c-0.1-0.7-0.8-1.3-1.5-1.3h-7.4c-0.8,0-1.4,0.6-1.5,1.3
		l-1,6.8c-0.1,0.7-0.8,1.3-1.5,1.3h-4.4c-0.9,0-1.7-0.8-1.5-1.8l7.8-48.9c0.1-0.7,0.8-1.3,1.5-1.3h9.3c0.8,0,1.4,0.5,1.5,1.3
		l7.8,48.9C309,100.5,308.3,101.4,307.3,101.4z M292.3,84.9h4.3c0.9,0,1.6-0.8,1.5-1.8l-3.6-24.5h-0.1l-3.6,24.5
		C290.6,84.1,291.3,84.9,292.3,84.9z"/>
	<path fill="#FFFFFF" d="M337.1,62.3V69c0,8.3-4,12.8-12.2,12.8h-2.3c-0.8,0-1.5,0.7-1.5,1.5v16.5c0,0.8-0.7,1.5-1.5,1.5h-5.1
		c-0.8,0-1.5-0.7-1.5-1.5V50.9c0-0.8,0.7-1.5,1.5-1.5h10.5C333.1,49.4,337.1,53.9,337.1,62.3z M321.1,58.4v14.5
		c0,0.8,0.7,1.5,1.5,1.5h2.3c2.6,0,4-1.2,4-4.9v-7.8c0-3.7-1.4-4.9-4-4.9h-2.3C321.8,56.8,321.1,57.5,321.1,58.4z"/>
	<path fill="#FFFFFF" d="M341.9,88.4l-1-17.3c0,0,0-0.1,0-0.1V50.9c0-0.8,0.7-1.5,1.5-1.5h5.1c0.8,0,1.5,0.7,1.5,1.5V71
		c0,0,0,0.1,0,0.1l-1,17.3c0,0.8-0.7,1.4-1.5,1.4h-3.2C342.6,89.9,341.9,89.2,341.9,88.4z M348.9,95v4.8c0,0.8-0.7,1.5-1.5,1.5h-4.8
		c-0.8,0-1.5-0.7-1.5-1.5V95c0-0.8,0.7-1.5,1.5-1.5h4.8C348.2,93.5,348.9,94.2,348.9,95z"/>
</g>
<text transform="matrix(1 0 0 1 1.363754e-04 35.8904)" fill="#FFFFFF" font-family="'BebasNeue'" font-size="49.5854">precisa de ajuda? </text>
</svg>
