<?xml version="1.0" encoding="utf-8"?>
<!-- Generator: Adobe Illustrator 17.1.0, SVG Export Plug-In . SVG Version: 6.00 Build 0)  -->
<!DOCTYPE svg PUBLIC "-//W3C//DTD SVG 1.1//EN" "http://www.w3.org/Graphics/SVG/1.1/DTD/svg11.dtd">
<svg version="1.1" id="Layer_1" xmlns="http://www.w3.org/2000/svg" xmlns:xlink="http://www.w3.org/1999/xlink" x="0px" y="0px"
	 viewBox="0 0 640 285.6" enable-background="new 0 0 640 285.6" xml:space="preserve">
<path fill="#3ADF56" d="M282.6,212.3c0,1.5,0,5.2,0,7.5c0,6-0.7,14.2-1.5,17.9c-1.5,6-3,11.2-5.2,15c-3,5.2-6,9.7-10.5,14.2
	c-3.7,3.7-9,7.5-14.2,9.7c-4.5,2.2-9.7,3.7-15.7,5.2c-3.7,0.7-12,1.5-17.9,1.5c-2.2,0-6,0-7.5,0L71.8,284c-1.5,0-5.2,0-7.5,0
	c-6,0-14.2-0.7-17.9-1.5c-6-1.5-11.2-3-15-5.2c-5.2-3-9.7-6-14.2-10.5c-3.7-3.7-7.5-9-9.7-14.2c-2.2-4.5-3.7-9.7-5.2-15.7
	c-1.5-3-2.2-11.2-2.2-17.2c0-2.2,0-6,0-7.5v-139c0-1.5,0-5.2,0-7.5c0-6,0.7-14.2,1.5-17.9c1.5-6,3-11.2,5.2-15
	c3-5.2,6-9.7,10.5-14.2c3.7-3.7,9-7.5,14.2-9.7c4.5-2.2,9.7-3.7,15.7-5.2c3.7-0.7,12-1.5,17.9-1.5c2.2,0,6,0,7.5,0h139.1
	c1.5,0,5.2,0,7.5,0c6,0,14.2,0.7,17.9,1.5c6,1.5,11.2,3,15,5.2c5.2,3,9.7,6,14.2,10.5c3.7,3.7,7.5,9,9.7,14.2
	c2.2,4.5,3.7,9.7,5.2,15.7c0.7,3.7,1.5,12,1.5,17.9c0,2.2,0,6,0,7.5v137.6H282.6z"/>
<g>
	<g>
		<path fill="#FFFFFF" d="M216.1,68c-19.4-19.4-44.9-29.9-71.8-29.9c-56.1,0-101.7,45.6-101.7,101.7c0,17.9,4.5,35.1,13.5,50.8
			l-14.2,52.3l53.8-14.2c15,8.2,31.4,12.7,48.6,12.7l0,0c56.1,0,101.7-45.6,101.7-101.7C246,112.9,235.5,87.4,216.1,68z
			 M144.3,224.3L144.3,224.3c-15,0-29.9-3.7-42.6-12l-3-1.5L66.6,219l8.2-31.4l-2.2-3c-8.2-13.5-12.7-29.2-12.7-44.9
			c0-46.4,38.1-84.5,84.5-84.5c22.4,0,43.4,9,59.8,24.7s24.7,37.4,24.7,59.8C228.8,186.1,191.4,224.3,144.3,224.3z M190.7,160.7
			c-2.2-1.5-15-7.5-17.2-8.2s-3.7-1.5-6,1.5c-1.5,2.2-6.7,8.2-8.2,9.7s-3,2.2-5.2,0.7s-10.5-3.7-20.2-12.7
			c-7.5-6.7-12.7-15-14.2-17.2s0-3.7,0.7-5.2c1.5-1.5,2.2-3,3.7-4.5s1.5-2.2,2.2-4.5c0.7-2.2,0.7-3,0-4.5s-6-13.5-7.5-18.7
			c-2.2-5.2-4.5-4.5-6-4.5s-3,0-4.5,0s-4.5,0.7-6.7,3s-9,9-9,20.9c0,12,9,24.7,10.5,26.2s17.9,27.7,43.4,38.1
			c6,2.2,10.5,4.5,14.2,5.2c6,2.2,12,1.5,15.7,0.7c5.2-0.7,15-6,17.2-12s2.2-11.2,1.5-12C195.1,163,193.6,162.2,190.7,160.7z"/>
	</g>
</g>
<g>
	
		<linearGradient id="SVGID_1_" gradientUnits="userSpaceOnUse" x1="67.3671" y1="825.757" x2="67.3671" y2="787.7393" gradientTransform="matrix(7.4766 0 0 -7.4766 -6.4766 6173.8545)">
		<stop  offset="0" style="stop-color:#42BCE8"/>
		<stop  offset="1" style="stop-color:#23A7DC"/>
	</linearGradient>
	<circle fill="url(#SVGID_1_)" cx="497.2" cy="142.8" r="142.8"/>
	<g>
		<path fill="#FFFFFF" d="M566.7,82.2l-25.4,128.6c0,0-3.7,9-13.5,4.5l-59-44.9l-21.7-10.5l-35.9-12c0,0-5.2-2.2-6-6
			c-0.7-4.5,6-6.7,6-6.7l142.8-56C554.8,78.5,566.7,73.2,566.7,82.2z"/>
		<path fill="#D2E5F1" d="M464.3,209.3c0,0-1.5,0-3.7-6.7S447.9,160,447.9,160l86-55.3c0,0,5.2-3,4.5,0c0,0,0.7,0.7-1.5,3
			c-3,2.2-68,61.3-68,61.3"/>
		<path fill="#B5CFE4" d="M491.2,187.6l-23.2,21c0,0-1.5,1.5-3.7,0.7l4.5-39.6"/>
	</g>
</g>
</svg>
