<?xml version="1.0" encoding="utf-8"?>
<!-- Generator: Adobe Illustrator 17.1.0, SVG Export Plug-In . SVG Version: 6.00 Build 0)  -->
<!DOCTYPE svg PUBLIC "-//W3C//DTD SVG 1.1//EN" "http://www.w3.org/Graphics/SVG/1.1/DTD/svg11.dtd">
<svg version="1.1" id="Layer_1" xmlns="http://www.w3.org/2000/svg" xmlns:xlink="http://www.w3.org/1999/xlink" x="0px" y="0px"
	 viewBox="0 0 319.5 290.5" enable-background="new 0 0 319.5 290.5" xml:space="preserve">
<g>
	<path fill="#FFFFFF" d="M81.3,33.7c8.3-7,17.4-13,27.1-17.9c13.8-7,28.7-11.8,44.1-14.1c19.4-2.9,38.7-2,57.6,2.8
		c18.2,4.6,35.1,12.7,50.3,23.8c15.2,11.2,27.9,25,37.7,41c10.2,16.6,16.8,34.8,19.8,54.2s2,38.7-2.8,57.6
		c-4.6,18.2-12.7,35.1-23.8,50.3s-25,27.9-41,37.7c-16.6,10.2-34.8,16.8-54.2,19.8s-38.7,2-57.6-2.8c-18.2-4.6-35.1-12.7-50.3-23.8
		s-27.9-25-37.7-41c-10.2-16.6-16.8-34.8-19.8-54.2c-3.7-24.5-1.1-49.3,7.4-72.3L0,19.5L81.3,33.7z"/>
	
		<linearGradient id="SVGID_1_" gradientUnits="userSpaceOnUse" x1="-3028.2158" y1="124.9049" x2="-3107.5457" y2="376.3973" gradientTransform="matrix(-0.9987 5.123469e-02 5.123469e-02 0.9987 -2922.5322 -1.882)">
		<stop  offset="0" style="stop-color:#5EFA7A"/>
		<stop  offset="1" style="stop-color:#0BBB29"/>
	</linearGradient>
	<path fill="url(#SVGID_1_)" d="M294.9,126.9C284.8,60.3,222.6,14.5,156,24.6c-26.6,4-49.8,16.3-67.5,33.9l-46.8-8.2l22,43.4
		c-9.8,21-13.8,45.1-10,69.8c10.1,66.6,72.3,112.5,138.9,102.3C259.2,255.8,305,193.6,294.9,126.9z"/>
	<g>
		<path fill="#FFFFFF" d="M272.5,130.9c-1.2-21.9-10.4-39.9-15.1-46.4c-4.5-6.2-12.1-7.1-17.2-7.7c-0.7-0.1-1.4-0.2-2.1-0.3
			c-4.1-0.6-12.1-0.4-16.2,0c-1.3,0.1-2.1,1-2.1,2.2c-0.1,5-0.2,17.2,2.3,22.2c3.1,6.2,11.5,6.8,16.2,6.6c3.3-0.1,8.1-1.2,9.9-1.6
			c1.6,3.1,9.4,18.3,9.8,31.2c0.5,13.3-1.5,26.6-5.4,36.5c-0.2,0.4,0,0.9,0.5,1.1c0.4,0.2,0.9,0,1.1-0.5c4-10,6-23.6,5.5-37.2
			c-0.5-14.7-9.9-31.8-10.3-32.5l-0.3-0.6l-0.6,0.2c-0.1,0-6.4,1.5-10.2,1.7c-10.4,0.4-13.7-3.8-14.6-5.6
			c-2.4-4.8-2.2-17.5-2.1-21.3c0-0.4,0.1-0.5,0.5-0.6c4-0.4,11.9-0.6,15.8,0c0.6,0.1,1.4,0.2,2.1,0.3c5,0.6,11.9,1.4,16,7
			c4.6,6.3,13.6,24,14.7,45.5c0.6,10.6-0.8,23.7-3.7,34.9c-3.2,12.5-7.9,21.4-13.3,25.1c-10.3,7.2-17.8,6.6-21,6.4
			c-0.5,0-0.9-0.1-1.2-0.1c-1.5,0-1.9-0.9-2.6-3.2l-0.2-0.5c-0.7-2.4-2-9-1.6-12.7c0.3-3.1,1.9-8.2,4-9.7c0.5-0.4,1-0.5,1.4-0.4
			c3.5,0.7,15.1,4.8,15.2,4.9c0.5,0.2,0.9-0.1,1.1-0.5c0.2-0.5-0.1-0.9-0.5-1.1c-0.5-0.2-11.8-4.2-15.5-5c-1-0.2-1.9,0-2.8,0.7
			c-2.8,2-4.4,7.8-4.7,10.9c-0.4,4,0.8,10.8,1.6,13.4l0.1,0.5c0.6,2.1,1.4,4.5,4.3,4.5c0.3,0,0.6,0,1.1,0.1c0.7,0.1,1.7,0.1,2.8,0.1
			c4.1,0,10.8-0.9,19.3-6.8C266.7,184,273.7,153.3,272.5,130.9z"/>
		<path fill="#FFFFFF" d="M130,133.9h-10.5l-15.9,30.5h7.1l3.7-7.2h9.2l0.1,7.2h8.6L130,133.9z M117.2,151.5l4.6-9.1h1.6l0.1,9.1
			H117.2z"/>
		<polygon fill="#FFFFFF" points="150.1,158.3 145.3,158.3 150.9,133.9 142.9,133.9 135.8,164.4 155.2,164.4 156.7,157.9 		"/>
		<polygon fill="#FFFFFF" points="172.1,146.1 173.5,139.9 177.2,139.9 183.8,140.4 185.3,133.9 174.9,133.9 166.8,133.9 
			166.8,133.9 159.8,164.4 179.2,164.4 180.7,157.9 174.1,158.3 169.3,158.3 170.7,152.2 173.7,152.2 180.2,152.7 181.7,146.1 
			174.2,146.1 		"/>
		<path fill="#FFFFFF" d="M192.7,133.8l-7.1,30.6h8.3l2.6-11.3c0.4,0,0.9-0.1,1.5-0.1c0.7,1,1.8,2.9,2.3,4.6
			c0.7,2.5,0.6,4.5,2.3,6.8h8.8c0,0-2-2.5-2.7-4.2c-0.8-2.2-0.7-5.1-2.5-8.2c3.4-1.1,7.5-3.6,7.5-9.2c0-8.1-7.5-8.9-10-8.9
			C201.2,133.8,192.7,133.8,192.7,133.8z M204.7,143.4c0,3.8-3.5,4.5-4.3,4.5c-0.5,0-1.7,0-2.7,0l1.9-8
			C201.8,139.8,204.7,139.6,204.7,143.4z"/>
		<path fill="#FFFFFF" d="M218.9,165.6c4.5,0,8.6-2.5,9.4-6.8c0.8-4.3,4.5-24.9,4.5-24.9l-8.5-0.1c0,0-3.3,17.7-3.8,20.3
			c-0.5,2.5-1.6,4-3.4,4c-1.3,0-2.2-0.3-2.2-0.3l-1.8,5.9C213.1,163.7,215.5,165.6,218.9,165.6z"/>
		<polygon fill="#FFFFFF" points="198,91 199.2,91 200.1,93.8 205.9,93.8 203,88.2 196.2,88.2 191,93.8 196,93.8 		"/>
		<path fill="#FFFFFF" d="M133.7,118.7h9l0.2,8.3h7.7l-2.1-29.5h-10.2L123,126.9h6.9L133.7,118.7z M140.9,103.4h1.4l0.3,11h-6.9
			L140.9,103.4z"/>
		<polygon fill="#FFFFFF" points="175,121.9 168.6,122.3 164,122.3 169.7,97.4 161.9,97.4 155.1,126.9 173.8,126.9 		"/>
		<path fill="#FFFFFF" d="M191.5,127.7c7.1,0,13.5-0.2,16.8-13.7c3.4-14-5.5-17.1-11.7-17.1c-5.5,0-12.2,1-15.3,14
			C178,124.3,186.8,127.7,191.5,127.7z M189.3,111.3c1.8-8.6,5.4-9.4,7.6-9.4c2.5,0,5.2,2.2,3.3,11.5c-1.8,8.9-4.6,9.2-7.5,9.2
			C190.8,122.6,187.3,120.7,189.3,111.3z"/>
		<text transform="matrix(0.9848 0 -0.1736 0.9848 75.0764 191.0116)"><tspan x="0" y="0" fill="#FFFFFF" font-family="'KeepCalm-Medium'" font-size="16.9838">(21) </tspan><tspan x="36.9" y="0" fill="#FFFFFF" font-family="'KeepCalm-Medium'" font-size="16.9838" letter-spacing="-1">9 8</tspan><tspan x="63.1" y="0" fill="#FFFFFF" font-family="'KeepCalm-Medium'" font-size="16.9838">89</tspan><tspan x="88" y="0" fill="#FFFFFF" font-family="'KeepCalm-Medium'" font-size="16.9838" letter-spacing="-1">0 </tspan><tspan x="104.1" y="0" fill="#FFFFFF" font-family="'KeepCalm-Medium'" font-size="16.9838">4742</tspan></text>
	</g>
</g>
</svg>
