<?xml version="1.0" encoding="utf-8"?>
<!-- Generator: Adobe Illustrator 25.2.3, SVG Export Plug-In . SVG Version: 6.00 Build 0)  -->
<svg version="1.1" id="Layer_1" xmlns="http://www.w3.org/2000/svg" xmlns:xlink="http://www.w3.org/1999/xlink" x="0px" y="0px"
	 viewBox="0 0 299.1 118.3" style="enable-background:new 0 0 299.1 118.3;" xml:space="preserve">
<style type="text/css">
	.st0{fill:#FFFFFF;}
</style>
<g>
	<path class="st0" d="M58.9,96.5l-2.4-13.7c-0.1-0.6-0.6-1-1.3-1H26.7c-0.5,0-0.9,0.3-1.1,0.7l-7.7,14.3c-0.2,0.4-0.7,0.7-1.1,0.7
		h-5c-1,0-1.6-1-1.1-1.9l36.5-67.1c0.2-0.4,0.6-0.7,1.1-0.7h4.5c0.6,0,1.1,0.4,1.2,1L66.8,96c0.1,0.8-0.5,1.5-1.2,1.5h-5.3
		C59.6,97.5,59,97.1,58.9,96.5z M47.1,41.8L30.3,73.4c-0.5,0.8,0.2,1.9,1.1,1.9h22.4c0.8,0,1.4-0.7,1.3-1.5l-5.5-31.7
		C49.3,41,47.7,40.7,47.1,41.8z"/>
	<path class="st0" d="M82.6,97.5c-4.2,0-7.1-1.2-8.6-3.7c-1.5-2.4-2-5.5-1.3-9.2l9.8-55.8c0.1-0.6,0.6-1,1.1-1h4.7
		c0.7,0,1.2,0.6,1.1,1.3l-9.7,55.2c-0.4,2.3-0.3,4.1,0.4,5.3c0.7,1.2,2.3,1.8,4.8,1.8h2.5c0.7,0,1.2,0.6,1.1,1.3l-0.7,3.8
		c-0.1,0.5-0.6,0.9-1.1,0.9L82.6,97.5L82.6,97.5z"/>
	<path class="st0" d="M130.1,84c-1.3,3.3-3.4,6.2-6.3,8.7c-2,1.7-4.2,3-6.7,4s-5.2,1.5-8.1,1.5s-5.5-0.5-7.6-1.5s-3.9-2.3-5.3-4
		c-1-1.2-1.8-2.6-2.3-4.1s-0.8-3-1-4.6c-0.1-1.6-0.1-3.3,0-5c0.1-1.8,0.4-3.6,0.7-5.5c0.3-1.8,0.7-3.6,1.2-5.4
		c0.5-1.8,1.1-3.5,1.8-5.1c0.7-1.6,1.6-3.1,2.6-4.6s2.2-2.8,3.7-4.1c2-1.7,4.2-3,6.7-4s5.2-1.5,8.1-1.5c2.9,0,5.5,0.5,7.6,1.5
		s3.9,2.3,5.3,4c2,2.5,3,5.4,3.2,8.7s-0.1,6.8-0.7,10.5C132.5,77.2,131.5,80.7,130.1,84z M126.7,69.3c0.2-1.4,0.2-2.7,0.2-4
		c0-1.3-0.2-2.5-0.5-3.7c-0.3-1.1-0.8-2.2-1.5-3.1c-1.9-2.3-4.7-3.5-8.2-3.5s-6.6,1.2-9.3,3.5c-1.1,0.9-2,1.9-2.6,3.1
		c-0.7,1.1-1.3,2.4-1.8,3.7c-0.5,1.3-0.9,2.6-1.2,4c-0.3,1.4-0.6,2.7-0.8,4.1c-0.2,1.4-0.5,2.7-0.6,4.1c-0.2,1.4-0.2,2.7-0.2,4
		c0.1,1.3,0.2,2.5,0.5,3.7s0.8,2.2,1.6,3c1.9,2.3,4.6,3.5,8.1,3.5s6.7-1.2,9.4-3.5c1-0.8,1.9-1.9,2.6-3c0.7-1.2,1.3-2.4,1.8-3.7
		c0.5-1.3,0.9-2.6,1.2-4s0.6-2.7,0.8-4.1C126.3,72.1,126.5,70.7,126.7,69.3z"/>
	<path class="st0" d="M165,97.1l-1.2-7.2c-0.1-0.4-0.4-0.7-0.8-0.7h-13.6c-0.3,0-0.6,0.2-0.7,0.5l-4,7.7c-0.1,0.3-0.4,0.4-0.7,0.4
		h-4.8c-0.6,0-1-0.7-0.7-1.2l20.7-38.3c0.1-0.3,0.4-0.4,0.7-0.4h3.7c0.4,0,0.8,0.3,0.8,0.7l7.1,38.3c0.1,0.5-0.3,1-0.8,1h-4.9
		C165.4,97.8,165.1,97.5,165,97.1z M162.6,82.6l-2.1-12.3c-0.1-0.8-1.2-1-1.6-0.3l-6.5,12.3c-0.3,0.6,0.1,1.2,0.7,1.2h8.5
		C162.3,83.6,162.7,83.2,162.6,82.6z"/>
	<path class="st0" d="M173.7,96.8l6.8-38.3c0.1-0.4,0.4-0.7,0.8-0.7h4.4c0.5,0,0.9,0.5,0.8,1l-5.7,32.3c-0.1,0.5,0.3,1,0.8,1h17.2
		c0.5,0,0.9,0.5,0.8,1l-0.7,4.1c-0.1,0.4-0.4,0.7-0.8,0.7h-23.5C174,97.8,173.6,97.4,173.7,96.8z"/>
	<path class="st0" d="M201.7,96.8l6.8-38.3c0.1-0.4,0.4-0.7,0.8-0.7h23.6c0.5,0,0.9,0.5,0.8,1l-0.7,4.1c-0.1,0.4-0.4,0.7-0.8,0.7
		h-17.8c-0.4,0-0.8,0.3-0.8,0.7l-1.7,9.6c-0.1,0.5,0.3,1,0.8,1h14.4c0.5,0,0.9,0.5,0.8,1l-0.7,4.1c-0.1,0.4-0.4,0.7-0.8,0.7h-14.9
		c-0.4,0-0.8,0.3-0.8,0.7l-1.7,9.9c-0.1,0.5,0.3,1,0.8,1h17c0.5,0,0.9,0.5,0.8,1l-0.7,4.1c-0.1,0.4-0.4,0.7-0.8,0.7h-23.6
		C202,97.8,201.6,97.4,201.7,96.8z"/>
	<path class="st0" d="M251.2,97.3l-5.1-15.7c-0.1-0.3-0.4-0.6-0.8-0.6h-6c-0.4,0-0.8,0.3-0.8,0.7l-2.7,15.4
		c-0.1,0.4-0.4,0.7-0.8,0.7h-4.4c-0.5,0-0.9-0.5-0.8-1l6.8-38.3c0.1-0.4,0.4-0.7,0.8-0.7h14.5c1.7,0,3.3,0.3,4.7,0.8
		c1.4,0.5,2.6,1.3,3.6,2.4c0.9,1,1.6,2.3,1.9,3.8s0.4,3.1,0,4.8c-0.5,3-1.8,5.5-3.8,7.4c-1.5,1.4-3.1,2.5-5,3.1
		c-0.4,0.2-0.7,0.6-0.5,1.1l5.3,15.6c0.2,0.5-0.2,1.1-0.8,1.1h-5.1C251.6,97.8,251.3,97.6,251.2,97.3z M248.3,75.3
		c2,0,3.6-0.5,5.1-1.5c1.4-1,2.2-2.5,2.6-4.5c0.4-2,0.1-3.4-0.8-4.3c-1-0.9-2.4-1.4-4.3-1.4h-8.4c-0.4,0-0.8,0.3-0.8,0.7l-1.8,10.1
		c-0.1,0.5,0.3,1,0.8,1L248.3,75.3L248.3,75.3z"/>
	<path class="st0" d="M269.1,98.1c-1.9,0-3.6-0.3-5-0.9s-2.7-1.6-3.8-2.9l-0.6-0.8l4.8-4.1l0.7,0.9c0.5,0.6,1,1.1,1.7,1.5
		c0.4,0.3,1.2,0.6,2.9,0.6c2.2,0,3.9-0.6,5.3-2c1.4-1.3,2.4-3.3,2.8-5.9l4.6-26.1c0.1-0.4,0.4-0.7,0.8-0.7h4.4c0.5,0,0.9,0.5,0.8,1
		l-4.7,26.8c-0.3,1.9-1,3.7-1.9,5.3c-0.9,1.6-2,2.9-3.3,4s-2.8,1.9-4.4,2.5C272.6,97.8,270.9,98.1,269.1,98.1z"/>
	<path class="st0" d="M153.4,36c-4.1-5-9.3-9-15.3-11.8c-5.1-2.3-10.6-3.7-16.6-4c-0.5,0-1.4,0-2.2-0.1c-0.8,0-1.5,0.7-1.5,1.5v2.3
		c0,0.8,0.6,1.5,1.5,1.5s2,0,2.6,0.1c5.1,0.4,9.8,1.5,14,3.5c5.3,2.5,9.8,5.9,13.5,10.3c2,2.5,3.6,5.1,4.9,7.8
		c0.3,0.7,1.1,1,1.9,0.8l2.2-0.8c0.8-0.3,1.2-1.2,0.8-2C157.5,41.9,155.7,38.9,153.4,36z"/>
	<path class="st0" d="M146,42.1c-3.2-3.9-7.3-7-12-9.2c-3.6-1.7-7.6-2.7-11.8-3.1c-0.7-0.1-1.9-0.1-2.9-0.1c-0.8,0-1.5,0.6-1.5,1.5
		v2.3c0,0.8,0.6,1.5,1.4,1.5c0.9,0,1.9,0.1,2.5,0.1c3.7,0.3,7,1.2,10.1,2.6c4,1.8,7.4,4.5,10.1,7.8c1.3,1.6,2.4,3.3,3.3,5.1
		c0.3,0.7,1.1,1,1.8,0.7l2.2-0.8c0.8-0.3,1.2-1.3,0.8-2.1C148.9,46.2,147.6,44.1,146,42.1z"/>
	<path class="st0" d="M138.6,48.2c-2.3-2.8-5.2-5-8.6-6.6c-2.4-1.1-5.2-1.9-8.1-2.2c-0.6-0.1-1.7-0.1-2.6-0.1
		c-0.8,0-1.5,0.6-1.5,1.5v2.4c0,0.8,0.6,1.5,1.4,1.5c0.9,0,1.9,0.1,2.4,0.1c2.3,0.3,4.3,0.8,6.2,1.7c2.7,1.2,5,3,6.8,5.2
		c0.6,0.8,1.2,1.6,1.7,2.5c0.4,0.6,1.1,0.9,1.8,0.6l2.2-0.8c0.8-0.3,1.2-1.3,0.8-2.1C140.3,50.5,139.5,49.3,138.6,48.2z"/>
</g>
</svg>
