<?xml version="1.0" encoding="utf-8"?>
<!-- Generator: Adobe Illustrator 19.2.1, SVG Export Plug-In . SVG Version: 6.00 Build 0)  -->
<svg version="1.1" id="Layer_1" xmlns="http://www.w3.org/2000/svg" xmlns:xlink="http://www.w3.org/1999/xlink" x="0px" y="0px"
	 viewBox="0 0 193.8 118.9" style="enable-background:new 0 0 193.8 118.9;" xml:space="preserve">
<style type="text/css">
	.st0{fill:#172B53;}
</style>
<g>
	<g>
		<path class="st0" d="M151.2,118.3c-0.5,0-1-0.3-1.2-0.8c-0.1-0.4-3.4-8.9-2.9-14.3c0.1-1.6,1-9.8,4.5-12.6c1-0.8,2.1-1.1,3.2-1
			c4.3,0.6,10.2,2.2,13.5,4.7c0.6,0.4,0.7,1.2,0.3,1.8c-0.4,0.6-1.2,0.7-1.8,0.3c-3-2.2-8.3-3.7-12.3-4.2c-0.3,0-0.7,0-1.3,0.4
			c-2,1.6-3.2,6.7-3.6,10.8c-0.3,3.9,1.7,10.1,2.5,12.3c9.7-0.1,19.3-1.4,25.2-9.5c6.3-8.6,13-30,12.8-49.5
			c-0.2-18.8-6.5-33.9-11.7-43.3c-4.3-7.6-9.7-9.3-12.6-9.7c-4.1-0.5-12.9-0.7-17.5-0.7c-2.8,0-2.9,0.2-3,1.1c0,0.2-0.1,0.4-0.1,0.6
			c-0.2,1.1-0.8,5.4,0.9,15.7c1.4,8.7,6.8,8.9,12.1,9.1c5,0.2,12-1.8,12.1-1.8c0.6-0.2,1.2,0.1,1.5,0.7c9.5,18.8,9.8,35.7,8.5,46.6
			c-1.5,11.8-5.2,19.1-5.4,19.4c-0.3,0.6-1.1,0.9-1.8,0.6c-0.6-0.3-0.9-1.1-0.6-1.8c0.1-0.3,14.2-28.4-2.6-62.7
			c-2.2,0.6-7.6,1.8-11.7,1.7c-5.2-0.2-12.9-0.4-14.7-11.2c-1.7-10.4-1.2-15.1-0.9-16.6c0-0.2,0.1-0.3,0.1-0.5
			c0.4-2.3,1.3-3.3,5.6-3.3c4.8,0,13.5,0.2,17.8,0.7c3.4,0.4,9.7,2.4,14.6,11c5.4,9.6,11.9,25.1,12.1,44.5
			c0.2,20.3-6.6,41.9-13.3,51C172.7,117,161.9,118.3,151.2,118.3z"/>
	</g>
	<path class="st0" d="M59.8,86.3l-1.8-29.6H46.7L31.2,86.3h8.2l3.5-6.9H51v6.9H59.8z M46.3,72.8l5-9.8L51,72.8H46.3z"/>
	<polygon class="st0" points="62.7,86.3 69.1,56.7 77.7,56.7 72.9,79.5 83.6,79.5 81.6,86.3 	"/>
	<polygon class="st0" points="85.1,86.3 91.5,56.7 110.3,56.7 108.9,62.9 99.8,62.9 98.7,68.1 106.9,68.1 105.7,73.6 97.5,73.6 
		96.3,79.5 106.3,79.5 104.8,86.3 	"/>
	<path class="st0" d="M137.4,64.8c0.3-5.9-4.8-8-8.9-8s-11.8,0-11.8,0l-6.5,29.8l8.8-0.2l1.6-10.8h2.1c1.2,0,2.6,10.8,2.6,10.8h8.8
		c0,0-0.5-1.2-1.2-5c-0.7-3.8-3-7.3-3-7.3C132.4,73.4,137.1,70.7,137.4,64.8z M128.3,66.1c-1,4-6.1,3.1-6.1,3.1l1.6-6.1
		C123.8,63,129.3,62.1,128.3,66.1z"/>
	<path class="st0" d="M135.2,86.3l2-6.9c0,0,1.3,0,2.6,0s2.5-0.3,3.1-3.1s4.3-19.6,4.3-19.6h8.8c0,0-4.1,19.1-4.9,22.7
		s-4.5,6.9-7.9,6.9S135.2,86.3,135.2,86.3z"/>
	<polygon class="st0" points="81.4,50.4 87.6,21.8 95.7,21.8 90.7,44.9 101.2,44.9 99.5,50.4 	"/>
	<path class="st0" d="M121.9,21.3c-5,0-14.5,1.9-16.5,16.8c-1.8,13.3,8.5,13.1,10.7,13.1c11.1,0,16.1-8,17-18
		C134.1,22.8,126.9,21.3,121.9,21.3z M123.8,36c-0.3,1.8-1.7,8.3-5.8,9.2c-1.6,0.3-5.6-0.1-4.3-6.3c1.2-6.2,3-11.9,7.6-12.1
		C125.9,26.7,124.1,34.2,123.8,36z"/>
	<polygon class="st0" points="115.7,19.3 121,19.3 122.8,16.1 123.8,16.1 123.8,19.3 131,19.3 128.7,12.7 120.5,12.7 	"/>
	<g>
		<path class="st0" d="M11.2,105.1c-0.4-0.6-1-1.1-1.7-1.4c-0.7-0.3-1.6-0.5-2.7-0.5c-1.1,0-1.9,0.2-2.7,0.5
			c-0.7,0.3-1.3,0.8-1.8,1.5c-0.5,0.6-0.8,1.4-1,2.3c-0.2,0.9-0.3,1.9-0.3,3c0,1.1,0.1,2.1,0.2,3c0.2,0.9,0.5,1.6,0.9,2.3
			c0.4,0.6,1,1.1,1.7,1.4c0.7,0.3,1.6,0.5,2.7,0.5c1.1,0,2-0.2,2.7-0.5c0.7-0.3,1.3-0.8,1.8-1.5c0.5-0.6,0.8-1.4,1-2.3
			c0.2-0.9,0.3-1.9,0.3-3c0-1.1-0.1-2.1-0.2-3C11.9,106.5,11.6,105.8,11.2,105.1z M9,112.1c0,0.5-0.1,0.9-0.2,1.2
			c-0.1,0.4-0.2,0.7-0.3,1c-0.1,0.3-0.3,0.5-0.5,0.7c-0.2,0.2-0.4,0.3-0.6,0.4c-0.2,0.1-0.5,0.1-0.8,0.1c-0.4,0-0.8-0.1-1.1-0.2
			c-0.3-0.2-0.5-0.4-0.7-0.8c-0.2-0.4-0.3-0.9-0.4-1.6c-0.1-0.7-0.1-1.5-0.1-2.5c0-0.8,0-1.5,0.1-2.1c0.1-0.6,0.2-1.1,0.4-1.5
			c0.2-0.4,0.4-0.7,0.7-0.9c0.3-0.2,0.7-0.3,1.2-0.3c0.3,0,0.5,0,0.8,0.1c0.2,0.1,0.4,0.2,0.6,0.3c0.2,0.2,0.3,0.4,0.5,0.6
			c0.1,0.3,0.2,0.6,0.3,1c0.1,0.4,0.1,0.8,0.2,1.3c0,0.5,0.1,1.1,0.1,1.8C9.1,111.1,9,111.6,9,112.1z"/>
		<path class="st0" d="M24,111.7c-0.3-0.3-0.6-0.6-1-0.8c-0.4-0.3-0.8-0.5-1.3-0.7c0.4-0.2,0.8-0.4,1.1-0.7c0.3-0.3,0.6-0.5,0.8-0.8
			c0.2-0.3,0.4-0.6,0.5-0.9c0.1-0.3,0.2-0.6,0.2-1c0-0.5-0.1-1-0.3-1.4c-0.2-0.4-0.5-0.8-0.9-1.1c-0.4-0.3-0.9-0.5-1.5-0.7
			c-0.6-0.2-1.4-0.2-2.2-0.2c-0.9,0-1.6,0.1-2.3,0.3c-0.7,0.2-1.2,0.4-1.7,0.8c-0.4,0.3-0.8,0.7-1,1.2c-0.2,0.5-0.3,1-0.3,1.5
			c0,0.4,0.1,0.7,0.2,1.1c0.1,0.3,0.3,0.6,0.5,0.9c0.2,0.3,0.5,0.5,0.8,0.8c0.3,0.2,0.7,0.5,1.1,0.7c-0.5,0.2-1,0.5-1.4,0.8
			c-0.4,0.3-0.7,0.5-1,0.8c-0.3,0.3-0.5,0.6-0.6,1c-0.1,0.3-0.2,0.7-0.2,1.1c0,0.6,0.1,1.1,0.3,1.6c0.2,0.4,0.6,0.8,1,1.1
			c0.5,0.3,1,0.5,1.7,0.7c0.7,0.2,1.5,0.2,2.3,0.2c0.9,0,1.8-0.1,2.5-0.3c0.7-0.2,1.3-0.4,1.8-0.8c0.5-0.3,0.8-0.8,1.1-1.3
			c0.2-0.5,0.4-1.1,0.4-1.7c0-0.4-0.1-0.8-0.2-1.1C24.4,112.3,24.2,112,24,111.7z M17.7,105.7c0.3-0.3,0.8-0.4,1.5-0.4
			c0.3,0,0.6,0,0.9,0.1c0.3,0.1,0.5,0.2,0.6,0.3c0.2,0.1,0.3,0.3,0.4,0.5c0.1,0.2,0.1,0.4,0.1,0.7c0,0.4-0.2,0.8-0.5,1.2
			c-0.3,0.4-0.8,0.7-1.4,1c-0.4-0.2-0.7-0.4-1-0.5c-0.3-0.2-0.5-0.3-0.7-0.5c-0.2-0.2-0.3-0.4-0.4-0.6c-0.1-0.2-0.1-0.4-0.1-0.6
			C17.2,106.4,17.4,106,17.7,105.7z M21.1,115.2c-0.4,0.3-1,0.5-1.8,0.5c-0.8,0-1.4-0.1-1.8-0.4c-0.4-0.3-0.6-0.7-0.6-1.3
			c0-0.3,0-0.5,0.1-0.7c0.1-0.2,0.2-0.4,0.4-0.6c0.2-0.2,0.4-0.4,0.7-0.6c0.3-0.2,0.6-0.4,1-0.5c0.4,0.2,0.8,0.4,1.1,0.6
			c0.3,0.2,0.6,0.4,0.8,0.6c0.2,0.2,0.4,0.4,0.5,0.6c0.1,0.2,0.2,0.5,0.2,0.7C21.6,114.4,21.4,114.9,21.1,115.2z"/>
		<path class="st0" d="M36.4,105.1c-0.4-0.6-1-1.1-1.7-1.4c-0.7-0.3-1.6-0.5-2.7-0.5c-1.1,0-1.9,0.2-2.7,0.5
			c-0.7,0.3-1.3,0.8-1.8,1.5c-0.5,0.6-0.8,1.4-1,2.3c-0.2,0.9-0.3,1.9-0.3,3c0,1.1,0.1,2.1,0.2,3c0.2,0.9,0.5,1.6,0.9,2.3
			c0.4,0.6,1,1.1,1.7,1.4c0.7,0.3,1.6,0.5,2.7,0.5c1.1,0,2-0.2,2.7-0.5c0.7-0.3,1.3-0.8,1.8-1.5c0.5-0.6,0.8-1.4,1-2.3
			c0.2-0.9,0.3-1.9,0.3-3c0-1.1-0.1-2.1-0.2-3C37.1,106.5,36.8,105.8,36.4,105.1z M34.2,112.1c0,0.5-0.1,0.9-0.2,1.2
			c-0.1,0.4-0.2,0.7-0.3,1c-0.1,0.3-0.3,0.5-0.5,0.7c-0.2,0.2-0.4,0.3-0.6,0.4c-0.2,0.1-0.5,0.1-0.8,0.1c-0.4,0-0.8-0.1-1.1-0.2
			c-0.3-0.2-0.5-0.4-0.7-0.8c-0.2-0.4-0.3-0.9-0.4-1.6c-0.1-0.7-0.1-1.5-0.1-2.5c0-0.8,0-1.5,0.1-2.1c0.1-0.6,0.2-1.1,0.4-1.5
			c0.2-0.4,0.4-0.7,0.7-0.9c0.3-0.2,0.7-0.3,1.2-0.3c0.3,0,0.5,0,0.8,0.1c0.2,0.1,0.4,0.2,0.6,0.3c0.2,0.2,0.3,0.4,0.5,0.6
			c0.1,0.3,0.2,0.6,0.3,1c0.1,0.4,0.1,0.8,0.2,1.3c0,0.5,0.1,1.1,0.1,1.8C34.2,111.1,34.2,111.6,34.2,112.1z"/>
		<path class="st0" d="M49,105.1c-0.4-0.6-1-1.1-1.7-1.4c-0.7-0.3-1.6-0.5-2.7-0.5c-1.1,0-1.9,0.2-2.7,0.5c-0.7,0.3-1.3,0.8-1.8,1.5
			c-0.5,0.6-0.8,1.4-1,2.3c-0.2,0.9-0.3,1.9-0.3,3c0,1.1,0.1,2.1,0.2,3c0.2,0.9,0.5,1.6,0.9,2.3c0.4,0.6,1,1.1,1.7,1.4
			c0.7,0.3,1.6,0.5,2.7,0.5c1.1,0,2-0.2,2.7-0.5c0.7-0.3,1.3-0.8,1.8-1.5c0.5-0.6,0.8-1.4,1-2.3c0.2-0.9,0.3-1.9,0.3-3
			c0-1.1-0.1-2.1-0.2-3C49.7,106.5,49.4,105.8,49,105.1z M46.8,112.1c0,0.5-0.1,0.9-0.2,1.2c-0.1,0.4-0.2,0.7-0.3,1
			c-0.1,0.3-0.3,0.5-0.5,0.7c-0.2,0.2-0.4,0.3-0.6,0.4c-0.2,0.1-0.5,0.1-0.8,0.1c-0.4,0-0.8-0.1-1.1-0.2c-0.3-0.2-0.5-0.4-0.7-0.8
			c-0.2-0.4-0.3-0.9-0.4-1.6c-0.1-0.7-0.1-1.5-0.1-2.5c0-0.8,0-1.5,0.1-2.1c0.1-0.6,0.2-1.1,0.4-1.5c0.2-0.4,0.4-0.7,0.7-0.9
			c0.3-0.2,0.7-0.3,1.2-0.3c0.3,0,0.5,0,0.8,0.1c0.2,0.1,0.4,0.2,0.6,0.3c0.2,0.2,0.3,0.4,0.5,0.6c0.1,0.3,0.2,0.6,0.3,1
			c0.1,0.4,0.1,0.8,0.2,1.3c0,0.5,0.1,1.1,0.1,1.8C46.8,111.1,46.8,111.6,46.8,112.1z"/>
		<path class="st0" d="M67.2,105.1c-0.4-0.6-1-1.1-1.7-1.4c-0.7-0.3-1.6-0.5-2.7-0.5c-1.1,0-1.9,0.2-2.7,0.5
			c-0.7,0.3-1.3,0.8-1.8,1.5c-0.5,0.6-0.8,1.4-1,2.3c-0.2,0.9-0.3,1.9-0.3,3c0,1.1,0.1,2.1,0.2,3c0.2,0.9,0.5,1.6,0.9,2.3
			c0.4,0.6,1,1.1,1.7,1.4c0.7,0.3,1.6,0.5,2.7,0.5c1.1,0,2-0.2,2.7-0.5c0.7-0.3,1.3-0.8,1.8-1.5c0.5-0.6,0.8-1.4,1-2.3
			c0.2-0.9,0.3-1.9,0.3-3c0-1.1-0.1-2.1-0.2-3C67.9,106.5,67.6,105.8,67.2,105.1z M65,112.1c0,0.5-0.1,0.9-0.2,1.2
			c-0.1,0.4-0.2,0.7-0.3,1c-0.1,0.3-0.3,0.5-0.5,0.7c-0.2,0.2-0.4,0.3-0.6,0.4c-0.2,0.1-0.5,0.1-0.8,0.1c-0.4,0-0.8-0.1-1.1-0.2
			c-0.3-0.2-0.5-0.4-0.7-0.8c-0.2-0.4-0.3-0.9-0.4-1.6c-0.1-0.7-0.1-1.5-0.1-2.5c0-0.8,0-1.5,0.1-2.1c0.1-0.6,0.2-1.1,0.4-1.5
			c0.2-0.4,0.4-0.7,0.7-0.9c0.3-0.2,0.7-0.3,1.2-0.3c0.3,0,0.5,0,0.8,0.1c0.2,0.1,0.4,0.2,0.6,0.3c0.2,0.2,0.3,0.4,0.5,0.6
			c0.1,0.3,0.2,0.6,0.3,1c0.1,0.4,0.1,0.8,0.2,1.3c0,0.5,0.1,1.1,0.1,1.8C65.1,111.1,65,111.6,65,112.1z"/>
		<path class="st0" d="M80.4,115.4c0-0.1-0.1-0.2-0.2-0.2c-0.1,0-0.1-0.1-0.2-0.1h-6.2l1.8-1.7c0.9-0.8,1.7-1.5,2.2-2.1
			c0.6-0.6,1-1.2,1.3-1.7c0.3-0.5,0.5-1,0.6-1.4c0.1-0.4,0.1-0.9,0.1-1.3c0-0.5-0.1-1-0.3-1.5c-0.2-0.4-0.5-0.8-0.9-1.2
			c-0.4-0.3-0.9-0.6-1.5-0.8c-0.6-0.2-1.3-0.3-2.1-0.3c-0.5,0-1,0-1.5,0.1c-0.5,0.1-0.9,0.2-1.3,0.3c-0.4,0.1-0.7,0.3-1,0.4
			c-0.3,0.1-0.5,0.2-0.6,0.3c-0.1,0.1-0.2,0.2-0.2,0.2c0,0.1-0.1,0.1-0.1,0.2c0,0.1,0,0.2-0.1,0.3c0,0.1,0,0.3,0,0.4
			c0,0.2,0,0.5,0,0.6c0,0.2,0,0.3,0.1,0.4c0,0.1,0.1,0.2,0.1,0.2c0.1,0,0.1,0.1,0.2,0.1c0.1,0,0.3-0.1,0.4-0.2
			c0.2-0.1,0.4-0.2,0.7-0.4c0.3-0.1,0.6-0.3,1-0.4c0.4-0.1,0.8-0.2,1.3-0.2c0.3,0,0.6,0,0.9,0.1c0.3,0.1,0.5,0.2,0.6,0.4
			c0.2,0.2,0.3,0.3,0.4,0.6c0.1,0.2,0.1,0.4,0.1,0.7c0,0.3,0,0.5-0.1,0.8c-0.1,0.3-0.2,0.6-0.4,0.9c-0.2,0.3-0.4,0.7-0.8,1.1
			c-0.3,0.4-0.8,0.9-1.3,1.4l-2.7,2.6c-0.2,0.2-0.3,0.3-0.4,0.4c-0.1,0.1-0.2,0.3-0.2,0.4c-0.1,0.1-0.1,0.3-0.1,0.5
			c0,0.2,0,0.4,0,0.6c0,0.3,0,0.5,0.1,0.6c0,0.2,0.1,0.3,0.2,0.4c0.1,0.1,0.2,0.1,0.3,0.2c0.1,0,0.3,0,0.5,0h9c0.1,0,0.2,0,0.2-0.1
			c0.1,0,0.1-0.1,0.2-0.2c0-0.1,0.1-0.2,0.1-0.4c0-0.1,0-0.3,0-0.5c0-0.2,0-0.4,0-0.5C80.5,115.6,80.5,115.5,80.4,115.4z"/>
		<path class="st0" d="M93,115.4c0-0.1-0.1-0.2-0.2-0.2c-0.1,0-0.1-0.1-0.2-0.1h-6.2l1.8-1.7c0.9-0.8,1.7-1.5,2.2-2.1
			c0.6-0.6,1-1.2,1.3-1.7c0.3-0.5,0.5-1,0.6-1.4c0.1-0.4,0.1-0.9,0.1-1.3c0-0.5-0.1-1-0.3-1.5c-0.2-0.4-0.5-0.8-0.9-1.2
			c-0.4-0.3-0.9-0.6-1.5-0.8c-0.6-0.2-1.3-0.3-2.1-0.3c-0.5,0-1,0-1.5,0.1c-0.5,0.1-0.9,0.2-1.3,0.3c-0.4,0.1-0.7,0.3-1,0.4
			c-0.3,0.1-0.5,0.2-0.6,0.3c-0.1,0.1-0.2,0.2-0.2,0.2c0,0.1-0.1,0.1-0.1,0.2c0,0.1,0,0.2-0.1,0.3c0,0.1,0,0.3,0,0.4
			c0,0.2,0,0.5,0,0.6c0,0.2,0,0.3,0.1,0.4c0,0.1,0.1,0.2,0.1,0.2c0.1,0,0.1,0.1,0.2,0.1c0.1,0,0.3-0.1,0.4-0.2
			c0.2-0.1,0.4-0.2,0.7-0.4c0.3-0.1,0.6-0.3,1-0.4c0.4-0.1,0.8-0.2,1.3-0.2c0.3,0,0.6,0,0.9,0.1c0.3,0.1,0.5,0.2,0.6,0.4
			c0.2,0.2,0.3,0.3,0.4,0.6c0.1,0.2,0.1,0.4,0.1,0.7c0,0.3,0,0.5-0.1,0.8c-0.1,0.3-0.2,0.6-0.4,0.9c-0.2,0.3-0.4,0.7-0.8,1.1
			c-0.3,0.4-0.8,0.9-1.3,1.4l-2.7,2.6c-0.2,0.2-0.3,0.3-0.4,0.4c-0.1,0.1-0.2,0.3-0.2,0.4c-0.1,0.1-0.1,0.3-0.1,0.5
			c0,0.2,0,0.4,0,0.6c0,0.3,0,0.5,0.1,0.6c0,0.2,0.1,0.3,0.2,0.4c0.1,0.1,0.2,0.1,0.3,0.2c0.1,0,0.3,0,0.5,0h9c0.1,0,0.2,0,0.2-0.1
			c0.1,0,0.1-0.1,0.2-0.2c0-0.1,0.1-0.2,0.1-0.4c0-0.1,0-0.3,0-0.5c0-0.2,0-0.4,0-0.5C93.1,115.6,93.1,115.5,93,115.4z"/>
		<path class="st0" d="M105,105.1c-0.4-0.6-1-1.1-1.7-1.4c-0.7-0.3-1.6-0.5-2.7-0.5c-1.1,0-1.9,0.2-2.7,0.5
			c-0.7,0.3-1.3,0.8-1.8,1.5c-0.5,0.6-0.8,1.4-1,2.3c-0.2,0.9-0.3,1.9-0.3,3c0,1.1,0.1,2.1,0.2,3c0.2,0.9,0.5,1.6,0.9,2.3
			c0.4,0.6,1,1.1,1.7,1.4c0.7,0.3,1.6,0.5,2.7,0.5c1.1,0,2-0.2,2.7-0.5c0.7-0.3,1.3-0.8,1.8-1.5c0.5-0.6,0.8-1.4,1-2.3
			c0.2-0.9,0.3-1.9,0.3-3c0-1.1-0.1-2.1-0.2-3C105.7,106.5,105.4,105.8,105,105.1z M102.8,112.1c0,0.5-0.1,0.9-0.2,1.2
			c-0.1,0.4-0.2,0.7-0.3,1c-0.1,0.3-0.3,0.5-0.5,0.7c-0.2,0.2-0.4,0.3-0.6,0.4c-0.2,0.1-0.5,0.1-0.8,0.1c-0.4,0-0.8-0.1-1.1-0.2
			c-0.3-0.2-0.5-0.4-0.7-0.8c-0.2-0.4-0.3-0.9-0.4-1.6c-0.1-0.7-0.1-1.5-0.1-2.5c0-0.8,0-1.5,0.1-2.1c0.1-0.6,0.2-1.1,0.4-1.5
			c0.2-0.4,0.4-0.7,0.7-0.9c0.3-0.2,0.7-0.3,1.2-0.3c0.3,0,0.5,0,0.8,0.1c0.2,0.1,0.4,0.2,0.6,0.3c0.2,0.2,0.3,0.4,0.5,0.6
			c0.1,0.3,0.2,0.6,0.3,1c0.1,0.4,0.1,0.8,0.2,1.3c0,0.5,0.1,1.1,0.1,1.8C102.8,111.1,102.8,111.6,102.8,112.1z"/>
		<path class="st0" d="M117.6,105.1c-0.4-0.6-1-1.1-1.7-1.4c-0.7-0.3-1.6-0.5-2.7-0.5c-1.1,0-1.9,0.2-2.7,0.5
			c-0.7,0.3-1.3,0.8-1.8,1.5c-0.5,0.6-0.8,1.4-1,2.3c-0.2,0.9-0.3,1.9-0.3,3c0,1.1,0.1,2.1,0.2,3c0.2,0.9,0.5,1.6,0.9,2.3
			c0.4,0.6,1,1.1,1.7,1.4c0.7,0.3,1.6,0.5,2.7,0.5c1.1,0,2-0.2,2.7-0.5c0.7-0.3,1.3-0.8,1.8-1.5c0.5-0.6,0.8-1.4,1-2.3
			c0.2-0.9,0.3-1.9,0.3-3c0-1.1-0.1-2.1-0.2-3C118.3,106.5,118,105.8,117.6,105.1z M115.4,112.1c0,0.5-0.1,0.9-0.2,1.2
			c-0.1,0.4-0.2,0.7-0.3,1c-0.1,0.3-0.3,0.5-0.5,0.7c-0.2,0.2-0.4,0.3-0.6,0.4c-0.2,0.1-0.5,0.1-0.8,0.1c-0.4,0-0.8-0.1-1.1-0.2
			c-0.3-0.2-0.5-0.4-0.7-0.8c-0.2-0.4-0.3-0.9-0.4-1.6c-0.1-0.7-0.1-1.5-0.1-2.5c0-0.8,0-1.5,0.1-2.1c0.1-0.6,0.2-1.1,0.4-1.5
			c0.2-0.4,0.4-0.7,0.7-0.9s0.7-0.3,1.2-0.3c0.3,0,0.5,0,0.8,0.1c0.2,0.1,0.4,0.2,0.6,0.3c0.2,0.2,0.3,0.4,0.5,0.6
			c0.1,0.3,0.2,0.6,0.3,1c0.1,0.4,0.1,0.8,0.2,1.3c0,0.5,0.1,1.1,0.1,1.8C115.4,111.1,115.4,111.6,115.4,112.1z"/>
		<path class="st0" d="M130.2,105.1c-0.4-0.6-1-1.1-1.7-1.4c-0.7-0.3-1.6-0.5-2.7-0.5c-1.1,0-1.9,0.2-2.7,0.5
			c-0.7,0.3-1.3,0.8-1.8,1.5c-0.5,0.6-0.8,1.4-1,2.3c-0.2,0.9-0.3,1.9-0.3,3c0,1.1,0.1,2.1,0.2,3c0.2,0.9,0.5,1.6,0.9,2.3
			c0.4,0.6,1,1.1,1.7,1.4c0.7,0.3,1.6,0.5,2.7,0.5c1.1,0,2-0.2,2.7-0.5c0.7-0.3,1.3-0.8,1.8-1.5c0.5-0.6,0.8-1.4,1-2.3
			c0.2-0.9,0.3-1.9,0.3-3c0-1.1-0.1-2.1-0.2-3C130.8,106.5,130.6,105.8,130.2,105.1z M128,112.1c0,0.5-0.1,0.9-0.2,1.2
			c-0.1,0.4-0.2,0.7-0.3,1c-0.1,0.3-0.3,0.5-0.5,0.7c-0.2,0.2-0.4,0.3-0.6,0.4c-0.2,0.1-0.5,0.1-0.8,0.1c-0.4,0-0.8-0.1-1.1-0.2
			c-0.3-0.2-0.5-0.4-0.7-0.8c-0.2-0.4-0.3-0.9-0.4-1.6c-0.1-0.7-0.1-1.5-0.1-2.5c0-0.8,0-1.5,0.1-2.1c0.1-0.6,0.2-1.1,0.4-1.5
			c0.2-0.4,0.4-0.7,0.7-0.9s0.7-0.3,1.2-0.3c0.3,0,0.5,0,0.8,0.1c0.2,0.1,0.4,0.2,0.6,0.3c0.2,0.2,0.3,0.4,0.5,0.6
			c0.1,0.3,0.2,0.6,0.3,1c0.1,0.4,0.1,0.8,0.2,1.3c0,0.5,0.1,1.1,0.1,1.8C128,111.1,128,111.6,128,112.1z"/>
		<path class="st0" d="M143,111.7c-0.3-0.3-0.6-0.6-1-0.8c-0.4-0.3-0.8-0.5-1.3-0.7c0.4-0.2,0.8-0.4,1.1-0.7
			c0.3-0.3,0.6-0.5,0.8-0.8c0.2-0.3,0.4-0.6,0.5-0.9c0.1-0.3,0.2-0.6,0.2-1c0-0.5-0.1-1-0.3-1.4c-0.2-0.4-0.5-0.8-0.9-1.1
			c-0.4-0.3-0.9-0.5-1.5-0.7c-0.6-0.2-1.4-0.2-2.2-0.2c-0.9,0-1.6,0.1-2.3,0.3c-0.7,0.2-1.2,0.4-1.7,0.8c-0.4,0.3-0.8,0.7-1,1.2
			c-0.2,0.5-0.3,1-0.3,1.5c0,0.4,0.1,0.7,0.2,1.1c0.1,0.3,0.3,0.6,0.5,0.9c0.2,0.3,0.5,0.5,0.8,0.8c0.3,0.2,0.7,0.5,1.1,0.7
			c-0.5,0.2-1,0.5-1.4,0.8c-0.4,0.3-0.7,0.5-1,0.8c-0.3,0.3-0.5,0.6-0.6,1c-0.1,0.3-0.2,0.7-0.2,1.1c0,0.6,0.1,1.1,0.3,1.6
			c0.2,0.4,0.6,0.8,1,1.1c0.5,0.3,1,0.5,1.7,0.7c0.7,0.2,1.5,0.2,2.3,0.2c0.9,0,1.8-0.1,2.5-0.3c0.7-0.2,1.3-0.4,1.8-0.8
			c0.5-0.3,0.8-0.8,1.1-1.3c0.2-0.5,0.4-1.1,0.4-1.7c0-0.4-0.1-0.8-0.2-1.1C143.4,112.3,143.2,112,143,111.7z M136.7,105.7
			c0.3-0.3,0.8-0.4,1.5-0.4c0.3,0,0.6,0,0.9,0.1c0.3,0.1,0.5,0.2,0.6,0.3c0.2,0.1,0.3,0.3,0.4,0.5c0.1,0.2,0.1,0.4,0.1,0.7
			c0,0.4-0.2,0.8-0.5,1.2c-0.3,0.4-0.8,0.7-1.4,1c-0.4-0.2-0.7-0.4-1-0.5c-0.3-0.2-0.5-0.3-0.7-0.5c-0.2-0.2-0.3-0.4-0.4-0.6
			c-0.1-0.2-0.1-0.4-0.1-0.6C136.2,106.4,136.4,106,136.7,105.7z M140,115.2c-0.4,0.3-1,0.5-1.8,0.5c-0.8,0-1.4-0.1-1.8-0.4
			c-0.4-0.3-0.6-0.7-0.6-1.3c0-0.3,0-0.5,0.1-0.7c0.1-0.2,0.2-0.4,0.4-0.6s0.4-0.4,0.7-0.6c0.3-0.2,0.6-0.4,1-0.5
			c0.4,0.2,0.8,0.4,1.1,0.6c0.3,0.2,0.6,0.4,0.8,0.6c0.2,0.2,0.4,0.4,0.5,0.6c0.1,0.2,0.2,0.5,0.2,0.7
			C140.6,114.4,140.4,114.9,140,115.2z"/>
	</g>
	<path class="st0" d="M77.5,50.4l-1.7-28.6H65.2L50.1,50.4h7.5l3.8-7.6h7.6v7.6H77.5z M63.7,38.2l5.2-10.3v10.3H63.7z"/>
</g>
</svg>
