<?xml version="1.0" encoding="utf-8"?>
<!-- Generator: Adobe Illustrator 19.2.1, SVG Export Plug-In . SVG Version: 6.00 Build 0)  -->
<svg version="1.1" id="Layer_1" xmlns="http://www.w3.org/2000/svg" xmlns:xlink="http://www.w3.org/1999/xlink" x="0px" y="0px"
	 viewBox="0 0 299.1 118.3" style="enable-background:new 0 0 299.1 118.3;" xml:space="preserve">
<style type="text/css">
	.st0{fill:#FFFFFF;stroke:#FFFFFF;stroke-width:0.2;stroke-miterlimit:10;}
	.st1{fill:#FFFFFF;}
</style>
<g>
	<g>
		<path class="st0" d="M175.4,111.3c-0.3,0.5-0.6,0.9-1,1.2c-0.4,0.3-0.9,0.6-1.4,0.8c-0.5,0.2-1,0.3-1.6,0.3
			c-0.6,0-1.1-0.1-1.5-0.3c-0.4-0.2-0.8-0.5-1.1-0.8c-0.3-0.3-0.5-0.8-0.6-1.2c-0.1-0.5-0.1-1,0-1.6l1.2-6.7
			c0.1-0.6,0.3-1.1,0.6-1.6c0.3-0.5,0.6-0.9,1-1.2c0.4-0.3,0.9-0.6,1.4-0.8c0.5-0.2,1-0.3,1.6-0.3s1.1,0.1,1.5,0.3
			c0.4,0.2,0.8,0.5,1.1,0.8c0.3,0.3,0.5,0.8,0.6,1.2s0.1,1,0,1.6l-1.2,6.7C175.9,110.3,175.7,110.8,175.4,111.3z M175.7,103.1
			c0.1-0.8,0-1.4-0.3-2c-0.3-0.5-0.9-0.8-1.7-0.8c-0.8,0-1.5,0.3-2,0.8c-0.5,0.5-0.8,1.2-1,2l-1.2,6.5c-0.1,0.8,0,1.4,0.3,2
			c0.3,0.5,0.9,0.8,1.7,0.8c0.8,0,1.5-0.3,2-0.8c0.5-0.5,0.8-1.2,1-2L175.7,103.1z"/>
		<path class="st0" d="M186.2,111.2c-0.3,0.5-0.7,0.9-1.1,1.3c-0.4,0.4-0.9,0.6-1.5,0.8c-0.6,0.2-1.1,0.3-1.7,0.3
			c-0.6,0-1.1-0.1-1.6-0.3c-0.5-0.2-0.9-0.5-1.2-0.8c-0.3-0.4-0.5-0.8-0.7-1.3c-0.1-0.5-0.1-1,0-1.7c0.1-0.8,0.5-1.6,1-2.1
			c0.5-0.6,1.1-1,1.8-1.4c-0.5-0.3-0.9-0.7-1.1-1.3c-0.3-0.5-0.3-1.2-0.2-1.9c0.1-0.6,0.3-1.1,0.6-1.5c0.3-0.5,0.6-0.9,1-1.2
			c0.4-0.3,0.9-0.6,1.4-0.8c0.5-0.2,1.1-0.3,1.6-0.3s1.1,0.1,1.5,0.3c0.5,0.2,0.8,0.5,1.1,0.8c0.3,0.3,0.5,0.7,0.6,1.2
			c0.1,0.5,0.1,1,0,1.5c-0.1,0.7-0.4,1.4-0.8,1.9c-0.4,0.5-1,0.9-1.6,1.3c0.5,0.3,1,0.8,1.3,1.4c0.3,0.6,0.4,1.3,0.2,2.1
			C186.7,110.2,186.5,110.7,186.2,111.2z M185.3,108.5c-0.1-0.3-0.2-0.6-0.4-0.9c-0.2-0.3-0.5-0.5-0.8-0.6c-0.3-0.1-0.7-0.2-1.1-0.2
			c-0.4,0-0.8,0.1-1.1,0.2c-0.4,0.1-0.7,0.3-1,0.6c-0.3,0.3-0.5,0.6-0.7,0.9c-0.2,0.3-0.3,0.7-0.4,1.1c-0.1,0.4-0.1,0.8,0,1.1
			c0.1,0.3,0.2,0.6,0.4,0.9c0.2,0.3,0.5,0.5,0.8,0.6c0.3,0.1,0.7,0.2,1.1,0.2s0.8-0.1,1.1-0.2c0.4-0.1,0.7-0.3,1-0.6
			c0.3-0.3,0.5-0.6,0.7-0.9c0.2-0.3,0.3-0.7,0.4-1.1C185.4,109.2,185.4,108.8,185.3,108.5z M185.9,101.1c-0.4-0.5-0.9-0.7-1.7-0.7
			c-0.7,0-1.4,0.2-1.9,0.7c-0.5,0.5-0.9,1.1-1,1.8c-0.1,0.8,0,1.4,0.4,1.8c0.4,0.5,0.9,0.7,1.7,0.7c0.7,0,1.4-0.2,1.9-0.7
			c0.5-0.5,0.9-1.1,1-1.8C186.4,102.2,186.3,101.6,185.9,101.1z"/>
		<path class="st0" d="M196.4,111.3c-0.3,0.5-0.6,0.9-1,1.2c-0.4,0.3-0.9,0.6-1.4,0.8c-0.5,0.2-1,0.3-1.6,0.3
			c-0.6,0-1.1-0.1-1.5-0.3c-0.4-0.2-0.8-0.5-1.1-0.8c-0.3-0.3-0.5-0.8-0.6-1.2c-0.1-0.5-0.1-1,0-1.6l1.2-6.7
			c0.1-0.6,0.3-1.1,0.6-1.6s0.6-0.9,1-1.2c0.4-0.3,0.9-0.6,1.4-0.8c0.5-0.2,1-0.3,1.6-0.3c0.6,0,1.1,0.1,1.5,0.3
			c0.4,0.2,0.8,0.5,1.1,0.8c0.3,0.3,0.5,0.8,0.6,1.2s0.1,1,0,1.6l-1.2,6.7C196.9,110.3,196.7,110.8,196.4,111.3z M196.7,103.1
			c0.1-0.8,0-1.4-0.3-2c-0.3-0.5-0.9-0.8-1.7-0.8c-0.8,0-1.5,0.3-2,0.8c-0.5,0.5-0.8,1.2-1,2l-1.2,6.5c-0.1,0.8,0,1.4,0.3,2
			c0.3,0.5,0.9,0.8,1.7,0.8c0.8,0,1.5-0.3,2-0.8c0.5-0.5,0.8-1.2,1-2L196.7,103.1z"/>
		<path class="st0" d="M206.9,111.3c-0.3,0.5-0.6,0.9-1,1.2c-0.4,0.3-0.9,0.6-1.4,0.8c-0.5,0.2-1,0.3-1.6,0.3
			c-0.6,0-1.1-0.1-1.5-0.3c-0.4-0.2-0.8-0.5-1.1-0.8c-0.3-0.3-0.5-0.8-0.6-1.2c-0.1-0.5-0.1-1,0-1.6l1.2-6.7
			c0.1-0.6,0.3-1.1,0.6-1.6c0.3-0.5,0.6-0.9,1-1.2c0.4-0.3,0.9-0.6,1.4-0.8c0.5-0.2,1-0.3,1.6-0.3c0.6,0,1.1,0.1,1.5,0.3
			c0.4,0.2,0.8,0.5,1.1,0.8c0.3,0.3,0.5,0.8,0.6,1.2c0.1,0.5,0.1,1,0,1.6l-1.2,6.7C207.4,110.3,207.2,110.8,206.9,111.3z
			 M207.2,103.1c0.1-0.8,0-1.4-0.3-2c-0.3-0.5-0.9-0.8-1.7-0.8c-0.8,0-1.5,0.3-2,0.8c-0.5,0.5-0.8,1.2-1,2l-1.2,6.5
			c-0.1,0.8,0,1.4,0.3,2c0.3,0.5,0.9,0.8,1.7,0.8c0.8,0,1.5-0.3,2-0.8c0.5-0.5,0.8-1.2,1-2L207.2,103.1z"/>
		<path class="st0" d="M222.5,111.3c-0.3,0.5-0.6,0.9-1,1.2c-0.4,0.3-0.9,0.6-1.4,0.8c-0.5,0.2-1,0.3-1.6,0.3
			c-0.6,0-1.1-0.1-1.5-0.3c-0.4-0.2-0.8-0.5-1.1-0.8c-0.3-0.3-0.5-0.8-0.6-1.2c-0.1-0.5-0.1-1,0-1.6l1.2-6.7
			c0.1-0.6,0.3-1.1,0.6-1.6s0.6-0.9,1-1.2c0.4-0.3,0.9-0.6,1.4-0.8c0.5-0.2,1-0.3,1.6-0.3c0.6,0,1.1,0.1,1.5,0.3
			c0.4,0.2,0.8,0.5,1.1,0.8c0.3,0.3,0.5,0.8,0.6,1.2s0.1,1,0,1.6l-1.2,6.7C222.9,110.3,222.7,110.8,222.5,111.3z M222.8,103.1
			c0.1-0.8,0-1.4-0.3-2c-0.3-0.5-0.9-0.8-1.7-0.8c-0.8,0-1.5,0.3-2,0.8c-0.5,0.5-0.8,1.2-1,2l-1.2,6.5c-0.1,0.8,0,1.4,0.3,2
			c0.3,0.5,0.9,0.8,1.7,0.8c0.8,0,1.5-0.3,2-0.8c0.5-0.5,0.8-1.2,1-2L222.8,103.1z"/>
		<path class="st0" d="M225.1,113.5l0.2-1.3l6.9-7.2c0.3-0.3,0.6-0.7,0.8-1c0.2-0.3,0.3-0.7,0.4-1.1c0.1-0.8,0-1.4-0.3-1.9
			c-0.4-0.5-0.9-0.7-1.7-0.7c-0.3,0-0.7,0-1,0.1c-0.3,0.1-0.6,0.2-0.9,0.5c-0.3,0.2-0.5,0.5-0.7,0.8c-0.2,0.3-0.3,0.7-0.4,1.2h-1.5
			c0.1-0.6,0.3-1.1,0.6-1.6c0.3-0.5,0.6-0.9,1-1.2c0.4-0.3,0.9-0.6,1.4-0.8c0.5-0.2,1.1-0.3,1.7-0.3c0.6,0,1.1,0.1,1.6,0.3
			c0.5,0.2,0.8,0.4,1.1,0.8c0.3,0.3,0.5,0.7,0.6,1.2c0.1,0.5,0.1,1,0,1.6c-0.1,0.6-0.3,1.1-0.5,1.5c-0.3,0.4-0.6,0.9-1.1,1.4
			l-6.1,6.4h6.2l-0.2,1.3H225.1z"/>
		<path class="st0" d="M235.6,113.5l0.2-1.3l6.9-7.2c0.3-0.3,0.6-0.7,0.8-1c0.2-0.3,0.3-0.7,0.4-1.1c0.1-0.8,0-1.4-0.3-1.9
			c-0.4-0.5-0.9-0.7-1.7-0.7c-0.3,0-0.7,0-1,0.1c-0.3,0.1-0.6,0.2-0.9,0.5c-0.3,0.2-0.5,0.5-0.7,0.8c-0.2,0.3-0.3,0.7-0.4,1.2h-1.5
			c0.1-0.6,0.3-1.1,0.6-1.6c0.3-0.5,0.6-0.9,1-1.2c0.4-0.3,0.9-0.6,1.4-0.8c0.5-0.2,1.1-0.3,1.7-0.3c0.6,0,1.1,0.1,1.6,0.3
			c0.5,0.2,0.8,0.4,1.1,0.8c0.3,0.3,0.5,0.7,0.6,1.2c0.1,0.5,0.1,1,0,1.6c-0.1,0.6-0.3,1.1-0.5,1.5c-0.3,0.4-0.6,0.9-1.1,1.4
			l-6.1,6.4h6.2l-0.2,1.3H235.6z"/>
		<path class="st0" d="M254,111.3c-0.3,0.5-0.6,0.9-1,1.2c-0.4,0.3-0.9,0.6-1.4,0.8c-0.5,0.2-1,0.3-1.6,0.3c-0.6,0-1.1-0.1-1.5-0.3
			c-0.4-0.2-0.8-0.5-1.1-0.8c-0.3-0.3-0.5-0.8-0.6-1.2c-0.1-0.5-0.1-1,0-1.6l1.2-6.7c0.1-0.6,0.3-1.1,0.6-1.6c0.3-0.5,0.6-0.9,1-1.2
			c0.4-0.3,0.9-0.6,1.4-0.8c0.5-0.2,1-0.3,1.6-0.3s1.1,0.1,1.5,0.3c0.4,0.2,0.8,0.5,1.1,0.8c0.3,0.3,0.5,0.8,0.6,1.2
			c0.1,0.5,0.1,1,0,1.6l-1.2,6.7C254.5,110.3,254.3,110.8,254,111.3z M254.3,103.1c0.1-0.8,0-1.4-0.3-2c-0.3-0.5-0.9-0.8-1.7-0.8
			c-0.8,0-1.5,0.3-2,0.8c-0.5,0.5-0.8,1.2-1,2l-1.2,6.5c-0.1,0.8,0,1.4,0.3,2c0.3,0.5,0.9,0.8,1.7,0.8c0.8,0,1.5-0.3,2-0.8
			c0.5-0.5,0.8-1.2,1-2L254.3,103.1z"/>
		<path class="st0" d="M264.5,111.3c-0.3,0.5-0.6,0.9-1,1.2c-0.4,0.3-0.9,0.6-1.4,0.8c-0.5,0.2-1,0.3-1.6,0.3
			c-0.6,0-1.1-0.1-1.5-0.3c-0.4-0.2-0.8-0.5-1.1-0.8c-0.3-0.3-0.5-0.8-0.6-1.2c-0.1-0.5-0.1-1,0-1.6l1.2-6.7
			c0.1-0.6,0.3-1.1,0.6-1.6c0.3-0.5,0.6-0.9,1-1.2c0.4-0.3,0.9-0.6,1.4-0.8c0.5-0.2,1-0.3,1.6-0.3c0.6,0,1.1,0.1,1.5,0.3
			c0.4,0.2,0.8,0.5,1.1,0.8c0.3,0.3,0.5,0.8,0.6,1.2c0.1,0.5,0.1,1,0,1.6l-1.2,6.7C265,110.3,264.8,110.8,264.5,111.3z M264.8,103.1
			c0.1-0.8,0-1.4-0.3-2c-0.3-0.5-0.9-0.8-1.7-0.8c-0.8,0-1.5,0.3-2,0.8c-0.5,0.5-0.8,1.2-1,2l-1.2,6.5c-0.1,0.8,0,1.4,0.3,2
			c0.3,0.5,0.9,0.8,1.7,0.8s1.5-0.3,2-0.8c0.5-0.5,0.8-1.2,1-2L264.8,103.1z"/>
		<path class="st0" d="M275,111.3c-0.3,0.5-0.6,0.9-1,1.2c-0.4,0.3-0.9,0.6-1.4,0.8c-0.5,0.2-1,0.3-1.6,0.3c-0.6,0-1.1-0.1-1.5-0.3
			c-0.4-0.2-0.8-0.5-1.1-0.8c-0.3-0.3-0.5-0.8-0.6-1.2c-0.1-0.5-0.1-1,0-1.6l1.2-6.7c0.1-0.6,0.3-1.1,0.6-1.6s0.6-0.9,1-1.2
			c0.4-0.3,0.9-0.6,1.4-0.8c0.5-0.2,1-0.3,1.6-0.3s1.1,0.1,1.5,0.3c0.4,0.2,0.8,0.5,1.1,0.8c0.3,0.3,0.5,0.8,0.6,1.2
			c0.1,0.5,0.1,1,0,1.6l-1.2,6.7C275.5,110.3,275.3,110.8,275,111.3z M275.3,103.1c0.1-0.8,0-1.4-0.3-2c-0.3-0.5-0.9-0.8-1.7-0.8
			c-0.8,0-1.5,0.3-2,0.8c-0.5,0.5-0.8,1.2-1,2l-1.2,6.5c-0.1,0.8,0,1.4,0.3,2c0.3,0.5,0.9,0.8,1.7,0.8c0.8,0,1.5-0.3,2-0.8
			c0.5-0.5,0.8-1.2,1-2L275.3,103.1z"/>
		<path class="st0" d="M285.8,111.2c-0.3,0.5-0.7,0.9-1.1,1.3c-0.4,0.4-0.9,0.6-1.5,0.8c-0.6,0.2-1.1,0.3-1.7,0.3
			c-0.6,0-1.1-0.1-1.6-0.3c-0.5-0.2-0.9-0.5-1.2-0.8c-0.3-0.4-0.5-0.8-0.7-1.3c-0.1-0.5-0.1-1,0-1.7c0.1-0.8,0.5-1.6,1-2.1
			c0.5-0.6,1.1-1,1.8-1.4c-0.5-0.3-0.9-0.7-1.1-1.3c-0.3-0.5-0.3-1.2-0.2-1.9c0.1-0.6,0.3-1.1,0.6-1.5c0.3-0.5,0.6-0.9,1-1.2
			c0.4-0.3,0.9-0.6,1.4-0.8c0.5-0.2,1.1-0.3,1.6-0.3s1.1,0.1,1.5,0.3c0.5,0.2,0.8,0.5,1.1,0.8c0.3,0.3,0.5,0.7,0.6,1.2
			c0.1,0.5,0.1,1,0,1.5c-0.1,0.7-0.4,1.4-0.8,1.9c-0.4,0.5-1,0.9-1.6,1.3c0.5,0.3,1,0.8,1.3,1.4c0.3,0.6,0.4,1.3,0.2,2.1
			C286.3,110.2,286.1,110.7,285.8,111.2z M285,108.5c-0.1-0.3-0.2-0.6-0.4-0.9c-0.2-0.3-0.5-0.5-0.8-0.6c-0.3-0.1-0.7-0.2-1.1-0.2
			c-0.4,0-0.8,0.1-1.1,0.2c-0.4,0.1-0.7,0.3-1,0.6c-0.3,0.3-0.5,0.6-0.7,0.9c-0.2,0.3-0.3,0.7-0.4,1.1c-0.1,0.4-0.1,0.8,0,1.1
			c0.1,0.3,0.2,0.6,0.4,0.9c0.2,0.3,0.5,0.5,0.8,0.6c0.3,0.1,0.7,0.2,1.1,0.2c0.4,0,0.8-0.1,1.1-0.2c0.4-0.1,0.7-0.3,1-0.6
			c0.3-0.3,0.5-0.6,0.7-0.9c0.2-0.3,0.3-0.7,0.4-1.1C285.1,109.2,285.1,108.8,285,108.5z M285.5,101.1c-0.4-0.5-0.9-0.7-1.7-0.7
			c-0.7,0-1.4,0.2-1.9,0.7c-0.5,0.5-0.9,1.1-1,1.8c-0.1,0.8,0,1.4,0.4,1.8c0.4,0.5,0.9,0.7,1.7,0.7c0.7,0,1.4-0.2,1.9-0.7
			c0.5-0.5,0.9-1.1,1-1.8C286,102.2,285.9,101.6,285.5,101.1z"/>
	</g>
	<g>
		<g>
			<path class="st1" d="M11,113.4l-0.6-3.4H3.8L2,113.4H0.3l8.1-14.9h1.3l2.8,14.9H11z M8.8,100.7l-4.2,7.9h5.6L8.8,100.7z"/>
			<path class="st1" d="M19.5,118l1-5.8c-0.5,0.5-1,0.9-1.5,1.1c-0.5,0.2-1,0.3-1.6,0.3c-0.5,0-1-0.1-1.4-0.2
				c-0.4-0.2-0.7-0.4-1-0.7c-0.2-0.3-0.4-0.6-0.5-0.9c-0.1-0.3-0.2-0.7-0.2-1.1c0-0.4,0-0.8,0-1.2c0-0.4,0.1-0.8,0.2-1.2
				c0.1-0.4,0.2-0.8,0.3-1.2c0.1-0.4,0.2-0.8,0.4-1.2c0.2-0.4,0.3-0.7,0.6-1.1c0.2-0.3,0.5-0.6,0.8-0.9c0.3-0.3,0.7-0.5,1.2-0.7
				c0.5-0.2,1-0.2,1.5-0.2c0.6,0,1.1,0.1,1.5,0.3c0.5,0.2,0.8,0.5,1.2,1.1l0.2-1.2h1.5L21,118H19.5z M21.4,106.7
				c0-0.5,0-0.9-0.1-1.3c-0.1-0.4-0.3-0.7-0.6-0.9s-0.7-0.3-1.3-0.3c-0.6,0-1,0.1-1.4,0.3c-0.4,0.2-0.7,0.5-0.9,0.9
				c-0.2,0.4-0.4,0.8-0.6,1.3c-0.1,0.5-0.3,1-0.4,1.5c-0.1,0.5-0.1,1-0.2,1.5c0,0.5,0,0.9,0.1,1.3c0.1,0.4,0.3,0.7,0.6,0.9
				c0.3,0.2,0.7,0.3,1.3,0.3c0.6,0,1-0.1,1.4-0.3c0.4-0.2,0.7-0.5,0.9-0.9c0.2-0.4,0.4-0.8,0.6-1.3c0.1-0.5,0.3-1,0.3-1.5
				C21.3,107.7,21.4,107.2,21.4,106.7z"/>
			<path class="st1" d="M31.5,113.4l0.2-1.2c-0.4,0.4-0.9,0.7-1.5,1c-0.5,0.2-1.1,0.3-1.7,0.3c-1.1,0-2-0.3-2.5-1
				c-0.3-0.4-0.5-0.8-0.6-1.3c-0.1-0.5-0.1-1,0-1.6l1.2-6.6h1.5l-1.1,6.3c-0.2,0.9-0.1,1.6,0.3,2.1c0.4,0.5,0.9,0.7,1.7,0.7
				c0.8,0,1.4-0.2,2-0.7c0.5-0.5,0.9-1.1,1.1-2.1l1.1-6.3h1.5L33,113.4H31.5z"/>
			<path class="st1" d="M36.2,113.4L38,103h1.5l-1.8,10.3H36.2z M38.4,100.1l0.3-1.7h1.7l-0.3,1.7H38.4z"/>
			<path class="st1" d="M48.9,113.4h-1.3l-2-10.3h1.6l1.3,8.3l4.3-8.3h1.6L48.9,113.4z"/>
			<path class="st1" d="M62.2,110.5c-0.3,0.7-0.7,1.3-1.3,1.9c-0.4,0.4-0.9,0.6-1.4,0.9c-0.5,0.2-1.1,0.3-1.7,0.3
				c-0.6,0-1.2-0.1-1.6-0.3c-0.5-0.2-0.8-0.5-1.1-0.9c-0.2-0.3-0.4-0.6-0.5-0.9c-0.1-0.3-0.2-0.6-0.2-1c0-0.3,0-0.7,0-1.1
				c0-0.4,0.1-0.8,0.2-1.2c0.1-0.4,0.2-0.8,0.3-1.2c0.1-0.4,0.2-0.7,0.4-1.1c0.2-0.3,0.3-0.7,0.6-1c0.2-0.3,0.5-0.6,0.8-0.9
				c0.4-0.4,0.9-0.6,1.4-0.9c0.5-0.2,1.1-0.3,1.7-0.3s1.2,0.1,1.6,0.3c0.5,0.2,0.8,0.5,1.1,0.9c0.4,0.5,0.7,1.1,0.7,1.9
				c0,0.7,0,1.5-0.2,2.3C62.7,109,62.4,109.8,62.2,110.5z M61.4,107.3c0-0.3,0.1-0.6,0-0.9c0-0.3,0-0.5-0.1-0.8
				c-0.1-0.2-0.2-0.5-0.3-0.7c-0.4-0.5-1-0.8-1.8-0.8c-0.7,0-1.4,0.3-2,0.8c-0.2,0.2-0.4,0.4-0.6,0.7c-0.1,0.2-0.3,0.5-0.4,0.8
				c-0.1,0.3-0.2,0.6-0.3,0.9c-0.1,0.3-0.1,0.6-0.2,0.9c-0.1,0.3-0.1,0.6-0.1,0.9c0,0.3,0,0.6,0,0.9c0,0.3,0.1,0.5,0.1,0.8
				c0.1,0.3,0.2,0.5,0.3,0.7c0.4,0.5,1,0.8,1.7,0.8c0.8,0,1.4-0.3,2-0.8c0.2-0.2,0.4-0.4,0.6-0.7c0.2-0.3,0.3-0.5,0.4-0.8
				c0.1-0.3,0.2-0.6,0.3-0.9c0.1-0.3,0.1-0.6,0.2-0.9C61.3,107.9,61.4,107.6,61.4,107.3z"/>
			<path class="st1" d="M70.4,113.2c-0.6,0.2-1.2,0.3-1.9,0.3c-0.7,0-1.2-0.1-1.8-0.3c-0.5-0.2-0.9-0.5-1.3-1
				c-0.3-0.4-0.6-1-0.7-1.7c-0.1-0.7-0.1-1.4,0.1-2.3c0.2-0.9,0.4-1.7,0.8-2.3c0.3-0.7,0.8-1.2,1.3-1.6c0.5-0.4,1-0.8,1.6-1
				c0.6-0.2,1.2-0.3,1.9-0.3c0.7,0,1.3,0.1,1.8,0.3c0.5,0.2,0.9,0.6,1.4,1.2l-1.2,1c-0.3-0.4-0.6-0.7-1-0.9
				c-0.3-0.2-0.7-0.3-1.2-0.3c-0.5,0-1,0.1-1.4,0.3c-0.4,0.2-0.8,0.5-1.2,0.9c-0.3,0.3-0.5,0.7-0.7,1.1c-0.2,0.4-0.3,1-0.4,1.6
				c-0.1,0.7-0.2,1.2-0.1,1.6s0.1,0.8,0.3,1.1c0.2,0.4,0.5,0.7,0.9,0.9c0.4,0.2,0.8,0.3,1.3,0.3c0.5,0,0.9-0.1,1.3-0.3
				c0.4-0.2,0.8-0.5,1.3-0.9l0.9,1C71.5,112.5,70.9,112.9,70.4,113.2z"/>
			<path class="st1" d="M75.6,108.6c-0.2,1.1-0.1,2,0.3,2.6c0.4,0.6,1.1,0.9,2.1,0.9c0.6,0,1.1-0.1,1.5-0.3c0.4-0.2,0.9-0.5,1.4-0.9
				l0.9,0.9c-0.3,0.3-0.6,0.5-0.9,0.7c-0.3,0.2-0.6,0.4-0.9,0.5c-0.3,0.1-0.7,0.2-1,0.3c-0.4,0.1-0.8,0.1-1.2,0.1
				c-0.7,0-1.3-0.1-1.8-0.3c-0.5-0.2-0.9-0.5-1.2-1c-0.3-0.4-0.5-1-0.6-1.6c-0.1-0.7-0.1-1.4,0.1-2.4c0.3-1.7,0.9-3,1.8-3.9
				c0.9-0.9,2-1.4,3.3-1.4c1.3,0,2.3,0.4,2.9,1.3c0.6,0.9,0.7,2.1,0.5,3.6l-0.1,0.7H75.6z M81.3,106.9c0-0.2,0-0.3,0-0.4
				c0-0.1,0-0.2,0-0.4c0-0.1,0-0.2-0.1-0.4c-0.1-0.5-0.4-0.9-0.7-1.1c-0.4-0.3-0.8-0.4-1.4-0.4c-0.5,0-1.1,0.1-1.5,0.4
				c-0.5,0.3-0.9,0.7-1.1,1.1c-0.2,0.3-0.3,0.5-0.4,0.8c-0.1,0.2-0.2,0.5-0.3,1h5.4C81.3,107.3,81.3,107.1,81.3,106.9z M81.7,100.9
				l-1.5-2.2l-2.3,2.2h-1.4l3.2-3.2h1.4l2.1,3.2H81.7z"/>
			<path class="st1" d="M91.9,113.4c-0.4,0-0.8-0.1-1.1-0.2c-0.3-0.1-0.5-0.3-0.7-0.6c-0.2-0.3-0.3-0.5-0.3-0.9
				c-0.1-0.3,0-0.7,0-1.1l1.1-6.3h-1.3l0.2-1.2H91l0.6-3.2h1.5l-0.6,3.2h2.2l-0.2,1.2h-2.2l-1.1,6.3c-0.1,0.5,0,0.8,0.1,1.1
				c0.2,0.3,0.5,0.4,1,0.4h0.8l-0.2,1.3H91.9z"/>
			<path class="st1" d="M96.9,108.6c-0.2,1.1-0.1,2,0.3,2.6c0.4,0.6,1.1,0.9,2.1,0.9c0.6,0,1.1-0.1,1.5-0.3c0.4-0.2,0.9-0.5,1.4-0.9
				l0.9,0.9c-0.3,0.3-0.6,0.5-0.9,0.7c-0.3,0.2-0.6,0.4-0.9,0.5c-0.3,0.1-0.7,0.2-1,0.3c-0.4,0.1-0.8,0.1-1.2,0.1
				c-0.7,0-1.3-0.1-1.8-0.3c-0.5-0.2-0.9-0.5-1.2-1c-0.3-0.4-0.5-1-0.6-1.6c-0.1-0.7-0.1-1.4,0.1-2.4c0.3-1.7,0.9-3,1.8-3.9
				c0.9-0.9,2-1.4,3.3-1.4c1.3,0,2.3,0.4,2.9,1.3c0.6,0.9,0.7,2.1,0.5,3.6l-0.1,0.7H96.9z M102.6,106.9c0-0.2,0-0.3,0-0.4
				c0-0.1,0-0.2,0-0.4c0-0.1,0-0.2-0.1-0.4c-0.1-0.5-0.4-0.9-0.7-1.1c-0.4-0.3-0.8-0.4-1.4-0.4s-1.1,0.1-1.5,0.4
				c-0.5,0.3-0.9,0.7-1.1,1.1c-0.2,0.3-0.3,0.5-0.4,0.8c-0.1,0.2-0.2,0.5-0.3,1h5.4C102.6,107.3,102.6,107.1,102.6,106.9z"/>
			<path class="st1" d="M118.9,113.4l1.1-6.3c0.2-0.9,0.1-1.6-0.3-2.1c-0.4-0.5-1-0.7-1.7-0.7c-0.8,0-1.4,0.2-2,0.7
				c-0.6,0.4-0.9,1.1-1.1,1.9l-1.1,6.5h-1.5l1.1-6.3c0.2-0.9,0.1-1.6-0.3-2.1c-0.4-0.5-1-0.7-1.7-0.7c-0.8,0-1.4,0.2-2,0.7
				c-0.6,0.5-0.9,1.1-1.1,2.1l-1.1,6.3h-1.5l1.8-10.3h1.5l-0.2,1.1c0.4-0.4,0.9-0.7,1.5-0.9c0.5-0.2,1.1-0.3,1.7-0.3
				c0.7,0,1.3,0.1,1.8,0.4c0.5,0.3,0.8,0.7,1.1,1.3c1-1.1,2.2-1.7,3.7-1.7c0.6,0,1,0.1,1.5,0.3c0.4,0.2,0.8,0.4,1,0.7
				c0.6,0.7,0.8,1.7,0.6,2.9l-1.2,6.6H118.9z"/>
			<path class="st1" d="M131.5,113.4h-1.3l-2-10.3h1.6l1.3,8.3l4.3-8.3h1.6L131.5,113.4z"/>
			<path class="st1" d="M144.8,110.5c-0.3,0.7-0.7,1.3-1.3,1.9c-0.4,0.4-0.9,0.6-1.4,0.9c-0.5,0.2-1.1,0.3-1.7,0.3
				c-0.6,0-1.2-0.1-1.6-0.3c-0.5-0.2-0.8-0.5-1.1-0.9c-0.2-0.3-0.4-0.6-0.5-0.9c-0.1-0.3-0.2-0.6-0.2-1c0-0.3,0-0.7,0-1.1
				c0-0.4,0.1-0.8,0.2-1.2c0.1-0.4,0.2-0.8,0.3-1.2c0.1-0.4,0.2-0.7,0.4-1.1c0.2-0.3,0.3-0.7,0.6-1c0.2-0.3,0.5-0.6,0.8-0.9
				c0.4-0.4,0.9-0.6,1.4-0.9c0.5-0.2,1.1-0.3,1.7-0.3c0.6,0,1.2,0.1,1.6,0.3c0.5,0.2,0.8,0.5,1.1,0.9c0.4,0.5,0.7,1.1,0.7,1.9
				c0,0.7,0,1.5-0.2,2.3C145.3,109,145,109.8,144.8,110.5z M144,107.3c0-0.3,0.1-0.6,0-0.9c0-0.3,0-0.5-0.1-0.8
				c-0.1-0.2-0.2-0.5-0.3-0.7c-0.4-0.5-1-0.8-1.8-0.8c-0.7,0-1.4,0.3-2,0.8c-0.2,0.2-0.4,0.4-0.6,0.7c-0.1,0.2-0.3,0.5-0.4,0.8
				c-0.1,0.3-0.2,0.6-0.3,0.9c-0.1,0.3-0.1,0.6-0.2,0.9c-0.1,0.3-0.1,0.6-0.1,0.9c0,0.3,0,0.6,0,0.9c0,0.3,0.1,0.5,0.1,0.8
				c0.1,0.3,0.2,0.5,0.3,0.7c0.4,0.5,1,0.8,1.7,0.8c0.8,0,1.4-0.3,2-0.8c0.2-0.2,0.4-0.4,0.6-0.7c0.2-0.3,0.3-0.5,0.4-0.8
				c0.1-0.3,0.2-0.6,0.3-0.9c0.1-0.3,0.1-0.6,0.2-0.9C143.9,107.9,144,107.6,144,107.3z"/>
			<path class="st1" d="M146.3,113.4l0.2-1.3l7.1-7.7h-5.4l0.2-1.3h7.2l-0.2,1.3l-7.1,7.7h5.8l-0.2,1.3H146.3z"/>
			<path class="st1" d="M156.1,113.4l0.3-2h2l-0.3,2H156.1z"/>
		</g>
	</g>
	<path class="st1" d="M69.1,76.7L66.7,63c-0.1-0.6-0.6-1-1.3-1H36.9c-0.5,0-0.9,0.3-1.1,0.7L28.1,77c-0.2,0.4-0.7,0.7-1.1,0.7h-5
		c-1,0-1.6-1-1.1-1.9L57.4,8.7C57.6,8.3,58,8,58.5,8h4.5c0.6,0,1.1,0.4,1.2,1L77,76.2c0.1,0.8-0.5,1.5-1.2,1.5h-5.3
		C69.8,77.7,69.2,77.3,69.1,76.7z M57.3,22L40.5,53.6c-0.5,0.8,0.2,1.9,1.1,1.9H64c0.8,0,1.4-0.7,1.3-1.5l-5.5-31.7
		C59.5,21.2,57.9,20.9,57.3,22z"/>
	<path class="st1" d="M92.8,77.7c-4.2,0-7.1-1.2-8.6-3.7c-1.5-2.4-2-5.5-1.3-9.2L92.7,9C92.8,8.4,93.3,8,93.8,8h4.7
		c0.7,0,1.2,0.6,1.1,1.3l-9.7,55.2c-0.4,2.3-0.3,4.1,0.4,5.3c0.7,1.2,2.3,1.8,4.8,1.8h2.5c0.7,0,1.2,0.6,1.1,1.3l-0.7,3.8
		c-0.1,0.5-0.6,0.9-1.1,0.9H92.8z"/>
	<path class="st1" d="M140.3,64.2c-1.3,3.3-3.4,6.2-6.3,8.7c-2,1.7-4.2,3-6.7,4c-2.5,1-5.2,1.5-8.1,1.5s-5.5-0.5-7.6-1.5
		c-2.1-1-3.9-2.3-5.3-4c-1-1.2-1.8-2.6-2.3-4.1c-0.5-1.5-0.8-3-1-4.6c-0.1-1.6-0.1-3.3,0-5c0.1-1.8,0.4-3.6,0.7-5.5
		c0.3-1.8,0.7-3.6,1.2-5.4c0.5-1.8,1.1-3.5,1.8-5.1c0.7-1.6,1.6-3.1,2.6-4.6c1-1.5,2.2-2.8,3.7-4.1c2-1.7,4.2-3,6.7-4
		c2.5-1,5.2-1.5,8.1-1.5c2.9,0,5.5,0.5,7.6,1.5c2.1,1,3.9,2.3,5.3,4c2,2.5,3,5.4,3.2,8.7c0.2,3.3-0.1,6.8-0.7,10.5
		C142.7,57.4,141.7,60.9,140.3,64.2z M136.9,49.5c0.2-1.4,0.2-2.7,0.2-4c0-1.3-0.2-2.5-0.5-3.7c-0.3-1.1-0.8-2.2-1.5-3.1
		c-1.9-2.3-4.7-3.5-8.2-3.5c-3.5,0-6.6,1.2-9.3,3.5c-1.1,0.9-2,1.9-2.6,3.1c-0.7,1.1-1.3,2.4-1.8,3.7c-0.5,1.3-0.9,2.6-1.2,4
		c-0.3,1.4-0.6,2.7-0.8,4.1c-0.2,1.4-0.5,2.7-0.6,4.1c-0.2,1.4-0.2,2.7-0.2,4c0.1,1.3,0.2,2.5,0.5,3.7c0.3,1.2,0.8,2.2,1.6,3
		c1.9,2.3,4.6,3.5,8.1,3.5c3.5,0,6.7-1.2,9.4-3.5c1-0.8,1.9-1.9,2.6-3c0.7-1.2,1.3-2.4,1.8-3.7c0.5-1.3,0.9-2.6,1.2-4
		c0.3-1.4,0.6-2.7,0.8-4.1C136.5,52.3,136.7,50.9,136.9,49.5z"/>
	<path class="st1" d="M175.2,77.3l-1.2-7.2c-0.1-0.4-0.4-0.7-0.8-0.7h-13.6c-0.3,0-0.6,0.2-0.7,0.5l-4,7.7c-0.1,0.3-0.4,0.4-0.7,0.4
		h-4.8c-0.6,0-1-0.7-0.7-1.2l20.7-38.3c0.1-0.3,0.4-0.4,0.7-0.4h3.7c0.4,0,0.8,0.3,0.8,0.7l7.1,38.3c0.1,0.5-0.3,1-0.8,1H176
		C175.6,78,175.3,77.7,175.2,77.3z M172.8,62.8l-2.1-12.3c-0.1-0.8-1.2-1-1.6-0.3l-6.5,12.3c-0.3,0.6,0.1,1.2,0.7,1.2h8.5
		C172.5,63.8,172.9,63.4,172.8,62.8z"/>
	<path class="st1" d="M183.9,77l6.8-38.3c0.1-0.4,0.4-0.7,0.8-0.7h4.4c0.5,0,0.9,0.5,0.8,1l-5.7,32.3c-0.1,0.5,0.3,1,0.8,1H209
		c0.5,0,0.9,0.5,0.8,1l-0.7,4.1c-0.1,0.4-0.4,0.7-0.8,0.7h-23.5C184.2,78,183.8,77.6,183.9,77z"/>
	<path class="st1" d="M211.9,77l6.8-38.3c0.1-0.4,0.4-0.7,0.8-0.7h23.6c0.5,0,0.9,0.5,0.8,1l-0.7,4.1c-0.1,0.4-0.4,0.7-0.8,0.7
		h-17.8c-0.4,0-0.8,0.3-0.8,0.7l-1.7,9.6c-0.1,0.5,0.3,1,0.8,1h14.4c0.5,0,0.9,0.5,0.8,1l-0.7,4.1c-0.1,0.4-0.4,0.7-0.8,0.7h-14.9
		c-0.4,0-0.8,0.3-0.8,0.7l-1.7,9.9c-0.1,0.5,0.3,1,0.8,1H237c0.5,0,0.9,0.5,0.8,1l-0.7,4.1c-0.1,0.4-0.4,0.7-0.8,0.7h-23.6
		C212.2,78,211.8,77.6,211.9,77z"/>
	<path class="st1" d="M261.4,77.5l-5.1-15.7c-0.1-0.3-0.4-0.6-0.8-0.6h-6c-0.4,0-0.8,0.3-0.8,0.7l-2.7,15.4
		c-0.1,0.4-0.4,0.7-0.8,0.7h-4.4c-0.5,0-0.9-0.5-0.8-1l6.8-38.3c0.1-0.4,0.4-0.7,0.8-0.7h14.5c1.7,0,3.3,0.3,4.7,0.8
		c1.4,0.5,2.6,1.3,3.6,2.4c0.9,1,1.6,2.3,1.9,3.8c0.3,1.5,0.4,3.1,0,4.8c-0.5,3-1.8,5.5-3.8,7.4c-1.5,1.4-3.1,2.5-5,3.1
		c-0.4,0.2-0.7,0.6-0.5,1.1l5.3,15.6c0.2,0.5-0.2,1.1-0.8,1.1h-5.1C261.8,78,261.5,77.8,261.4,77.5z M258.5,55.5
		c2,0,3.6-0.5,5.1-1.5c1.4-1,2.2-2.5,2.6-4.5c0.4-2,0.1-3.4-0.8-4.3c-1-0.9-2.4-1.4-4.3-1.4h-8.4c-0.4,0-0.8,0.3-0.8,0.7l-1.8,10.1
		c-0.1,0.5,0.3,1,0.8,1H258.5z"/>
	<path class="st1" d="M279.3,78.3c-1.9,0-3.6-0.3-5-0.9c-1.4-0.6-2.7-1.6-3.8-2.9l-0.6-0.8l4.8-4.1l0.7,0.9c0.5,0.6,1,1.1,1.7,1.5
		c0.4,0.3,1.2,0.6,2.9,0.6c2.2,0,3.9-0.6,5.3-2c1.4-1.3,2.4-3.3,2.8-5.9l4.6-26.1c0.1-0.4,0.4-0.7,0.8-0.7h4.4c0.5,0,0.9,0.5,0.8,1
		L294,65.7c-0.3,1.9-1,3.7-1.9,5.3c-0.9,1.6-2,2.9-3.3,4c-1.3,1.1-2.8,1.9-4.4,2.5C282.8,78,281.1,78.3,279.3,78.3z"/>
	<path class="st1" d="M163.6,16.2c-4.1-5-9.3-9-15.3-11.8c-5.1-2.3-10.6-3.7-16.6-4c-0.5,0-1.4,0-2.2-0.1c-0.8,0-1.5,0.7-1.5,1.5
		v2.3c0,0.8,0.6,1.5,1.5,1.5c0.9,0,2,0,2.6,0.1c5.1,0.4,9.8,1.5,14,3.5c5.3,2.5,9.8,5.9,13.5,10.3c2,2.5,3.6,5.1,4.9,7.8
		c0.3,0.7,1.1,1,1.9,0.8l2.2-0.8c0.8-0.3,1.2-1.2,0.8-2C167.7,22.1,165.9,19.1,163.6,16.2z"/>
	<path class="st1" d="M156.2,22.3c-3.2-3.9-7.3-7-12-9.2c-3.6-1.7-7.6-2.7-11.8-3.1c-0.7-0.1-1.9-0.1-2.9-0.1
		c-0.8,0-1.5,0.6-1.5,1.5v2.3c0,0.8,0.6,1.5,1.4,1.5c0.9,0,1.9,0.1,2.5,0.1c3.7,0.3,7,1.2,10.1,2.6c4,1.8,7.4,4.5,10.1,7.8
		c1.3,1.6,2.4,3.3,3.3,5.1c0.3,0.7,1.1,1,1.8,0.7l2.2-0.8c0.8-0.3,1.2-1.3,0.8-2.1C159.1,26.4,157.8,24.3,156.2,22.3z"/>
	<path class="st1" d="M148.8,28.4c-2.3-2.8-5.2-5-8.6-6.6c-2.4-1.1-5.2-1.9-8.1-2.2c-0.6-0.1-1.7-0.1-2.6-0.1
		c-0.8,0-1.5,0.6-1.5,1.5v2.4c0,0.8,0.6,1.5,1.4,1.5c0.9,0,1.9,0.1,2.4,0.1c2.3,0.3,4.3,0.8,6.2,1.7c2.7,1.2,5,3,6.8,5.2
		c0.6,0.8,1.2,1.6,1.7,2.5c0.4,0.6,1.1,0.9,1.8,0.6l2.2-0.8c0.8-0.3,1.2-1.3,0.8-2.1C150.5,30.7,149.7,29.5,148.8,28.4z"/>
	<path class="st1" d="M289.5,89.1H14.7c-0.5,0-0.8-0.5-0.6-0.9l1.5-3c0.1-0.2,0.3-0.3,0.6-0.3H290c0.4,0,0.7,0.4,0.6,0.8l-0.5,3
		C290.1,88.9,289.8,89.1,289.5,89.1z"/>
</g>
</svg>
