<?xml version="1.0" encoding="utf-8"?>
<!-- Generator: Adobe Illustrator 19.1.0, SVG Export Plug-In . SVG Version: 6.00 Build 0)  -->
<svg version="1.1" id="Layer_1" xmlns="http://www.w3.org/2000/svg" xmlns:xlink="http://www.w3.org/1999/xlink" x="0px" y="0px"
	 viewBox="-245 201.8 228.2 139.2" enable-background="new -245 201.8 228.2 139.2" xml:space="preserve">
<path fill="#162C53" d="M-91.5,270c0,0,0,17.3-15,20.6c0,0,26.2,4,32.8-16.7S-91.5,270-91.5,270z"/>
<g>
	<circle fill="#162C53" cx="-59.9" cy="244.9" r="43.1"/>
	<g>
		<g enable-background="new    ">
			<path fill="#FFFFFF" d="M-72.4,253.2c-0.1,2.7-0.8,4.8-2,6.4s-2.7,2.3-4.6,2.3c-2.7,0-4.8-1.5-6.5-4.4c-1.6-2.9-2.4-7.2-2.4-12.8
				s0.8-9.9,2.4-12.9s3.6-4.5,6.1-4.5c1,0,2.2,0.3,3.4,1c0.2,0.1,0.3,0.1,0.4,0.1s0.2-0.1,0.4-0.3c0.1-0.1,0.2-0.2,0.4-0.2h1.2
				c0.3,0,0.4,0.2,0.4,0.6v7.1c0,0.4-0.1,0.6-0.4,0.6h-1c-0.3,0-0.5-0.1-0.6-0.2s-0.3-0.6-0.4-1.3c-0.9-3.3-2-5-3.5-5
				c-0.9,0-1.5,0.4-2,1.3s-0.8,2.5-1.1,4.9c-0.2,2.4-0.4,4.9-0.4,7.3c0,5.4,0.3,9.4,0.9,11.9c0.6,2.5,1.7,3.8,3.2,3.8
				c1.8,0,3-2,3.6-6.1L-72.4,253.2z"/>
			<path fill="#FFFFFF" d="M-65.7,244.8v13.5c0,0.5,0.2,0.9,0.5,1.3c0.2,0.2,0.2,0.3,0.2,0.4v1.2c0,0.2-0.1,0.3-0.3,0.3h-5.4
				c-0.2,0-0.3-0.1-0.3-0.3V260c0-0.1,0.1-0.2,0.3-0.4c0.5-0.4,0.7-0.9,0.7-1.5v-26.5c0-0.8-0.3-1.3-0.9-1.6
				c-0.3-0.1-0.4-0.3-0.4-0.6v-1.1c0-0.3,0.2-0.4,0.5-0.4l5.1-0.2v14.8c1.4-1.2,2.7-1.8,4-1.8c2.4,0,3.6,1.4,3.6,4.3v13.4
				c0,0.4,0.2,0.9,0.6,1.4c0.2,0.2,0.3,0.4,0.3,0.5v0.9c0,0.2-0.1,0.3-0.3,0.3H-63c-0.2,0-0.3-0.1-0.3-0.3V260
				c0-0.1,0.1-0.2,0.2-0.3c0.4-0.3,0.6-0.7,0.6-1.1v-13.4c0-1-0.4-1.6-1.3-1.6C-64.5,243.6-65.1,244-65.7,244.8z"/>
			<path fill="#FFFFFF" d="M-48.5,248.4v-3c0-1.8-0.7-2.7-2.1-2.7c-0.5,0-0.7,0.2-0.7,0.5c0,0.1,0,0.3,0.1,0.5
				c0.2,0.4,0.3,0.8,0.3,1.1c0,0.6-0.2,1-0.5,1.4c-0.4,0.4-0.9,0.6-1.5,0.6c-0.7,0-1.3-0.2-1.7-0.6c-0.4-0.4-0.6-1-0.6-1.7
				c0-1.1,0.5-2.1,1.5-2.8s2.2-1.1,3.5-1.1c1.9,0,3.4,0.5,4.4,1.5s1.6,2.5,1.6,4.3v10.8c0,0.6,0.1,1,0.2,1.4
				c0.1,0.3,0.4,0.5,0.8,0.6c0.3,0.1,0.5,0.3,0.5,0.6v0.9c0,0.8-0.6,1.1-1.8,1.1c-1.6,0-2.7-0.8-3.3-2.3c-1.4,1.6-2.7,2.4-4,2.4
				c-1.2,0-2.2-0.5-3-1.5s-1.2-2.3-1.2-3.9C-56,252.4-53.5,249.7-48.5,248.4z M-48.5,250.7c-2,0.8-3.1,2.4-3.1,5c0,2,0.5,3,1.6,3
				c0.5,0,0.8-0.2,1.1-0.7s0.4-1,0.4-1.5V250.7z"/>
			<path fill="#FFFFFF" d="M-41,243.4h-0.8c-0.3,0-0.5-0.1-0.5-0.4v-1.1c0-0.3,0.2-0.6,0.5-0.8c0.4-0.3,0.7-0.6,0.8-1s0.2-1,0.2-1.9
				v-3.6c0-0.3,0.2-0.5,0.7-0.6l2.6-0.3c0.2,0,0.4,0,0.5,0c0.2,0,0.3,0.2,0.3,0.5v6.9h2.2c0.4,0,0.6,0.2,0.6,0.5v1.3
				c0,0.3-0.2,0.5-0.5,0.5h-2.3v13.2c0,1.4,0.4,2.1,1.3,2.1c0.2,0,0.4,0,0.7-0.1c0.2,0,0.3-0.1,0.4-0.1c0.3,0,0.4,0.1,0.5,0.3l0.3,1
				c0,0.1,0.1,0.2,0.1,0.2c0,0.3-0.5,0.7-1.4,1.2c-1,0.5-1.9,0.7-2.7,0.7c-2.3,0-3.4-1.4-3.4-4.2L-41,243.4L-41,243.4z"/>
		</g>
	</g>
</g>
<g>
	<path fill="#162C53" d="M-208.1,340.5l-2.3-38.2H-225l-20,38.2h10.6l4.5-8.9h10.5v8.9H-208.1z M-225.6,322.9l6.5-12.7l-0.3,12.7
		H-225.6z"/>
	<polygon fill="#162C53" points="-204.5,340.5 -196.2,302.3 -185,302.3 -191.2,331.6 -177.4,331.6 -180.1,340.5 	"/>
	<polygon fill="#162C53" points="-175.6,340.5 -167.3,302.3 -143,302.3 -144.7,310.3 -156.4,310.3 -157.9,317 -147.3,317 
		-148.8,324.1 -159.4,324.1 -161.1,331.6 -148.1,331.6 -150,340.5 	"/>
	<path fill="#162C53" d="M-107.9,312.6c0.4-7.6-6.2-10.3-11.5-10.3c-5.3,0-15.2,0-15.2,0l-8.4,38.5l11.4-0.3l2.1-13.9h2.7
		c1.5,0,3.4,13.9,3.4,13.9h11.4c0,0-0.6-1.5-1.5-6.5c-0.9-4.9-3.9-9.4-3.9-9.4C-114.4,323.7-108.3,320.2-107.9,312.6z M-119.7,314.3
		c-1.3,5.2-7.9,4-7.9,4l2.1-7.9C-125.5,310.4-118.4,309.3-119.7,314.3z"/>
	<path fill="#162C53" d="M-110.8,340.5l2.6-8.9c0,0,1.7,0,3.4,0c1.7,0,3.2-0.4,4-4c0.8-3.6,5.6-25.3,5.6-25.3h11.4
		c0,0-5.3,24.7-6.3,29.3c-1,4.6-5.8,8.9-10.2,8.9C-104.8,340.5-110.8,340.5-110.8,340.5z"/>
	<polygon fill="#162C53" points="-180.2,294 -172.2,257.2 -161.9,257.2 -168.3,286.9 -154.8,286.9 -156.8,294 	"/>
	<path fill="#162C53" d="M-127.9,256.6c-6.5,0-18.7,2.5-21.3,21.7c-2.3,17.2,11,16.9,13.8,16.9c14.3,0,20.8-10.3,21.9-23.2
		C-112.3,258.4-121.5,256.6-127.9,256.6z M-125.5,275.6c-0.4,2.3-2.2,10.7-7.5,11.9c-2.1,0.4-7.2-0.1-5.6-8.1
		c1.5-8,3.9-15.4,9.8-15.6C-122.8,263.4-125.1,273.1-125.5,275.6z"/>
	<polygon fill="#162C53" points="-135.9,253.9 -129.2,253.9 -126.9,249.9 -125.5,249.9 -125.5,253.9 -116.3,253.9 -119.3,245.5 
		-129.7,245.5 	"/>
	<path fill="#162C53" d="M-185.2,294l-2.2-36.9h-13.8l-19.5,36.9h9.7l4.9-9.8h9.8v9.8H-185.2z M-203,278.3l6.7-13.3v13.3H-203z"/>
</g>
</svg>
