<?xml version="1.0" encoding="utf-8"?>
<!-- Generator: Adobe Illustrator 19.1.0, SVG Export Plug-In . SVG Version: 6.00 Build 0)  -->
<svg version="1.1" id="Layer_1" xmlns="http://www.w3.org/2000/svg" xmlns:xlink="http://www.w3.org/1999/xlink" x="0px" y="0px"
	 viewBox="0 0 52 52" enable-background="new 0 0 52 52" xml:space="preserve">
<circle fill="#172B53" cx="26" cy="26" r="25"/>
<path fill="#FFFFFF" d="M35.1,37.7L14.3,16.9c-0.7-0.7-0.7-1.9,0-2.6l0,0c0.7-0.7,1.9-0.7,2.6,0l20.9,20.9c0.7,0.7,0.7,1.9,0,2.6
	l0,0C37,38.4,35.9,38.4,35.1,37.7z"/>
<path fill="#FFFFFF" d="M16.9,37.7l20.9-20.9c0.7-0.7,0.7-1.9,0-2.6l0,0c-0.7-0.7-1.9-0.7-2.6,0L14.3,35.1c-0.7,0.7-0.7,1.9,0,2.6
	l0,0C15,38.4,16.1,38.4,16.9,37.7z"/>
</svg>
